<?xml version="1.0" encoding="UTF-8"?>
<svg version="1.1" xmlns="http://www.w3.org/2000/svg" width="562" height="565">
<path d="M0 0 C0.92425781 0.350625 1.84851563 0.70125 2.80078125 1.0625 C5.2194966 2.002092 7.6121118 2.98493951 10 4 C10.69867188 4.29390625 11.39734375 4.5878125 12.1171875 4.890625 C22.00487324 9.16442323 32.15969078 13.81178355 41 20 C41 20.66 41 21.32 41 22 C41.53109375 22.07347656 42.0621875 22.14695313 42.609375 22.22265625 C45.95471004 23.31043676 48.48905947 25.32716388 51.25 27.4375 C51.80429687 27.84548828 52.35859375 28.25347656 52.9296875 28.67382812 C54.32810909 29.72953309 55.66950652 30.85987587 57 32 C57 32.66 57 33.32 57 34 C57.556875 34.04125 58.11375 34.0825 58.6875 34.125 C61.55948991 35.21169889 62.74191736 36.95289666 64.58984375 39.33203125 C66.06180474 41.07310423 67.61065183 42.43431302 69.375 43.875 C76.13675785 49.50979821 82.04657334 56.7430041 87 64 C87 64.66 87 65.32 87 66 C87.66 66 88.32 66 89 66 C99.25357635 80.13862446 107.94825293 97.29924714 113 114 C113.19770996 114.63615234 113.39541992 115.27230469 113.59912109 115.92773438 C116.35503285 124.87175456 118.53807311 133.2629771 118.76171875 142.69140625 C118.95819458 145.41952144 119.35804324 147.67214986 120.00390625 150.3046875 C121.12700778 155.09991285 121.30526392 159.65225217 121.25 164.5625 C121.24202393 165.86296265 121.24202393 165.86296265 121.23388672 167.18969727 C121.11712222 175.24718647 120.22345341 183.03905662 119 191 C118.855625 192.09441406 118.71125 193.18882812 118.5625 194.31640625 C116.23490231 211.25383586 111.40153167 227.59025374 104 243 C103.34 243 102.68 243 102 243 C101.91878906 243.84175781 101.83757812 244.68351563 101.75390625 245.55078125 C100.86563894 249.61471924 99.11734299 252.70868168 96.9375 256.1875 C96.53845459 256.83662354 96.13940918 257.48574707 95.72827148 258.15454102 C88.41009714 269.91305342 88.41009714 269.91305342 84 275 C83.34 275 82.68 275 82 275 C81.938125 275.556875 81.87625 276.11375 81.8125 276.6875 C80.68563914 279.89471938 78.39387719 281.68715673 76 284 C74.78833925 285.20760668 73.57884329 286.41738789 72.37109375 287.62890625 C64.49609375 295.50390625 64.49609375 295.50390625 62.64404297 297.34814453 C61.31774937 298.68074069 60.01613236 300.03787067 58.72265625 301.40234375 C57 303 57 303 54 304 C53.34 304.99 52.68 305.98 52 307 C51.01 307 50.02 307 49 307 C49 307.66 49 308.32 49 309 C43.58823529 313 43.58823529 313 41 313 C41 313.66 41 314.32 41 315 C-1.95785407 339.02727431 -53.61128829 355.01330029 -103 341.5 C-104.11375 341.14421875 -104.11375 341.14421875 -105.25 340.78125 C-107.71495781 340.08097789 -110.10692106 339.60252175 -112.625 339.14453125 C-118.30079316 338.03564944 -123.58857871 336.19973018 -129 334.1875 C-129.92039062 333.85685547 -130.84078125 333.52621094 -131.7890625 333.18554688 C-138.09999924 330.8700553 -144.03343305 328.08483778 -150 325 C-151.26875538 324.39148172 -152.53920297 323.78645692 -153.8125 323.1875 C-157.64782688 321.26588262 -161.32795568 319.08872805 -165 316.875 C-165.58885986 316.52590576 -166.17771973 316.17681152 -166.78442383 315.81713867 C-168.22567006 314.93442591 -169.61820848 313.97315195 -171 313 C-171 312.34 -171 311.68 -171 311 C-171.86963379 310.84132446 -171.86963379 310.84132446 -172.75683594 310.67944336 C-175.33243159 309.89930811 -176.80544716 308.82007344 -178.890625 307.12890625 C-179.59960938 306.55462891 -180.30859375 305.98035156 -181.0390625 305.38867188 C-181.76867187 304.78603516 -182.49828125 304.18339844 -183.25 303.5625 C-184.36761719 302.6643457 -184.36761719 302.6643457 -185.5078125 301.74804688 C-189.58719678 298.41206687 -189.58719678 298.41206687 -191 297 C-191 296.34 -191 295.68 -191 295 C-192.32 294.34 -193.64 293.68 -195 293 C-195 292.34 -195 291.68 -195 291 C-196.32 290.34 -197.64 289.68 -199 289 C-199 288.34 -199 287.68 -199 287 C-200.32 286.34 -201.64 285.68 -203 285 C-203 284.34 -203 283.68 -203 283 C-203.66 283 -204.32 283 -205 283 C-206.9453125 280.8828125 -206.9453125 280.8828125 -209.125 278.125 C-209.84945312 277.22007812 -210.57390625 276.31515625 -211.3203125 275.3828125 C-213 273 -213 273 -213 271 C-213.66 271 -214.32 271 -215 271 C-215.33 269.68 -215.66 268.36 -216 267 C-216.66 267 -217.32 267 -218 267 C-219.63477395 264.61428074 -221.11468283 262.2475807 -222.5625 259.75 C-223.00287598 258.99509277 -223.44325195 258.24018555 -223.89697266 257.46240234 C-233.08784043 241.35289922 -240.01120518 224.24861914 -244.1875 206.1875 C-244.44724609 205.09501953 -244.70699219 204.00253906 -244.97460938 202.87695312 C-246.83266987 194.98859809 -248.16342926 187.53442496 -248.30859375 179.4296875 C-248.32372009 178.60324738 -248.33884644 177.77680725 -248.35443115 176.92532349 C-248.39436187 174.24184751 -248.41945629 171.55871044 -248.4375 168.875 C-248.4436734 167.96137695 -248.4498468 167.04775391 -248.45620728 166.10644531 C-248.51181245 146.50594209 -245.55100222 128.54543826 -239 110 C-238.62359375 108.93394531 -238.2471875 107.86789063 -237.859375 106.76953125 C-234.77552577 98.54955286 -231.11292578 90.7540224 -227 83 C-226.19949219 81.48599609 -226.19949219 81.48599609 -225.3828125 79.94140625 C-221.36566895 72.70478162 -216.55157202 66.3429816 -211.35546875 59.93359375 C-208.97158482 57.05315089 -208.97158482 57.05315089 -207 54 C-206.34 54 -205.68 54 -205 54 C-204.61497314 53.12601563 -204.61497314 53.12601563 -204.22216797 52.234375 C-202.88823854 49.79567702 -201.4241991 48.19621511 -199.4453125 46.25 C-198.74792969 45.5590625 -198.05054688 44.868125 -197.33203125 44.15625 C-196.60371094 43.4446875 -195.87539062 42.733125 -195.125 42 C-194.40441406 41.2884375 -193.68382812 40.576875 -192.94140625 39.84375 C-191.59359046 38.51330936 -190.24372408 37.18494043 -188.89111328 35.859375 C-187.55089317 34.54164761 -186.23927117 33.19454372 -184.94873047 31.828125 C-183 30 -183 30 -180 29 C-178.98136694 28.01898691 -177.98449888 27.01526447 -177 26 C-170.07857826 20.51664393 -162.85304346 16.01083355 -155 12 C-154.32453125 11.64292969 -153.6490625 11.28585938 -152.953125 10.91796875 C-148.13594401 8.41980258 -143.16239886 6.34331612 -138.140625 4.29296875 C-136.07870135 3.44409222 -134.02602991 2.57231106 -131.984375 1.67578125 C-126.28965697 -0.80634061 -120.74010793 -2.84437431 -114.66796875 -4.17578125 C-111.89205245 -4.79954945 -109.21699328 -5.50617603 -106.48828125 -6.29296875 C-72.96540077 -15.2764092 -32.19671272 -12.66209659 0 0 Z " fill="#FD7903" transform="translate(348,114)"/>
<path d="M0 0 C4.49832382 -0.32137305 8.99369159 -0.51538405 13.5 -0.6875 C14.7684375 -0.77966797 16.036875 -0.87183594 17.34375 -0.96679688 C26.62297871 -1.23260811 26.62297871 -1.23260811 30.53979492 2.2734375 C32.59937895 5.09340586 34.32748477 7.93724948 36 11 C36.79328071 12.18487589 37.59877727 13.36184825 38.42578125 14.5234375 C39.04839844 15.46445313 39.67101562 16.40546875 40.3125 17.375 C40.94800781 18.33148438 41.58351562 19.28796875 42.23828125 20.2734375 C43.40144761 22.07363733 44.50544391 23.91363785 45.54296875 25.7890625 C46.87135188 28.30052316 46.87135188 28.30052316 50 29 C50.75817948 30.66799487 51.50626102 32.34224928 52.17431641 34.04833984 C53.76423693 37.80641928 56.09865306 41.12106876 58.30273438 44.54492188 C61 48.80349896 61 48.80349896 61 51 C62.485 51.495 62.485 51.495 64 52 C65.0121693 53.69783237 66.01810051 55.40093145 66.94921875 57.14453125 C68.37030252 59.65387992 70.13829483 61.80584748 72 64 C72.3403125 63.48953125 72.680625 62.9790625 73.03125 62.453125 C74.08173079 60.87740382 75.13255027 59.30190841 76.18359375 57.7265625 C77.36570104 55.95213049 78.54551187 54.17616574 79.72265625 52.3984375 C82.8438269 47.69348812 85.98747521 43.00832701 89.19140625 38.359375 C95.94865288 28.67170824 95.94865288 28.67170824 102.25 18.6875 C102.70632813 17.96175781 103.16265625 17.23601562 103.6328125 16.48828125 C105.1533726 13.86682113 105.1533726 13.86682113 106.3671875 10.29296875 C108.17264488 5.9947947 109.83716813 2.38975604 114 0 C123.16302461 -1.80218942 132.76234125 -0.84544599 142 0 C142 0.99 142 1.98 142 3 C141.34 3 140.68 3 140 3 C139.62875 4.051875 139.62875 4.051875 139.25 5.125 C137.82819762 8.39514548 136.12753712 11.141122 134 14 C133.34 14 132.68 14 132 14 C131.773125 14.680625 131.54625 15.36125 131.3125 16.0625 C130.19639317 18.56045338 129.10878611 20.33122344 127.5 22.5 C125.98758759 24.53999813 124.95055812 26.1236047 124 28.5 C122.59060763 32.02348091 120.54132498 35.17359049 118 38 C117.34 38 116.68 38 116 38 C115.88527344 38.58265625 115.77054687 39.1653125 115.65234375 39.765625 C114.95175938 42.16523135 114.01807405 43.72860933 112.5625 45.75 C112.13066406 46.36359375 111.69882812 46.9771875 111.25390625 47.609375 C110.63322266 48.29773438 110.63322266 48.29773438 110 49 C109.34 49 108.68 49 108 49 C107.73703125 49.71542969 107.4740625 50.43085938 107.203125 51.16796875 C104.13367702 58.39313039 99.2266635 64.8046393 94.4921875 71.0234375 C92.81564051 73.24420394 91.1686875 75.47765178 89.5625 77.75 C89.04816406 78.46671875 88.53382813 79.1834375 88.00390625 79.921875 C86.83826692 81.90377238 86.83826692 81.90377238 87.11328125 83.9140625 C88.31088458 86.73133202 89.89766434 89.09735438 91.625 91.625 C92.7078125 93.21634766 92.7078125 93.21634766 93.8125 94.83984375 C96.31525115 98.45542532 98.83168579 102.06081555 101.36328125 105.65625 C103.97389063 109.39459278 106.48403463 113.1975908 109 117 C113.91076818 124.41102874 118.82581052 131.81052324 123.953125 139.07421875 C126.8516533 143.21734413 129.70687444 147.3897277 132.5625 151.5625 C133.10495361 152.35430664 133.64740723 153.14611328 134.20629883 153.96191406 C135.27275532 155.52141465 136.33699603 157.08243298 137.39892578 158.64501953 C138.50675274 160.2744948 139.62007971 161.90023935 140.73779297 163.52294922 C141.28709473 164.32877441 141.83639648 165.13459961 142.40234375 165.96484375 C142.90113037 166.69179443 143.39991699 167.41874512 143.91381836 168.16772461 C145 170 145 170 145 172 C140.43815761 172.20343412 135.87748017 172.32768948 131.3125 172.4375 C130.01892578 172.49615234 128.72535156 172.55480469 127.39257812 172.61523438 C118.03809915 172.78443684 118.03809915 172.78443684 114.98974609 170.48095703 C113.245361 168.10773187 112 166.00452967 112 163 C111.34 163 110.68 163 110 163 C108.57727919 160.83832291 107.27741955 158.68358806 106 156.4375 C102.77470249 150.91323581 99.43933288 145.49988434 95.875 140.1875 C95.45154297 139.55634277 95.02808594 138.92518555 94.59179688 138.27490234 C92.27230602 134.83805178 89.90581484 131.4396767 87.5 128.0625 C83.93464547 123.04051607 80.72870862 117.80446767 77.55078125 112.53149414 C75.33883931 108.91537672 73.18839768 105.85856344 70 103 C64.18910377 111.36348631 58.42430619 119.75742913 52.68139648 128.16772461 C49.28397186 133.13844988 45.85999937 138.0877729 42.3671875 142.9921875 C41.41873373 144.38505961 40.51903274 145.81189517 39.66015625 147.26171875 C37.43996923 150.92372133 35.00256193 154.41949907 32.5625 157.9375 C31.60505926 159.32133136 30.64802154 160.70544165 29.69140625 162.08984375 C28.98153564 163.07839355 28.98153564 163.07839355 28.25732422 164.08691406 C26.80195312 166.1735703 26.80195312 166.1735703 25.54296875 169.48046875 C22.31997401 172.67375847 20.94432455 172.43365544 16.484375 172.5859375 C13.90559969 172.54605953 11.32716303 172.47451422 8.75 172.375 C7.43257812 172.34792969 6.11515625 172.32085937 4.7578125 172.29296875 C1.50356413 172.22222422 -1.74739748 172.12354061 -5 172 C-3.13549472 168.24367069 -1.09563353 164.63243146 1 161 C1.66 161 2.32 161 3 161 C3.21527344 160.34 3.43054688 159.68 3.65234375 159 C5.46972583 154.95434946 7.96699983 151.58162147 10.5625 148 C11.65154061 146.47822152 12.74007763 144.95608254 13.828125 143.43359375 C14.36630859 142.68319824 14.90449219 141.93280273 15.45898438 141.15966797 C17.60785723 138.14811391 19.71209827 135.10808251 21.8125 132.0625 C24.32055801 128.42828357 26.8363581 124.80041353 29.375 121.1875 C31.43404919 118.25548986 33.4737617 115.31161659 35.4921875 112.3515625 C36.16495728 111.36675903 36.16495728 111.36675903 36.85131836 110.36206055 C37.78406283 108.99526183 38.71456523 107.62693038 39.64282227 106.25708008 C42.07080502 102.70114673 44.56236824 99.23413316 47.22265625 95.84765625 C47.99851074 94.84641724 47.99851074 94.84641724 48.79003906 93.82495117 C49.78373177 92.55224052 50.79424573 91.29243645 51.82324219 90.0480957 C53.38368866 88.12957189 53.38368866 88.12957189 55 85 C54.32231444 79.77018413 51.01707503 75.95173619 47.875 71.875 C46.87038323 70.53927175 45.86779524 69.20201534 44.8671875 67.86328125 C44.37573242 67.20666504 43.88427734 66.55004883 43.37792969 65.87353516 C40.80713106 62.37808714 38.44914065 58.7457382 36.06640625 55.12109375 C33.73081442 51.59342292 31.34035395 48.10703199 28.9375 44.625 C25.68972356 39.91829535 22.45467121 35.20354682 19.2421875 30.47265625 C18.27176514 29.04409302 18.27176514 29.04409302 17.28173828 27.58666992 C15.97753975 25.66659087 14.67382223 23.746185 13.37060547 21.82543945 C9.45876585 16.07919717 5.46744175 10.43228643 1.22265625 4.92578125 C0 3 0 3 0 0 Z " fill="#080302" transform="translate(214,191)"/>
<path d="M0 0 C0.92425781 0.350625 1.84851563 0.70125 2.80078125 1.0625 C5.2194966 2.002092 7.6121118 2.98493951 10 4 C10.69867188 4.29390625 11.39734375 4.5878125 12.1171875 4.890625 C22.00487324 9.16442323 32.15969078 13.81178355 41 20 C41 20.66 41 21.32 41 22 C41.53109375 22.07347656 42.0621875 22.14695313 42.609375 22.22265625 C45.95471004 23.31043676 48.48905947 25.32716388 51.25 27.4375 C51.80429687 27.84548828 52.35859375 28.25347656 52.9296875 28.67382812 C54.32810909 29.72953309 55.66950652 30.85987587 57 32 C57 32.66 57 33.32 57 34 C57.556875 34.04125 58.11375 34.0825 58.6875 34.125 C61.55948991 35.21169889 62.74191736 36.95289666 64.58984375 39.33203125 C66.06180474 41.07310423 67.61065183 42.43431302 69.375 43.875 C76.13675785 49.50979821 82.04657334 56.7430041 87 64 C87 64.66 87 65.32 87 66 C87.66 66 88.32 66 89 66 C99.25357635 80.13862446 107.94825293 97.29924714 113 114 C113.19770996 114.63615234 113.39541992 115.27230469 113.59912109 115.92773438 C116.35503285 124.87175456 118.53807311 133.2629771 118.76171875 142.69140625 C118.95819458 145.41952144 119.35804324 147.67214986 120.00390625 150.3046875 C121.12700778 155.09991285 121.30526392 159.65225217 121.25 164.5625 C121.24202393 165.86296265 121.24202393 165.86296265 121.23388672 167.18969727 C121.11712222 175.24718647 120.22345341 183.03905662 119 191 C118.855625 192.09441406 118.71125 193.18882812 118.5625 194.31640625 C116.23490231 211.25383586 111.40153167 227.59025374 104 243 C103.34 243 102.68 243 102 243 C101.91878906 243.84175781 101.83757812 244.68351563 101.75390625 245.55078125 C100.86563894 249.61471924 99.11734299 252.70868168 96.9375 256.1875 C96.53845459 256.83662354 96.13940918 257.48574707 95.72827148 258.15454102 C88.41009714 269.91305342 88.41009714 269.91305342 84 275 C83.34 275 82.68 275 82 275 C81.938125 275.556875 81.87625 276.11375 81.8125 276.6875 C80.68563914 279.89471938 78.39387719 281.68715673 76 284 C74.78833925 285.20760668 73.57884329 286.41738789 72.37109375 287.62890625 C64.49609375 295.50390625 64.49609375 295.50390625 62.64404297 297.34814453 C61.31774937 298.68074069 60.01613236 300.03787067 58.72265625 301.40234375 C57 303 57 303 54 304 C53.34 304.99 52.68 305.98 52 307 C51.01 307 50.02 307 49 307 C49 307.66 49 308.32 49 309 C43.58823529 313 43.58823529 313 41 313 C41 313.66 41 314.32 41 315 C-1.95785407 339.02727431 -53.61128829 355.01330029 -103 341.5 C-104.11375 341.14421875 -104.11375 341.14421875 -105.25 340.78125 C-107.71495781 340.08097789 -110.10692106 339.60252175 -112.625 339.14453125 C-118.30079316 338.03564944 -123.58857871 336.19973018 -129 334.1875 C-129.92039062 333.85685547 -130.84078125 333.52621094 -131.7890625 333.18554688 C-138.09999924 330.8700553 -144.03343305 328.08483778 -150 325 C-151.26875538 324.39148172 -152.53920297 323.78645692 -153.8125 323.1875 C-157.64782688 321.26588262 -161.32795568 319.08872805 -165 316.875 C-165.58885986 316.52590576 -166.17771973 316.17681152 -166.78442383 315.81713867 C-168.22567006 314.93442591 -169.61820848 313.97315195 -171 313 C-171 312.34 -171 311.68 -171 311 C-171.86963379 310.84132446 -171.86963379 310.84132446 -172.75683594 310.67944336 C-175.33243159 309.89930811 -176.80544716 308.82007344 -178.890625 307.12890625 C-179.59960938 306.55462891 -180.30859375 305.98035156 -181.0390625 305.38867188 C-181.76867187 304.78603516 -182.49828125 304.18339844 -183.25 303.5625 C-184.36761719 302.6643457 -184.36761719 302.6643457 -185.5078125 301.74804688 C-189.58719678 298.41206687 -189.58719678 298.41206687 -191 297 C-191 296.34 -191 295.68 -191 295 C-192.32 294.34 -193.64 293.68 -195 293 C-195 292.34 -195 291.68 -195 291 C-196.32 290.34 -197.64 289.68 -199 289 C-199 288.34 -199 287.68 -199 287 C-200.32 286.34 -201.64 285.68 -203 285 C-203 284.34 -203 283.68 -203 283 C-203.66 283 -204.32 283 -205 283 C-206.9453125 280.8828125 -206.9453125 280.8828125 -209.125 278.125 C-209.84945312 277.22007812 -210.57390625 276.31515625 -211.3203125 275.3828125 C-213 273 -213 273 -213 271 C-213.66 271 -214.32 271 -215 271 C-215.33 269.68 -215.66 268.36 -216 267 C-216.66 267 -217.32 267 -218 267 C-219.63477395 264.61428074 -221.11468283 262.2475807 -222.5625 259.75 C-223.00287598 258.99509277 -223.44325195 258.24018555 -223.89697266 257.46240234 C-233.08784043 241.35289922 -240.01120518 224.24861914 -244.1875 206.1875 C-244.44724609 205.09501953 -244.70699219 204.00253906 -244.97460938 202.87695312 C-246.83266987 194.98859809 -248.16342926 187.53442496 -248.30859375 179.4296875 C-248.32372009 178.60324738 -248.33884644 177.77680725 -248.35443115 176.92532349 C-248.39436187 174.24184751 -248.41945629 171.55871044 -248.4375 168.875 C-248.4436734 167.96137695 -248.4498468 167.04775391 -248.45620728 166.10644531 C-248.51181245 146.50594209 -245.55100222 128.54543826 -239 110 C-238.62359375 108.93394531 -238.2471875 107.86789063 -237.859375 106.76953125 C-234.77552577 98.54955286 -231.11292578 90.7540224 -227 83 C-226.19949219 81.48599609 -226.19949219 81.48599609 -225.3828125 79.94140625 C-221.36566895 72.70478162 -216.55157202 66.3429816 -211.35546875 59.93359375 C-208.97158482 57.05315089 -208.97158482 57.05315089 -207 54 C-206.34 54 -205.68 54 -205 54 C-204.61497314 53.12601563 -204.61497314 53.12601563 -204.22216797 52.234375 C-202.88823854 49.79567702 -201.4241991 48.19621511 -199.4453125 46.25 C-198.74792969 45.5590625 -198.05054688 44.868125 -197.33203125 44.15625 C-196.60371094 43.4446875 -195.87539062 42.733125 -195.125 42 C-194.40441406 41.2884375 -193.68382812 40.576875 -192.94140625 39.84375 C-191.59359046 38.51330936 -190.24372408 37.18494043 -188.89111328 35.859375 C-187.55089317 34.54164761 -186.23927117 33.19454372 -184.94873047 31.828125 C-183 30 -183 30 -180 29 C-178.98136694 28.01898691 -177.98449888 27.01526447 -177 26 C-170.07857826 20.51664393 -162.85304346 16.01083355 -155 12 C-154.32453125 11.64292969 -153.6490625 11.28585938 -152.953125 10.91796875 C-148.13594401 8.41980258 -143.16239886 6.34331612 -138.140625 4.29296875 C-136.07870135 3.44409222 -134.02602991 2.57231106 -131.984375 1.67578125 C-126.28965697 -0.80634061 -120.74010793 -2.84437431 -114.66796875 -4.17578125 C-111.89205245 -4.79954945 -109.21699328 -5.50617603 -106.48828125 -6.29296875 C-72.96540077 -15.2764092 -32.19671272 -12.66209659 0 0 Z M-191 43 C-192.11204481 43.95283135 -193.235557 44.89260821 -194.375 45.8125 C-198.35813431 49.20458858 -201.69091287 52.95556017 -205 57 C-205.75152344 57.91394531 -206.50304687 58.82789063 -207.27734375 59.76953125 C-218.12151063 73.38898255 -226.41171851 87.9195113 -233 104 C-233.70238201 105.48200191 -234.40971023 106.96168474 -235.125 108.4375 C-239.6940935 118.7573491 -242.31742546 129.8790709 -243.640625 141.046875 C-244 144 -244 144 -244.50537109 146.21679688 C-245.11421975 149.64269751 -245.21877985 153.01536811 -245.2734375 156.484375 C-245.29216164 157.57117554 -245.29216164 157.57117554 -245.31126404 158.67993164 C-245.55621188 176.35855042 -244.69809909 192.82999218 -240 210 C-239.78649902 210.79293457 -239.57299805 211.58586914 -239.35302734 212.40283203 C-231.4380893 241.10146622 -216.32967855 266.29950327 -195.53662109 287.42822266 C-194.22710999 288.76769397 -192.9480445 290.13681913 -191.67578125 291.51171875 C-177.07723546 307.00008067 -157.46452238 318.72145707 -138 327 C-137.37738281 327.26796387 -136.75476563 327.53592773 -136.11328125 327.81201172 C-117.30477622 335.84440678 -97.44094384 341.06915832 -76.9296875 341.23828125 C-75.97216583 341.246353 -75.01464417 341.25442474 -74.02810669 341.26274109 C-72.00264252 341.27651675 -69.97715577 341.28726778 -67.95166016 341.29516602 C-65.92554686 341.30658119 -63.89946106 341.3268625 -61.87353516 341.35668945 C-17.55826043 342.0067824 24.47892827 325.90857226 58 297 C59.16208984 296.00419922 59.16208984 296.00419922 60.34765625 294.98828125 C64.84588273 291.17263629 64.84588273 291.17263629 69 287 C69 286.34 69 285.68 69 285 C69.99 284.67 70.98 284.34 72 284 C73.8212744 281.91097767 75.51491993 279.82767169 77.1875 277.625 C77.67508789 276.99158691 78.16267578 276.35817383 78.66503906 275.70556641 C80.11838918 273.80991308 81.56028965 271.90602362 83 270 C83.74378906 269.02546875 84.48757813 268.0509375 85.25390625 267.046875 C112.50181991 230.57412951 121.95235549 184.66156257 116 140 C112.86652613 119.36761921 104.85464151 98.72324246 94 81 C93.03707031 79.36998047 93.03707031 79.36998047 92.0546875 77.70703125 C85.00026688 65.90816696 76.37942387 55.96130836 67 46 C66.34386719 45.28972656 65.68773437 44.57945312 65.01171875 43.84765625 C34.20302674 11.58759117 -13.80059897 -6.31102745 -57.68901062 -7.4886322 C-106.93848197 -8.40905941 -155.77989792 7.66573227 -191 43 Z " fill="#352920" transform="translate(348,114)"/>
<path d="M0 0 C8.81548975 5.96583144 8.81548975 5.96583144 10 11 C10.66 11 11.32 11 12 11 C22.25357635 25.13862446 30.94825293 42.29924714 36 59 C36.19770996 59.63615234 36.39541992 60.27230469 36.59912109 60.92773438 C39.35503285 69.87175456 41.53807311 78.2629771 41.76171875 87.69140625 C41.95819458 90.41952144 42.35804324 92.67214986 43.00390625 95.3046875 C44.12700778 100.09991285 44.30526392 104.65225217 44.25 109.5625 C44.24468262 110.4294751 44.23936523 111.2964502 44.23388672 112.18969727 C44.11712222 120.24718647 43.22345341 128.03905662 42 136 C41.855625 137.09441406 41.71125 138.18882812 41.5625 139.31640625 C40.23082328 149.00673236 38.09623411 158.71129768 35 168 C34.01 168.33 33.02 168.66 32 169 C32.36260574 164.01417102 33.1148799 159.35422228 34.34960938 154.50488281 C44.69096579 113.81222199 40.87351891 68.88695726 19.6875 32.0625 C18.46473279 30.03778807 17.23535199 28.01705813 16 26 C15.35804688 24.91332031 14.71609375 23.82664063 14.0546875 22.70703125 C10.27474091 16.38488528 6.28688076 10.60135041 1.46875 5.0234375 C0 3 0 3 0 0 Z " fill="#382A20" transform="translate(425,169)"/>
<path d="M0 0 C24.10031287 -0.89280767 47.37286664 1.10136023 70 10 C70.92425781 10.350625 71.84851563 10.70125 72.80078125 11.0625 C75.2194966 12.002092 77.6121118 12.98493951 80 14 C80.69867188 14.29390625 81.39734375 14.5878125 82.1171875 14.890625 C92.00487324 19.16442323 102.15969078 23.81178355 111 30 C111 30.66 111 31.32 111 32 C111.53109375 32.07347656 112.0621875 32.14695313 112.609375 32.22265625 C115.95471004 33.31043676 118.48905947 35.32716388 121.25 37.4375 C121.80429687 37.84548828 122.35859375 38.25347656 122.9296875 38.67382812 C124.32810909 39.72953309 125.66950652 40.85987587 127 42 C127 42.66 127 43.32 127 44 C127.556875 44.04125 128.11375 44.0825 128.6875 44.125 C131.55948991 45.21169889 132.74191736 46.95289666 134.58984375 49.33203125 C136.06180474 51.07310423 137.61065183 52.43431302 139.375 53.875 C143.32184082 57.16258829 147.04203533 60.78332696 150 65 C150 65.99 150 66.98 150 68 C149.34 67.34 148.68 66.68 148 66 C147.01 66 146.02 66 145 66 C143.4921875 64.56640625 143.4921875 64.56640625 141.875 62.5625 C115.88447195 31.76291375 75.16493062 11.4271695 35.5625 5.9375 C33.27124156 5.61965969 30.98082151 5.29569947 28.69140625 4.96484375 C27.19395874 4.75782837 27.19395874 4.75782837 25.66625977 4.54663086 C23.09824733 4.02014246 21.32093509 3.16208359 19 2 C16.78395837 1.63991339 16.78395837 1.63991339 14.453125 1.5859375 C13.18662109 1.52792969 13.18662109 1.52792969 11.89453125 1.46875 C10.58548828 1.42234375 10.58548828 1.42234375 9.25 1.375 C8.36183594 1.33632812 7.47367187 1.29765625 6.55859375 1.2578125 C4.3726002 1.16379127 2.18660938 1.07813857 0 1 C0 0.67 0 0.34 0 0 Z " fill="#3B2C23" transform="translate(278,104)"/>
<path d="M0 0 C1.75513962 0.08220951 3.51035258 0.16286391 5.265625 0.2421875 C9.84628264 0.45893918 14.42287922 0.71864022 19 1 C19.495 1.99 19.495 1.99 20 3 C18.76588379 3.00616333 18.76588379 3.00616333 17.50683594 3.01245117 C-14.23337972 3.28743918 -47.08325175 6.63549912 -75.5625 21.875 C-78 23 -78 23 -81 22 C-78.08593622 18.74916942 -75.55620773 17.13809682 -71.5 15.5625 C-69.90671875 14.93408203 -69.90671875 14.93408203 -68.28125 14.29296875 C-67.1984375 13.86628906 -66.115625 13.43960938 -65 13 C-62.99952697 12.12608201 -60.99951664 11.251104 -59 10.375 C-53.08168906 7.93179984 -47.24696895 6.3630925 -41 5 C-39.16794518 4.56911063 -37.33591638 4.13811061 -35.50390625 3.70703125 C-23.41143377 0.93832556 -12.39565125 -0.72687122 0 0 Z " fill="#3B291D" transform="translate(278,104)"/>
<path d="M0 0 C0.66 0 1.32 0 2 0 C5.89658063 17.90571575 5.7763105 34.93470182 3 53 C2.855625 54.09441406 2.71125 55.18882812 2.5625 56.31640625 C1.23082328 66.00673236 -0.90376589 75.71129768 -4 85 C-5.485 85.495 -5.485 85.495 -7 86 C-6.63739426 81.01417102 -5.8851201 76.35422228 -4.65039062 71.50488281 C0.06453079 52.95192998 2.47970225 33.60487813 0.22265625 14.53125 C-0.20249204 9.69798518 -0.07495889 4.84734162 0 0 Z " fill="#282524" transform="translate(464,252)"/>
<path d="M0 0 C0.99 0.66 1.98 1.32 3 2 C1.69039355 9.26236302 -0.75956186 15.3830748 -4 22 C-4.66 22 -5.32 22 -6 22 C-6.08121094 22.84175781 -6.16242188 23.68351562 -6.24609375 24.55078125 C-7.13436106 28.61471924 -8.88265701 31.70868168 -11.0625 35.1875 C-11.46154541 35.83662354 -11.86059082 36.48574707 -12.27172852 37.15454102 C-19.58990286 48.91305342 -19.58990286 48.91305342 -24 54 C-24.66 54 -25.32 54 -26 54 C-26.66 55.32 -27.32 56.64 -28 58 C-28.61238501 52.44659071 -26.74503454 49.57667098 -23.4375 45.375 C-22.50799734 44.1316797 -21.58225058 42.88554324 -20.66015625 41.63671875 C-20.20398926 41.02103027 -19.74782227 40.4053418 -19.27783203 39.77099609 C-10.86712787 28.11428077 -4.01772612 13.81093354 0 0 Z " fill="#3B2F27" transform="translate(456,335)"/>
<path d="M0 0 C-21.72779877 11.0281484 -46.30430023 14.72590466 -70.43408203 14.46655273 C-73.39541859 14.43729829 -76.35498285 14.44607473 -79.31640625 14.45898438 C-90.55781058 14.44462709 -101.0422621 13.59650316 -112 11 C-112 10.67 -112 10.34 -112 10 C-110.741875 9.979375 -109.48375 9.95875 -108.1875 9.9375 C-107.47980469 9.92589844 -106.77210938 9.91429687 -106.04296875 9.90234375 C-104 10 -104 10 -101 11 C-92.06048922 12.07589522 -83.05478884 12.18637082 -74.06152344 12.18530273 C-72.00174531 12.18749814 -69.9424974 12.20577378 -67.8828125 12.22460938 C-53.31144169 12.69648869 -53.31144169 12.69648869 -40 8 C-37.66666667 8 -35.33333333 8 -33 8 C-30.69803956 7.55161814 -28.43479249 6.99934167 -26.15625 6.4453125 C-23.40985374 5.87812197 -20.79362843 5.856737 -18 6 C-18 5.34 -18 4.68 -18 4 C-15.56592995 3.13475247 -13.12856816 2.28257135 -10.6875 1.4375 C-9.99720703 1.19064453 -9.30691406 0.94378906 -8.59570312 0.68945312 C-3.33984375 -1.11328125 -3.33984375 -1.11328125 0 0 Z " fill="#CB7626" transform="translate(357,441)"/>
<path d="M0 0 C0.33 0 0.66 0 1 0 C0.99555878 0.58358276 0.99111755 1.16716553 0.98654175 1.76843262 C0.94213183 7.86838318 0.9120605 13.96828744 0.89013672 20.06835938 C0.88010867 22.34181587 0.86648289 24.61525956 0.84912109 26.88867188 C0.82473216 30.16539682 0.81348466 33.44195051 0.8046875 36.71875 C0.79436493 37.72740112 0.78404236 38.73605225 0.77340698 39.77526855 C0.77249663 45.56290683 1.40244826 50.43977108 3 56 C3.1953125 58.96875 3.1953125 58.96875 3.125 61.5 C3.10695313 62.3559375 3.08890625 63.211875 3.0703125 64.09375 C3.04710938 64.7228125 3.02390625 65.351875 3 66 C3.66 66 4.32 66 5 66 C5.33 68.97 5.66 71.94 6 75 C6.99 75.33 7.98 75.66 9 76 C10.83081979 81.49245937 11.20568145 86.24091942 11 92 C1.09794276 72.94073053 -2.56708047 50.10961518 -2.33618164 28.83105469 C-2.31222537 26.47296766 -2.31570162 24.11599358 -2.32226562 21.7578125 C-2.3072657 14.28020372 -2.0840599 7.24023997 0 0 Z " fill="#CE7823" transform="translate(105,254)"/>
<path d="M0 0 C0.77545166 -0.00295074 1.55090332 -0.00590149 2.34985352 -0.00894165 C20.64107061 -0.02471644 38.13932563 2.21614265 55.75 7.3125 C55.75 7.6425 55.75 7.9725 55.75 8.3125 C44.38935887 8.83151406 44.38935887 8.83151406 39.375 6.8125 C34.20576835 4.76575082 29.17381165 5.17169239 23.69140625 5.40234375 C20.75 5.3125 20.75 5.3125 18.75 3.3125 C16.72990192 3.02098578 16.72990192 3.02098578 14.39208984 3.08544922 C13.04091568 3.08567581 13.04091568 3.08567581 11.66244507 3.08590698 C10.68844757 3.09622955 9.71445007 3.10655212 8.7109375 3.1171875 C7.21694931 3.12143234 7.21694931 3.12143234 5.69277954 3.12576294 C2.50339882 3.1369816 -0.68570378 3.16208919 -3.875 3.1875 C-6.03385012 3.19752762 -8.19270463 3.20665385 -10.3515625 3.21484375 C-15.65113699 3.23692639 -20.95054863 3.27042042 -26.25 3.3125 C-18.2131825 -0.92215232 -8.86212906 0.02946125 0 0 Z " fill="#D77A1C" transform="translate(282.25,106.6875)"/>
<path d="M0 0 C6.14621242 1.23196506 10.40793424 3.18966588 15.5625 6.6875 C25.44745447 13.12928867 35.84186433 18.12881007 47 22 C47 22.99 47 23.98 47 25 C45 26 45 26 42.8984375 25.36328125 C38.15098771 23.386402 33.47971484 21.34637347 28.91015625 18.984375 C27.67821208 18.34950807 26.43636589 17.7333344 25.18359375 17.140625 C20.63739734 14.97667347 16.30943104 12.47406186 12 9.875 C11.41130127 9.52598633 10.82260254 9.17697266 10.21606445 8.81738281 C8.77464294 7.93461056 7.38193913 6.97325591 6 6 C6 5.34 6 4.68 6 4 C5.38125 3.896875 4.7625 3.79375 4.125 3.6875 C2 3 2 3 0 0 Z " fill="#352B21" transform="translate(171,421)"/>
<path d="M0 0 C4.01636175 1.56347882 6.41517586 4.40070003 9.1875 7.5625 C10.17186525 8.65613011 11.15755665 9.74856793 12.14453125 10.83984375 C12.63002441 11.37851074 13.11551758 11.91717773 13.61572266 12.47216797 C20.72697991 20.32088894 28.51863166 26.7209035 37 33 C34 34 34 34 31.67578125 33.34375 C28.47929208 31.73850581 25.94619095 29.77490445 23.1875 27.5 C22.21167969 26.7059375 21.23585937 25.911875 20.23046875 25.09375 C19.49441406 24.4028125 18.75835937 23.711875 18 23 C18 22.34 18 21.68 18 21 C16.68 20.34 15.36 19.68 14 19 C14 18.34 14 17.68 14 17 C12.68 16.34 11.36 15.68 10 15 C10 14.34 10 13.68 10 13 C8.68 12.34 7.36 11.68 6 11 C6 10.34 6 9.68 6 9 C5.34 9 4.68 9 4 9 C2.47551369 6.0173094 1.06059933 3.181798 0 0 Z " fill="#34271E" transform="translate(139,388)"/>
<path d="M0 0 C-0.98097656 0.30292969 -1.96195313 0.60585937 -2.97265625 0.91796875 C-24.20010386 7.11293993 -24.20010386 7.11293993 -44.4375 15.8125 C-47 17 -47 17 -50 16 C-47.08593622 12.74916942 -44.55620773 11.13809682 -40.5 9.5625 C-39.44296875 9.14484375 -38.3859375 8.7271875 -37.296875 8.296875 C-36.20890625 7.86890625 -35.1209375 7.4409375 -34 7 C-31.91558756 6.10668038 -29.83221937 5.21091952 -27.75 4.3125 C-19.37555244 0.84308601 -9.02325646 -2.75250713 0 0 Z " fill="#342C26" transform="translate(247,110)"/>
<path d="M0 0 C5.88606585 0.31532496 11.09800884 1.54638058 16.6875 3.375 C26.59345011 6.60748019 36.61593229 8.96159323 47 10 C47 10.99 47 11.98 47 13 C40.45623245 13.38325754 34.98379833 12.67551422 28.71484375 10.78515625 C26.16692917 10.04827736 23.67186932 9.52592399 21.0625 9.0625 C15.23208192 7.94703416 9.4738327 6.30856865 4 4 C3.67 3.34 3.34 2.68 3 2 C2.01 1.34 1.02 0.68 0 0 Z " fill="#362A24" transform="translate(214,444)"/>
<path d="M0 0 C0.66 0.33 1.32 0.66 2 1 C1 2 0 3 -1 4 C-1.44432373 4.48243164 -1.88864746 4.96486328 -2.34643555 5.46191406 C-4.17003747 7.15816272 -5.93423688 8.15560061 -8.14453125 9.296875 C-13.7643506 12.33141821 -18.77349049 16.05862311 -23.86914062 19.890625 C-27.899255 22.82963275 -30.85468105 24.70829688 -36 25 C-35.1875 23.0625 -35.1875 23.0625 -34 21 C-33.01 20.67 -32.02 20.34 -31 20 C-29.98136694 19.01898691 -28.98449888 18.01526447 -28 17 C-21.07765904 11.51591569 -13.84707566 7.02350058 -6 3 C-5.35546875 2.64679688 -4.7109375 2.29359375 -4.046875 1.9296875 C-2.4375 1.0625 -2.4375 1.0625 0 0 Z " fill="#3D372C" transform="translate(199,123)"/>
<path d="M0 0 C0.33 0 0.66 0 1 0 C1.3125 2.13671875 1.3125 2.13671875 1 5 C-0.60774668 7.1426771 -2.13442515 8.92528558 -4 10.8125 C-4.74842163 11.59753906 -4.74842163 11.59753906 -5.51196289 12.3984375 C-6.99463266 13.94598447 -8.49377783 15.47540305 -10 17 C-10.78246094 17.79792969 -11.56492187 18.59585937 -12.37109375 19.41796875 C-14.23306425 21.29401842 -16.11218917 23.15002947 -18 25 C-18.99 26.04220703 -18.99 26.04220703 -20 27.10546875 C-22.71970079 29.68174782 -25.48225679 30.78477962 -29 32 C-29.99 31.67 -30.98 31.34 -32 31 C-31.28714844 30.41992188 -30.57429688 29.83984375 -29.83984375 29.2421875 C-20.0728869 21.92554271 -20.0728869 21.92554271 -12 13 C-11.34 13 -10.68 13 -10 13 C-10 12.34 -10 11.68 -10 11 C-8.35697047 9.31002677 -6.68528688 7.64783606 -5 6 C-4.07094466 4.90623678 -3.15386074 3.80217375 -2.25 2.6875 C-1.5075 1.800625 -0.765 0.91375 0 0 Z " fill="#2B2013" transform="translate(427,388)"/>
<path d="M0 0 C0.66 0 1.32 0 2 0 C4.86156153 12.30471458 -0.07524666 27.22573999 -4 39 C-5.485 39.495 -5.485 39.495 -7 40 C-6.57144419 34.10735765 -5.47359239 28.54281791 -4.0625 22.8125 C-2.20222821 15.2454919 -0.93261986 7.74319908 0 0 Z " fill="#311B0C" transform="translate(464,298)"/>
<path d="M0 0 C10.08201012 7.90211604 18.37548254 19.61623202 22 32 C19.03595495 29.19195732 16.55500981 26.81684226 15 23 C14.34 23 13.68 23 13 23 C12.67 21.68 12.34 20.36 12 19 C11.34 19 10.68 19 10 19 C8.85498047 17.47119141 8.85498047 17.47119141 7.6171875 15.3515625 C7.17246094 14.59359375 6.72773437 13.835625 6.26953125 13.0546875 C5.80933594 12.25289063 5.34914063 11.45109375 4.875 10.625 C4.40707031 9.8309375 3.93914062 9.036875 3.45703125 8.21875 C0 2.2722531 0 2.2722531 0 0 Z " fill="#554F4B" transform="translate(120,362)"/>
<path d="M0 0 C0.99 0.33 1.98 0.66 3 1 C1.51293119 6.81815673 -1.54954567 11.07366025 -5 15.875 C-5.5465625 16.65875 -6.093125 17.4425 -6.65625 18.25 C-9.69638431 22.52705169 -9.69638431 22.52705169 -11 24 C-11.66 24 -12.32 24 -13 24 C-13.66 25.32 -14.32 26.64 -15 28 C-15.64122807 22.37429241 -13.64340309 19.39349063 -10.3125 15.125 C-9.3928081 13.8971221 -8.47482565 12.66796188 -7.55859375 11.4375 C-6.89512939 10.55578125 -6.89512939 10.55578125 -6.21826172 9.65625 C-3.94031976 6.55934454 -1.97637071 3.29395118 0 0 Z " fill="#4A433E" transform="translate(443,365)"/>
<path d="M0 0 C0.33 0.66 0.66 1.32 1 2 C-0.7054244 6.75723648 -2.68834328 10.13640049 -6 14 C-6.33 14.66 -6.66 15.32 -7 16 C0.59 16.33 8.18 16.66 16 17 C16 16.34 16 15.68 16 15 C16.66 15.33 17.32 15.66 18 16 C17.34 16.99 16.68 17.98 16 19 C13.20263672 19.34057617 13.20263672 19.34057617 9.6796875 19.29296875 C8.42285156 19.28330078 7.16601562 19.27363281 5.87109375 19.26367188 C4.55238281 19.23853516 3.23367187 19.21339844 1.875 19.1875 C0.53517097 19.17245483 -0.80467404 19.15876613 -2.14453125 19.14648438 C-5.43008842 19.11102872 -8.71484582 19.06160849 -12 19 C-10.13549472 15.24367069 -8.09563353 11.63243146 -6 8 C-5.34 8 -4.68 8 -4 8 C-3.71125 7.236875 -3.4225 6.47375 -3.125 5.6875 C-2 3 -2 3 0 0 Z " fill="#2C0C01" transform="translate(221,344)"/>
<path d="M0 0 C4.39442768 0.55092382 7.71070861 1.63330576 11.625 3.6875 C12.65496094 4.22246094 13.68492187 4.75742188 14.74609375 5.30859375 C16.35677734 6.14583984 16.35677734 6.14583984 18 7 C21.23066145 8.57277333 24.4630541 10.14170704 27.69921875 11.703125 C30 13 30 13 31 15 C30.21625 14.814375 29.4325 14.62875 28.625 14.4375 C26.02910225 13.74037734 26.02910225 13.74037734 24 15 C21.28627245 13.80407001 18.68902645 12.55273934 16.0625 11.1875 C15.33353516 10.81818359 14.60457031 10.44886719 13.85351562 10.06835938 C10.77419581 8.49624101 7.88301994 6.92201329 5 5 C5 4.34 5 3.68 5 3 C2.525 2.01 2.525 2.01 0 1 C0 0.67 0 0.34 0 0 Z " fill="#3D322A" transform="translate(351,116)"/>
<path d="M0 0 C1.41791408 0.45445964 2.83428046 0.91374944 4.25 1.375 C5.43335938 1.75785156 5.43335938 1.75785156 6.640625 2.1484375 C8.86627958 2.95173667 10.90931672 3.89711662 13 5 C13 5.66 13 6.32 13 7 C13.56332031 7.09667969 14.12664062 7.19335938 14.70703125 7.29296875 C17.52873541 8.16303426 19.353411 9.51081477 21.6875 11.3125 C22.86892578 12.20388672 22.86892578 12.20388672 24.07421875 13.11328125 C26.12294737 15.12045351 26.63543213 16.20086028 27 19 C22.78794092 17.68373154 19.88330793 15.45562635 16.46484375 12.78515625 C12.38713456 9.83188667 8.00794546 7.36283392 3.66015625 4.83203125 C1 3 1 3 0 0 Z " fill="#433128" transform="translate(376,129)"/>
<path d="M0 0 C-1.32 0.33 -2.64 0.66 -4 1 C-4 1.66 -4 2.32 -4 3 C-9.41176471 7 -9.41176471 7 -12 7 C-12 7.66 -12 8.32 -12 9 C-12.75925781 9.40992188 -13.51851563 9.81984375 -14.30078125 10.2421875 C-15.29464844 10.78101563 -16.28851563 11.31984375 -17.3125 11.875 C-18.29863281 12.40867187 -19.28476562 12.94234375 -20.30078125 13.4921875 C-23.09586458 15.00722126 -23.09586458 15.00722126 -26 17 C-26.99 16.67 -27.98 16.34 -29 16 C-27.68 15.67 -26.36 15.34 -25 15 C-25 13.68 -25 12.36 -25 11 C-24.45472656 10.70867187 -23.90945313 10.41734375 -23.34765625 10.1171875 C-18.37136563 7.41212696 -13.66910861 4.5038509 -9.04296875 1.234375 C-5.59976186 -0.84603299 -3.85763529 -1.28587843 0 0 Z " fill="#362218" transform="translate(401,420)"/>
<path d="M0 0 C1.17462795 3.52388386 0.54485833 4.86165477 -0.97265625 8.1484375 C-2.64594714 11.16417849 -4.62080111 13.49879091 -7 16 C-7.66 16 -8.32 16 -9 16 C-9.09764874 20.78478822 -8.77112541 25.27685687 -8 30 C-10.33524782 27.74259377 -12.18705073 25.7194239 -14 23 C-13.22597367 14.81252145 -4.92091905 6.29084523 0 0 Z " fill="#D26E14" transform="translate(314,253)"/>
<path d="M0 0 C1 2 1 2 0.3125 5 C-1.20976234 8.47945679 -1.81522005 8.40761002 -5 10 C-5.28875 10.86625 -5.5775 11.7325 -5.875 12.625 C-7.3535733 17.0607199 -9.80949986 20.58408409 -13 24 C-13.66 24 -14.32 24 -15 24 C-15.061875 24.721875 -15.12375 25.44375 -15.1875 26.1875 C-16.24456647 29.84657625 -18.20550071 31.49211602 -21 34 C-21.33 33.34 -21.66 32.68 -22 32 C-20.25323375 29.43528206 -18.50200706 26.87364009 -16.75 24.3125 C-16.25886719 23.59126953 -15.76773438 22.87003906 -15.26171875 22.12695312 C-13.18558765 19.09580172 -11.11010758 16.13675283 -8.8046875 13.2734375 C-7.02973071 11.03745297 -5.70234278 8.83445128 -4.375 6.3125 C-3.03810303 3.77920797 -2.03754552 2.03754552 0 0 Z " fill="#C56919" transform="translate(260,328)"/>
<path d="M0 0 C0.33 0 0.66 0 1 0 C1.24234375 1.28132813 1.4846875 2.56265625 1.734375 3.8828125 C3.51560308 13.12853313 5.42647453 22.16534054 8.265625 31.15234375 C8.97555876 33.90522519 9.14576059 36.17328565 9 39 C6.81024227 35.71536341 6.00193437 32.79303725 5 29 C4.34 29 3.68 29 3 29 C0.15386812 19.10630347 -0.35396698 10.21260287 0 0 Z " fill="#2B1708" transform="translate(104,304)"/>
<path d="M0 0 C0 3.51393026 -0.4419771 3.80486682 -2.75 6.25 C-5.77811134 9.61536544 -7.88117791 13.00683529 -10 17 C-10.66 17 -11.32 17 -12 17 C-12.15855469 17.85271484 -12.15855469 17.85271484 -12.3203125 18.72265625 C-13.11000741 21.36858804 -14.29863873 23.17491181 -15.875 25.4375 C-17.60917662 27.95164123 -19.23276658 30.40734151 -20.75 33.0625 C-21.1625 33.701875 -21.575 34.34125 -22 35 C-22.66 35 -23.32 35 -24 35 C-22.38913255 30.47215635 -20.08980239 26.55979995 -17.5625 22.5 C-16.91293335 21.45573853 -16.91293335 21.45573853 -16.25024414 20.39038086 C-11.58231753 13.07054521 -6.14861304 6.14861304 0 0 Z " fill="#CC7620" transform="translate(147,167)"/>
<path d="M0 0 C2 1 2 1 2.77783203 2.94604492 C3.01872559 3.78240479 3.25961914 4.61876465 3.5078125 5.48046875 C3.77207031 6.39763672 4.03632813 7.31480469 4.30859375 8.25976562 C4.57800781 9.22591797 4.84742188 10.19207031 5.125 11.1875 C5.54072266 12.60772461 5.54072266 12.60772461 5.96484375 14.05664062 C7.31039121 18.8058266 8.38565311 23.0116608 8 28 C7.34 28 6.68 28 6 28 C5.67 28.66 5.34 29.32 5 30 C2.66363616 20.03151427 1.12208212 10.16474394 0 0 Z " fill="#37322C" transform="translate(458,224)"/>
<path d="M0 0 C30.33290997 -0.61916858 30.33290997 -0.61916858 43 3 C43 3.33 43 3.66 43 4 C39.75007554 4.05819424 36.50028565 4.09366116 33.25 4.125 C32.32960938 4.14175781 31.40921875 4.15851563 30.4609375 4.17578125 C29.57148438 4.18222656 28.68203125 4.18867187 27.765625 4.1953125 C26.54020996 4.21102295 26.54020996 4.21102295 25.29003906 4.22705078 C22.75444424 3.97565385 21.25068325 3.14857877 19 2 C16.78395837 1.63991339 16.78395837 1.63991339 14.453125 1.5859375 C13.18662109 1.52792969 13.18662109 1.52792969 11.89453125 1.46875 C10.58548828 1.42234375 10.58548828 1.42234375 9.25 1.375 C8.36183594 1.33632812 7.47367187 1.29765625 6.55859375 1.2578125 C4.3726002 1.16379127 2.18660938 1.07813857 0 1 C0 0.67 0 0.34 0 0 Z " fill="#423C39" transform="translate(278,104)"/>
<path d="M0 0 C0.66 0 1.32 0 2 0 C0.87548273 2.9719385 -0.22293791 5.33440687 -2 8 C7.57 7.67 17.14 7.34 27 7 C27 7.99 27 8.98 27 10 C22.90661348 10.04939115 18.81334202 10.08571501 14.71972656 10.10986328 C13.32679219 10.11992877 11.93387898 10.13358234 10.54101562 10.15087891 C8.5404564 10.1751022 6.53974385 10.18540814 4.5390625 10.1953125 C3.33459473 10.20578613 2.13012695 10.21625977 0.88916016 10.22705078 C-2 10 -2 10 -4 8 C-3.8125 5.9375 -3.8125 5.9375 -3 4 C-2.01 3.67 -1.02 3.34 0 3 C0 2.01 0 1.02 0 0 Z " fill="#D06C17" transform="translate(211,355)"/>
<path d="M0 0 C24.91575092 17.74725275 24.91575092 17.74725275 28 27 C26.02 26.34 24.04 25.68 22 25 C22 23.68 22 22.36 22 21 C21.236875 20.9175 20.47375 20.835 19.6875 20.75 C15.39250591 19.551397 14.38017968 16.62096015 12.125 12.9375 C9.94531948 9.92441223 8.21842894 8.73969132 5 7 C4.67 6.34 4.34 5.68 4 5 C3.01 4.67 2.02 4.34 1 4 C0.3125 1.9375 0.3125 1.9375 0 0 Z " fill="#CB741E" transform="translate(396,144)"/>
<path d="M0 0 C0.94617188 0.02578125 1.89234375 0.0515625 2.8671875 0.078125 C4.04539062 0.13484375 5.22359375 0.1915625 6.4375 0.25 C7.60974121 0.30510742 7.60974121 0.30510742 8.80566406 0.36132812 C14.35154499 0.6261182 19.89464533 0.92834211 25.4375 1.25 C25.9325 2.24 25.9325 2.24 26.4375 3.25 C14.8875 3.25 3.3375 3.25 -8.5625 3.25 C-4.05557337 -0.13019497 -4.05557337 -0.13019497 0 0 Z " fill="#21160A" transform="translate(271.5625,103.75)"/>
<path d="M0 0 C9.24 0 18.48 0 28 0 C29 3 29 3 27.75 6.0625 C26 9 26 9 23 11 C21.99831469 12.94832935 21.99831469 12.94832935 21.3125 15.125 C21.06113281 15.84945312 20.80976563 16.57390625 20.55078125 17.3203125 C20.36902344 17.87460938 20.18726563 18.42890625 20 19 C18.68 19 17.36 19 16 19 C16.33 17.68 16.66 16.36 17 15 C17.66 15 18.32 15 19 15 C19.2475 14.29875 19.495 13.5975 19.75 12.875 C21.17180238 9.60485452 22.87246288 6.858878 25 4 C25.66 4 26.32 4 27 4 C27 3.01 27 2.02 27 1 C18.09 1 9.18 1 0 1 C0 0.67 0 0.34 0 0 Z " fill="#B75E17" transform="translate(329,190)"/>
<path d="M0 0 C-0.99 0.495 -0.99 0.495 -2 1 C-2 1.66 -2 2.32 -2 3 C-10.8517947 5.51624621 -18.91854419 7.3436015 -28 5 C-28 4.67 -28 4.34 -28 4 C-24.45995797 3.3245086 -20.91773831 2.66119202 -17.375 2 C-16.37597656 1.80921875 -15.37695312 1.6184375 -14.34765625 1.421875 C-9.50947407 0.52472864 -4.94607582 -0.27009288 0 0 Z " fill="#34281B" transform="translate(335,450)"/>
<path d="M0 0 C0.66 0 1.32 0 2 0 C0.57616248 4.72917462 -1.4044979 8.98451656 -3.75 13.3125 C-4.10126953 13.96677979 -4.45253906 14.62105957 -4.81445312 15.29516602 C-7.58996458 20.39724617 -10.61866967 25.27382238 -14 30 C-14.33 29.01 -14.66 28.02 -15 27 C-14.34 26.34 -13.68 25.68 -13 25 C-12.67 23.989375 -12.34 22.97875 -12 21.9375 C-11 19 -11 19 -9 18 C-8.7525 16.515 -8.7525 16.515 -8.5 15 C-8.335 14.01 -8.17 13.02 -8 12 C-7.34 11.67 -6.68 11.34 -6 11 C-4.86649466 8.98330173 -4.86649466 8.98330173 -4 7 C-3.34 7 -2.68 7 -2 7 C-1.34 4.69 -0.68 2.38 0 0 Z " fill="#D57B1E" transform="translate(450,347)"/>
<path d="M0 0 C0.66 0 1.32 0 2 0 C2.33 0.99 2.66 1.98 3 3 C3.66 3.33 4.32 3.66 5 4 C6.125 6.0625 6.125 6.0625 7 8 C7.66 8 8.32 8 9 8 C9 9.65 9 11.3 9 13 C9.66 13 10.32 13 11 13 C11 13.66 11 14.32 11 15 C11.66 15 12.32 15 13 15 C13.268125 15.969375 13.53625 16.93875 13.8125 17.9375 C14.204375 18.948125 14.59625 19.95875 15 21 C15.99 21.33 16.98 21.66 18 22 C18.33 23.65 18.66 25.3 19 27 C13.63706363 23.02000974 10.30197525 18.51450477 6.6875 12.9375 C6.15060547 12.13505859 5.61371094 11.33261719 5.06054688 10.50585938 C0.79227599 4.02002531 0.79227599 4.02002531 0 0 Z " fill="#DC7C18" transform="translate(126,365)"/>
<path d="M0 0 C9.3148971 -0.89185185 15.35486542 1.90324361 23 7 C23 7.66 23 8.32 23 9 C17.45792197 7.38151704 11.93678471 5.69595391 6.4375 3.9375 C4.91962891 3.45603516 4.91962891 3.45603516 3.37109375 2.96484375 C1 2 1 2 0 0 Z " fill="#48352A" transform="translate(333,112)"/>
<path d="M0 0 C1.31291016 0.03609375 2.62582031 0.0721875 3.97851562 0.109375 C7.21780187 0.20360878 10.45116962 0.33505912 13.6875 0.5 C13.3575 1.49 13.0275 2.48 12.6875 3.5 C12.6875 2.84 12.6875 2.18 12.6875 1.5 C4.1075 1.5 -4.4725 1.5 -13.3125 1.5 C-13.3125 3.15 -13.3125 4.8 -13.3125 6.5 C-14.3025 6.83 -15.2925 7.16 -16.3125 7.5 C-15.9825 8.49 -15.6525 9.48 -15.3125 10.5 C-16.6325 10.83 -17.9525 11.16 -19.3125 11.5 C-19.3125 12.16 -19.3125 12.82 -19.3125 13.5 C-19.9725 13.5 -20.6325 13.5 -21.3125 13.5 C-20.72896396 11.8024406 -20.03199183 10.14455275 -19.3125 8.5 C-19.0753125 7.83162109 -18.838125 7.16324219 -18.59375 6.47460938 C-14.83512495 -1.79285016 -8.08938134 -0.4191807 0 0 Z " fill="#481802" transform="translate(342.3125,190.5)"/>
<path d="M0 0 C-2.52049393 0.79276039 -5.04138014 1.58423465 -7.5625 2.375 C-8.26697266 2.59671875 -8.97144531 2.8184375 -9.69726562 3.046875 C-23.23412703 7.28884079 -23.23412703 7.28884079 -28 7 C-25 5 -25 5 -22 5 C-22 4.01 -22 3.02 -22 2 C-7.05378225 -2.15172715 -7.05378225 -2.15172715 0 0 Z " fill="#251814" transform="translate(247,110)"/>
<path d="M0 0 C9.9 0 19.8 0 30 0 C30 0.33 30 0.66 30 1 C20.76 1 11.52 1 2 1 C5.24631526 6.76305412 5.24631526 6.76305412 9 12 C8.67 12.66 8.34 13.32 8 14 C7.01 13.34 6.02 12.68 5 12 C5 11.01 5 10.02 5 9 C4.360625 8.814375 3.72125 8.62875 3.0625 8.4375 C2.381875 7.963125 1.70125 7.48875 1 7 C0.67 4.69 0.34 2.38 0 0 Z " fill="#B55D13" transform="translate(212,190)"/>
<path d="M0 0 C11.37076127 3.24878894 21.81331559 9.08643126 32 15 C30.4375 15.75 30.4375 15.75 28 16 C25.49974974 14.87516581 23.3320943 13.46835567 21 12 C20.34 11.67 19.68 11.34 19 11 C19 10.34 19 9.68 19 9 C18.37351562 8.87882813 17.74703125 8.75765625 17.1015625 8.6328125 C15.87566406 8.38144531 15.87566406 8.38144531 14.625 8.125 C13.81289063 7.96257812 13.00078125 7.80015625 12.1640625 7.6328125 C10 7 10 7 8 5 C6.01178687 4.60235737 4.01055661 4.26224651 2 4 C2 3.34 2 2.68 2 2 C1.34 2 0.68 2 0 2 C0 1.34 0 0.68 0 0 Z " fill="#D37824" transform="translate(352,120)"/>
<path d="M0 0 C7.34686463 1.21119677 14.07189348 3.28671113 21 6 C21 6.99 21 7.98 21 9 C19 10 19 10 16.8984375 9.36328125 C1.46920821 2.93841642 1.46920821 2.93841642 0 0 Z " fill="#44372F" transform="translate(197,437)"/>
<path d="M0 0 C0 0.99 0 1.98 0 3 C-0.99 3.495 -0.99 3.495 -2 4 C-2.33 4.99 -2.66 5.98 -3 7 C-4.99145391 8.01691264 -6.99187074 9.01642648 -9 10 C-9.99 11.485 -9.99 11.485 -11 13 C-11.66 13 -12.32 13 -13 13 C-13.33 13.99 -13.66 14.98 -14 16 C-15.66666667 16.66666667 -17.33333333 17.33333333 -19 18 C-19.33 18.99 -19.66 19.98 -20 21 C-20.66 21 -21.32 21 -22 21 C-22.33 21.99 -22.66 22.98 -23 24 C-23.66 23.67 -24.32 23.34 -25 23 C-19.64414965 16.41995529 -13.84673136 10.93204298 -7.1875 5.6875 C-6.14819336 4.86282227 -6.14819336 4.86282227 -5.08789062 4.02148438 C-3.39415445 2.67817637 -1.69738603 1.33869313 0 0 Z " fill="#CD7420" transform="translate(173,143)"/>
<path d="M0 0 C0.99 0 1.98 0 3 0 C1.49227028 4.77299053 -1.18952721 7.88259341 -4.4375 11.5625 C-5.4163308 12.68796248 -6.39422022 13.81424449 -7.37109375 14.94140625 C-7.82983887 15.46621582 -8.28858398 15.99102539 -8.76123047 16.53173828 C-9.80879945 17.77337799 -10.77598721 19.08215904 -11.72265625 20.40234375 C-12.14417969 20.92957031 -12.56570313 21.45679688 -13 22 C-13.66 22 -14.32 22 -15 22 C-15.33 22.66 -15.66 23.32 -16 24 C-15.42437172 20.66135596 -14.40936384 19.30897368 -12 17 C-11.67 16.01 -11.34 15.02 -11 14 C-10.34 14 -9.68 14 -9 14 C-9 12.68 -9 11.36 -9 10 C-8.01 10 -7.02 10 -6 10 C-4.63823419 8.01924973 -3.30406884 6.01920337 -2 4 C-1.34 4 -0.68 4 0 4 C0 2.68 0 1.36 0 0 Z " fill="#D27622" transform="translate(432,377)"/>
<path d="M0 0 C0.33 1.32 0.66 2.64 1 4 C0.01 4.495 0.01 4.495 -1 5 C-1.8405415 6.40947946 -2.62488734 7.85288588 -3.375 9.3125 C-5.22203013 12.73413693 -6.90607866 15.54620032 -10 18 C-10.66 18 -11.32 18 -12 18 C-12 18.99 -12 19.98 -12 21 C-12.66 21 -13.32 21 -14 21 C-12.39516194 16.33138019 -10.02509806 11.90741833 -7 8 C-6.34 8 -5.68 8 -5 8 C-4.731875 7.4225 -4.46375 6.845 -4.1875 6.25 C-2.98280141 3.9674132 -1.59201885 2.0262058 0 0 Z " fill="#C96715" transform="translate(329,232)"/>
<path d="M0 0 C5.08515942 4.46877646 8.88789969 9.99809225 12 16 C11.67 16.66 11.34 17.32 11 18 C9.02 17.34 7.04 16.68 5 16 C4.896875 14.906875 4.79375 13.81375 4.6875 12.6875 C3.96176305 8.7949109 3.62633677 8.51690607 1 6 C0.3125 2.8125 0.3125 2.8125 0 0 Z " fill="#CB6D15" transform="translate(302,320)"/>
<path d="M0 0 C8.50082372 5.75288303 8.50082372 5.75288303 10 11 C10.66 11.33 11.32 11.66 12 12 C12.625 15.0625 12.625 15.0625 13 18 C8.17556475 13.47709195 3.73206268 8.46381385 0 3 C0 2.01 0 1.02 0 0 Z " fill="#36271F" transform="translate(425,169)"/>
<path d="M0 0 C4.81938524 -0.23509196 8.46298506 0.54815522 13 2 C13 2.66 13 3.32 13 4 C14.051875 3.9175 15.10375 3.835 16.1875 3.75 C20.53763669 4.03525487 21.9315153 5.02449969 25 8 C19.25764482 7.42511855 14.05313416 6.31766078 8.5625 4.5625 C7.84384766 4.34529297 7.12519531 4.12808594 6.38476562 3.90429688 C4.56858201 3.33320231 2.78082022 2.67331365 1 2 C0.67 1.34 0.34 0.68 0 0 Z " fill="#C67324" transform="translate(218,443)"/>
<path d="M0 0 C1.29037291 3.87111872 0.41562361 5.51270312 -0.8125 9.375 C-2.64301852 15.42011442 -3.76459475 21.26376583 -4.5078125 27.55078125 C-4.75144531 28.76314453 -4.75144531 28.76314453 -5 30 C-5.66 30.33 -6.32 30.66 -7 31 C-8.01990918 20.63092333 -4.65282305 9.3056461 0 0 Z " fill="#C57423" transform="translate(113,223)"/>
<path d="M0 0 C0.33 0.66 0.66 1.32 1 2 C1.66 2.33 2.32 2.66 3 3 C1.35 6.96 -0.3 10.92 -2 15 C-2.66 14.67 -3.32 14.34 -4 14 C-4.66 14.66 -5.32 15.32 -6 16 C-5.52412884 9.97229862 -2.80277043 5.23321711 0 0 Z " fill="#332820" transform="translate(118,203)"/>
<path d="M0 0 C-5.28164685 3.13784915 -10.05496191 5.35998949 -16 7 C-18.90879444 8.30673241 -21.78065172 9.67190532 -24.64453125 11.07421875 C-25.81048828 11.53248047 -25.81048828 11.53248047 -27 12 C-27.66 11.67 -28.32 11.34 -29 11 C-4.00587803 -2.00293902 -4.00587803 -2.00293902 0 0 Z " fill="#B76C22" transform="translate(226,117)"/>
<path d="M0 0 C1.98 0 3.96 0 6 0 C2.58711362 3.59482333 -0.86409395 6.46012318 -5 9.1875 C-6.010625 9.86167969 -7.02125 10.53585937 -8.0625 11.23046875 C-10.67210632 12.80247894 -13.13977118 13.97473416 -16 15 C-16 14.34 -16 13.68 -16 13 C-15.360625 12.71125 -14.72125 12.4225 -14.0625 12.125 C-11.84793921 11.17176549 -11.84793921 11.17176549 -11 9 C-7.70849974 7.47615729 -4.44068928 6.14689643 -1 5 C-0.67 3.35 -0.34 1.7 0 0 Z " fill="#C87627" transform="translate(391,417)"/>
<path d="M0 0 C-2.61167103 2.61167103 -4.9721059 3.07131482 -8.5 4.125 C-10.24796875 4.65480469 -10.24796875 4.65480469 -12.03125 5.1953125 C-15 6 -15 6 -17 6 C-17 5.34 -17 4.68 -17 4 C-17.66 3.34 -18.32 2.68 -19 2 C-6.51480638 -1.62870159 -6.51480638 -1.62870159 0 0 Z " fill="#45332B" transform="translate(350,447)"/>
<path d="M0 0 C1 3 1 3 -0.25 6.125 C-2 9 -2 9 -5 10 C-5.33 11.65 -5.66 13.3 -6 15 C-6.99 15 -7.98 15 -9 15 C-9 15.99 -9 16.98 -9 18 C-9.99 18.33 -10.98 18.66 -12 19 C-10.42686828 14.27156386 -7.79358765 10.6566157 -4.875 6.6875 C-4.17310547 5.71973633 -4.17310547 5.71973633 -3.45703125 4.73242188 C-2.3094071 3.15151106 -1.15534523 1.57527699 0 0 Z " fill="#B35D11" transform="translate(273,309)"/>
<path d="M0 0 C4.89331723 1.46799517 9.63043025 3.33028674 14 6 C14.33 6.66 14.66 7.32 15 8 C14.21625 7.814375 13.4325 7.62875 12.625 7.4375 C10.02910225 6.74037734 10.02910225 6.74037734 8 8 C5.6171875 7.00390625 5.6171875 7.00390625 2.875 5.5625 C1.96492188 5.08941406 1.05484375 4.61632812 0.1171875 4.12890625 C-0.58148438 3.75636719 -1.28015625 3.38382812 -2 3 C-1.34 2.01 -0.68 1.02 0 0 Z " fill="#412F26" transform="translate(367,123)"/>
<path d="M0 0 C0.66 0 1.32 0 2 0 C2 0.66 2 1.32 2 2 C2.99 2 3.98 2 5 2 C5.3125 5.25 5.3125 5.25 5 9 C2.5625 11.1875 2.5625 11.1875 0 13 C-0.86965506 15.12946603 -0.86965506 15.12946603 -1 17 C-2.32 17.33 -3.64 17.66 -5 18 C-4.09131636 15.9348099 -3.13158225 14.15774252 -1.68359375 12.421875 C-0.2188389 10.64980101 0.99787444 9.0730666 2 7 C1.4794054 3.12777361 1.4794054 3.12777361 0 0 Z " fill="#371402" transform="translate(267,269)"/>
<path d="M0 0 C0.66 0 1.32 0 2 0 C2.66 5.28 3.32 10.56 4 16 C3.34 16 2.68 16 2 16 C2 17.98 2 19.96 2 22 C1.67 22 1.34 22 1 22 C0.08839714 14.64206267 -0.11459026 7.41017023 0 0 Z " fill="#2B1910" transform="translate(464,252)"/>
<path d="M0 0 C3.92591727 4.3621303 7.02897038 9.46491681 9 15 C8.63671875 17.30859375 8.63671875 17.30859375 8 19 C8 18.34 8 17.68 8 17 C7.34 17 6.68 17 6 17 C5.9175 16.05125 5.835 15.1025 5.75 14.125 C5.5025 13.09375 5.255 12.0625 5 11 C4.34 10.7009375 3.68 10.401875 3 10.09375 C2.34 9.7328125 1.68 9.371875 1 9 C0.390625 6.8359375 0.390625 6.8359375 0.25 4.375 C0.19328125 3.55773437 0.1365625 2.74046875 0.078125 1.8984375 C0.05234375 1.27195313 0.0265625 0.64546875 0 0 Z " fill="#D27520" transform="translate(443,198)"/>
<path d="M0 0 C3.08236365 2.78407039 3.95206337 3.80825346 5 8 C-4.24 8 -13.48 8 -23 8 C-23.33 7.34 -23.66 6.68 -24 6 C-10.635 6.495 -10.635 6.495 3 7 C3 6.34 3 5.68 3 5 C2.01 5 1.02 5 0 5 C0 3.35 0 1.7 0 0 Z " fill="#3A1301" transform="translate(354,355)"/>
<path d="M0 0 C0.99 0 1.98 0 3 0 C6.04827747 6.09655494 6.3061597 14.26448661 6 21 C4.16124447 17.62066551 3.01148893 14.17043833 1.875 10.5 C1.34519531 8.81390625 1.34519531 8.81390625 0.8046875 7.09375 C0 4 0 4 0 0 Z " fill="#311C11" transform="translate(454,217)"/>
<path d="M0 0 C0.99 0 1.98 0 3 0 C2.52406444 4.28342007 0.05238315 6.15573389 -3 9 C-3.886875 9.9075 -4.77375 10.815 -5.6875 11.75 C-8 14 -8 14 -10 15 C-8.6017971 10.97926109 -6.70820245 8.01310363 -4.0625 4.6875 C-3.37285156 3.80449219 -2.68320313 2.92148438 -1.97265625 2.01171875 C-1.32167969 1.34785156 -0.67070312 0.68398437 0 0 Z " fill="#3F3934" transform="translate(138,172)"/>
<path d="M0 0 C1.61013585 0.73709784 3.21292391 1.49025857 4.8125 2.25 C5.70582031 2.66765625 6.59914063 3.0853125 7.51953125 3.515625 C10.13502213 5.08080065 11.43742551 6.40436131 13 9 C13 9.66 13 10.32 13 11 C8.08680853 9.46462766 3.67764836 6.58639157 0 3 C0 2.01 0 1.02 0 0 Z " fill="#312021" transform="translate(390,137)"/>
<path d="M0 0 C0.33 0 0.66 0 1 0 C1.3910939 9.97289448 1.3910939 9.97289448 -1 14 C-1.99 14.33 -2.98 14.66 -4 15 C-3.85769192 13.58297487 -3.71099254 12.1663904 -3.5625 10.75 C-3.48128906 9.96109375 -3.40007812 9.1721875 -3.31640625 8.359375 C-3.02365007 6.17635361 -2.57935581 4.1226818 -2 2 C-1.34 2 -0.68 2 0 2 C0 1.34 0 0.68 0 0 Z " fill="#2B1E17" transform="translate(461,323)"/>
<path d="M0 0 C0.99 0.33 1.98 0.66 3 1 C2.07084243 2.62978448 1.13135466 4.25368275 0.1875 5.875 C-0.33457031 6.77992188 -0.85664063 7.68484375 -1.39453125 8.6171875 C-3 11 -3 11 -6 13 C-6.83905565 11.87926138 -7.67107831 10.75325453 -8.5 9.625 C-9.19609375 8.68527344 -9.19609375 8.68527344 -9.90625 7.7265625 C-11 6 -11 6 -11 4 C-10.01 4 -9.02 4 -8 4 C-7.731875 4.639375 -7.46375 5.27875 -7.1875 5.9375 C-6.11332248 8.33131686 -6.11332248 8.33131686 -3 9 C-2.01 6.03 -1.02 3.06 0 0 Z " fill="#CD721D" transform="translate(291,243)"/>
<path d="M0 0 C-1.25460729 3.76382187 -2.52618612 4.25041838 -5.875 6.25 C-6.75929688 6.79140625 -7.64359375 7.3328125 -8.5546875 7.890625 C-11 9 -11 9 -14 8 C-12.68 7.67 -11.36 7.34 -10 7 C-10 5.68 -10 4.36 -10 3 C-3.375 -1.125 -3.375 -1.125 0 0 Z " fill="#41372E" transform="translate(386,428)"/>
<path d="M0 0 C2.4375 0.75 2.4375 0.75 5 2 C5.6875 4.0625 5.6875 4.0625 6 6 C6.66 6.33 7.32 6.66 8 7 C8.33333333 8.33333333 8.66666667 9.66666667 9 11 C9.66 11.33 10.32 11.66 11 12 C12.1875 13.875 12.1875 13.875 13 16 C12.67 16.99 12.34 17.98 12 19 C0 2.12391931 0 2.12391931 0 0 Z " fill="#DC7719" transform="translate(306,283)"/>
<path d="M0 0 C7.6700283 0.4302337 14.65896942 1.74231361 22 4 C22 4.33 22 4.66 22 5 C13.69914269 5.51345509 7.48064025 4.70721995 0 1 C0 0.67 0 0.34 0 0 Z " fill="#CB7620" transform="translate(316,110)"/>
<path d="M0 0 C0.66 0 1.32 0 2 0 C1.979375 1.010625 1.95875 2.02125 1.9375 3.0625 C1.99687734 6.80327257 2.39795085 10.31244898 3 14 C0.66475218 11.74259377 -1.18705073 9.7194239 -3 7 C-2.62068453 3.96547627 -1.74959319 2.62438979 0 0 Z " fill="#DE741B" transform="translate(303,269)"/>
<path d="M0 0 C2.46751239 3.70126859 2.30721156 5.62223532 2 10 C1.1875 12.375 1.1875 12.375 0 14 C-0.99 14.33 -1.98 14.66 -3 15 C-2.5547115 9.72684667 -1.91626837 4.98229776 0 0 Z " fill="#402D25" transform="translate(104,244)"/>
<path d="M0 0 C0.99 0.33 1.98 0.66 3 1 C3 1.99 3 2.98 3 4 C-6.24 4 -15.48 4 -25 4 C-23 2 -23 2 -20.66162109 1.86474609 C-19.70852051 1.91711426 -18.75541992 1.96948242 -17.7734375 2.0234375 C-16.7421875 2.075 -15.7109375 2.1265625 -14.6484375 2.1796875 C-13.02808594 2.27636719 -13.02808594 2.27636719 -11.375 2.375 C-10.28703125 2.43171875 -9.1990625 2.4884375 -8.078125 2.546875 C-5.38477613 2.6886302 -2.6923207 2.84006642 0 3 C0 2.01 0 1.02 0 0 Z " fill="#EE7C16" transform="translate(237,186)"/>
<path d="M0 0 C1.485 0.99 1.485 0.99 3 2 C3 2.66 3 3.32 3 4 C3.5775 4.0825 4.155 4.165 4.75 4.25 C7.6159304 5.20531013 8.9990764 6.78469173 11 9 C10.67 9.66 10.34 10.32 10 11 C5.64122922 10.49706491 3.01940914 8.01940914 0 5 C-0.375 2.1875 -0.375 2.1875 0 0 Z " fill="#50403D" transform="translate(402,144)"/>
<path d="M0 0 C-0.125 1.8125 -0.125 1.8125 -1 4 C-3.625 5.5 -3.625 5.5 -7 7 C-8.23448524 7.74121312 -9.46369043 8.49129003 -10.6875 9.25 C-12.3271875 10.11625 -12.3271875 10.11625 -14 11 C-14.99 10.67 -15.98 10.34 -17 10 C-14.545324 8.32771465 -12.08660326 6.6620314 -9.625 5 C-8.92632812 4.52304688 -8.22765625 4.04609375 -7.5078125 3.5546875 C-6.8375 3.10351562 -6.1671875 2.65234375 -5.4765625 2.1875 C-4.85861816 1.76855469 -4.24067383 1.34960938 -3.60400391 0.91796875 C-2 0 -2 0 0 0 Z " fill="#D37923" transform="translate(191,132)"/>
<path d="M0 0 C0.99 0.33 1.98 0.66 3 1 C-1.29 4.63 -5.58 8.26 -10 12 C-10.33 11.34 -10.66 10.68 -11 10 C-9.875 7.4375 -9.875 7.4375 -8 5 C-5.3125 4.1875 -5.3125 4.1875 -3 4 C-2.67 3.01 -2.34 2.02 -2 1 C-1.34 0.67 -0.68 0.34 0 0 Z " fill="#D8781B" transform="translate(409,405)"/>
<path d="M0 0 C0.99 0 1.98 0 3 0 C4.94174757 4.66019417 4.94174757 4.66019417 5.375 7.1875 C5.58125 7.785625 5.7875 8.38375 6 9 C6.99 9.433125 6.99 9.433125 8 9.875 C8.66 10.24625 9.32 10.6175 10 11 C10.75 14.125 10.75 14.125 11 17 C9 16 9 16 8 13 C7.01390621 11.98628454 6.01223851 10.98760984 5 10 C4.06624374 8.67169884 3.17049112 7.31595419 2.3125 5.9375 C1.87550781 5.24527344 1.43851562 4.55304688 0.98828125 3.83984375 C0 2 0 2 0 0 Z " fill="#D37318" transform="translate(269,230)"/>
<path d="M0 0 C6.40900977 4.56507679 12.2190161 9.66917468 18 15 C17.01 15.495 17.01 15.495 16 16 C15.29875 15.2575 14.5975 14.515 13.875 13.75 C11.08299984 11.07939115 8.21514527 9.11907302 5 7 C4.67 6.34 4.34 5.68 4 5 C3.01 4.67 2.02 4.34 1 4 C0.3125 1.9375 0.3125 1.9375 0 0 Z " fill="#C37022" transform="translate(396,144)"/>
<path d="M0 0 C0.556875 0.226875 1.11375 0.45375 1.6875 0.6875 C0.6875 3.6875 0.6875 3.6875 -1.625 5.375 C-4.3125 6.6875 -4.3125 6.6875 -8.3125 6.6875 C-8.125 4.875 -8.125 4.875 -7.3125 2.6875 C-3.3125 -0.44763514 -3.3125 -0.44763514 0 0 Z " fill="#E97C15" transform="translate(229.3125,115.3125)"/>
<path d="M0 0 C0.33 0.66 0.66 1.32 1 2 C-0.67894566 6.68337474 -2.54898868 10.33330047 -6 14 C-6.99 14.33 -7.98 14.66 -9 15 C-7.125 10.25 -7.125 10.25 -6 8 C-5.34 8 -4.68 8 -4 8 C-3.566875 6.8553125 -3.566875 6.8553125 -3.125 5.6875 C-2 3 -2 3 0 0 Z " fill="#471A02" transform="translate(221,344)"/>
<path d="M0 0 C1.74271938 2.297221 3.39911152 4.59866729 5 7 C5.66 7.66 6.32 8.32 7 9 C7.1953125 11.1640625 7.1953125 11.1640625 7.125 13.625 C7.10695313 14.44226563 7.08890625 15.25953125 7.0703125 16.1015625 C7.03550781 17.04128906 7.03550781 17.04128906 7 18 C4.68902596 15.13942468 3.17070609 12.41372871 1.8125 9 C1.46832031 8.154375 1.12414062 7.30875 0.76953125 6.4375 C0 4 0 4 0 0 Z " fill="#453E39" transform="translate(108,333)"/>
<path d="M0 0 C-3.0622744 2.48627517 -6.1457054 4.09989404 -9.75 5.6875 C-10.73484375 6.12449219 -11.7196875 6.56148438 -12.734375 7.01171875 C-13.48203125 7.33785156 -14.2296875 7.66398437 -15 8 C-15.33 7.34 -15.66 6.68 -16 6 C-15.34 6 -14.68 6 -14 6 C-14 5.34 -14 4.68 -14 4 C-12.68 4 -11.36 4 -10 4 C-10 3.34 -10 2.68 -10 2 C-6.5980513 -0.09350689 -3.94727588 -0.17942163 0 0 Z " fill="#D37821" transform="translate(375,432)"/>
<path d="M0 0 C0.99 0.33 1.98 0.66 3 1 C3 1.99 3 2.98 3 4 C3.66 4 4.32 4 5 4 C5 4.99 5 5.98 5 7 C6.32 6.01 7.64 5.02 9 4 C9 7.3 9 10.6 9 14 C6.67489755 11.15820812 4.42299401 8.27173401 2.25 5.3125 C1.82203125 4.73113281 1.3940625 4.14976562 0.953125 3.55078125 C0 2 0 2 0 0 Z " fill="#DC7617" transform="translate(324,309)"/>
<path d="M0 0 C-0.33 1.32 -0.66 2.64 -1 4 C-5.95 3.67 -10.9 3.34 -16 3 C-16 2.67 -16 2.34 -16 2 C-10.61972975 0.80911014 -5.54708616 -0.2919519 0 0 Z " fill="#534B49" transform="translate(267,104)"/>
<path d="M0 0 C0.66 0.99 1.32 1.98 2 3 C1.125 5.6875 1.125 5.6875 0 8 C-2.04119788 6.38405168 -4.04072937 4.7143618 -6 3 C-6 2.34 -6 1.68 -6 1 C-3 0 -3 0 0 0 Z " fill="#E57914" transform="translate(151,391)"/>
<path d="M0 0 C1.8125 0.125 1.8125 0.125 4 1 C6.29670356 4.79839435 7.69115646 8.77142855 9 13 C1.75 5.75 1.75 5.75 0 0 Z " fill="#3A2E26" transform="translate(133,381)"/>
<path d="M0 0 C0.99 0.495 0.99 0.495 2 1 C3.74451341 6.52429247 4.20612487 11.22850374 4 17 C3.33333333 15.66666667 2.66666667 14.33333333 2 13 C1.4740625 12.08734375 1.4740625 12.08734375 0.9375 11.15625 C-0.14175999 8.67395203 -0.20416324 6.94155007 -0.125 4.25 C-0.10695313 3.45078125 -0.08890625 2.6515625 -0.0703125 1.828125 C-0.04710938 1.22484375 -0.02390625 0.6215625 0 0 Z " fill="#DC7814" transform="translate(112,329)"/>
<path d="M0 0 C0.84304687 0.0721875 1.68609375 0.144375 2.5546875 0.21875 C3.65039062 0.3115625 4.74609375 0.404375 5.875 0.5 C6.96554688 0.5928125 8.05609375 0.685625 9.1796875 0.78125 C10.78329564 0.90562958 12.39157551 1 14 1 C13.67 2.65 13.34 4.3 13 6 C11.58034858 5.57228451 10.1643776 5.13234457 8.75 4.6875 C7.96109375 4.44386719 7.1721875 4.20023437 6.359375 3.94921875 C3.87302768 2.94891677 2.0657166 1.69142391 0 0 Z " fill="#D17218" transform="translate(203,437)"/>
<path d="M0 0 C0.33 0 0.66 0 1 0 C1.39169887 2.66355234 1.40564529 4.39224373 -0.11328125 6.66796875 C-1.36389317 8.1510888 -2.67864514 9.57954352 -4 11 C-4.33 10.34 -4.66 9.68 -5 9 C-5.66 8.67 -6.32 8.34 -7 8 C-5.85760183 6.66372225 -4.71098945 5.33104612 -3.5625 4 C-2.92441406 3.2575 -2.28632813 2.515 -1.62890625 1.75 C-1.09136719 1.1725 -0.55382812 0.595 0 0 Z " fill="#3C241C" transform="translate(427,388)"/>
<path d="M0 0 C1 3 1 3 -0.1875 6.0625 C-1.99216457 8.9873012 -2.82880497 9.90648447 -6 11 C-6 11.66 -6 12.32 -6 13 C-6.66 13 -7.32 13 -8 13 C-6.53181332 9.89257577 -4.79975 7.09528261 -2.875 4.25 C-2.33617187 3.45078125 -1.79734375 2.6515625 -1.2421875 1.828125 C-0.62730469 0.92320312 -0.62730469 0.92320312 0 0 Z " fill="#421604" transform="translate(238,320)"/>
<path d="M0 0 C0 3 0 3 -1 6 C-1.66 6 -2.32 6 -3 6 C-2.6596875 6.8971875 -2.6596875 6.8971875 -2.3125 7.8125 C-2 10 -2 10 -3.25 11.75 C-5 13 -5 13 -8 13 C-6.53181332 9.89257577 -4.79975 7.09528261 -2.875 4.25 C-2.33617187 3.45078125 -1.79734375 2.6515625 -1.2421875 1.828125 C-0.62730469 0.92320312 -0.62730469 0.92320312 0 0 Z " fill="#3E1706" transform="translate(307,224)"/>
<path d="M0 0 C0.66 0 1.32 0 2 0 C2 0.66 2 1.32 2 2 C2.66 2 3.32 2 4 2 C4 2.99 4 3.98 4 5 C4.66 5 5.32 5 6 5 C7.5625 6.0625 7.5625 6.0625 9 8 C9.6875 11.6875 9.6875 11.6875 10 15 C6 10.25 6 10.25 6 8 C5.34 8 4.68 8 4 8 C2.68 5.36 1.36 2.72 0 0 Z " fill="#3C1102" transform="translate(320,346)"/>
<path d="M0 0 C2 1 2 1 2.8515625 3.328125 C3.10679688 4.29234375 3.36203125 5.2565625 3.625 6.25 C3.88539062 7.20390625 4.14578125 8.1578125 4.4140625 9.140625 C4.97044392 11.85576635 5.11083497 14.23920177 5 17 C1.24826375 11.37239562 -0.41628689 6.79935253 0 0 Z " fill="#2A1204" transform="translate(108,326)"/>
<path d="M0 0 C1.08557659 3.24215827 0.94015194 5.02321809 -0.3125 8.1875 C-0.57675781 8.88230469 -0.84101562 9.57710937 -1.11328125 10.29296875 C-2 12 -2 12 -4 13 C-4.125 6.25 -4.125 6.25 -3 4 C-2.34 4 -1.68 4 -1 4 C-0.67 2.68 -0.34 1.36 0 0 Z " fill="#231B15" transform="translate(114,215)"/>
<path d="M0 0 C2.96052484 3.36423277 3.92289822 6.69159287 5 11 C4.34 11 3.68 11 3 11 C2.67 11.66 2.34 12.32 2 13 C0.24252386 8.49646738 -0.19294408 4.82360189 0 0 Z " fill="#3B3029" transform="translate(451,206)"/>
<path d="M0 0 C4.69564393 3.31457218 7.72469104 7.36279281 11 12 C10.67 12.66 10.34 13.32 10 14 C7 12 7 12 6 9 C5.34 8.67 4.68 8.34 4 8 C4 7.34 4 6.68 4 6 C3.34 6 2.68 6 2 6 C0 3 0 3 0 0 Z " fill="#C17226" transform="translate(424,171)"/>
<path d="M0 0 C0.99 0.33 1.98 0.66 3 1 C1.85821872 2.66944521 0.71147095 4.3354948 -0.4375 6 C-1.07558594 6.928125 -1.71367187 7.85625 -2.37109375 8.8125 C-2.90863281 9.534375 -3.44617188 10.25625 -4 11 C-4.33 11 -4.66 11 -5 11 C-5 9.35 -5 7.7 -5 6 C-4.01 6 -3.02 6 -2 6 C-1.855625 5.195625 -1.71125 4.39125 -1.5625 3.5625 C-1 1 -1 1 0 0 Z " fill="#E07618" transform="translate(265,277)"/>
<path d="M0 0 C2.38681675 2.38681675 3.94223816 4.2585508 5.6875 7.0625 C6.12449219 7.75472656 6.56148438 8.44695312 7.01171875 9.16015625 C8 11 8 11 8 13 C7.34 13 6.68 13 6 13 C6 12.34 6 11.68 6 11 C5.01 11.33 4.02 11.66 3 12 C2.01 8.04 1.02 4.08 0 0 Z " fill="#D27520" transform="translate(435,185)"/>
<path d="M0 0 C1.65 1.65 3.3 3.3 5 5 C4.67 5.66 4.34 6.32 4 7 C3.443125 6.608125 2.88625 6.21625 2.3125 5.8125 C1.1678125 5.4103125 1.1678125 5.4103125 0 5 C-2.74832154 6.28184562 -2.74832154 6.28184562 -5 8 C-3.62845496 5.04590299 -2.01136276 2.55991624 0 0 Z " fill="#C46B1D" transform="translate(284,293)"/>
<path d="M0 0 C0.33 0 0.66 0 1 0 C2.56659619 6.02536998 2.56659619 6.02536998 0.953125 8.80078125 C-0.29161056 10.26579304 -1.64065712 11.64065712 -3 13 C-3.93045933 10.44855176 -4.08564091 9.25993522 -3.22265625 6.640625 C-2.83980469 5.85171875 -2.45695312 5.0628125 -2.0625 4.25 C-1.68222656 3.45078125 -1.30195312 2.6515625 -0.91015625 1.828125 C-0.60980469 1.22484375 -0.30945313 0.6215625 0 0 Z " fill="#D4791A" transform="translate(118,210)"/>
<path d="M0 0 C0.33 0.66 0.66 1.32 1 2 C1.66 2.33 2.32 2.66 3 3 C1.73581754 3.69965443 0.46334598 4.38434763 -0.8125 5.0625 C-1.52019531 5.44535156 -2.22789062 5.82820313 -2.95703125 6.22265625 C-5 7 -5 7 -8 6 C-5.51047079 3.33264727 -3.36591866 1.44253657 0 0 Z " fill="#26170F" transform="translate(205,120)"/>
<path d="M0 0 C4.83256305 0.41421969 6.82679218 2.46413986 10 6 C3.52443609 5.38909774 3.52443609 5.38909774 1.0625 3.5625 C0 2 0 2 0 0 Z " fill="#291D13" transform="translate(166,416)"/>
<path d="M0 0 C0.90105469 0.02707031 1.80210937 0.05414063 2.73046875 0.08203125 C3.76107422 0.13423828 3.76107422 0.13423828 4.8125 0.1875 C4.4825 0.8475 4.1525 1.5075 3.8125 2.1875 C0.93038698 3.14820434 -0.88600044 3.29331883 -3.875 3.25 C-5.08736328 3.23646484 -5.08736328 3.23646484 -6.32421875 3.22265625 C-7.24654297 3.20525391 -7.24654297 3.20525391 -8.1875 3.1875 C-5.67753317 0.01043235 -3.96125134 -0.15433447 0 0 Z " fill="#E67F18" transform="translate(322.1875,448.8125)"/>
<path d="M0 0 C2 3 2 3 3 6 C3.99 6.33 4.98 6.66 6 7 C6.33 8.65 6.66 10.3 7 12 C2.60708214 8.68090651 0.1772135 6.20112114 -2 1 C-1.34 0.67 -0.68 0.34 0 0 Z " fill="#D27724" transform="translate(138,380)"/>
<path d="M0 0 C0.99 0 1.98 0 3 0 C5.80255323 2.9063515 6 3.78825048 6 8 C5.34 8 4.68 8 4 8 C4 7.01 4 6.02 4 5 C3.34 5 2.68 5 2 5 C1.34 3.35 0.68 1.7 0 0 Z M0 8 C4 9 4 9 4 9 Z " fill="#E67916" transform="translate(356,356)"/>
<path d="M0 0 C6.875 3.625 6.875 3.625 8 7 C7.01 7.33 6.02 7.66 5 8 C2.5 5.6875 2.5 5.6875 0 3 C0 2.01 0 1.02 0 0 Z " fill="#2F1F16" transform="translate(410,153)"/>
<path d="M0 0 C1.60597325 0.45196245 3.20972508 0.91182327 4.8125 1.375 C6.15248047 1.75785156 6.15248047 1.75785156 7.51953125 2.1484375 C10 3 10 3 13 5 C11.20793453 4.85915204 9.41635083 4.71216299 7.625 4.5625 C6.62726563 4.48128906 5.62953125 4.40007812 4.6015625 4.31640625 C2 4 2 4 0 3 C0 2.01 0 1.02 0 0 Z " fill="#D57925" transform="translate(339,115)"/>
<path d="M0 0 C0.66 0 1.32 0 2 0 C3.32421875 1.64453125 3.32421875 1.64453125 4.6875 3.8125 C5.14511719 4.52019531 5.60273438 5.22789062 6.07421875 5.95703125 C7 8 7 8 6 11 C4.9944239 9.54550599 3.99569565 8.08627557 3 6.625 C2.443125 5.81289063 1.88625 5.00078125 1.3125 4.1640625 C0 2 0 2 0 0 Z " fill="#271207" transform="translate(126,369)"/>
<path d="M0 0 C1.98 0.99 1.98 0.99 4 2 C4 2.99 4 3.98 4 5 C4.66 5 5.32 5 6 5 C6.66 7.31 7.32 9.62 8 12 C4.74451247 8.97704729 2.31022942 5.79537691 0 2 C0 1.34 0 0.68 0 0 Z " fill="#CB6E1A" transform="translate(336,327)"/>
<path d="M0 0 C0.33 1.32 0.66 2.64 1 4 C0.01 4.495 0.01 4.495 -1 5 C-1.474375 5.845625 -1.94875 6.69125 -2.4375 7.5625 C-2.953125 8.366875 -3.46875 9.17125 -4 10 C-4.99 10 -5.98 10 -7 10 C-7 9.34 -7 8.68 -7 8 C-6.34 8 -5.68 8 -5 8 C-4.731875 7.4225 -4.46375 6.845 -4.1875 6.25 C-2.98280141 3.9674132 -1.59201885 2.0262058 0 0 Z " fill="#D07116" transform="translate(329,232)"/>
<path d="M0 0 C2.13911742 2.05129442 3.95737463 4.15695031 5.6875 6.5625 C6.12449219 7.16191406 6.56148437 7.76132813 7.01171875 8.37890625 C8 10 8 10 8 12 C7.34 12 6.68 12 6 12 C6 11.34 6 10.68 6 10 C5.34 10 4.68 10 4 10 C4 9.01 4 8.02 4 7 C3.34 7 2.68 7 2 7 C0 4 0 4 0 0 Z " fill="#C86B1A" transform="translate(235,224)"/>
<path d="M0 0 C0.66 0 1.32 0 2 0 C2.45375 1.0725 2.9075 2.145 3.375 3.25 C4.50088537 5.88062317 5.67920206 8.46000396 7 11 C4 11 4 11 2.375 9.4375 C0.62052407 6.32729266 0.33909158 3.52655246 0 0 Z " fill="#6A3308" transform="translate(262,220)"/>
<path d="M0 0 C1 2 1 2 0.375 4.4375 C-1.27706844 7.51635481 -2.91798591 8.45899296 -6 10 C-4.6302836 6.00499382 -2.74277578 3.19990508 0 0 Z " fill="#AC590E" transform="translate(344,209)"/>
<path d="M0 0 C2.475 0.495 2.475 0.495 5 1 C5.99 4.3 6.98 7.6 8 11 C4.32966073 7.72291137 2.30718811 4.28477792 0 0 Z " fill="#D56C18" transform="translate(242,191)"/>
<path d="M0 0 C1.44098611 0.76429661 2.87766054 1.53672555 4.3125 2.3125 C5.11300781 2.74175781 5.91351563 3.17101562 6.73828125 3.61328125 C8.83787272 4.90059554 10.35447721 6.18406708 12 8 C10.68 8 9.36 8 8 8 C7.67 7.01 7.34 6.02 7 5 C5.09821215 4.39938767 5.09821215 4.39938767 3 4 C2.01 3.34 1.02 2.68 0 2 C0 1.34 0 0.68 0 0 Z " fill="#C27625" transform="translate(384,136)"/>
<path d="M0 0 C1.12894876 0.93274109 2.25300876 1.87140122 3.375 2.8125 C4.00148437 3.33457031 4.62796875 3.85664063 5.2734375 4.39453125 C7 6 7 6 9 9 C4.74822077 8.52758009 2.70030797 6.15035929 0 3 C0 2.01 0 1.02 0 0 Z " fill="#311605" transform="translate(150,399)"/>
<path d="M0 0 C0.66 0 1.32 0 2 0 C1.52797514 4.24822374 -0.96655518 6.19989709 -4 9 C-4.33 8.34 -4.66 7.68 -5 7 C-4.21654285 5.82780457 -3.42297164 4.66236332 -2.625 3.5 C-2.18414062 2.8503125 -1.74328125 2.200625 -1.2890625 1.53125 C-0.65097656 0.77328125 -0.65097656 0.77328125 0 0 Z " fill="#BB6318" transform="translate(243,353)"/>
<path d="M0 0 C3 1 3 1 4.0625 3 C4.371875 3.66 4.68125 4.32 5 5 C5.66 5.33 6.32 5.66 7 6 C7.625 9.0625 7.625 9.0625 8 12 C5.86088258 9.94870558 4.04262537 7.84304969 2.3125 5.4375 C1.65701172 4.53837891 1.65701172 4.53837891 0.98828125 3.62109375 C0 2 0 2 0 0 Z " fill="#D2741A" transform="translate(250,202)"/>
<path d="M0 0 C1.32 0 2.64 0 4 0 C4 0.66 4 1.32 4 2 C4.99 2 5.98 2 7 2 C8.6875 3.5 8.6875 3.5 10 5 C9.67 5.99 9.34 6.98 9 8 C7.49712782 6.85793642 5.99776716 5.71125043 4.5 4.5625 C3.6646875 3.92441406 2.829375 3.28632813 1.96875 2.62890625 C1.3190625 2.09136719 0.669375 1.55382812 0 1 C0 0.67 0 0.34 0 0 Z " fill="#C97621" transform="translate(163,411)"/>
<path d="M0 0 C2.23551759 3.35327639 2.17283528 3.90743657 1.625 7.6875 C1.51414062 8.49574219 1.40328125 9.30398438 1.2890625 10.13671875 C1.19367188 10.75160156 1.09828125 11.36648438 1 12 C-1.29633824 8.55549263 -1.54016485 6.06187717 -2 2 C-1.34 2 -0.68 2 0 2 C0 1.34 0 0.68 0 0 Z " fill="#3B2F27" transform="translate(107,321)"/>
<path d="M0 0 C0.33 0 0.66 0 1 0 C1 2.64 1 5.28 1 8 C1.66 8 2.32 8 3 8 C2.67 10.64 2.34 13.28 2 16 C1.67 16 1.34 16 1 16 C-0.12862175 10.63904667 -0.09688221 5.44693314 0 0 Z " fill="#362D1C" transform="translate(465,288)"/>
<path d="M0 0 C0 3.52032428 -0.70351351 4.4385343 -3 7 C-3.66 7 -4.32 7 -5 7 C-5.33 7.99 -5.66 8.98 -6 10 C-6.33 8.68 -6.66 7.36 -7 6 C-6.01 6 -5.02 6 -4 6 C-3.67 4.35 -3.34 2.7 -3 1 C-2.01 0.67 -1.02 0.34 0 0 Z " fill="#361302" transform="translate(327,233)"/>
<path d="M0 0 C2.9375 1.0625 2.9375 1.0625 6 3 C6.875 6.6875 6.875 6.6875 7 10 C3.60582235 6.87378374 1.3937282 4.43458973 0 0 Z " fill="#20110C" transform="translate(431,177)"/>
<path d="M0 0 C0.66 0.33 1.32 0.66 2 1 C0 3 -2 5 -4 7 C-4.33 6.34 -4.66 5.68 -5 5 C-5.66 4.67 -6.32 4.34 -7 4 C-1.7265625 0.77734375 -1.7265625 0.77734375 0 0 Z " fill="#564A41" transform="translate(199,123)"/>
<path d="M0 0 C0.66 0.33 1.32 0.66 2 1 C0.59248779 1.86916887 -0.8264521 2.71985149 -2.25 3.5625 C-3.03890625 4.03816406 -3.8278125 4.51382813 -4.640625 5.00390625 C-7.30844625 6.13022151 -8.34501768 6.0169313 -11 5 C-9.730447 4.35165346 -8.45930294 3.70642185 -7.1875 3.0625 C-6.47980469 2.70285156 -5.77210938 2.34320313 -5.04296875 1.97265625 C-3 1 -3 1 0 0 Z " fill="#C36E1E" transform="translate(224,116)"/>
<path d="M0 0 C-0.99 0.33 -1.98 0.66 -3 1 C-3.33 1.66 -3.66 2.32 -4 3 C-7.3 2.67 -10.6 2.34 -14 2 C-14 1.67 -14 1.34 -14 1 C-9.27685687 0.22887459 -4.78478822 -0.09764874 0 0 Z " fill="#2D1308" transform="translate(321,453)"/>
<path d="M0 0 C1.98 0 3.96 0 6 0 C4.37660195 1.70884005 2.70680947 3.37446717 1 5 C0.34 5 -0.32 5 -1 5 C-0.67 3.35 -0.34 1.7 0 0 Z " fill="#DC7921" transform="translate(391,417)"/>
<path d="M0 0 C0.99 0.33 1.98 0.66 3 1 C1.74194623 5.50802601 0.09592835 8.4912812 -3 12 C-2.20415537 7.90708476 -1.31904074 3.95712221 0 0 Z " fill="#5F5551" transform="translate(443,365)"/>
<path d="M0 0 C1.65 0 3.3 0 5 0 C5.66 1.65 6.32 3.3 7 5 C4.69 4.34 2.38 3.68 0 3 C0 2.01 0 1.02 0 0 Z " fill="#D7700E" transform="translate(307,333)"/>
<path d="M0 0 C1 3 1 3 -0.4375 6.1875 C-1.2109375 7.5796875 -1.2109375 7.5796875 -2 9 C-2.66 9 -3.32 9 -4 9 C-3.46930939 5.17902761 -2.50298434 2.93828597 0 0 Z " fill="#CB6C16" transform="translate(273,309)"/>
<path d="M0 0 C2.32472205 2.85306797 3.7508258 5.54074837 5 9 C4.01 9 3.02 9 2 9 C1.67 7.68 1.34 6.36 1 5 C0.34 5 -0.32 5 -1 5 C-0.67 3.35 -0.34 1.7 0 0 Z " fill="#441605" transform="translate(299,273)"/>
<path d="M0 0 C2.60608273 2.5162178 4.89381685 5.05134359 7 8 C6.67 8.66 6.34 9.32 6 10 C2.46413986 6.82679218 0.41421969 4.83256305 0 0 Z " fill="#C06918" transform="translate(243,236)"/>
<path d="M0 0 C0.66 0 1.32 0 2 0 C0.47291037 3.43595166 -1.59927045 6.11912454 -4 9 C-4 7.02 -4 5.04 -4 3 C-3.01 3 -2.02 3 -1 3 C-0.67 2.01 -0.34 1.02 0 0 Z " fill="#D87415" transform="translate(231,327)"/>
<path d="M0 0 C0.99 0 1.98 0 3 0 C1.79157144 4.43090471 0.48331435 6.98112756 -3 10 C-3.33 8.68 -3.66 7.36 -4 6 C-3.01 5.67 -2.02 5.34 -1 5 C-0.67 3.35 -0.34 1.7 0 0 Z " fill="#CD6E15" transform="translate(314,208)"/>
<path d="M0 0 C0.33 0 0.66 0 1 0 C1 2.97 1 5.94 1 9 C0.34 8.67 -0.32 8.34 -1 8 C-1.66 8.66 -2.32 9.32 -3 10 C-2.49287967 6.28111761 -1.88391785 3.26545761 0 0 Z " fill="#4D443E" transform="translate(115,209)"/>
<path d="M0 0 C0.99 0 1.98 0 3 0 C3.433125 1.2065625 3.433125 1.2065625 3.875 2.4375 C4.73262568 5.1326468 4.73262568 5.1326468 7 6 C6.67 7.32 6.34 8.64 6 10 C4.99723227 8.52270825 3.99785546 7.04311423 3 5.5625 C2.443125 4.73878906 1.88625 3.91507813 1.3125 3.06640625 C0 1 0 1 0 0 Z " fill="#2A0901" transform="translate(223,205)"/>
<path d="M0 0 C0 0.99 0 1.98 0 3 C-0.99 3.33 -1.98 3.66 -3 4 C-3.33 4.99 -3.66 5.98 -4 7 C-4.66 7 -5.32 7 -6 7 C-6.33 7.99 -6.66 8.98 -7 10 C-7.66 9.67 -8.32 9.34 -9 9 C-6.21000549 5.51250686 -3.74764169 2.49842779 0 0 Z " fill="#C27824" transform="translate(157,157)"/>
<path d="M0 0 C1.32 0.66 2.64 1.32 4 2 C2.35 3.32 0.7 4.64 -1 6 C-1 5.34 -1 4.68 -1 4 C-1.66 3.67 -2.32 3.34 -3 3 C-2.01 2.01 -1.02 1.02 0 0 Z " fill="#3C2B20" transform="translate(409,407)"/>
<path d="M0 0 C0.66 0 1.32 0 2 0 C0.79618552 2.49361571 -0.45428722 4.68143083 -2 7 C-2.99 6.67 -3.98 6.34 -5 6 C-3.38405168 3.95880212 -1.7143618 1.95927063 0 0 Z " fill="#2C1609" transform="translate(433,381)"/>
<path d="M0 0 C3 1 3 1 4.75 3.4375 C5.36875 4.7059375 5.36875 4.7059375 6 6 C5.67 6.66 5.34 7.32 5 8 C4.34 8 3.68 8 3 8 C0.95830515 5.09451118 0 3.59857954 0 0 Z " fill="#31190B" transform="translate(120,359)"/>
<path d="M0 0 C3.08089673 2.77280706 4.68775452 5.06326356 6 9 C3.5625 7.875 3.5625 7.875 1 6 C0.1875 2.8125 0.1875 2.8125 0 0 Z " fill="#CF6F17" transform="translate(252,249)"/>
<path d="M0 0 C0.33 0.66 0.66 1.32 1 2 C0.22265625 3.7265625 0.22265625 3.7265625 -0.9375 5.625 C-1.618125 6.73875 -2.29875 7.8525 -3 9 C-3.99 8.34 -4.98 7.68 -6 7 C-4.02 4.69 -2.04 2.38 0 0 Z " fill="#26120B" transform="translate(134,180)"/>
<path d="M0 0 C1.32 0.66 2.64 1.32 4 2 C1.64031256 4.09749995 0.45383006 4.96905704 -2.75 5.1875 C-3.86375 5.0946875 -3.86375 5.0946875 -5 5 C-3.35 3.35 -1.7 1.7 0 0 Z " fill="#534738" transform="translate(178,135)"/>
<path d="M0 0 C0.7425 0.0825 1.485 0.165 2.25 0.25 C2.25 0.91 2.25 1.57 2.25 2.25 C-0.88498292 4.10776765 -3.12471432 4.45140476 -6.75 4.25 C-3.42692308 0.31153846 -3.42692308 0.31153846 0 0 Z " fill="#413335" transform="translate(191.75,127.75)"/>
<path d="M0 0 C3.94120709 0.56302958 6.7508723 1.6791945 10 4 C10 4.66 10 5.32 10 6 C6.40992874 4.66654496 3.20429093 3.1056769 0 1 C0 0.67 0 0.34 0 0 Z " fill="#2D1E14" transform="translate(346,115)"/>
<path d="M0 0 C3.94727588 -0.17942163 6.5980513 -0.09350689 10 2 C10 2.66 10 3.32 10 4 C8.51882199 3.71872579 7.04006751 3.42466268 5.5625 3.125 C4.73878906 2.96257812 3.91507812 2.80015625 3.06640625 2.6328125 C2.38449219 2.42398438 1.70257813 2.21515625 1 2 C0.67 1.34 0.34 0.68 0 0 Z " fill="#2B1008" transform="translate(333,112)"/>
<path d="M0 0 C-1.32 0.33 -2.64 0.66 -4 1 C-4 1.66 -4 2.32 -4 3 C-5.65 3.66 -7.3 4.32 -9 5 C-8.25 2.5625 -8.25 2.5625 -7 0 C-4.07083439 -1.32284898 -3.12177395 -1.04059132 0 0 Z " fill="#3C403D" transform="translate(401,420)"/>
<path d="M0 0 C0.66 0 1.32 0 2 0 C1.38722388 2.96175123 0.74627478 4.38058783 -1 7 C-1.99 6.67 -2.98 6.34 -4 6 C-2.7260411 3.96166576 -1.38938077 1.96147874 0 0 Z " fill="#301908" transform="translate(441,368)"/>
<path d="M0 0 C2.40072955 2.88087546 4.47291037 5.56404834 6 9 C4.02 8.01 2.04 7.02 0 6 C0 4.02 0 2.04 0 0 Z " fill="#361505" transform="translate(339,333)"/>
<path d="M0 0 C1.65 1.65 3.3 3.3 5 5 C4.67 5.66 4.34 6.32 4 7 C3.34 6.67 2.68 6.34 2 6 C2 5.34 2 4.68 2 4 C1.01 3.67 0.02 3.34 -1 3 C-0.67 2.01 -0.34 1.02 0 0 Z " fill="#431804" transform="translate(312,294)"/>
<path d="M0 0 C0.99 0 1.98 0 3 0 C3.69710731 1.28650706 4.38242876 2.57940665 5.0625 3.875 C5.63677734 4.95394531 5.63677734 4.95394531 6.22265625 6.0546875 C6.47917969 6.69664062 6.73570312 7.33859375 7 8 C6.67 8.66 6.34 9.32 6 10 C4.99421411 8.71283353 3.99553202 7.42011342 3 6.125 C2.443125 5.40570313 1.88625 4.68640625 1.3125 3.9453125 C0 2 0 2 0 0 Z " fill="#3B1301" transform="translate(260,259)"/>
<path d="M0 0 C2.4375 0.625 2.4375 0.625 5 2 C5.8125 5.125 5.8125 5.125 6 8 C3.33264727 5.51047079 1.44253657 3.36591866 0 0 Z " fill="#351302" transform="translate(254,251)"/>
<path d="M0 0 C0.99 0 1.98 0 3 0 C2.34 1.65 1.68 3.3 1 5 C0.34 5 -0.32 5 -1 5 C-1.33 6.32 -1.66 7.64 -2 9 C-3.24546405 6.50907189 -2.7767578 5.58919267 -2 3 C-1.34 3 -0.68 3 0 3 C0 2.01 0 1.02 0 0 Z " fill="#451C02" transform="translate(331,224)"/>
<path d="M0 0 C2.4375 0.75 2.4375 0.75 5 2 C5.8125 4.125 5.8125 4.125 6 6 C3.11424181 5.60196439 2.17810487 5.20990931 0.25 2.9375 C-0.1625 2.298125 -0.575 1.65875 -1 1 C-0.67 0.67 -0.34 0.34 0 0 Z " fill="#E67C16" transform="translate(411,159)"/>
<path d="M0 0 C3.4375 0.8125 3.4375 0.8125 7 2 C7.33 2.99 7.66 3.98 8 5 C4.33776842 4.50510384 2.33006074 3.94323463 0 1 C0 0.67 0 0.34 0 0 Z " fill="#27170D" transform="translate(376,129)"/>
<path d="M0 0 C2.02045442 0.60183749 4.02111039 1.27306096 6 2 C6.33 2.66 6.66 3.32 7 4 C6.21625 3.814375 5.4325 3.62875 4.625 3.4375 C2.02910225 2.74037734 2.02910225 2.74037734 0 4 C-0.66 3.34 -1.32 2.68 -2 2 C-1.34 1.34 -0.68 0.68 0 0 Z " fill="#52463D" transform="translate(375,127)"/>
<path d="M0 0 C0 0.66 0 1.32 0 2 C2.31 2 4.62 2 7 2 C7 2.33 7 2.66 7 3 C5.37536158 3.05395478 3.75021459 3.09277195 2.125 3.125 C1.22007812 3.14820313 0.31515625 3.17140625 -0.6171875 3.1953125 C-3 3 -3 3 -5 1 C-3 0 -3 0 0 0 Z " fill="#F07D11" transform="translate(246,448)"/>
<path d="M0 0 C1.45922693 0.11409593 2.91740598 0.24165544 4.375 0.375 C5.59316406 0.47941406 5.59316406 0.47941406 6.8359375 0.5859375 C9 1 9 1 11 3 C4.6 3.36923077 4.6 3.36923077 1.5625 1.5 C1.046875 1.005 0.53125 0.51 0 0 Z " fill="#211007" transform="translate(214,444)"/>
<path d="M0 0 C-0.66 0 -1.32 0 -2 0 C-2 0.66 -2 1.32 -2 2 C-4.64738916 3.4606285 -5.89448334 4 -9 4 C-9 3.34 -9 2.68 -9 2 C-3.375 -1.125 -3.375 -1.125 0 0 Z " fill="#230F05" transform="translate(378,433)"/>
<path d="M0 0 C0.99 0.33 1.98 0.66 3 1 C0.36 2.98 -2.28 4.96 -5 7 C-5 6.01 -5 5.02 -5 4 C-4.34 4 -3.68 4 -3 4 C-2.67 3.01 -2.34 2.02 -2 1 C-1.34 0.67 -0.68 0.34 0 0 Z " fill="#CA7322" transform="translate(409,405)"/>
<path d="M0 0 C2.5 2.3125 2.5 2.3125 5 5 C5 5.99 5 6.98 5 8 C3.0625 7.375 3.0625 7.375 1 6 C0.25 2.875 0.25 2.875 0 0 Z " fill="#491B05" transform="translate(320,306)"/>
<path d="M0 0 C1.32 0.33 2.64 0.66 4 1 C4.33 2.98 4.66 4.96 5 7 C3.29115995 5.37660195 1.62553283 3.70680947 0 2 C0 1.34 0 0.68 0 0 Z " fill="#D47118" transform="translate(319,302)"/>
<path d="M0 0 C2.83374881 3.20336822 3.5205537 5.78087253 4 10 C3.67 9.34 3.34 8.68 3 8 C2.34 8 1.68 8 1 8 C0.67 5.36 0.34 2.72 0 0 Z " fill="#B96C1E" transform="translate(448,207)"/>
<path d="M0 0 C2.79872437 2.52788007 4.45773019 4.20411134 5 8 C3.0625 7.375 3.0625 7.375 1 6 C0.25 2.875 0.25 2.875 0 0 Z " fill="#491C06" transform="translate(251,205)"/>
<path d="M0 0 C-4.625 4 -4.625 4 -8 4 C-8 3.34 -8 2.68 -8 2 C-3.61016949 -1.20338983 -3.61016949 -1.20338983 0 0 Z " fill="#271508" transform="translate(178,140)"/>
<path d="M0 0 C2.00720923 0.28674418 4.0085944 0.61866701 6 1 C4.35 2.32 2.7 3.64 1 5 C0.34 3.68 -0.32 2.36 -1 1 C-0.67 0.67 -0.34 0.34 0 0 Z " fill="#46322A" transform="translate(366,436)"/>
<path d="M0 0 C2.875 0.1875 2.875 0.1875 6 1 C7.375 3.5625 7.375 3.5625 8 6 C7.34 6 6.68 6 6 6 C6 5.34 6 4.68 6 4 C5.38125 3.896875 4.7625 3.79375 4.125 3.6875 C2 3 2 3 0 0 Z " fill="#4C4843" transform="translate(171,421)"/>
<path d="M0 0 C2.79872437 2.52788007 4.45773019 4.20411134 5 8 C3.0625 7.375 3.0625 7.375 1 6 C0.25 2.875 0.25 2.875 0 0 Z " fill="#C76814" transform="translate(293,306)"/>
<path d="M0 0 C1.125 3.75 1.125 3.75 0 6 C-2.0625 6.625 -2.0625 6.625 -4 7 C-2.92598892 4.08482708 -2.22189824 2.22189824 0 0 Z " fill="#51240B" transform="translate(247,307)"/>
<path d="M0 0 C1.65 1.65 3.3 3.3 5 5 C4.67 5.66 4.34 6.32 4 7 C3.01 7 2.02 7 1 7 C0.67 4.69 0.34 2.38 0 0 Z " fill="#D26B16" transform="translate(258,258)"/>
<path d="M0 0 C1.98 0.495 1.98 0.495 4 1 C2.69593116 3.01920337 1.36176581 5.01924973 0 7 C-0.33 7 -0.66 7 -1 7 C-0.67 4.69 -0.34 2.38 0 0 Z " fill="#D77916" transform="translate(303,224)"/>
<path d="M0 0 C0.33 0 0.66 0 1 0 C1.3125 2.3125 1.3125 2.3125 1 5 C-1.5 6.8125 -1.5 6.8125 -4 8 C-2.66666667 5.33333333 -1.33333333 2.66666667 0 0 Z " fill="#301404" transform="translate(316,210)"/>
<path d="M0 0 C0.66 0.99 1.32 1.98 2 3 C0.68 3.33 -0.64 3.66 -2 4 C-2 4.66 -2 5.32 -2 6 C-2.66 6 -3.32 6 -4 6 C-2.25 1.125 -2.25 1.125 0 0 Z " fill="#3C1603" transform="translate(325,198)"/>
<path d="M0 0 C0.86625 0.556875 0.86625 0.556875 1.75 1.125 C-1.47791555 3.2769437 -2.53400809 3.32586443 -6.25 3.125 C-6.25 2.465 -6.25 1.805 -6.25 1.125 C-2.80384615 -1.09038462 -2.80384615 -1.09038462 0 0 Z " fill="#31251F" transform="translate(212.25,118.875)"/>
</svg>
