<?xml version="1.0" encoding="UTF-8"?>
<svg version="1.1" xmlns="http://www.w3.org/2000/svg" width="439" height="1080">
<path d="M0 0 C144.87 0 289.74 0 439 0 C439 356.4 439 712.8 439 1080 C294.13 1080 149.26 1080 0 1080 C0 723.6 0 367.2 0 0 Z " fill="#0F8FC9" transform="translate(0,0)"/>
<path d="M0 0 C48.51 0 97.02 0 147 0 C147 355.74 147 711.48 147 1078 C98.49 1078 49.98 1078 0 1078 C0 722.26 0 366.52 0 0 Z " fill="#159FE2" transform="translate(292,2)"/>
<path d="M0 0 C47.19 0 94.38 0 143 0 C143 50.82 143 101.64 143 154 C137.6251615 156.68741925 131.00925213 155 125 155 C125 213.41 125 271.82 125 332 C130.94 332.33 136.88 332.66 143 333 C143 463.68 143 594.36 143 729 C140 730 140 730 132 730 C132 807.55 132 885.1 132 965 C135.96 965 139.92 965 144 965 C144 1002.62 144 1040.24 144 1079 C96.48 1079 48.96 1079 0 1079 C0 722.93 0 366.86 0 0 Z " fill="#6DC9F3" transform="translate(146,1)"/>
<path d="M0 0 C144.87 0 289.74 0 439 0 C439 0.66 439 1.32 439 2 C390.49 2 341.98 2 292 2 C292 357.74 292 713.48 292 1080 C291.34 1080 290.68 1080 290 1080 C290 1042.38 290 1004.76 290 966 C286.04 966 282.08 966 278 966 C278 888.45 278 810.9 278 731 C281.63 730.67 285.26 730.34 289 730 C289 599.32 289 468.64 289 334 C284.05 334 279.1 334 274 334 C273.01 333.67 272.02 333.34 271 333 C271 274.59 271 216.18 271 156 C276.94 155.67 282.88 155.34 289 155 C289 104.18 289 53.36 289 1 C241.81 1 194.62 1 146 1 C146 357.07 146 713.14 146 1080 C145.34 1080 144.68 1080 144 1080 C144 935.46 144 790.92 144 642 C139.05 642 134.1 642 129 642 C128.81920999 629.54183705 128.65330474 617.08353206 128.5 604.625 C128.48812275 603.66048164 128.4762455 602.69596329 128.46400833 601.7022171 C127.99222485 562.92617501 127.91297238 524.1532137 127.9375 485.375 C127.93813635 484.3390814 127.93813635 484.3390814 127.93878555 483.28223515 C127.94988052 465.52147732 127.97031418 447.76073667 128 430 C133.28 430 138.56 430 144 430 C143.67 412.51 143.34 395.02 143 377 C141.35 376.67 139.7 376.34 138 376 C138 375.67 138 375.34 138 375 C139.65 374.67 141.3 374.34 143 374 C142.99607239 372.36789581 142.99607239 372.36789581 142.99206543 370.70281982 C142.9308079 342.52658331 143.11046837 314.35920799 143.46356201 286.18530273 C143.52584746 281.16782945 143.58502599 276.15031939 143.64453125 271.1328125 C143.76012414 261.42183853 143.87891783 251.71090698 144 242 C143.01257813 242.02320313 142.02515625 242.04640625 141.0078125 242.0703125 C139.72648438 242.08835938 138.44515625 242.10640625 137.125 242.125 C135.84882813 242.14820313 134.57265625 242.17140625 133.2578125 242.1953125 C130 242 130 242 128 240 C127.79745483 238.12704468 127.79745483 238.12704468 127.86474609 235.82568359 C127.88491791 234.96494232 127.90508972 234.10420105 127.9258728 233.21737671 C127.95806915 232.28712677 127.9902655 231.35687683 128.0234375 230.3984375 C128.04846344 229.44683746 128.07348938 228.49523743 128.09927368 227.51480103 C128.181612 224.46784569 128.27814792 221.42152524 128.375 218.375 C128.43322542 216.31252615 128.49052899 214.25002605 128.546875 212.1875 C128.6854757 207.1244981 128.84324995 202.06260308 129 197 C120.09 197 111.18 197 102 197 C102 211.19 102 225.38 102 240 C101.67 240 101.34 240 101 240 C101 225.15 101 210.3 101 195 C109.58 195 118.16 195 127 195 C127 193.68 127 192.36 127 191 C126.3387915 191.00523682 125.67758301 191.01047363 124.99633789 191.01586914 C122.01840149 191.03657656 119.04048018 191.04964012 116.0625 191.0625 C115.02158203 191.07087891 113.98066406 191.07925781 112.90820312 191.08789062 C111.91884766 191.09111328 110.92949219 191.09433594 109.91015625 191.09765625 C108.99371338 191.10289307 108.07727051 191.10812988 107.13305664 191.11352539 C105 191 105 191 104 190 C103.95907063 187.66702567 103.95758277 185.33294775 104 183 C108.53897705 182.97534608 113.07791543 182.95716211 117.61694336 182.94506836 C119.16219766 182.9400286 120.70744716 182.9331968 122.25268555 182.92456055 C124.46925029 182.91247924 126.68575218 182.90676827 128.90234375 182.90234375 C129.5971434 182.89718246 130.29194305 182.89202118 131.00779724 182.88670349 C132.6722933 182.88650723 134.33665499 182.93810871 136 183 C137 184 137 184 137.09765625 186.28515625 C137.08025391 187.65994141 137.08025391 187.65994141 137.0625 189.0625 C137.05347656 189.98160156 137.04445312 190.90070313 137.03515625 191.84765625 C137.01775391 192.91306641 137.01775391 192.91306641 137 194 C138.98 194 140.96 194 143 194 C143 133.28 143 72.56 143 10 C95.81 10 48.62 10 0 10 C0 6.7 0 3.4 0 0 Z " fill="#178ABE" transform="translate(0,0)"/>
<path d="M0 0 C8.91 0 17.82 0 27 0 C26.98839844 3.09246094 26.97679687 6.18492187 26.96484375 9.37109375 C26.95705399 12.35294492 26.95097677 15.33479497 26.94506836 18.31665039 C26.94002712 20.39543156 26.93319426 22.47420916 26.92456055 24.55297852 C26.91248578 27.53402586 26.90676976 30.51502649 26.90234375 33.49609375 C26.89718246 34.43150497 26.89202118 35.3669162 26.88670349 36.33067322 C26.88662796 37.19149002 26.88655243 38.05230682 26.88647461 38.93920898 C26.88314369 40.08171364 26.88314369 40.08171364 26.87974548 41.24729919 C26.80909045 43.02810605 26.80909045 43.02810605 28 44 C30.34987262 44.23527773 32.70556039 44.41386417 35.0625 44.5625 C36.35285156 44.64628906 37.64320313 44.73007813 38.97265625 44.81640625 C40.47119141 44.90728516 40.47119141 44.90728516 42 45 C42.02334505 62.15884824 42.04098709 79.31769153 42.05181217 96.47655201 C42.05697171 104.44343916 42.06400791 112.41031645 42.07543945 120.37719727 C42.08539672 127.31992639 42.09185592 134.26264837 42.09408849 141.20538443 C42.09539382 144.88258128 42.09846849 148.5597577 42.10573006 152.23694801 C42.11376461 156.33872006 42.11399046 160.44045644 42.11352539 164.54223633 C42.11712067 165.76574799 42.12071594 166.98925964 42.12442017 168.24984741 C42.1230455 169.36463974 42.12167084 170.47943207 42.12025452 171.62800598 C42.12117631 172.59865399 42.1220981 173.56930201 42.12304783 174.56936359 C42 177 42 177 41 180 C39.02 180 37.04 180 35 180 C35 184.29 35 188.58 35 193 C30.46102295 193.02465392 25.92208457 193.04283789 21.38305664 193.05493164 C19.83780234 193.0599714 18.29255284 193.0668032 16.74731445 193.07543945 C14.53074971 193.08752076 12.31424782 193.09323173 10.09765625 193.09765625 C9.05545677 193.10539818 9.05545677 193.10539818 7.99220276 193.11329651 C6.3277067 193.11349277 4.66334501 193.06189129 3 193 C2.67 192.67 2.34 192.34 2 192 C2 189.36 2 186.72 2 184 C8.93 184 15.86 184 23 184 C23 182.68 23 181.36 23 180 C22.27820557 180.00523682 21.55641113 180.01047363 20.81274414 180.01586914 C17.56267151 180.03657358 14.31261272 180.04963918 11.0625 180.0625 C9.92619141 180.07087891 8.78988281 180.07925781 7.61914062 180.08789062 C6.53955078 180.09111328 5.45996094 180.09433594 4.34765625 180.09765625 C3.34742432 180.10289307 2.34719238 180.10812988 1.31665039 180.11352539 C-1 180 -1 180 -2 179 C-2.10613768 176.45494854 -2.14679086 173.93695169 -2.14526367 171.39111328 C-2.14857697 170.58633797 -2.15189026 169.78156265 -2.15530396 168.95240021 C-2.16480299 166.24169078 -2.1666406 163.53103751 -2.16796875 160.8203125 C-2.17187389 158.89423585 -2.17597249 156.96815959 -2.18025208 155.04208374 C-2.18957932 149.82210497 -2.19044197 144.60215731 -2.18847656 139.38217163 C-2.18750395 136.13816158 -2.18847474 132.89415638 -2.18969727 129.65014648 C-2.19575171 86.41232473 -1.30160806 43.21615691 0 0 Z " fill="#012828" transform="translate(102,197)"/>
<path d="M0 0 C13.86 0 27.72 0 42 0 C42.02254683 16.80224133 42.04097906 33.60446982 42.05181217 50.40672207 C42.05697518 58.20775836 42.06401797 66.00878461 42.07543945 73.80981445 C42.08538615 80.60676313 42.09185339 87.40370454 42.09408849 94.20066029 C42.09539563 97.80178131 42.09848164 101.40288152 42.10573006 105.0039959 C42.11374364 109.01756602 42.11399115 113.03109964 42.11352539 117.04467773 C42.11712067 118.24732773 42.12071594 119.44997772 42.12442017 120.68907166 C42.1230455 121.77587219 42.12167084 122.86267273 42.12025452 123.98240662 C42.12117631 124.93277518 42.1220981 125.88314375 42.12304783 126.86231136 C42 129 42 129 41 130 C38.0546443 130.10110353 35.1332244 130.13969279 32.1875 130.1328125 C30.86141724 130.13424759 30.86141724 130.13424759 29.50854492 130.13571167 C27.63557871 130.13639351 25.76261014 130.13453893 23.88964844 130.13037109 C21.01231612 130.12502289 18.13513992 130.13031593 15.2578125 130.13671875 C13.44270799 130.13605797 11.62760357 130.13477681 9.8125 130.1328125 C8.94584717 130.13483673 8.07919434 130.13686096 7.1862793 130.13894653 C1.11495009 130.11495009 1.11495009 130.11495009 0 129 C-0.09614133 127.32975331 -0.12187722 125.65541724 -0.12025452 123.98240662 C-0.12162918 122.89560608 -0.12300385 121.80880554 -0.12442017 120.68907166 C-0.11902725 118.88509666 -0.11902725 118.88509666 -0.11352539 117.04467773 C-0.11367142 115.78632111 -0.11381744 114.52796448 -0.1139679 113.23147583 C-0.11425585 109.77088747 -0.10835949 106.31033348 -0.10139394 102.84975314 C-0.09516003 99.23691909 -0.09455657 95.62408433 -0.09336853 92.01124573 C-0.09025532 85.16536492 -0.08204208 78.3195 -0.07201904 71.4736262 C-0.06085757 63.68173411 -0.05534737 55.88984127 -0.05032361 48.09794319 C-0.03985946 32.06528468 -0.02151411 16.03264807 0 0 Z " fill="#A0744E" transform="translate(390,356)"/>
<path d="M0 0 C0 63.36 0 126.72 0 192 C-5.28 192 -10.56 192 -16 192 C-17.70111709 190.29888291 -17.12227496 188.16733433 -17.12908131 185.89802688 C-17.12616847 185.16165955 -17.12325563 184.42529221 -17.12025452 183.66661072 C-17.12110894 182.88988134 -17.12196337 182.11315197 -17.12284368 181.31288534 C-17.12450084 178.69025678 -17.11897329 176.0676911 -17.11352539 173.44506836 C-17.11324354 171.57302349 -17.1134012 169.70097852 -17.1139679 167.82893372 C-17.11425597 162.7299724 -17.10835769 157.63103438 -17.10139394 152.5320785 C-17.09516199 147.20958367 -17.09455673 141.88708837 -17.09336853 136.56459045 C-17.09025474 126.47815109 -17.08204072 116.39172251 -17.07201904 106.3052879 C-17.06085937 94.82543621 -17.05534782 83.34558402 -17.05032361 71.86572826 C-17.03985814 48.24381285 -17.02225778 24.62190703 -17 1 C-11.11088859 -0.02419329 -6.18084076 0 0 0 Z " fill="#7E7E7E" transform="translate(439,650)"/>
<path d="M0 0 C4.29 0 8.58 0 13 0 C13 68.31 13 136.62 13 207 C11 208 11 208 0 208 C0 139.36 0 70.72 0 0 Z " fill="#7C7E7F" transform="translate(130,432)"/>
<path d="M0 0 C1.85625 -0.061875 1.85625 -0.061875 3.75 -0.125 C4.79414063 -0.15980469 4.79414063 -0.15980469 5.859375 -0.1953125 C8 0 8 0 12 2 C12 78.56 12 155.12 12 234 C8.7 234 5.4 234 2 234 C0.109819 232.109819 0.87987206 229.34910249 0.87558079 226.83425337 C0.87917575 225.9397214 0.88277071 225.04518942 0.88647461 224.12355042 C0.88632575 223.18080653 0.88617689 222.23806264 0.88602352 221.26675075 C0.88672248 218.08218996 0.89458487 214.89768563 0.90234375 211.71313477 C0.90426128 209.4403995 0.90572585 207.16766381 0.9067688 204.89492798 C0.90993857 199.98832488 0.91622023 195.08173882 0.92483521 190.17514229 C0.93830641 182.4243749 0.94424088 174.67361328 0.94897461 166.9228363 C0.95631649 156.06207863 0.96643657 145.2013284 0.97949219 134.34057617 C0.98073391 133.30596334 0.98073391 133.30596334 0.98200071 132.25044923 C0.98874531 126.65400239 0.99566978 121.05755577 1.00260353 115.46110916 C1.00865529 110.57067118 1.01463584 105.68023312 1.02050781 100.78979492 C1.02133594 100.10119247 1.02216407 99.41259002 1.02301729 98.70312084 C1.03668954 87.2334554 1.04641485 75.76379091 1.05341816 64.2941193 C1.05841653 56.58156991 1.06830008 48.86904651 1.08184814 41.15650761 C1.08928231 36.36655734 1.09261832 31.57661069 1.0948143 26.78665543 C1.09669409 24.55732572 1.10031032 22.32799674 1.10574722 20.09867287 C1.11291098 17.06690928 1.11400332 14.03520377 1.11352539 11.00343323 C1.11712035 10.11113197 1.12071531 9.21883072 1.12441921 8.29949003 C1.24489818 4.01446707 1.24489818 4.01446707 0 0 Z " fill="#797F84" transform="translate(278,731)"/>
<path d="M0 0 C0.33 0 0.66 0 1 0 C1 356.07 1 712.14 1 1079 C0.34 1079 -0.32 1079 -1 1079 C-1 934.46 -1 789.92 -1 641 C-5.95 641 -10.9 641 -16 641 C-16.18079001 628.54183705 -16.34669526 616.08353206 -16.5 603.625 C-16.51187725 602.66048164 -16.5237545 601.69596329 -16.53599167 600.7022171 C-17.00777515 561.92617501 -17.08702762 523.1532137 -17.0625 484.375 C-17.06186365 483.3390814 -17.06186365 483.3390814 -17.06121445 482.28223515 C-17.05011948 464.52147732 -17.02968582 446.76073667 -17 429 C-11.72 429 -6.44 429 -1 429 C-1.33 411.51 -1.66 394.02 -2 376 C-3.65 375.67 -5.3 375.34 -7 375 C-7 374.67 -7 374.34 -7 374 C-5.35 373.67 -3.7 373.34 -2 373 C-2.00523682 372.05463379 -2.01047363 371.10926758 -2.01586914 370.13525391 C-2.10683961 351.70822668 -2.09819323 333.28252058 -1.79492188 314.85742188 C-1.12385982 273.9035841 -0.84244654 232.95085819 -0.68359375 191.9921875 C-0.68088247 191.29532792 -0.67817119 190.59846833 -0.67537776 189.88049179 C-0.60576728 171.95286791 -0.54296174 154.02522238 -0.48259121 136.09756529 C-0.44748843 125.69264145 -0.41051134 115.28772543 -0.37231445 104.8828125 C-0.36959018 104.14057017 -0.36686591 103.39832783 -0.36405908 102.63359331 C-0.35037066 98.90668199 -0.33665217 95.17977079 -0.32291877 91.45285964 C-0.21062476 60.96858884 -0.1035384 30.48430188 0 0 Z M-15 431 C-15 499.64 -15 568.28 -15 639 C-5.26710519 639.81989159 -5.26710519 639.81989159 -2 638 C-2 569.69 -2 501.38 -2 431 C-6.29 431 -10.58 431 -15 431 Z " fill="#1E3440" transform="translate(145,1)"/>
<path d="M0 0 C4.62 0 9.24 0 14 0 C14 57.09 14 114.18 14 173 C9.38 173 4.76 173 0 173 C0 115.91 0 58.82 0 0 Z " fill="#BBBBBC" transform="translate(275,159)"/>
<path d="M0 0 C0.66 0 1.32 0 2 0 C2 356.07 2 712.14 2 1079 C1.34 1079 0.68 1079 0 1079 C0 1041.38 0 1003.76 0 965 C-3.96 965 -7.92 965 -12 965 C-12 887.78 -12 810.56 -12 731 C-11.34 731.33 -10.68 731.66 -10 732 C-10 808.23 -10 884.46 -10 963 C-6.7 963.33 -3.4 963.66 0 964 C0 887.44 0 810.88 0 732 C-2.97 732 -5.94 732 -9 732 C-9 731.67 -9 731.34 -9 731 C-6.03 730.67 -3.06 730.34 0 730 C0 489.1 0 248.2 0 0 Z " fill="#05253A" transform="translate(290,1)"/>
<path d="M0 0 C144.87 0 289.74 0 439 0 C439 0.66 439 1.32 439 2 C419.86812426 2.02333511 400.7362514 2.04098219 381.6043644 2.05181217 C372.72158966 2.05697382 363.83882376 2.06401404 354.95605469 2.07543945 C347.21604353 2.08539027 339.47603877 2.09185438 331.7360214 2.09408849 C327.63575981 2.09539492 323.53551651 2.09847651 319.43526077 2.10573006 C315.57924286 2.11249653 311.72325084 2.11461567 307.86722755 2.11310768 C306.44901578 2.11338373 305.03080317 2.11538514 303.61259651 2.11920547 C301.68213648 2.12415242 299.75166269 2.12239527 297.82119751 2.12025452 C296.19792006 2.12163721 296.19792006 2.12163721 294.54184914 2.12304783 C292 2 292 2 290 1 C290 241.9 290 482.8 290 731 C288.68 730.67 287.36 730.34 286 730 C286.99 730 287.98 730 289 730 C289 599.32 289 468.64 289 334 C284.05 334 279.1 334 274 334 C273.01 333.67 272.02 333.34 271 333 C271 274.59 271 216.18 271 156 C276.94 155.67 282.88 155.34 289 155 C289 104.18 289 53.36 289 1 C257.5675 1.2475 257.5675 1.2475 225.5 1.5 C212.28256704 1.59735841 199.06517958 1.6942618 185.84765625 1.77734375 C184.61821977 1.7851153 184.61821977 1.7851153 183.3639462 1.79304385 C143.22187372 2.04518362 103.08025156 2.08446798 62.9375 2.0625 C62.13879864 2.06207577 61.34009727 2.06165154 60.51719284 2.06121445 C40.34478256 2.05031451 20.17239051 2.0305595 0 2 C0 1.34 0 0.68 0 0 Z M275 159 C275 216.09 275 273.18 275 332 C279.62 332 284.24 332 289 332 C289 274.91 289 217.82 289 159 C284.38 159 279.76 159 275 159 Z " fill="#6195B0" transform="translate(0,0)"/>
<path d="M0 0 C0.99 0 1.98 0 3 0 C6.24883759 7.65797432 7.19526777 15.47592463 5.421875 23.671875 C4.78132415 26.14449682 4.78132415 26.14449682 6 29 C6.41747834 34.18449845 6.12694236 38.21437969 4 43 C3.48240168 47.24430623 4.47166073 48.70216617 7 52 C6.67 52.99 6.34 53.98 6 55 C1.81263332 55.08760181 -2.37449531 55.14059435 -6.5625 55.1875 C-7.74392578 55.21263672 -8.92535156 55.23777344 -10.14257812 55.26367188 C-17.70109955 55.32718886 -23.2042547 55.24263123 -29.14453125 50.16796875 C-34.6475561 43.63393222 -36.5545106 38.41111302 -36.47265625 29.81640625 C-35.78922809 25.74407814 -33.83078168 23.19045615 -31.21484375 20.0703125 C-29.73660722 18.03208023 -29.73660722 18.03208023 -30.3125 15.48046875 C-30.539375 14.66191406 -30.76625 13.84335937 -31 13 C-31.03824623 10.66698014 -31.04574284 8.33288492 -31 6 C-26.40535373 6.51051625 -26.40535373 6.51051625 -24.34375 9 C-21.05975301 11.8023441 -17.88179375 11.66970012 -13.75 11.75 C-13.00492187 11.77964844 -12.25984375 11.80929687 -11.4921875 11.83984375 C-9.66203328 11.9102343 -7.83101231 11.95741832 -6 12 C-4.02 8.04 -2.04 4.08 0 0 Z " fill="#1A1A11" transform="translate(274,351)"/>
<path d="M0 0 C0.33 0 0.66 0 1 0 C1 144.54 1 289.08 1 438 C-0.98 438 -2.96 438 -5 438 C-5.02279398 406.56770467 -5.04050005 375.13541152 -5.05106533 343.7031099 C-5.05231609 339.99543263 -5.05361041 336.28775537 -5.05493164 332.58007812 C-5.05519395 331.8419209 -5.05545626 331.10376367 -5.05572652 330.34323804 C-5.06008233 318.37827942 -5.06796939 306.41332559 -5.0771528 294.44836982 C-5.08649182 282.17868581 -5.09205614 269.90900433 -5.09408849 257.63931692 C-5.0954632 250.06329173 -5.099811 242.48728007 -5.10791647 234.91125904 C-5.11380844 229.10996121 -5.11445833 223.30867213 -5.11310768 217.5073719 C-5.113384 215.12162632 -5.11538903 212.73588025 -5.11920547 210.35013771 C-5.12414294 207.10593395 -5.12299806 203.86178921 -5.12025452 200.61758423 C-5.12316736 199.66234568 -5.1260802 198.70710714 -5.12908131 197.72292197 C-5.12709026 196.85854116 -5.12509921 195.99416036 -5.12304783 195.1035862 C-5.12361741 193.9792343 -5.12361741 193.9792343 -5.1241985 192.83216822 C-5 191 -5 191 -4 189 C-3.76827173 186.45384991 -3.58105471 183.92603775 -3.4375 181.375 C-3.39431641 180.66859375 -3.35113281 179.9621875 -3.30664062 179.234375 C-3.20055249 177.48981463 -3.09977111 175.74493303 -3 174 C-2.67 174 -2.34 174 -2 174 C-1.67 178.95 -1.34 183.9 -1 189 C-0.67 126.63 -0.34 64.26 0 0 Z " fill="#1284B8" transform="translate(143,642)"/>
<path d="M0 0 C4.47260917 3.62068362 7.45143679 7.83371494 8.05859375 13.56640625 C8.20586862 27.05678393 8.20586862 27.05678393 3.72265625 32.39453125 C-2.60866973 38.08771963 -6.81154184 39.70061514 -15.296875 39.609375 C-20.32202593 39.24714263 -23.07781726 37.3655765 -26.90234375 34.26953125 C-31.69215077 28.47134381 -34.07557874 22.45497568 -33.72265625 14.87890625 C-32.49277708 8.0174751 -28.44938247 2.75151284 -23.0234375 -1.44921875 C-15.3381271 -6.53837284 -7.24847471 -5.00043882 0 0 Z " fill="#30E0CE" transform="translate(426.27734375,305.60546875)"/>
<path d="M0 0 C47.19 0 94.38 0 143 0 C143 0.66 143 1.32 143 2 C97.79 2.33 52.58 2.66 6 3 C5.67 3.66 5.34 4.32 5 5 C3.68 4.34 2.36 3.68 1 3 C1 358.08 1 713.16 1 1079 C0.67 1079 0.34 1079 0 1079 C0 722.93 0 366.86 0 0 Z " fill="#82C5E7" transform="translate(146,1)"/>
<path d="M0 0 C0.33 0 0.66 0 1 0 C1 84.15 1 168.3 1 255 C0.67 255 0.34 255 0 255 C0 250.38 0 245.76 0 241 C-2.26875 241.04125 -4.5375 241.0825 -6.875 241.125 C-10.7421875 241.1953125 -10.7421875 241.1953125 -14 241 C-16 239 -16 239 -16.20254517 237.12704468 C-16.16923599 235.98787094 -16.16923599 235.98787094 -16.13525391 234.82568359 C-16.10499619 233.53457169 -16.10499619 233.53457169 -16.0741272 232.21737671 C-16.04193085 231.28712677 -16.0097345 230.35687683 -15.9765625 229.3984375 C-15.95153656 228.44683746 -15.92651062 227.49523743 -15.90072632 226.51480103 C-15.818388 223.46784569 -15.72185208 220.42152524 -15.625 217.375 C-15.56677458 215.31252615 -15.50947101 213.25002605 -15.453125 211.1875 C-15.3145243 206.1244981 -15.15675005 201.06260308 -15 196 C-23.91 196 -32.82 196 -42 196 C-42 210.19 -42 224.38 -42 239 C-42.33 239 -42.66 239 -43 239 C-43 224.15 -43 209.3 -43 194 C-34.42 194 -25.84 194 -17 194 C-17 192.68 -17 191.36 -17 190 C-17.6612085 190.00523682 -18.32241699 190.01047363 -19.00366211 190.01586914 C-21.98159851 190.03657656 -24.95951982 190.04964012 -27.9375 190.0625 C-28.97841797 190.07087891 -30.01933594 190.07925781 -31.09179688 190.08789062 C-32.08115234 190.09111328 -33.07050781 190.09433594 -34.08984375 190.09765625 C-35.00628662 190.10289307 -35.92272949 190.10812988 -36.86694336 190.11352539 C-39 190 -39 190 -40 189 C-40 186.69 -40 184.38 -40 182 C-29.44 182 -18.88 182 -8 182 C-8 185.96 -8 189.92 -8 194 C-5.36 194 -2.72 194 0 194 C0 129.98 0 65.96 0 0 Z " fill="#001324" transform="translate(144,1)"/>
<path d="M0 0 C12.21 0 24.42 0 37 0 C37 3.3 37 6.6 37 10 C36.01 10 35.02 10 34 10 C34 47.62 34 85.24 34 124 C34.66 124 35.32 124 36 124 C36.33 123.34 36.66 122.68 37 122 C37 122.99 37 123.98 37 125 C33.04 125 29.08 125 25 125 C25.33 85.73 25.66 46.46 26 6 C25.01 6.66 24.02 7.32 23 8 C20.39754502 8.14221065 17.90882316 8.18802932 15.3125 8.125 C14.2596582 8.11146484 14.2596582 8.11146484 13.18554688 8.09765625 C11.45688475 8.07413704 9.72839855 8.03826713 8 8 C8 6.68 8 5.36 8 4 C16.58 4 25.16 4 34 4 C34 3.01 34 2.02 34 1 C23.11 1 12.22 1 1 1 C1.33 41.92 1.66 82.84 2 125 C1.34 125 0.68 125 0 125 C0 83.75 0 42.5 0 0 Z " fill="#A07553" transform="translate(392,358)"/>
<path d="M0 0 C1.85625 -0.061875 1.85625 -0.061875 3.75 -0.125 C4.79414063 -0.15980469 4.79414063 -0.15980469 5.859375 -0.1953125 C8 0 8 0 12 2 C12 78.56 12 155.12 12 234 C8.7 234 5.4 234 2 234 C0.109819 232.109819 0.87987206 229.34910249 0.87558079 226.83425337 C0.87917575 225.9397214 0.88277071 225.04518942 0.88647461 224.12355042 C0.88632575 223.18080653 0.88617689 222.23806264 0.88602352 221.26675075 C0.88672248 218.08218996 0.89458487 214.89768563 0.90234375 211.71313477 C0.90426128 209.4403995 0.90572585 207.16766381 0.9067688 204.89492798 C0.90993857 199.98832488 0.91622023 195.08173882 0.92483521 190.17514229 C0.93830641 182.4243749 0.94424088 174.67361328 0.94897461 166.9228363 C0.95631649 156.06207863 0.96643657 145.2013284 0.97949219 134.34057617 C0.98073391 133.30596334 0.98073391 133.30596334 0.98200071 132.25044923 C0.98874531 126.65400239 0.99566978 121.05755577 1.00260353 115.46110916 C1.00865529 110.57067118 1.01463584 105.68023312 1.02050781 100.78979492 C1.02133594 100.10119247 1.02216407 99.41259002 1.02301729 98.70312084 C1.03668954 87.2334554 1.04641485 75.76379091 1.05341816 64.2941193 C1.05841653 56.58156991 1.06830008 48.86904651 1.08184814 41.15650761 C1.08928231 36.36655734 1.09261832 31.57661069 1.0948143 26.78665543 C1.09669409 24.55732572 1.10031032 22.32799674 1.10574722 20.09867287 C1.11291098 17.06690928 1.11400332 14.03520377 1.11352539 11.00343323 C1.11712035 10.11113197 1.12071531 9.21883072 1.12441921 8.29949003 C1.24489818 4.01446707 1.24489818 4.01446707 0 0 Z M2 3 C2 78.57 2 154.14 2 232 C2.66 232 3.32 232 4 232 C4 231.01 4 230.02 4 229 C5.32 229 6.64 229 8 229 C8 154.75 8 80.5 8 4 C5.03 3.505 5.03 3.505 2 3 Z " fill="#6D6F70" transform="translate(278,731)"/>
<path d="M0 0 C8.91 0 17.82 0 27 0 C27.02290553 6.10559655 27.04283367 12.21104516 27.05493164 18.31665039 C27.05997288 20.39543156 27.06680574 22.47420916 27.07543945 24.55297852 C27.08751422 27.53402586 27.09323024 30.51502649 27.09765625 33.49609375 C27.10281754 34.43150497 27.10797882 35.3669162 27.11329651 36.33067322 C27.11340981 37.62189842 27.11340981 37.62189842 27.11352539 38.93920898 C27.115746 39.70087875 27.11796661 40.46254852 27.12025452 41.24729919 C27 43 27 43 26 44 C24.07332493 44.08748207 22.14348139 44.10697334 20.21484375 44.09765625 C19.16159912 44.09515869 18.10835449 44.09266113 17.02319336 44.09008789 C15.67491455 44.08098389 14.32663574 44.07187988 12.9375 44.0625 C8.668125 44.041875 4.39875 44.02125 0 44 C0 29.48 0 14.96 0 0 Z " fill="#26E1CE" transform="translate(102,197)"/>
<path d="M0 0 C8.58 0 17.16 0 26 0 C26 14.52 26 29.04 26 44 C17.42 44 8.84 44 0 44 C0 29.48 0 14.96 0 0 Z " fill="#13D9C5" transform="translate(102,243)"/>
<path d="M0 0 C8.58 0 17.16 0 26 0 C26 14.19 26 28.38 26 43 C17.42 43 8.84 43 0 43 C0 28.81 0 14.62 0 0 Z " fill="#13D9C4" transform="translate(102,332)"/>
<path d="M0 0 C8.58 0 17.16 0 26 0 C26 13.53 26 27.06 26 41 C17.42 41 8.84 41 0 41 C0 27.47 0 13.94 0 0 Z " fill="#23EED8" transform="translate(102,289)"/>
<path d="M0 0 C0.33 0 0.66 0 1 0 C1 126.39 1 252.78 1 383 C0.67 383 0.34 383 0 383 C0 314.69 0 246.38 0 176 C-4.62 176 -9.24 176 -14 176 C-13.67 244.97 -13.34 313.94 -13 385 C-13.66 385 -14.32 385 -15 385 C-15.18243254 372.70853405 -15.34686173 360.41686477 -15.5 348.125 C-15.51781588 346.69603834 -15.51781588 346.69603834 -15.53599167 345.23820877 C-16.01142389 306.63770809 -16.08690118 268.04021503 -16.0625 229.4375 C-16.06207577 228.74646337 -16.06165154 228.05542673 -16.06121445 227.34344959 C-16.05011367 209.56228698 -16.02967033 191.78114151 -16 174 C-10.72 174 -5.44 174 0 174 C-0.33 156.51 -0.66 139.02 -1 121 C-2.65 120.67 -4.3 120.34 -6 120 C-6 119.67 -6 119.34 -6 119 C-3.525 118.505 -3.525 118.505 -1 118 C-1.00523682 117.05463379 -1.01047363 116.10926758 -1.01586914 115.13525391 C-1.14916604 88.1688497 -0.88068041 61.21314772 -0.5 34.25 C-0.48804218 33.40278633 -0.47608437 32.55557266 -0.46376419 31.68268585 C-0.31423586 21.12171465 -0.15952675 10.56082483 0 0 Z " fill="#000203" transform="translate(144,256)"/>
<path d="M0 0 C0.66 0.33 1.32 0.66 2 1 C2 78.55 2 156.1 2 236 C5.96 236 9.92 236 14 236 C14 273.62 14 311.24 14 350 C13.34 350 12.68 350 12 350 C12 313.37 12 276.74 12 239 C9.03 239 6.06 239 3 239 C2.01 238.67 1.02 238.34 0 238 C-1.71080271 234.57839459 -1.13628091 230.65417112 -1.12698364 226.8894043 C-1.12854363 225.93355533 -1.13010362 224.97770636 -1.13171089 223.99289227 C-1.13571941 220.7699857 -1.13253179 217.54712572 -1.12939453 214.32421875 C-1.13074864 212.0217791 -1.13252862 209.71933966 -1.13470459 207.41690063 C-1.13927782 201.14848427 -1.13748981 194.8800843 -1.1343255 188.61166763 C-1.13180134 182.06492314 -1.1341396 175.51818009 -1.13571167 168.97143555 C-1.13785029 157.27022024 -1.13453392 145.56901185 -1.12945233 133.86779773 C-1.12498437 123.25072863 -1.12576032 112.63367046 -1.13037109 102.01660156 C-1.13571831 89.69791499 -1.13771692 77.3792354 -1.13475883 65.06054783 C-1.13319632 58.53575439 -1.13300159 52.01096849 -1.13629532 45.48617554 C-1.13917471 39.35329816 -1.13719707 33.22044151 -1.13140106 27.08756638 C-1.13007383 24.83082489 -1.13046696 22.57408166 -1.13266373 20.31734085 C-1.13537666 17.24840189 -1.13199229 14.17953032 -1.12698364 11.1105957 C-1.12921436 10.20730372 -1.13144509 9.30401175 -1.13374341 8.37334728 C-1.11414999 2.22829999 -1.11414999 2.22829999 0 0 Z " fill="#65A2C2" transform="translate(276,730)"/>
<path d="M0 0 C5.61 0 11.22 0 17 0 C17 0.33 17 0.66 17 1 C12.05 1 7.1 1 2 1 C2.01252808 2.17697449 2.02505615 3.35394897 2.03796387 4.56658936 C2.19767694 19.62766917 2.35107412 34.68880972 2.5 49.75 C2.51187725 50.95077934 2.5237545 52.15155869 2.53599167 53.38872528 C2.84502428 84.80098549 3.10000919 116.21105088 3.0625 147.625 C3.06164398 148.34739365 3.06078796 149.06978729 3.05990601 149.81407166 C3.0491628 158.20941193 3.02921588 166.6047033 3 175 C7.95 175 12.9 175 18 175 C18 306.67 18 438.34 18 574 C16.68 573.67 15.36 573.34 14 573 C14.99 573 15.98 573 17 573 C17 442.32 17 311.64 17 177 C12.05 177 7.1 177 2 177 C0.09839241 175.09839241 0.85432476 171.71927762 0.84178162 169.19810486 C0.83684364 168.47854522 0.83190566 167.75898558 0.82681805 167.0176211 C0.81136869 164.58849139 0.80306244 162.15938825 0.79467773 159.73022461 C0.78510504 157.9961066 0.77509533 156.26199095 0.76467896 154.52787781 C0.73755779 149.80496222 0.71658741 145.08203656 0.69667697 140.3590858 C0.67486173 135.42895199 0.64745129 130.49884945 0.62062073 125.56874084 C0.5706333 116.22605906 0.525717 106.88335997 0.48259836 97.54064423 C0.43327758 86.90718724 0.37834038 76.27376163 0.32291877 65.64033496 C0.20900589 43.76025235 0.10238645 21.88013933 0 0 Z " fill="#4383A1" transform="translate(272,157)"/>
<path d="M0 0 C13.86 0 27.72 0 42 0 C42.02254683 16.80224133 42.04097906 33.60446982 42.05181217 50.40672207 C42.05697518 58.20775836 42.06401797 66.00878461 42.07543945 73.80981445 C42.08538615 80.60676313 42.09185339 87.40370454 42.09408849 94.20066029 C42.09539563 97.80178131 42.09848164 101.40288152 42.10573006 105.0039959 C42.11374364 109.01756602 42.11399115 113.03109964 42.11352539 117.04467773 C42.11712067 118.24732773 42.12071594 119.44997772 42.12442017 120.68907166 C42.1230455 121.77587219 42.12167084 122.86267273 42.12025452 123.98240662 C42.12117631 124.93277518 42.1220981 125.88314375 42.12304783 126.86231136 C42 129 42 129 41 130 C38.0546443 130.10110353 35.1332244 130.13969279 32.1875 130.1328125 C30.86141724 130.13424759 30.86141724 130.13424759 29.50854492 130.13571167 C27.63557871 130.13639351 25.76261014 130.13453893 23.88964844 130.13037109 C21.01231612 130.12502289 18.13513992 130.13031593 15.2578125 130.13671875 C13.44270799 130.13605797 11.62760357 130.13477681 9.8125 130.1328125 C8.94584717 130.13483673 8.07919434 130.13686096 7.1862793 130.13894653 C1.11495009 130.11495009 1.11495009 130.11495009 0 129 C-0.09614133 127.32975331 -0.12187722 125.65541724 -0.12025452 123.98240662 C-0.12162918 122.89560608 -0.12300385 121.80880554 -0.12442017 120.68907166 C-0.11902725 118.88509666 -0.11902725 118.88509666 -0.11352539 117.04467773 C-0.11367142 115.78632111 -0.11381744 114.52796448 -0.1139679 113.23147583 C-0.11425585 109.77088747 -0.10835949 106.31033348 -0.10139394 102.84975314 C-0.09516003 99.23691909 -0.09455657 95.62408433 -0.09336853 92.01124573 C-0.09025532 85.16536492 -0.08204208 78.3195 -0.07201904 71.4736262 C-0.06085757 63.68173411 -0.05534737 55.88984127 -0.05032361 48.09794319 C-0.03985946 32.06528468 -0.02151411 16.03264807 0 0 Z M2 1 C2 42.91 2 84.82 2 128 C14.54 128 27.08 128 40 128 C40 86.09 40 44.18 40 1 C27.46 1 14.92 1 2 1 Z " fill="#062633" transform="translate(390,356)"/>
<path d="M0 0 C4.62 0 9.24 0 14 0 C14.02464455 6.24796254 14.04283343 12.49589703 14.05493164 18.74389648 C14.05997298 20.87118014 14.06680591 22.99846031 14.07543945 25.12573242 C14.08751379 28.17627826 14.09323014 31.22677845 14.09765625 34.27734375 C14.10281754 35.23462875 14.10797882 36.19191376 14.11329651 37.1782074 C14.11337204 38.05904495 14.11344757 38.93988251 14.11352539 39.84741211 C14.115746 40.62684677 14.11796661 41.40628143 14.12025452 42.20933533 C14 44 14 44 13 45 C8.71 45 4.42 45 0 45 C0 30.15 0 15.3 0 0 Z " fill="#14BDAA" transform="translate(130,242)"/>
<path d="M0 0 C4.62 0 9.24 0 14 0 C14 14.19 14 28.38 14 43 C11.37670316 44.31164842 9.36301375 44.13262846 6.4375 44.125 C5.44621094 44.12757813 4.45492187 44.13015625 3.43359375 44.1328125 C1 44 1 44 0 43 C-0.09268999 41.64905018 -0.11747326 40.29332909 -0.11352539 38.93920898 C-0.11344986 38.07839218 -0.11337433 37.21757538 -0.11329651 36.33067322 C-0.10813522 35.39526199 -0.10297394 34.45985077 -0.09765625 33.49609375 C-0.0962413 32.54307877 -0.09482635 31.59006378 -0.09336853 30.60816956 C-0.08775152 27.55124835 -0.07519616 24.49439923 -0.0625 21.4375 C-0.05748719 19.37044376 -0.05292391 17.30338638 -0.04882812 15.23632812 C-0.03777656 10.15752412 -0.02050055 5.0787743 0 0 Z " fill="#23EDD8" transform="translate(130,197)"/>
<path d="M0 0 C4.62 0 9.24 0 14 0 C14.02464574 5.96313166 14.042834 11.92623395 14.05493164 17.8894043 C14.05997278 19.91968298 14.06680557 21.94995802 14.07543945 23.98022461 C14.08751467 26.89177347 14.09323034 29.8032745 14.09765625 32.71484375 C14.10281754 33.6283812 14.10797882 34.54191864 14.11329651 35.48313904 C14.11349168 37.65575427 14.06211805 39.82827296 14 42 C13.505 42.495 13.505 42.495 13 43 C8.71 43 4.42 43 0 43 C0 28.81 0 14.62 0 0 Z " fill="#1CC7B1" transform="translate(130,332)"/>
<path d="M0 0 C4.29 0 8.58 0 13 0 C14 1 14 1 14.11352539 4.87719727 C14.11336621 6.60694167 14.10766849 8.33669081 14.09765625 10.06640625 C14.0962413 10.97502914 14.09482635 11.88365204 14.09336853 12.81980896 C14.08775193 15.73407221 14.07519665 18.64825981 14.0625 21.5625 C14.05748714 23.53320202 14.05292386 25.50390524 14.04882812 27.47460938 C14.03777711 32.31643559 14.02050138 37.15820495 14 42 C10 43 10 43 0 43 C0 28.81 0 14.62 0 0 Z " fill="#24EDD8" transform="translate(130,288)"/>
<path d="M0 0 C45.21 0 90.42 0 137 0 C137 1.32 137 2.64 137 4 C91.79 4 46.58 4 0 4 C0 2.68 0 1.36 0 0 Z " fill="#179EDC" transform="translate(302,6)"/>
<path d="M0 0 C3.12578143 1.6720747 5.39281175 3.7856235 7 7 C7.6123733 11.24010376 7.82646775 15.23981295 5.9765625 19.1796875 C3.28122753 22.76850368 0.89640724 24.41664517 -3.5625 25.125 C-8.91998235 25.30478129 -11.40221597 23.42505062 -15.3125 19.9375 C-17.77299372 15.65441835 -17.91713833 11.82461005 -17 7 C-13.11414424 -0.14079767 -7.55903289 -1.0649786 0 0 Z " fill="#C0C0BE" transform="translate(418,311)"/>
<path d="M0 0 C0.99 0 1.98 0 3 0 C2.67 75.57 2.34 151.14 2 229 C1.34 229 0.68 229 0 229 C0 153.43 0 77.86 0 0 Z " fill="#867F79" transform="translate(280,734)"/>
<path d="M0 0 C1.29744141 0.01353516 1.29744141 0.01353516 2.62109375 0.02734375 C3.26175781 0.03894531 3.90242188 0.05054688 4.5625 0.0625 C4.5625 0.7225 4.5625 1.3825 4.5625 2.0625 C-0.3875 2.0625 -5.3375 2.0625 -10.4375 2.0625 C-10.4375 64.1025 -10.4375 126.1425 -10.4375 190.0625 C-5.4875 190.0625 -0.5375 190.0625 4.5625 190.0625 C4.5625 190.7225 4.5625 191.3825 4.5625 192.0625 C1.91659986 192.08934679 -0.72903096 192.10926357 -3.375 192.125 C-4.12974609 192.13337891 -4.88449219 192.14175781 -5.66210938 192.15039062 C-7.58744313 192.15902441 -9.51285581 192.11474333 -11.4375 192.0625 C-13.13861709 190.36138291 -12.55977496 188.22983433 -12.56658131 185.96052688 C-12.56366847 185.22415955 -12.56075563 184.48779221 -12.55775452 183.72911072 C-12.55860894 182.95238134 -12.55946337 182.17565197 -12.56034368 181.37538534 C-12.56200084 178.75275678 -12.55647329 176.1301911 -12.55102539 173.50756836 C-12.55074354 171.63552349 -12.5509012 169.76347852 -12.5514679 167.89143372 C-12.55175597 162.7924724 -12.54585769 157.69353438 -12.53889394 152.5945785 C-12.53266199 147.27208367 -12.53205673 141.94958837 -12.53086853 136.62709045 C-12.52775474 126.54065109 -12.51954072 116.45422251 -12.50951904 106.3677879 C-12.49835937 94.88793621 -12.49284782 83.40808402 -12.48782361 71.92822826 C-12.47735814 48.30631285 -12.45975778 24.68440703 -12.4375 1.0625 C-8.24412532 0.43878138 -4.24164673 -0.05810475 0 0 Z " fill="#142A36" transform="translate(434.4375,649.9375)"/>
<path d="M0 0 C47.19 0 94.38 0 143 0 C143 0.99 143 1.98 143 3 C95.81 3 48.62 3 0 3 C0 2.01 0 1.02 0 0 Z " fill="#0A90CD" transform="translate(0,3)"/>
<path d="M0 0 C8.58 0 17.16 0 26 0 C26 14.52 26 29.04 26 44 C17.42 44 8.84 44 0 44 C0 29.48 0 14.96 0 0 Z M8 2 C8 5.63 8 9.26 8 13 C7.34 13 6.68 13 6 13 C6 22.57 6 32.14 6 42 C12.27 42 18.54 42 25 42 C25 28.8 25 15.6 25 2 C19.39 2 13.78 2 8 2 Z " fill="#21D5C0" transform="translate(102,243)"/>
<path d="M0 0 C0.74507813 0.00902344 1.49015625 0.01804687 2.2578125 0.02734375 C4.08868059 0.05081642 5.91938238 0.08668475 7.75 0.125 C7.75 0.455 7.75 0.785 7.75 1.125 C-0.665 1.62 -0.665 1.62 -9.25 2.125 C-9.25 47.665 -9.25 93.205 -9.25 140.125 C-9.58 140.125 -9.91 140.125 -10.25 140.125 C-10.58 138.475 -10.91 136.825 -11.25 135.125 C-11.58 135.125 -11.91 135.125 -12.25 135.125 C-13.13425832 123.43129818 -13.39882029 111.820555 -13.3828125 100.09765625 C-13.38348802 98.32929979 -13.38446011 96.56094342 -13.38571167 94.79258728 C-13.38717118 91.12611996 -13.38508716 87.45967731 -13.38037109 83.79321289 C-13.37461109 79.0855395 -13.37800284 74.37792234 -13.38394356 69.67025089 C-13.38754289 66.03730335 -13.3864146 62.40436936 -13.38381577 58.77142143 C-13.38314801 57.03340079 -13.38396966 55.29537891 -13.38629532 53.5573597 C-13.38881827 51.14766237 -13.3849893 48.73805938 -13.37939453 46.32836914 C-13.38141876 45.60904205 -13.38344299 44.88971497 -13.38552856 44.14859009 C-13.36427629 39.23927629 -13.36427629 39.23927629 -12.25 38.125 C-12.16144839 35.4587397 -12.13475327 32.81852886 -12.15234375 30.15234375 C-12.1537587 29.35470108 -12.15517365 28.55705841 -12.15663147 27.73524475 C-12.16224684 25.17762565 -12.17480188 22.62009282 -12.1875 20.0625 C-12.19251302 18.33268355 -12.19707627 16.60286574 -12.20117188 14.87304688 C-12.21222125 10.62366447 -12.22949614 6.37434688 -12.25 2.125 C-8.18051131 -0.16309773 -4.56891048 -0.10493964 0 0 Z " fill="#1F94CC" transform="translate(431.25,648.875)"/>
<path d="M0 0 C4.95 0 9.9 0 15 0 C15.33 0.66 15.66 1.32 16 2 C11.38 2 6.76 2 2 2 C2.33 70.97 2.66 139.94 3 211 C2.34 211 1.68 211 1 211 C0.81756746 198.70853405 0.65313827 186.41686477 0.5 174.125 C0.48812275 173.17235889 0.4762455 172.21971779 0.46400833 171.23820877 C-0.01142389 132.63770809 -0.08690118 94.04021503 -0.0625 55.4375 C-0.06207577 54.74646337 -0.06165154 54.05542673 -0.06121445 53.34344959 C-0.05011367 35.56228698 -0.02967033 17.78114151 0 0 Z " fill="#0A1A24" transform="translate(128,430)"/>
<path d="M0 0 C0.33 0 0.66 0 1 0 C1 106.59 1 213.18 1 323 C-1.75078884 323.91692961 -3.35948913 324.10886083 -6.1875 324.0625 C-7.445625 324.041875 -8.70375 324.02125 -10 324 C-9.34 323.67 -8.68 323.34 -8 323 C-7.67 322.34 -7.34 321.68 -7 321 C-4.69 321 -2.38 321 0 321 C0 215.07 0 109.14 0 0 Z " fill="#7FC9F0" transform="translate(288,407)"/>
<path d="M0 0 C8.58 0 17.16 0 26 0 C26 13.53 26 27.06 26 41 C17.42 41 8.84 41 0 41 C0 27.47 0 13.94 0 0 Z M6 3 C5.08985338 7.55379759 4.94868291 11.73125159 5.12109375 16.3671875 C5.14470474 17.04677521 5.16831573 17.72636292 5.19264221 18.42654419 C5.26861727 20.5762779 5.35292117 22.72558937 5.4375 24.875 C5.49078716 26.34112585 5.54352699 27.80727169 5.59570312 29.2734375 C5.72312359 32.84930064 5.86182561 36.42447188 6 40 C12.27 40 18.54 40 25 40 C25 27.46 25 14.92 25 2 C12.43818499 1.54239568 12.43818499 1.54239568 6 3 Z " fill="#34DED1" transform="translate(102,289)"/>
<path d="M0 0 C8.58 0 17.16 0 26 0 C26 14.19 26 28.38 26 43 C17.42 43 8.84 43 0 43 C0 28.81 0 14.62 0 0 Z M1 1 C1 14.2 1 27.4 1 41 C8.59 41 16.18 41 24 41 C24 39.35 24 37.7 24 36 C23.34 36 22.68 36 22 36 C21.67 25.11 21.34 14.22 21 3 C12.78118773 1.55807094 12.78118773 1.55807094 8 3 C8 2.34 8 1.68 8 1 C5.69 1 3.38 1 1 1 Z " fill="#22C2B4" transform="translate(102,332)"/>
<path d="M0 0 C5.61 0 11.22 0 17 0 C17 0.33 17 0.66 17 1 C12.05 1 7.1 1 2 1 C2.01252808 2.17697449 2.02505615 3.35394897 2.03796387 4.56658936 C2.19767694 19.62766917 2.35107412 34.68880972 2.5 49.75 C2.51187725 50.95077934 2.5237545 52.15155869 2.53599167 53.38872528 C2.84502428 84.80098549 3.10000919 116.21105088 3.0625 147.625 C3.06164398 148.34739365 3.06078796 149.06978729 3.05990601 149.81407166 C3.0491628 158.20941193 3.02921588 166.6047033 3 175 C7.29 175 11.58 175 16 175 C16 175.66 16 176.32 16 177 C13.68756208 177.02685412 11.3750373 177.04632841 9.0625 177.0625 C7.77472656 177.07410156 6.48695313 177.08570313 5.16015625 177.09765625 C2 177 2 177 1 176 C0.89061744 173.73472764 0.85306462 171.46598847 0.84178162 169.19810486 C0.83684364 168.47854522 0.83190566 167.75898558 0.82681805 167.0176211 C0.81136869 164.58849139 0.80306244 162.15938825 0.79467773 159.73022461 C0.78510504 157.9961066 0.77509533 156.26199095 0.76467896 154.52787781 C0.73755779 149.80496222 0.71658741 145.08203656 0.69667697 140.3590858 C0.67486173 135.42895199 0.64745129 130.49884945 0.62062073 125.56874084 C0.5706333 116.22605906 0.525717 106.88335997 0.48259836 97.54064423 C0.43327758 86.90718724 0.37834038 76.27376163 0.32291877 65.64033496 C0.20900589 43.76025235 0.10238645 21.88013933 0 0 Z " fill="#010D17" transform="translate(272,157)"/>
<path d="M0 0 C0.99 0 1.98 0 3 0 C6.24883759 7.65797432 7.19526777 15.47592463 5.421875 23.671875 C4.78132415 26.14449682 4.78132415 26.14449682 6 29 C6.06740865 30.56118428 6.08514456 32.1250252 6.0625 33.6875 C6.05347656 34.49574219 6.04445313 35.30398438 6.03515625 36.13671875 C6.02355469 36.75160156 6.01195312 37.36648438 6 38 C5.195625 38.2475 4.39125 38.495 3.5625 38.75 C0.828919 39.72238859 0.828919 39.72238859 0.1875 42.125 C0.0946875 43.053125 0.0946875 43.053125 0 44 C0.66 44 1.32 44 2 44 C2 44.66 2 45.32 2 46 C-0.46800047 44.84826645 -2.04783565 43.95216435 -4 42 C-4 41.01 -4 40.02 -4 39 C-1.03 38.505 -1.03 38.505 2 38 C2 37.34 2 36.68 2 36 C-0.64 35.67 -3.28 35.34 -6 35 C-5.67 34.34 -5.34 33.68 -5 33 C-3.68 33 -2.36 33 -1 33 C-1.37125 31.9171875 -1.37125 31.9171875 -1.75 30.8125 C-2 28 -2 28 -0.125 25.3125 C0.57625 24.549375 1.2775 23.78625 2 23 C3.34413413 20.31173174 3.13239863 18.18764598 3.125 15.1875 C3.12757813 14.14980469 3.13015625 13.11210937 3.1328125 12.04296875 C3.01076175 9.24657058 2.63363355 6.72060121 2 4 C1.34 4 0.68 4 0 4 C-0.22042969 4.81791016 -0.22042969 4.81791016 -0.4453125 5.65234375 C-1.77357112 10.11804084 -3.28319798 13.61716621 -6.0625 17.375 C-9.54829329 22.2620303 -10.36199659 27.11496851 -11 33 C-11.33 33 -11.66 33 -12 33 C-12.02705729 31.22925083 -12.04642195 29.45838289 -12.0625 27.6875 C-12.07410156 26.70136719 -12.08570313 25.71523438 -12.09765625 24.69921875 C-12 22 -12 22 -11 19 C-12.8871875 18.566875 -12.8871875 18.566875 -14.8125 18.125 C-17.8539399 17.42696461 -19.30669878 16.79553415 -22 15 C-22 14.34 -22 13.68 -22 13 C-20.37191406 13.10054688 -20.37191406 13.10054688 -18.7109375 13.203125 C-12.25287351 13.39074374 -12.25287351 13.39074374 -6 12 C-2.81804244 8.36717875 -1.33445663 4.60804556 0 0 Z " fill="#0A2005" transform="translate(274,351)"/>
<path d="M0 0 C2.06874624 3.99957607 3.37656391 6.56440517 2 11 C2.66 11 3.32 11 4 11 C4.33 17.27 4.66 23.54 5 30 C5.33 28.35 5.66 26.7 6 25 C6.65146849 22.66237777 7.31526605 20.32809543 8 18 C8.33 18 8.66 18 9 18 C9 19.65 9 21.3 9 23 C9.66 23 10.32 23 11 23 C11.0582462 26.72910066 11.09367917 30.45808364 11.125 34.1875 C11.14175781 35.24259766 11.15851563 36.29769531 11.17578125 37.38476562 C11.18222656 38.40634766 11.18867188 39.42792969 11.1953125 40.48046875 C11.20578613 41.41785889 11.21625977 42.35524902 11.22705078 43.32104492 C10.98166713 46.21630812 10.20521619 48.37062697 9 51 C7 47.25 7 47.25 7 45 C6.34 45 5.68 45 5 45 C5 48.96 5 52.92 5 57 C4.01 57 3.02 57 2 57 C-0.19576787 53.7063482 -0.36287182 52.81015416 0 49 C0.33 48.2575 0.66 47.515 1 46.75 C3.10919537 40.94971274 2.0165805 34.95425721 1 29 C1.33 28.34 1.66 27.68 2 27 C2.49035969 19.69021946 1.88301088 13.06129081 0 6 C-0.99 6 -1.98 6 -3 6 C-3.66 7.32 -4.32 8.64 -5 10 C-5 7.69 -5 5.38 -5 3 C-4.360625 2.87625 -3.72125 2.7525 -3.0625 2.625 C-2.0415625 2.315625 -2.0415625 2.315625 -1 2 C-0.67 1.34 -0.34 0.68 0 0 Z " fill="#70C7EC" transform="translate(277,345)"/>
<path d="M0 0 C2.64 0 5.28 0 8 0 C7.67 12.54 7.34 25.08 7 38 C5.02 38 3.04 38 1 38 C-0.23180134 34.30459598 -0.12412112 30.89696622 -0.09765625 27.05078125 C-0.0962413 26.27816452 -0.09482635 25.50554779 -0.09336853 24.70951843 C-0.08777466 22.24380611 -0.07522333 19.77818485 -0.0625 17.3125 C-0.05748421 15.63997527 -0.05292144 13.96744912 -0.04882812 12.29492188 C-0.03780724 8.19657954 -0.02054684 4.09830521 0 0 Z " fill="#13D9C7" transform="translate(132,334)"/>
<path d="M0 0 C4.75737462 3.07520901 8.86592203 7.44697092 10.69921875 12.890625 C12.1011488 21.03086401 11.84000309 29.0533242 7.0625 36 C2.6191398 40.84224222 -1.87184683 44.47735998 -8.55078125 45.3359375 C-14.86734083 45.42734936 -19.87041184 45.00877228 -24.9375 41 C-30.39522436 35.31576929 -33.59935272 30.12539683 -34.25 22.1875 C-33.97884614 14.27884588 -31.20131993 8.34200333 -25.73828125 2.6640625 C-18.86523212 -3.68717162 -8.29734635 -4.16273648 0 0 Z M-27.4609375 7.96484375 C-31.74373337 13.86785075 -33.07106417 18.78544673 -31.9375 26 C-29.84001173 31.94719925 -26.91184951 37.02052039 -21.9375 41 C-16.36627266 43.6529654 -10.99835133 43.87682367 -4.9375 43 C1.01330428 40.44714017 5.04106187 36.6651965 8.0625 31 C10.06204039 25.00137882 10.31718158 17.4100267 8.12109375 11.44140625 C4.04103522 4.67541577 -1.4384412 1.12063548 -8.9375 -1 C-16.88311589 -2.19184238 -22.73848502 2.02404165 -27.4609375 7.96484375 Z " fill="#04334A" transform="translate(424.9375,302)"/>
<path d="M0 0 C0 13.86 0 27.72 0 42 C-3.96 42 -7.92 42 -12 42 C-12 41.67 -12 41.34 -12 41 C-8.37 41 -4.74 41 -1 41 C-1 30.77 -1 20.54 -1 10 C-1.66 10 -2.32 10 -3 10 C-2.67 7.03 -2.34 4.06 -2 1 C-2.66 1 -3.32 1 -4 1 C-4 11.23 -4 21.46 -4 32 C-5.98 32 -7.96 32 -10 32 C-11.22416361 29.55167278 -10.90895191 28.67677616 -10.5 26 C-9.77284696 19.96995042 -10.28124793 14.093509 -10.85742188 8.0703125 C-11.0390625 5.78125 -11.0390625 5.78125 -11 2 C-8 0 -8 0 0 0 Z M-9 12 C-9 14.64 -9 17.28 -9 20 C-8.67 20 -8.34 20 -8 20 C-8 17.36 -8 14.72 -8 12 C-8.33 12 -8.66 12 -9 12 Z " fill="#14D9C7" transform="translate(143,244)"/>
<path d="M0 0 C0.66 0 1.32 0 2 0 C3.74893812 3.79052724 4.29655519 6.83309085 4.3125 11 C4.32925781 12.010625 4.34601563 13.02125 4.36328125 14.0625 C3.94873176 17.41455609 3.02658335 19.31761231 1 22 C0.34 22 -0.32 22 -1 22 C-1.2475 22.598125 -1.495 23.19625 -1.75 23.8125 C-3.20490739 26.35858793 -4.47949271 27.51734865 -7 29 C-8.32 29 -9.64 29 -11 29 C-11.27526146 20.41528319 -8.60265715 14.87760966 -3.91015625 7.9453125 C-2.21076118 5.32497736 -1.03370337 2.93333626 0 0 Z " fill="#0DAD2E" transform="translate(274,355)"/>
<path d="M0 0 C1.32 0 2.64 0 4 0 C4.33 2.31 4.66 4.62 5 7 C12.26 7.33 19.52 7.66 27 8 C27 9.32 27 10.64 27 12 C18.42 12 9.84 12 1 12 C1 40.05 1 68.1 1 97 C0.67 97 0.34 97 0 97 C0 64.99 0 32.98 0 0 Z " fill="#1D7298" transform="translate(100,183)"/>
<path d="M0 0 C0.433125 0.474375 0.86625 0.94875 1.3125 1.4375 C3.02309613 3.23686957 3.02309613 3.23686957 6 4 C6 47.23 6 90.46 6 135 C5.34 134.67 4.68 134.34 4 134 C4.33 91.43 4.66 48.86 5 5 C-8.53 5 -22.06 5 -36 5 C-36 4.34 -36 3.68 -36 3 C-24.45 3 -12.9 3 -1 3 C-0.67 2.01 -0.34 1.02 0 0 Z " fill="#289ACF" transform="translate(427,351)"/>
<path d="M0 0 C0.33 0 0.66 0 1 0 C1.33 26.73 1.66 53.46 2 81 C9.92 81.33 17.84 81.66 26 82 C26 83.32 26 84.64 26 86 C19.07 86 12.14 86 5 86 C5.33 88.64 5.66 91.28 6 94 C8.97 94.33 11.94 94.66 15 95 C15 95.33 15 95.66 15 96 C13.20841511 96.02696365 11.41671527 96.04637917 9.625 96.0625 C8.62726563 96.07410156 7.62953125 96.08570313 6.6015625 96.09765625 C4 96 4 96 2 95 C1.5859375 92.93359375 1.5859375 92.93359375 1.375 90.4375 C1.30023438 89.61121094 1.22546875 88.78492188 1.1484375 87.93359375 C1.09945312 87.29550781 1.05046875 86.65742188 1 86 C2.98 85.505 2.98 85.505 5 85 C5 84.34 5 83.68 5 83 C3.02 83.495 3.02 83.495 1 84 C-0.54758217 80.90483565 -0.1295989 77.64143926 -0.11352539 74.24560547 C-0.11367142 73.44552063 -0.11381744 72.64543579 -0.1139679 71.82110596 C-0.1132698 69.16977247 -0.10548221 66.51850875 -0.09765625 63.8671875 C-0.0957917 62.03158608 -0.09436797 60.19598417 -0.09336853 58.36038208 C-0.08954623 53.52376945 -0.07971839 48.68718673 -0.06866455 43.85058594 C-0.05844426 38.91732183 -0.05386958 33.98405289 -0.04882812 29.05078125 C-0.03809588 19.36717434 -0.02102289 9.68358965 0 0 Z " fill="#2187B8" transform="translate(99,295)"/>
<path d="M0 0 C0.33 0 0.66 0 1 0 C1.57704211 16.6697645 2.14895111 33.31747551 2 50 C10.58 50 19.16 50 28 50 C28 50.33 28 50.66 28 51 C19.42 51.33 10.84 51.66 2 52 C2 66.19 2 80.38 2 95 C8.93 95.33 15.86 95.66 23 96 C23 96.33 23 96.66 23 97 C19.35418313 97.02887512 15.70839537 97.04675585 12.0625 97.0625 C10.50112305 97.07506836 10.50112305 97.07506836 8.90820312 97.08789062 C7.91884766 97.09111328 6.92949219 97.09433594 5.91015625 97.09765625 C4.53549194 97.10551147 4.53549194 97.10551147 3.13305664 97.11352539 C1 97 1 97 0 96 C-0.0952822 93.01701786 -0.12552175 90.05723655 -0.11352539 87.07397461 C-0.11367142 86.13748581 -0.11381744 85.20099701 -0.1139679 84.23612976 C-0.11326837 81.12484461 -0.10547415 78.01361851 -0.09765625 74.90234375 C-0.09579221 72.75142957 -0.09436824 70.60051497 -0.09336853 68.44960022 C-0.08954225 62.77618242 -0.07971102 57.10279005 -0.06866455 51.42938232 C-0.0584528 45.64498234 -0.05387142 39.86057827 -0.04882812 34.07617188 C-0.03808885 22.71743672 -0.02101111 11.35872047 0 0 Z " fill="#0C404B" transform="translate(100,280)"/>
<path d="M0 0 C3.90168516 1.47994954 4.90715049 3.51191749 7 7 C9.01669827 8.13350534 9.01669827 8.13350534 11 9 C11.99 10.485 11.99 10.485 13 12 C14.32 12.66 15.64 13.32 17 14 C17 17.63 17 21.26 17 25 C16.34 25 15.68 25 15 25 C14.67 25.66 14.34 26.32 14 27 C5.94906685 20.77882438 2.5660377 13.80008014 0 4 C0 2.68 0 1.36 0 0 Z " fill="#1BA335" transform="translate(245,360)"/>
<path d="M0 0 C4.29 0 8.58 0 13 0 C14 1 14 1 14.11352539 4.87719727 C14.11336621 6.60694167 14.10766849 8.33669081 14.09765625 10.06640625 C14.0962413 10.97502914 14.09482635 11.88365204 14.09336853 12.81980896 C14.08775193 15.73407221 14.07519665 18.64825981 14.0625 21.5625 C14.05748714 23.53320202 14.05292386 25.50390524 14.04882812 27.47460938 C14.03777711 32.31643559 14.02050138 37.15820495 14 42 C10 43 10 43 0 43 C0 28.81 0 14.62 0 0 Z M2 5 C0.46702703 8.06594594 0.87868545 11.27111853 0.90234375 14.6328125 C0.9037587 15.38464813 0.90517365 16.13648376 0.90663147 16.91110229 C0.91223535 19.3157751 0.92478843 21.72035527 0.9375 24.125 C0.9425145 25.75390491 0.9470775 27.38281127 0.95117188 29.01171875 C0.96220603 33.00784827 0.97947321 37.00390842 1 41 C2.258125 41.020625 3.51625 41.04125 4.8125 41.0625 C5.52019531 41.07410156 6.22789062 41.08570313 6.95703125 41.09765625 C9.20305461 41.08263217 9.20305461 41.08263217 12 40 C12 28.12 12 16.24 12 4 C7.12822117 3.02564423 6.10885519 2.83143754 2 5 Z " fill="#27B6A7" transform="translate(130,288)"/>
<path d="M0 0 C0.33 0 0.66 0 1 0 C1 57.42 1 114.84 1 174 C0.67 174 0.34 174 0 174 C-0.33 156.51 -0.66 139.02 -1 121 C-2.65 120.67 -4.3 120.34 -6 120 C-6 119.67 -6 119.34 -6 119 C-3.525 118.505 -3.525 118.505 -1 118 C-1.00523682 117.05463379 -1.01047363 116.10926758 -1.01586914 115.13525391 C-1.14916604 88.1688497 -0.88068041 61.21314772 -0.5 34.25 C-0.48804218 33.40278633 -0.47608437 32.55557266 -0.46376419 31.68268585 C-0.31423586 21.12171465 -0.15952675 10.56082483 0 0 Z " fill="#000D10" transform="translate(144,256)"/>
<path d="M0 0 C2.31 0 4.62 0 7 0 C7 3.63 7 7.26 7 11 C-2.24 11 -11.48 11 -21 11 C-21 9.35 -21 7.7 -21 6 C-14.07 6 -7.14 6 0 6 C0 4.02 0 2.04 0 0 Z " fill="#33D3C2" transform="translate(127,377)"/>
<path d="M0 0 C0 0.33 0 0.66 0 1 C-1.98 1 -3.96 1 -6 1 C-6 5.29 -6 9.58 -6 14 C-10.53897705 14.02465392 -15.07791543 14.04283789 -19.61694336 14.05493164 C-21.16219766 14.0599714 -22.70744716 14.0668032 -24.25268555 14.07543945 C-26.46925029 14.08752076 -28.68575218 14.09323173 -30.90234375 14.09765625 C-31.94454323 14.10539818 -31.94454323 14.10539818 -33.00779724 14.11329651 C-34.6722933 14.11349277 -36.33665499 14.06189129 -38 14 C-38.33 13.67 -38.66 13.34 -39 13 C-39 10.36 -39 7.72 -39 5 C-32.07 5 -25.14 5 -18 5 C-17.34 3.35 -16.68 1.7 -16 0 C-10.75881575 -1.74706142 -5.31166864 -1.32791716 0 0 Z M-16 1 C-16 2.98 -16 4.96 -16 7 C-22.93 7 -29.86 7 -37 7 C-37 8.65 -37 10.3 -37 12 C-27.76 12 -18.52 12 -9 12 C-9 8.37 -9 4.74 -9 1 C-11.31 1 -13.62 1 -16 1 Z " fill="#002536" transform="translate(143,376)"/>
<path d="M0 0 C0.495 0.99 0.495 0.99 1 2 C-3.62 2 -8.24 2 -13 2 C-13 16.52 -13 31.04 -13 46 C-14.485 46.495 -14.485 46.495 -16 47 C-16.33 48.65 -16.66 50.3 -17 52 C-17.33 52 -17.66 52 -18 52 C-18 50.35 -18 48.7 -18 47 C-23.94 46.67 -29.88 46.34 -36 46 C-36 45.67 -36 45.34 -36 45 C-29.07 45 -22.14 45 -15 45 C-15 30.81 -15 16.62 -15 2 C-22.92 2 -30.84 2 -39 2 C-39 1.67 -39 1.34 -39 1 C-25.99533484 0.39250166 -13.02106078 -0.18780376 0 0 Z " fill="#011B1E" transform="translate(143,330)"/>
<path d="M0 0 C4.38824487 1.97198215 7.23305675 4.48356093 9 9 C9.56465681 13.50992128 9.55605009 17.65377346 7.8125 21.875 C4.4496273 25.81767834 1.80317302 28.11935833 -3.375 29 C-8.21561826 29.33022521 -11.33503523 28.13326004 -15 25 C-18.08879339 21.59440728 -19.25527073 19.01776736 -19.4375 14.5 C-19.16788657 9.15266698 -17.44033022 5.71039214 -14 1.625 C-9.39637936 -0.86862785 -5.11588718 -0.8563073 0 0 Z M-15 6 C-17.85335815 10.28003722 -17.84275261 13.98144616 -17 19 C-15.5380809 22.09615566 -13.84324634 24.09096317 -11 26 C-6.75069036 27.43880133 -3.35680568 27.54272227 0.8125 25.875 C5.35789131 22.08688083 5.35789131 22.08688083 7.421875 16.6640625 C7.66375198 12.18933844 7.51759448 8.9910137 4.625 5.4375 C0.5557058 1.65886967 -2.12511877 1.66423263 -7.51953125 1.7109375 C-10.99962092 2.11649126 -12.66684061 3.44810692 -15 6 Z " fill="#0C3633" transform="translate(418,309)"/>
<path d="M0 0 C0.99 0.495 0.99 0.495 2 1 C3.7404417 1.08449628 5.48409722 1.10723024 7.2265625 1.09765625 C8.7734375 1.09282227 8.7734375 1.09282227 10.3515625 1.08789062 C11.43179688 1.07951172 12.51203125 1.07113281 13.625 1.0625 C14.71296875 1.05798828 15.8009375 1.05347656 16.921875 1.04882812 C19.61463789 1.03701776 22.30729188 1.02054778 25 1 C25 1.33 25 1.66 25 2 C19.39 2 13.78 2 8 2 C8.33 3.32 8.66 4.64 9 6 C8.72686657 8.34114367 8.40197001 10.67750658 8 13 C7.34 13 6.68 13 6 13 C6 9.37 6 5.74 6 2 C5.01 2 4.02 2 3 2 C2.97494385 3.13542236 2.9498877 4.27084473 2.92407227 5.44067383 C2.82994424 9.65075081 2.72973663 13.86066488 2.62768555 18.07055664 C2.58435713 19.89310904 2.54268053 21.71570148 2.50268555 23.53833008 C2.44493238 26.15718661 2.38125244 28.77584195 2.31640625 31.39453125 C2.29969376 32.21025101 2.28298126 33.02597076 2.26576233 33.8664093 C2.17986755 37.14179544 2.04247866 39.87256401 1 43 C9.25 43 17.5 43 26 43 C26 43.33 26 43.66 26 44 C17.42 44 8.84 44 0 44 C0 29.48 0 14.96 0 0 Z " fill="#21BDB1" transform="translate(102,243)"/>
<path d="M0 0 C6.65307929 2.97637757 11.3940374 8.79774432 15 15 C15 15.66 15 16.32 15 17 C13.39592672 17.02708567 11.7917215 17.04643483 10.1875 17.0625 C8.84751953 17.07990234 8.84751953 17.07990234 7.48046875 17.09765625 C5 17 5 17 2 16 C-0.84815046 11.56954373 -1.39359099 8.21508057 -1 3 C-0.67 2.01 -0.34 1.02 0 0 Z " fill="#1E9C35" transform="translate(263,387)"/>
<path d="M0 0 C9.57 0 19.14 0 29 0 C29 3.3 29 6.6 29 10 C27.02 10 25.04 10 23 10 C23 8.02 23 6.04 23 4 C15.41 4 7.82 4 0 4 C0 2.68 0 1.36 0 0 Z " fill="#2FB2A5" transform="translate(106,185)"/>
<path d="M0 0 C0.33 0 0.66 0 1 0 C1 17.49 1 34.98 1 53 C-4.28 53 -9.56 53 -15 53 C-15 52.67 -15 52.34 -15 52 C-14.36191406 51.93941406 -13.72382813 51.87882812 -13.06640625 51.81640625 C-12.24011719 51.73261719 -11.41382813 51.64882813 -10.5625 51.5625 C-9.73878906 51.48128906 -8.91507813 51.40007812 -8.06640625 51.31640625 C-6.01337975 51.21069185 -6.01337975 51.21069185 -5 50 C-7.97 49.67 -10.94 49.34 -14 49 C-14 48.34 -14 47.68 -14 47 C-10.37 47 -6.74 47 -3 47 C-3 37.76 -3 28.52 -3 19 C-2.67 19 -2.34 19 -2 19 C-2 28.24 -2 37.48 -2 47 C-1.34 47 -0.68 47 0 47 C0 31.49 0 15.98 0 0 Z " fill="#0D74A3" transform="translate(143,377)"/>
<path d="M0 0 C4.62 0 9.24 0 14 0 C14 14.19 14 28.38 14 43 C11.37670316 44.31164842 9.36301375 44.13262846 6.4375 44.125 C5.44621094 44.12757813 4.45492187 44.13015625 3.43359375 44.1328125 C1 44 1 44 0 43 C-0.09268999 41.64905018 -0.11747326 40.29332909 -0.11352539 38.93920898 C-0.11344986 38.07839218 -0.11337433 37.21757538 -0.11329651 36.33067322 C-0.10813522 35.39526199 -0.10297394 34.45985077 -0.09765625 33.49609375 C-0.0962413 32.54307877 -0.09482635 31.59006378 -0.09336853 30.60816956 C-0.08775152 27.55124835 -0.07519616 24.49439923 -0.0625 21.4375 C-0.05748719 19.37044376 -0.05292391 17.30338638 -0.04882812 15.23632812 C-0.03777656 10.15752412 -0.02050055 5.0787743 0 0 Z M1 1 C0.8223889 21.52302654 0.8223889 21.52302654 2 42 C5.63 42 9.26 42 13 42 C13 28.47 13 14.94 13 1 C9.04 1 5.08 1 1 1 Z " fill="#26AA9E" transform="translate(130,197)"/>
<path d="M0 0 C1.051875 0.928125 1.051875 0.928125 2.125 1.875 C7.16391758 5.59941735 11.69811837 6.25105881 17.875 6.125 C19.02742188 6.10695313 20.17984375 6.08890625 21.3671875 6.0703125 C22.23601562 6.04710937 23.10484375 6.02390625 24 6 C19.37653448 9.85688057 14.94406439 13.06719019 8.70703125 12.9609375 C6.79254661 12.72374471 4.89294873 12.37182921 3 12 C2.67 10.68 2.34 9.36 2 8 C1.34 8 0.68 8 0 8 C-0.12375 7.360625 -0.2475 6.72125 -0.375 6.0625 C-0.684375 5.0415625 -0.684375 5.0415625 -1 4 C-1.66 3.67 -2.32 3.34 -3 3 C-2.01 2.01 -1.02 1.02 0 0 Z " fill="#72C3ED" transform="translate(243,399)"/>
<path d="M0 0 C1.98 0 3.96 0 6 0 C6 0.66 6 1.32 6 2 C7.32 2 8.64 2 10 2 C10 2.66 10 3.32 10 4 C10.86625 4.185625 10.86625 4.185625 11.75 4.375 C16.00858369 5.55793991 16.00858369 5.55793991 18 7 C19.40540541 12.18918919 19.40540541 12.18918919 18 15 C18.66 15 19.32 15 20 15 C20 16.65 20 18.3 20 20 C17.32423308 18.99382318 16.2214892 18.45785454 14.953125 15.8359375 C14.72109375 15.02382813 14.4890625 14.21171875 14.25 13.375 C14.00765625 12.55773437 13.7653125 11.74046875 13.515625 10.8984375 C13.34546875 10.27195312 13.1753125 9.64546875 13 9 C12.195625 8.87625 11.39125 8.7525 10.5625 8.625 C9.716875 8.41875 8.87125 8.2125 8 8 C7.67 7.34 7.34 6.68 7 6 C4.64400765 5.53248212 4.64400765 5.53248212 1.9375 5.375 C1.01839844 5.30023438 0.09929687 5.22546875 -0.84765625 5.1484375 C-1.55792969 5.09945313 -2.26820313 5.05046875 -3 5 C-3 4.67 -3 4.34 -3 4 C-1.35 4 0.3 4 2 4 C2 3.34 2 2.68 2 2 C1.34 2 0.68 2 0 2 C0 1.34 0 0.68 0 0 Z " fill="#2AE8D4" transform="translate(413,303)"/>
<path d="M0 0 C0.66 0 1.32 0 2 0 C2 4.62 2 9.24 2 14 C0.02 14 -1.96 14 -4 14 C-4.33 10.7 -4.66 7.4 -5 4 C-15.56 3.67 -26.12 3.34 -37 3 C-36.67 2.34 -36.34 1.68 -36 1 C-34.94498291 1.00523682 -33.88996582 1.01047363 -32.80297852 1.01586914 C-28.9024337 1.03391901 -25.0018926 1.04543195 -21.10131836 1.05493164 C-19.41055684 1.0599719 -17.71979971 1.06680405 -16.02905273 1.07543945 C-13.60399293 1.08751857 -11.17899056 1.09323123 -8.75390625 1.09765625 C-7.99348526 1.10281754 -7.23306427 1.10797882 -6.44960022 1.11329651 C-4.6326743 1.11349238 -2.81586873 1.06197277 -1 1 C-0.67 0.67 -0.34 0.34 0 0 Z " fill="#1D8EC5" transform="translate(141,180)"/>
<path d="M0 0 C2.3992233 4.64849515 2.19957409 8.91086074 2 14 C1.195625 14.2475 0.39125 14.495 -0.4375 14.75 C-3.171081 15.72238859 -3.171081 15.72238859 -3.8125 18.125 C-3.874375 18.74375 -3.93625 19.3625 -4 20 C-3.34 20 -2.68 20 -2 20 C-2 20.66 -2 21.32 -2 22 C-4.46800047 20.84826645 -6.04783565 19.95216435 -8 18 C-8 17.01 -8 16.02 -8 15 C-6.02 14.67 -4.04 14.34 -2 14 C-2 13.34 -2 12.68 -2 12 C-4.64 11.67 -7.28 11.34 -10 11 C-9.67 10.34 -9.34 9.68 -9 9 C-7.68 9 -6.36 9 -5 9 C-5.2475 8.2575 -5.495 7.515 -5.75 6.75 C-6 4 -6 4 -4.1875 1.6875 C-2 0 -2 0 0 0 Z " fill="#101604" transform="translate(278,375)"/>
<path d="M0 0 C1.98 0 3.96 0 6 0 C6 15.51 6 31.02 6 47 C5.34 47 4.68 47 4 47 C3.79361047 16.66709003 3.79361047 16.66709003 5 4 C3.68 4 2.36 4 1 4 C1.33 6.97 1.66 9.94 2 13 C1.34 13 0.68 13 0 13 C0 8.71 0 4.42 0 0 Z " fill="#1E8FC7" transform="translate(137,377)"/>
<path d="M0 0 C2.375 -0.1875 2.375 -0.1875 5 0 C5.66 0.99 6.32 1.98 7 3 C7.99 2.67 8.98 2.34 10 2 C10 2.99 10 3.98 10 5 C10.66 5 11.32 5 12 5 C15.1113607 13.20436184 16.84181583 22.47455251 14 31 C11.9375 31.6875 11.9375 31.6875 10 32 C10.15984375 31.29617188 10.3196875 30.59234375 10.484375 29.8671875 C11.86557969 22.18685233 11.91416185 14.84978323 8 8 C5.66983984 4.6926759 3.34619823 2.27063451 0 0 Z " fill="#1C98C5" transform="translate(424,302)"/>
<path d="M0 0 C3.96 0 7.92 0 12 0 C12 13.53 12 27.06 12 41 C11.67 41 11.34 41 11 41 C10.67 27.8 10.34 14.6 10 1 C7.03 1 4.06 1 1 1 C1 1.99 1 2.98 1 4 C2.32 4 3.64 4 5 4 C5 5.32 5 6.64 5 8 C4.01 8.33 3.02 8.66 2 9 C1.67 14.61 1.34 20.22 1 26 C0.67 26 0.34 26 0 26 C0 17.42 0 8.84 0 0 Z " fill="#32EBDC" transform="translate(131,198)"/>
<path d="M0 0 C13.2 0 26.4 0 40 0 C39.67 1.32 39.34 2.64 39 4 C29.43 4 19.86 4 10 4 C10 3.34 10 2.68 10 2 C6.7 1.67 3.4 1.34 0 1 C0 0.67 0 0.34 0 0 Z " fill="#229EDD" transform="translate(391,486)"/>
<path d="M0 0 C1.98 0.495 1.98 0.495 4 1 C3.67 1.33 3.34 1.66 3 2 C2.83989519 4.73701178 2.74053172 7.4516759 2.68359375 10.19140625 C2.66281265 11.01124496 2.64203156 11.83108368 2.62062073 12.67576599 C2.55503506 15.30458901 2.49619874 17.93351504 2.4375 20.5625 C2.39432333 22.34050561 2.35070933 24.11850065 2.30664062 25.89648438 C2.19934457 30.26421634 2.09810296 34.63205227 2 39 C1.01 39 0.02 39 -1 39 C-1.11578302 25.9551135 -0.89000167 13.0162744 0 0 Z " fill="#12DBBE" transform="translate(104,334)"/>
<path d="M0 0 C3.3 0 6.6 0 10 0 C10 23.76 10 47.52 10 72 C9.67 72 9.34 72 9 72 C8.77213542 69.94921875 8.54427083 67.8984375 8.31640625 65.84765625 C8.18113386 63.98859771 8.18113386 63.98859771 7 63 C6.875 60.5 6.875 60.5 7 58 C7.495 57.505 7.495 57.505 8 57 C8.15740605 55.29436222 8.25093392 53.58272756 8.31640625 51.87109375 C8.35830078 50.83662109 8.40019531 49.80214844 8.44335938 48.73632812 C8.50233398 47.1034082 8.50233398 47.1034082 8.5625 45.4375 C8.60568359 44.34501953 8.64886719 43.25253906 8.69335938 42.12695312 C8.79982068 39.41810436 8.90183516 36.70916008 9 34 C8.34 34 7.68 34 7 34 C7.15847412 33.47889648 7.31694824 32.95779297 7.48022461 32.42089844 C8.13978902 29.34892068 8.21997273 26.40660253 8.31640625 23.265625 C8.35830078 21.97011719 8.40019531 20.67460937 8.44335938 19.33984375 C8.48316671 17.97656524 8.52287906 16.61328394 8.5625 15.25 C8.60572274 13.87108125 8.64933821 12.49217474 8.69335938 11.11328125 C8.79943958 7.7422881 8.9014985 4.37122174 9 1 C6.03 1 3.06 1 0 1 C0 0.67 0 0.34 0 0 Z " fill="#7DC7EF" transform="translate(279,334)"/>
<path d="M0 0 C10.56 0 21.12 0 32 0 C32 0.33 32 0.66 32 1 C22.1 1.33 12.2 1.66 2 2 C2 3.32 2 4.64 2 6 C9.59 6 17.18 6 25 6 C25 7.98 25 9.96 25 12 C24.34 12 23.68 12 23 12 C23 10.68 23 9.36 23 8 C22.3387915 8.00523682 21.67758301 8.01047363 20.99633789 8.01586914 C18.01840149 8.03657656 15.04048018 8.04964012 12.0625 8.0625 C10.50112305 8.07506836 10.50112305 8.07506836 8.90820312 8.08789062 C7.91884766 8.09111328 6.92949219 8.09433594 5.91015625 8.09765625 C4.99371338 8.10289307 4.07727051 8.10812988 3.13305664 8.11352539 C1 8 1 8 0 7 C0 4.69 0 2.38 0 0 Z " fill="#00394E" transform="translate(104,183)"/>
<path d="M0 0 C0.33 0 0.66 0 1 0 C2.18546875 8.35428766 2.11340622 16.64760595 2.0625 25.0625 C2.05747414 26.51497241 2.05291316 27.96744651 2.04882812 29.41992188 C2.03876889 32.94669117 2.01917885 36.47322191 2 40 C8.93 40.33 15.86 40.66 23 41 C23 41.33 23 41.66 23 42 C19.35418313 42.02887512 15.70839537 42.04675585 12.0625 42.0625 C10.50112305 42.07506836 10.50112305 42.07506836 8.90820312 42.08789062 C7.91884766 42.09111328 6.92949219 42.09433594 5.91015625 42.09765625 C4.53549194 42.10551147 4.53549194 42.10551147 3.13305664 42.11352539 C1 42 1 42 0 41 C-0.08871273 37.97022196 -0.1151935 34.96332978 -0.09765625 31.93359375 C-0.0962413 31.02497086 -0.09482635 30.11634796 -0.09336853 29.18019104 C-0.08775193 26.26592779 -0.07519665 23.35174019 -0.0625 20.4375 C-0.05748714 18.46679798 -0.05292386 16.49609476 -0.04882812 14.52539062 C-0.03777711 9.68356441 -0.02050138 4.84179505 0 0 Z " fill="#003441" transform="translate(100,335)"/>
<path d="M0 0 C0.33 0 0.66 0 1 0 C1 22.44 1 44.88 1 68 C5.29 68 9.58 68 14 68 C14 68.66 14 69.32 14 70 C9.38 70 4.76 70 0 70 C-0.95256737 66.18973051 -1.08864895 63.38356094 -1.02172852 59.48730469 C-1.01212097 58.84298492 -1.00251343 58.19866516 -0.99261475 57.53482056 C-0.95974041 55.41372346 -0.91936464 53.29283985 -0.87890625 51.171875 C-0.8545938 49.69786319 -0.83075081 48.22384358 -0.80735779 46.74981689 C-0.7446287 42.87653685 -0.67553064 39.0033957 -0.60510254 35.13024902 C-0.53431794 31.17543851 -0.46956164 27.22052978 -0.40429688 23.265625 C-0.27542866 15.51030802 -0.13983139 7.75512788 0 0 Z " fill="#273945" transform="translate(274,264)"/>
<path d="M0 0 C0.66 0 1.32 0 2 0 C3.74893812 3.79052724 4.29655519 6.83309085 4.3125 11 C4.32925781 12.010625 4.34601563 13.02125 4.36328125 14.0625 C3.94873176 17.41455609 3.02658335 19.31761231 1 22 C0.34 22 -0.32 22 -1 22 C-1.2475 22.598125 -1.495 23.19625 -1.75 23.8125 C-3.20490739 26.35858793 -4.47949271 27.51734865 -7 29 C-8.32 29 -9.64 29 -11 29 C-11 27.35 -11 25.7 -11 24 C-10.01 23.67 -9.02 23.34 -8 23 C-8 23.66 -8 24.32 -8 25 C-7.54625 24.505 -7.0925 24.01 -6.625 23.5 C-5 22 -5 22 -3 22 C-2.01 19.03 -1.02 16.06 0 13 C0.99 13 1.98 13 3 13 C2.67 10.03 2.34 7.06 2 4 C1.01 4 0.02 4 -1 4 C-0.67 2.68 -0.34 1.36 0 0 Z " fill="#239C36" transform="translate(274,355)"/>
<path d="M0 0 C1.32 0 2.64 0 4 0 C4 0.99 4 1.98 4 3 C2.68 3 1.36 3 0 3 C0.33 4.32 0.66 5.64 1 7 C2.65 6.67 4.3 6.34 6 6 C6 6.66 6 7.32 6 8 C7.98 8 9.96 8 12 8 C12.33 8.66 12.66 9.32 13 10 C11.41753293 10.08153933 9.83383727 10.13943557 8.25 10.1875 C6.92742187 10.23970703 6.92742187 10.23970703 5.578125 10.29296875 C2.52389051 9.94589665 1.19435701 9.11745198 -1 7 C-1 6.34 -1 5.68 -1 5 C-2.65 4.67 -4.3 4.34 -6 4 C-5.79761719 4.80824219 -5.59523437 5.61648438 -5.38671875 6.44921875 C-3.52450864 15.07364433 -3.52450864 15.07364433 -4.98046875 17.91015625 C-6.375 19.25 -6.375 19.25 -9 21 C-9.125 18.625 -9.125 18.625 -9 16 C-8.34 15.34 -7.68 14.68 -7 14 C-6.94006187 11.65279617 -6.94006187 11.65279617 -7.3125 9.0625 C-7.41175781 8.18722656 -7.51101562 7.31195313 -7.61328125 6.41015625 C-7.95484739 3.8655635 -7.95484739 3.8655635 -9 1 C-8.34 1 -7.68 1 -7 1 C-7 1.66 -7 2.32 -7 3 C-3.06924356 2.42547254 -3.06924356 2.42547254 0 0 Z " fill="#74C0E4" transform="translate(249,353)"/>
<path d="M0 0 C3.17322957 0.35258106 4.61384088 0.56641782 6.78125 3 C9.64910657 5.58511015 11.44113144 5.58439702 15.25 5.75 C16.32765625 5.80671875 17.4053125 5.8634375 18.515625 5.921875 C19.33546875 5.94765625 20.1553125 5.9734375 21 6 C21 6.33 21 6.66 21 7 C17.04 7 13.08 7 9 7 C9 7.66 9 8.32 9 9 C12.92438786 10.66489182 16.89100419 11.87204037 21 13 C20.34 14.32 19.68 15.64 19 17 C17.68 16.34 16.36 15.68 15 15 C14.67 15.66 14.34 16.32 14 17 C13.938125 16.21625 13.87625 15.4325 13.8125 14.625 C13.544375 13.75875 13.27625 12.8925 13 12 C11.34561387 11.30341637 9.67745682 10.63903117 8 10 C6.375 7.5 6.375 7.5 5 5 C4.01 4.34 3.02 3.68 2 3 C2.66 5.64 3.32 8.28 4 11 C3.01 11.495 3.01 11.495 2 12 C0.00214565 7.8794254 -0.17835515 4.54805635 0 0 Z " fill="#22584D" transform="translate(243,357)"/>
<path d="M0 0 C1.08515515 1.62773273 2.16646587 3.25818114 3.2265625 4.90234375 C6.70234089 9.96066928 9.96444637 13.361482 16 15 C22.347864 15.71344869 28.0007699 15.13305959 34 13 C31.05673761 17.41489359 26.90690992 18.36436336 22 20 C21.67 19.34 21.34 18.68 21 18 C19.9275 18.04125 18.855 18.0825 17.75 18.125 C14.34252515 18.0114175 12.79260369 17.78726636 10 16 C10 15.34 10 14.68 10 14 C8.88625 13.566875 8.88625 13.566875 7.75 13.125 C6.8425 12.75375 5.935 12.3825 5 12 C4.29875 11.7525 3.5975 11.505 2.875 11.25 C1 10 1 10 0.390625 7.6171875 C0.34421875 6.71226562 0.2978125 5.80734375 0.25 4.875 C0.19328125 3.96492188 0.1365625 3.05484375 0.078125 2.1171875 C0.05234375 1.41851562 0.0265625 0.71984375 0 0 Z " fill="#2494C7" transform="translate(392,331)"/>
<path d="M0 0 C3.86666726 3.49247366 4.78704417 5.58766428 5.23828125 10.69921875 C5.43730247 18.7124416 4.69721417 24.9708856 -0.87109375 31.0390625 C-7.13206435 36.79110733 -11.61113731 38.28436823 -20 38 C-20 37.67 -20 37.34 -20 37 C-18.700625 36.79375 -17.40125 36.5875 -16.0625 36.375 C-9.86175931 34.96662987 -4.73847861 32.16544571 -0.546875 27.3203125 C3.15136071 21.25208066 2.72621114 13.85678424 2 7 C1.03476888 4.81831816 1.03476888 4.81831816 0 3 C0 2.01 0 1.02 0 0 Z " fill="#06374D" transform="translate(431,309)"/>
<path d="M0 0 C1.35432675 1.31200404 2.68733482 2.64631404 4 4 C4 4.33 4 4.66 4 5 C-9.2 5 -22.4 5 -36 5 C-36 4.34 -36 3.68 -36 3 C-24.45 3 -12.9 3 -1 3 C-0.67 2.01 -0.34 1.02 0 0 Z " fill="#1A7DA5" transform="translate(427,351)"/>
<path d="M0 0 C0.99 0 1.98 0 3 0 C5.92800939 6.90173642 6.86482018 13.51986698 6 21 C5.34 21.99 4.68 22.98 4 24 C3.34 23.67 2.68 23.34 2 23 C2.33 22.34 2.66 21.68 3 21 C3.09720427 19.06449136 3.12977914 17.12544208 3.125 15.1875 C3.12757813 14.14980469 3.13015625 13.11210937 3.1328125 12.04296875 C3.01076175 9.24657058 2.63363355 6.72060121 2 4 C1.34 4 0.68 4 0 4 C-0.20496094 4.63808594 -0.40992188 5.27617187 -0.62109375 5.93359375 C-0.89050781 6.75988281 -1.15992188 7.58617187 -1.4375 8.4375 C-1.70433594 9.26121094 -1.97117187 10.08492188 -2.24609375 10.93359375 C-3 13 -3 13 -4 14 C-5.66617115 14.04063832 -7.33388095 14.042721 -9 14 C-8.2575 13.360625 -7.515 12.72125 -6.75 12.0625 C-3.29672024 8.65841226 -1.73676741 4.45349856 0 0 Z " fill="#0B3B27" transform="translate(274,351)"/>
<path d="M0 0 C0.75 1.75 0.75 1.75 1 4 C-0.3125 6.1875 -0.3125 6.1875 -3 8 C-6.32570706 8.62975048 -9.62069884 8.87101904 -13 9 C-13.33 8.01 -13.66 7.02 -14 6 C-12.73168307 5.18357746 -11.46024069 4.37200895 -10.1875 3.5625 C-9.47980469 3.11003906 -8.77210938 2.65757812 -8.04296875 2.19140625 C-5.24122416 0.55750166 -3.25347683 0 0 0 Z " fill="#279641" transform="translate(256,385)"/>
<path d="M0 0 C0.66 0.165 1.32 0.33 2 0.5 C2 0.83 2 1.16 2 1.5 C0.02 1.5 -1.96 1.5 -4 1.5 C-4 5.79 -4 10.08 -4 14.5 C-14.56 14.5 -25.12 14.5 -36 14.5 C-36 14.17 -36 13.84 -36 13.5 C-25.77 13.5 -15.54 13.5 -5 13.5 C-5.66 13.17 -6.32 12.84 -7 12.5 C-7 8.87 -7 5.24 -7 1.5 C-9.31 1.5 -11.62 1.5 -14 1.5 C-9.54547875 -1.46968084 -5.09423683 -0.84903947 0 0 Z " fill="#0A475B" transform="translate(141,375.5)"/>
<path d="M0 0 C3.96 0 7.92 0 12 0 C12 0.33 12 0.66 12 1 C8.7 1.66 5.4 2.32 2 3 C2.09539062 4.22074219 2.19078125 5.44148437 2.2890625 6.69921875 C2.97548597 16.48947041 3.09624195 25.35035731 1 35 C0.67 35 0.34 35 0 35 C0 23.45 0 11.9 0 0 Z M3 13 C3.33 13 3.66 13 4 13 C4 15.64 4 18.28 4 21 C3.67 21 3.34 21 3 21 C3 18.36 3 15.72 3 13 Z " fill="#1FD6C0" transform="translate(131,243)"/>
<path d="M0 0 C0.66 0 1.32 0 2 0 C2 12.21 2 24.42 2 37 C1.34 37 0.68 37 0 37 C-0.16745546 32.05227976 -0.32803118 27.1044028 -0.48217773 22.15625 C-0.53561424 20.4722693 -0.59094488 18.78834761 -0.64819336 17.10449219 C-0.73005852 14.68697842 -0.80515472 12.26933568 -0.87890625 9.8515625 C-0.90594131 9.0963028 -0.93297638 8.34104309 -0.96083069 7.56289673 C-1.11387171 2.22774341 -1.11387171 2.22774341 0 0 Z " fill="#1BF0E0" transform="translate(108,292)"/>
<path d="M0 0 C2.06874624 3.99957607 3.37656391 6.56440517 2 11 C2.66 11 3.32 11 4 11 C4.0270491 14.06255961 4.04686298 17.1248786 4.0625 20.1875 C4.07087891 21.05181641 4.07925781 21.91613281 4.08789062 22.80664062 C4.10396812 27.00286769 4.07559038 30.90936886 3 35 C1 32 1 32 1.36328125 29.671875 C1.57339844 28.79015625 1.78351563 27.9084375 2 27 C2.43999713 19.67353621 1.88893931 13.08352241 0 6 C-0.99 6 -1.98 6 -3 6 C-3.66 7.32 -4.32 8.64 -5 10 C-5 7.69 -5 5.38 -5 3 C-4.360625 2.87625 -3.72125 2.7525 -3.0625 2.625 C-2.0415625 2.315625 -2.0415625 2.315625 -1 2 C-0.67 1.34 -0.34 0.68 0 0 Z " fill="#73BBDF" transform="translate(277,345)"/>
<path d="M0 0 C9.24 0 18.48 0 28 0 C28 3.63 28 7.26 28 11 C30.64 11 33.28 11 36 11 C36 11.66 36 12.32 36 13 C33.87527424 13.05386629 31.75016348 13.09273071 29.625 13.125 C27.84996094 13.15980469 27.84996094 13.15980469 26.0390625 13.1953125 C23 13 23 13 21 11 C22.98 11 24.96 11 27 11 C27 7.7 27 4.4 27 1 C18.09 1 9.18 1 0 1 C0 0.67 0 0.34 0 0 Z " fill="#00202B" transform="translate(108,184)"/>
<path d="M0 0 C0.33 0 0.66 0 1 0 C1.19891332 3.6661394 1.38204172 7.33290953 1.5625 11 C1.61857422 12.02996094 1.67464844 13.05992187 1.73242188 14.12109375 C2.00886345 19.90793748 1.92839894 25.27831174 1 31 C0.34 31 -0.32 31 -1 31 C-1.02465622 26.74585377 -1.04283899 22.49174502 -1.05493164 18.23754883 C-1.05997101 16.78929927 -1.06680253 15.34105483 -1.07543945 13.89282227 C-1.08752247 11.81525412 -1.09323211 9.73775303 -1.09765625 7.66015625 C-1.10289307 6.40855713 -1.10812988 5.15695801 -1.11352539 3.86743164 C-1 1 -1 1 0 0 Z " fill="#22EFD1" transform="translate(105,298)"/>
<path d="M0 0 C0.99 0 1.98 0 3 0 C1.125 4.75 1.125 4.75 0 7 C-0.27571479 10.08100341 -0.44663533 13.16171476 -0.62109375 16.25 C-1 19 -1 19 -3 21 C-4.84117302 19.15882698 -4.25894441 16.34983191 -4.3125 13.875 C-4.29298919 7.96322362 -3.50577813 4.71088937 0 0 Z " fill="#902726" transform="translate(244,371)"/>
<path d="M0 0 C2.40072955 2.88087546 4.47291037 5.56404834 6 9 C3.0173094 10.52448631 0.181798 11.93940067 -3 13 C-3.31563182 7.73946963 -2.66590937 4.55426184 0 0 Z " fill="#6F5641" transform="translate(247,375)"/>
<path d="M0 0 C1.32 0 2.64 0 4 0 C3.89300781 0.60328125 3.78601563 1.2065625 3.67578125 1.828125 C2.74885781 6.83028406 2.74885781 6.83028406 4.5 11.375 C4.995 11.91125 5.49 12.4475 6 13 C5.67 13.99 5.34 14.98 5 16 C0.71 16 -3.58 16 -8 16 C-8 15.67 -8 15.34 -8 15 C-2.555 14.505 -2.555 14.505 3 14 C1.02 10.535 1.02 10.535 -1 7 C-0.34 7 0.32 7 1 7 C1 6.34 1 5.68 1 5 C0.34 5 -0.32 5 -1 5 C-0.67 3.35 -0.34 1.7 0 0 Z " fill="#352828" transform="translate(275,390)"/>
<path d="M0 0 C10.57292208 -0.86036436 10.57292208 -0.86036436 15.0625 2.25 C19.28879127 5.88846178 19.28879127 5.88846178 20 9 C19.84248016 11.72509332 19.45035097 14.29789418 19 17 C18.67 17 18.34 17 18 17 C17.91363281 16.32453125 17.82726562 15.6490625 17.73828125 14.953125 C17.0895135 10.83434257 16.56595687 7.76678028 14.0625 4.375 C9.43937327 2.29931045 4.98896537 2.68545928 0 3 C0 2.01 0 1.02 0 0 Z " fill="#16383B" transform="translate(407,309)"/>
<path d="M0 0 C0.99 0.33 1.98 0.66 3 1 C2.67 2.32 2.34 3.64 2 5 C0.35 5.33 -1.3 5.66 -3 6 C-1.576875 5.9690625 -1.576875 5.9690625 -0.125 5.9375 C3 6 3 6 5 7 C5 7.66 5 8.32 5 9 C-0.65611463 9.56561146 -4.22642128 7.71391278 -9 5 C-9 4.67 -9 4.34 -9 4 C-7.6078125 3.566875 -7.6078125 3.566875 -6.1875 3.125 C-2.90208333 2.1125 -2.90208333 2.1125 0 0 Z " fill="#2A3C20" transform="translate(271,380)"/>
<path d="M0 0 C0.66 0 1.32 0 2 0 C2.33 1.65 2.66 3.3 3 5 C3.99 4.67 4.98 4.34 6 4 C7 5 7 5 7.0625 8.0625 C7.041875 9.031875 7.02125 10.00125 7 11 C5.35 11 3.7 11 2 11 C-1.07692308 4.6 -1.07692308 4.6 -0.6875 1.5625 C-0.460625 1.046875 -0.23375 0.53125 0 0 Z " fill="#0FAE2B" transform="translate(263,389)"/>
<path d="M0 0 C3.22531794 0.37215207 4.20078493 1.19122374 6.625 3.5 C10.07788822 6.59783544 13.42170142 6.63380019 17.92578125 6.76171875 C18.61027344 6.84035156 19.29476563 6.91898437 20 7 C20.33 7.66 20.66 8.32 21 9 C13.14024469 9.3776039 7.80580488 9.30504108 1.625 3.9375 C0 2 0 2 0 0 Z " fill="#802B29" transform="translate(243,395)"/>
<path d="M0 0 C0.66 0 1.32 0 2 0 C2 11.88 2 23.76 2 36 C-1.96 36 -5.92 36 -10 36 C-10 35.67 -10 35.34 -10 35 C-6.37 35 -2.74 35 1 35 C1 24.77 1 14.54 1 4 C0.34 4 -0.32 4 -1 4 C-0.67 2.68 -0.34 1.36 0 0 Z " fill="#2AD4C6" transform="translate(141,250)"/>
<path d="M0 0 C0.99 1.485 0.99 1.485 2 3 C4.74135706 7.01879215 7.48474628 10.61029106 11 14 C12.35439668 16.70879335 12.06501451 19.00933268 12 22 C11.01 22.33 10.02 22.66 9 23 C8.67 19.37 8.34 15.74 8 12 C6.68 11.67 5.36 11.34 4 11 C2.734375 9.51171875 2.734375 9.51171875 1.75 7.6875 C1.24726563 6.79611328 1.24726563 6.79611328 0.734375 5.88671875 C0 4 0 4 0 0 Z " fill="#093D08" transform="translate(248,373)"/>
<path d="M0 0 C3 0 3 0 4.5625 1.4375 C5.036875 1.953125 5.51125 2.46875 6 3 C6.66 3.33 7.32 3.66 8 4 C8 5.32 8 6.64 8 8 C7.34 8 6.68 8 6 8 C5.67 9.65 5.34 11.3 5 13 C2.31342365 10.31342365 1.34023957 7.53335886 0 4 C0 2.68 0 1.36 0 0 Z " fill="#12AD2D" transform="translate(248,365)"/>
<path d="M0 0 C0.33 0 0.66 0 1 0 C2.24327778 5.84340558 1.57300962 10.26696495 0 16 C0.66 15.01 1.32 14.02 2 13 C2.66 12.67 3.32 12.34 4 12 C4.33 12.99 4.66 13.98 5 15 C3.59554165 17.2636564 1.8032087 19.0208685 0 21 C-1.4606285 18.35261084 -2 17.10551666 -2 14 C-2.66 13.67 -3.32 13.34 -4 13 C-3.525625 12.34 -3.05125 11.68 -2.5625 11 C-0.58682146 7.2066972 -0.35972537 4.24475932 0 0 Z " fill="#30D7C4" transform="translate(427,320)"/>
<path d="M0 0 C4.32255278 -0.37050452 6.43101874 0.62067916 10 3 C11.32608822 3.68096422 12.65686601 4.35330586 14 5 C12.68 5 11.36 5 10 5 C9.67 5.66 9.34 6.32 9 7 C7.02 5.35 5.04 3.7 3 2 C2.67 4.64 2.34 7.28 2 10 C1.34 10 0.68 10 0 10 C-0.66 7.36 -1.32 4.72 -2 2 C-1.34 2 -0.68 2 0 2 C0 1.34 0 0.68 0 0 Z " fill="#022B05" transform="translate(260,385)"/>
<path d="M0 0 C0.66 0 1.32 0 2 0 C2 5.94 2 11.88 2 18 C3.32 18 4.64 18 6 18 C6 18.66 6 19.32 6 20 C4.02 20.33 2.04 20.66 0 21 C0 14.07 0 7.14 0 0 Z " fill="#1DD3C9" transform="translate(106,352)"/>
<path d="M0 0 C0.66 0.33 1.32 0.66 2 1 C2.96070434 3.88211302 3.10581883 5.69850044 3.0625 8.6875 C3.05347656 9.49574219 3.04445313 10.30398438 3.03515625 11.13671875 C3.02355469 11.75160156 3.01195312 12.36648438 3 13 C0 12 0 12 -2 9 C-2.07905064 6.66800612 -2.08798769 4.33167378 -2 2 C-1.34 2 -0.68 2 0 2 C0 1.34 0 0.68 0 0 Z " fill="#1E1E27" transform="translate(277,376)"/>
<path d="M0 0 C6.6 0 13.2 0 20 0 C20 1.32 20 2.64 20 4 C13.07 4 6.14 4 -1 4 C-1 3.67 -1 3.34 -1 3 C4.94 3 10.88 3 17 3 C17 2.34 17 1.68 17 1 C11.39 1 5.78 1 0 1 C0 0.67 0 0.34 0 0 Z " fill="#2D82A9" transform="translate(107,191)"/>
<path d="M0 0 C1.32 0 2.64 0 4 0 C4 2.31 4 4.62 4 7 C3.34 7 2.68 7 2 7 C2 7.66 2 8.32 2 9 C2.66 9 3.32 9 4 9 C4 9.66 4 10.32 4 11 C4.66 11.33 5.32 11.66 6 12 C4.02 12.33 2.04 12.66 0 13 C0 8.71 0 4.42 0 0 Z " fill="#2187BC" transform="translate(100,183)"/>
<path d="M0 0 C3.16115776 1.36983503 3.9927092 1.9890638 6 5 C5.01 5 4.02 5 3 5 C3.37253906 5.91523438 3.74507812 6.83046875 4.12890625 7.7734375 C4.60199219 8.96195312 5.07507813 10.15046875 5.5625 11.375 C6.27599609 13.15003906 6.27599609 13.15003906 7.00390625 14.9609375 C8 18 8 18 7 20 C4.36562124 16.85988091 3.07995273 13.88491259 1.8125 10 C1.46832031 8.96875 1.12414062 7.9375 0.76953125 6.875 C0 4 0 4 0 0 Z " fill="#259C39" transform="translate(245,360)"/>
<path d="M0 0 C0.33 1.65 0.66 3.3 1 5 C-5.27 5 -11.54 5 -18 5 C-18 4.34 -18 3.68 -18 3 C-17.41992188 3.03480469 -16.83984375 3.06960938 -16.2421875 3.10546875 C-10.08597594 3.31880281 -5.66669205 0 0 0 Z " fill="#35DFD1" transform="translate(425,334)"/>
<path d="M0 0 C0.99 0.33 1.98 0.66 3 1 C2.34 1 1.68 1 1 1 C1 1.99 1 2.98 1 4 C2.32 4 3.64 4 5 4 C5 5.32 5 6.64 5 8 C4.01 8.33 3.02 8.66 2 9 C1.67 14.61 1.34 20.22 1 26 C0.67 26 0.34 26 0 26 C0 17.42 0 8.84 0 0 Z " fill="#38E8D1" transform="translate(131,198)"/>
<path d="M0 0 C0.598125 0.763125 1.19625 1.52625 1.8125 2.3125 C6.31025226 7.83830992 9.63218703 9.81341046 16.8125 10.625 C18.20768801 10.757008 19.60335892 10.88437394 21 11 C21 11.33 21 11.66 21 12 C15.1105503 13.25423466 11.0182949 13.30300503 5.73046875 10.2421875 C3.23332824 8.44965774 1.57954545 6.63257576 0 4 C0 2.68 0 1.36 0 0 Z " fill="#014554" transform="translate(396,334)"/>
<path d="M0 0 C0.33 0.99 0.66 1.98 1 3 C-7.21965898 13.18383723 -7.21965898 13.18383723 -14 15 C-16.72239358 15.20165878 -19.2626993 15.14406846 -22 15 C-22 14.67 -22 14.34 -22 14 C-20.700625 13.79375 -19.40125 13.5875 -18.0625 13.375 C-11.33306961 11.86777742 -5.33830056 8.42125998 -1.4375 2.625 C-0.963125 1.75875 -0.48875 0.8925 0 0 Z " fill="#012A3F" transform="translate(433,332)"/>
<path d="M0 0 C6.625 -0.125 6.625 -0.125 10 1 C10 1.99 10 2.98 10 4 C5.38 4 0.76 4 -4 4 C-3.01 3.67 -2.02 3.34 -1 3 C-0.67 2.01 -0.34 1.02 0 0 Z " fill="#B0B5AF" transform="translate(279,328)"/>
<path d="M0 0 C1.051875 0.928125 1.051875 0.928125 2.125 1.875 C5.05777181 4.0427009 7.51182406 5.02655555 11 6 C7.3791799 7.01382963 3.72188582 7.49897691 0 8 C-0.12375 7.360625 -0.2475 6.72125 -0.375 6.0625 C-0.684375 5.0415625 -0.684375 5.0415625 -1 4 C-1.66 3.67 -2.32 3.34 -3 3 C-2.01 2.01 -1.02 1.02 0 0 Z " fill="#68BCD9" transform="translate(243,399)"/>
<path d="M0 0 C0.33 0 0.66 0 1 0 C1 1.98 1 3.96 1 6 C0.01 6 -0.98 6 -2 6 C-2 6.99 -2 7.98 -2 9 C-2.66 9 -3.32 9 -4 9 C-4 9.66 -4 10.32 -4 11 C-3.34 11.33 -2.68 11.66 -2 12 C-3.28965176 13.37562854 -4.62689293 14.70766393 -6 16 C-6.66 16 -7.32 16 -8 16 C-7.43102154 11.67734423 -5.87210245 8.81856666 -3.5 5.1875 C-2.8709375 4.21167969 -2.241875 3.23585938 -1.59375 2.23046875 C-0.80484375 1.12638672 -0.80484375 1.12638672 0 0 Z " fill="#22A03E" transform="translate(272,360)"/>
<path d="M0 0 C0.99 0 1.98 0 3 0 C3.1875 2.875 3.1875 2.875 3 6 C2.01 6.66 1.02 7.32 0 8 C-0.36362818 10.20725073 -0.36362818 10.20725073 -0.1875 12.625 C-0.16042969 13.44226563 -0.13335937 14.25953125 -0.10546875 15.1015625 C-0.07066406 15.72804688 -0.03585937 16.35453125 0 17 C-2.15164703 13.77252945 -2.27245079 12.79494361 -2.25 9.0625 C-2.25515625 8.20785156 -2.2603125 7.35320312 -2.265625 6.47265625 C-1.98713633 3.88025433 -1.30669172 2.23485766 0 0 Z " fill="#2EE7C8" transform="translate(396,312)"/>
<path d="M0 0 C0 1.32 0 2.64 0 4 C1.65 3.67 3.3 3.34 5 3 C5.33 3.99 5.66 4.98 6 6 C-0.26079448 6.43177893 -3.09075703 5.92739438 -8 2 C-4.77208445 -0.1519437 -3.71599191 -0.20086443 0 0 Z " fill="#6C5643" transform="translate(256,394)"/>
<path d="M0 0 C0.66 0 1.32 0 2 0 C2.02701408 2.10409639 2.04640223 4.20829178 2.0625 6.3125 C2.07410156 7.48425781 2.08570313 8.65601563 2.09765625 9.86328125 C2 13 2 13 1 16 C-1.0625 16.6875 -1.0625 16.6875 -3 17 C-2.690625 16.05125 -2.38125 15.1025 -2.0625 14.125 C-0.72071729 9.49061575 -0.36657993 4.79447959 0 0 Z " fill="#189AD1" transform="translate(437,317)"/>
<path d="M0 0 C0.33 0 0.66 0 1 0 C1.33 3.96 1.66 7.92 2 12 C1.01 12 0.02 12 -1 12 C-3.17175481 8.74236778 -3.46043998 7.77560787 -3 4 C-1.5625 1.6875 -1.5625 1.6875 0 0 Z " fill="#77C7E7" transform="translate(280,390)"/>
<path d="M0 0 C-3.34237013 3.0598026 -5.64964091 3.38397379 -10.125 3.3125 C-11.17945313 3.30863281 -12.23390625 3.30476563 -13.3203125 3.30078125 C-16 3 -16 3 -18 1 C-12.03325384 -0.32594359 -6.07416385 -0.0884587 0 0 Z " fill="#3ED8C6" transform="translate(424,342)"/>
<path d="M0 0 C0.845625 0.45375 1.69125 0.9075 2.5625 1.375 C6.06046645 3.02858414 9.26959695 4.03009521 13 5 C12.34 6.32 11.68 7.64 11 9 C9.68 8.34 8.36 7.68 7 7 C6.67 7.66 6.34 8.32 6 9 C5.9071875 7.824375 5.9071875 7.824375 5.8125 6.625 C5.544375 5.75875 5.27625 4.8925 5 4 C2.52363988 2.62533375 2.52363988 2.62533375 0 2 C0 1.34 0 0.68 0 0 Z " fill="#289A35" transform="translate(251,365)"/>
<path d="M0 0 C0.9075 0.165 1.815 0.33 2.75 0.5 C6.11087503 1.10137146 6.11087503 1.10137146 10 1 C10 1.99 10 2.98 10 4 C5.545 4.495 5.545 4.495 1 5 C0.67 3.35 0.34 1.7 0 0 Z " fill="#B9B9B7" transform="translate(409,331)"/>
<path d="M0 0 C2.31 0 4.62 0 7 0 C7 0.66 7 1.32 7 2 C8.98 2.66 10.96 3.32 13 4 C12.67 4.66 12.34 5.32 12 6 C11.34 5.67 10.68 5.34 10 5 C8.21247508 4.85245826 6.4183716 4.7788478 4.625 4.75 C3.66851562 4.72421875 2.71203125 4.6984375 1.7265625 4.671875 C-1.37892147 5.04560086 -2.70536066 5.93373709 -5 8 C-5 7.01 -5 6.02 -5 5 C-3.35 4.34 -1.7 3.68 0 3 C0 2.01 0 1.02 0 0 Z " fill="#36D3C4" transform="translate(408,305)"/>
<path d="M0 0 C0.4125 0.845625 0.825 1.69125 1.25 2.5625 C3.75459515 5.30218073 3.75459515 5.30218073 6.9375 5.109375 C9.98111043 4.83659859 12.98234463 4.47921886 16 4 C16 4.66 16 5.32 16 6 C12.0186217 7.3271261 8.14954773 7.06915913 4 7 C4.33 8.32 4.66 9.64 5 11 C1.87729874 8.48169253 1.05476902 7.2738451 0.25 3.25 C0.1675 2.1775 0.085 1.105 0 0 Z " fill="#101C0B" transform="translate(239,388)"/>
<path d="M0 0 C3.63 0 7.26 0 11 0 C11 0.99 11 1.98 11 3 C9.35 2.67 7.7 2.34 6 2 C5.67 2.66 5.34 3.32 5 4 C4.01 4 3.02 4 2 4 C1.34 4.66 0.68 5.32 0 6 C0 4.02 0 2.04 0 0 Z " fill="#38E7D5" transform="translate(131,289)"/>
<path d="M0 0 C3.15835107 1.39750048 5.32272825 3.05198234 7.75 5.5 C8.67039062 6.41265625 8.67039062 6.41265625 9.609375 7.34375 C11 9 11 9 11 11 C9.68 11 8.36 11 7 11 C6.34 9.68 5.68 8.36 5 7 C4.34 7 3.68 7 3 7 C2.67 5.35 2.34 3.7 2 2 C1.34 2 0.68 2 0 2 C0 1.34 0 0.68 0 0 Z " fill="#2D9540" transform="translate(263,387)"/>
<path d="M0 0 C0.33 0 0.66 0 1 0 C1 1.98 1 3.96 1 6 C1.66 6 2.32 6 3 6 C3.33 8.31 3.66 10.62 4 13 C2.68 13.33 1.36 13.66 0 14 C0 9.38 0 4.76 0 0 Z " fill="#63CDF6" transform="translate(281,384)"/>
<path d="M0 0 C0.99 0 1.98 0 3 0 C3.05422947 1.4370809 3.09289723 2.87475462 3.125 4.3125 C3.14820313 5.11300781 3.17140625 5.91351563 3.1953125 6.73828125 C3 9 3 9 1 12 C-0.65606367 10.34393633 -0.39915554 8.27134998 -0.625 6 C-0.72039062 5.0925 -0.81578125 4.185 -0.9140625 3.25 C-0.94242187 2.5075 -0.97078125 1.765 -1 1 C-0.67 0.67 -0.34 0.34 0 0 Z " fill="#33E2D7" transform="translate(396,318)"/>
<path d="M0 0 C-0.33 0.66 -0.66 1.32 -1 2 C-5.95 2 -10.9 2 -16 2 C-13.55658047 -0.44341953 -12.49867143 -0.38216772 -9.125 -0.6875 C-8.26132813 -0.77386719 -7.39765625 -0.86023438 -6.5078125 -0.94921875 C-4.11002241 -0.99777213 -2.27878559 -0.70483368 0 0 Z " fill="#14212D" transform="translate(145,640)"/>
<path d="M0 0 C1.98 0 3.96 0 6 0 C6 0.99 6 1.98 6 3 C4.35 3 2.7 3 1 3 C1.33 6.3 1.66 9.6 2 13 C1.34 13 0.68 13 0 13 C0 8.71 0 4.42 0 0 Z " fill="#218CBA" transform="translate(137,377)"/>
<path d="M0 0 C0.66 0 1.32 0 2 0 C4.9397671 6.77424594 6.08842871 10.62287205 5 18 C4.67 18 4.34 18 4 18 C3.87882812 17.22914063 3.75765625 16.45828125 3.6328125 15.6640625 C3.46523438 14.66117187 3.29765625 13.65828125 3.125 12.625 C2.96257812 11.62726563 2.80015625 10.62953125 2.6328125 9.6015625 C2.2041198 6.8574885 2.2041198 6.8574885 0 5 C-0.125 2.375 -0.125 2.375 0 0 Z " fill="#269AD3" transform="translate(386,310)"/>
<path d="M0 0 C0.33 0 0.66 0 1 0 C2.01461206 3.32818605 2.84567759 6.51444206 3 10 C0.625 13.125 0.625 13.125 -2 15 C-2.125 12.625 -2.125 12.625 -2 10 C-1.34 9.34 -0.68 8.68 0 8 C0.24212873 6.01871492 0.24212873 6.01871492 0.125 3.875 C0.063125 1.956875 0.063125 1.956875 0 0 Z " fill="#70BFD5" transform="translate(242,359)"/>
<path d="M0 0 C1.32 0 2.64 0 4 0 C4 1.32 4 2.64 4 4 C0.71480525 5.09506492 -1.73663415 5.09960608 -5.1875 5.0625 C-6.81751953 5.04896484 -6.81751953 5.04896484 -8.48046875 5.03515625 C-9.31191406 5.02355469 -10.14335937 5.01195312 -11 5 C-11 4.67 -11 4.34 -11 4 C-10.37351563 3.96261719 -9.74703125 3.92523438 -9.1015625 3.88671875 C-8.28429687 3.82097656 -7.46703125 3.75523437 -6.625 3.6875 C-5.81289062 3.62949219 -5.00078125 3.57148438 -4.1640625 3.51171875 C-1.62078662 3.17009472 -1.62078662 3.17009472 0 0 Z " fill="#1C8BBE" transform="translate(139,425)"/>
<path d="M0 0 C2.75254898 1.0524452 5.33196973 2.17657965 7.9375 3.5625 C11.02287228 5.01073597 13.63234459 5.59908864 17 6 C17 6.33 17 6.66 17 7 C8.56583956 7.91638765 8.56583956 7.91638765 4.77734375 5.69921875 C3.04779881 4.21117084 1.46386291 2.74984938 0 1 C0 0.67 0 0.34 0 0 Z " fill="#2F0A02" transform="translate(246,395)"/>
<path d="M0 0 C6.27 0 12.54 0 19 0 C19 1.32 19 2.64 19 4 C18.01 4 17.02 4 16 4 C15.67 3.34 15.34 2.68 15 2 C12.45058627 1.68758629 9.99638487 1.48696579 7.4375 1.375 C6.72658203 1.33632813 6.01566406 1.29765625 5.28320312 1.2578125 C3.52257575 1.16328217 1.76132272 1.08054183 0 1 C0 0.67 0 0.34 0 0 Z " fill="#307D9E" transform="translate(106,377)"/>
<path d="M0 0 C0.66 0 1.32 0 2 0 C2 0.66 2 1.32 2 2 C2.99 2.33 3.98 2.66 5 3 C3.68 5.31 2.36 7.62 1 10 C-0.32 9.67 -1.64 9.34 -3 9 C-2.01 9 -1.02 9 0 9 C0.33 7.02 0.66 5.04 1 3 C0.34 2.67 -0.32 2.34 -1 2 C-0.67 1.34 -0.34 0.68 0 0 Z " fill="#75C0DC" transform="translate(267,354)"/>
<path d="M0 0 C2.64 0.33 5.28 0.66 8 1 C8.33 2.32 8.66 3.64 9 5 C5.37471432 5.20140476 3.13498292 4.85776765 0 3 C0 2.01 0 1.02 0 0 Z " fill="#1E9AE9" transform="translate(423,295)"/>
<path d="M0 0 C0.33 0.66 0.66 1.32 1 2 C1.66 2 2.32 2 3 2 C3 3.65 3 5.3 3 7 C1.02 7.99 1.02 7.99 -1 9 C-1.09765625 2.84765625 -1.09765625 2.84765625 -1 1 C-0.67 0.67 -0.34 0.34 0 0 Z " fill="#6DC8F9" transform="translate(283,381)"/>
<path d="M0 0 C1.65 1.65 3.3 3.3 5 5 C3.02 5.99 3.02 5.99 1 7 C0.01 6.34 -0.98 5.68 -2 5 C-2 3.68 -2 2.36 -2 1 C-1.34 0.67 -0.68 0.34 0 0 Z " fill="#7F5B40" transform="translate(248,378)"/>
<path d="M0 0 C3.96 0 7.92 0 12 0 C12.33 0.99 12.66 1.98 13 3 C6.07 2.505 6.07 2.505 -1 2 C-0.67 1.34 -0.34 0.68 0 0 Z " fill="#188EBF" transform="translate(109,378)"/>
<path d="M0 0 C1.45823212 -0.0270043 2.91660675 -0.04639787 4.375 -0.0625 C5.18710937 -0.07410156 5.99921875 -0.08570313 6.8359375 -0.09765625 C9 0 9 0 11 1 C11 1.66 11 2.32 11 3 C9.54257537 3.08096803 8.08387193 3.13917774 6.625 3.1875 C5.81289063 3.22230469 5.00078125 3.25710938 4.1640625 3.29296875 C3.44992187 3.19628906 2.73578125 3.09960938 2 3 C1.34 2.01 0.68 1.02 0 0 Z " fill="#702A27" transform="translate(255,365)"/>
<path d="M0 0 C3.125 0.375 3.125 0.375 6 1 C5.34 2.32 4.68 3.64 4 5 C2.68 5 1.36 5 0 5 C0 4.34 0 3.68 0 3 C-0.66 2.67 -1.32 2.34 -2 2 C-1.34 1.34 -0.68 0.68 0 0 Z " fill="#C7C0C4" transform="translate(418,327)"/>
<path d="M0 0 C0.66 0.66 1.32 1.32 2 2 C1.6875 4.3125 1.6875 4.3125 1 7 C0.814375 7.928125 0.62875 8.85625 0.4375 9.8125 C0.293125 10.534375 0.14875 11.25625 0 12 C-0.66 12 -1.32 12 -2 12 C-2.28571429 3.42857143 -2.28571429 3.42857143 0 0 Z " fill="#08A7DC" transform="translate(388,323)"/>
<path d="M0 0 C3.96 0 7.92 0 12 0 C12 0.33 12 0.66 12 1 C8.7 1.66 5.4 2.32 2 3 C1.67 6.3 1.34 9.6 1 13 C0.67 13 0.34 13 0 13 C0 8.71 0 4.42 0 0 Z " fill="#31D0BF" transform="translate(131,243)"/>
<path d="M0 0 C0.66 0 1.32 0 2 0 C2 0.99 2 1.98 2 3 C2.66 3 3.32 3 4 3 C4 5.31 4 7.62 4 10 C4.66 10.33 5.32 10.66 6 11 C4.35 11 2.7 11 1 11 C0.67 7.37 0.34 3.74 0 0 Z " fill="#148DB5" transform="translate(136,183)"/>
<path d="M0 0 C0.99 0.99 1.98 1.98 3 3 C2.67 3.99 2.34 4.98 2 6 C-2.29 6 -6.58 6 -11 6 C-11 5.67 -11 5.34 -11 5 C-5.555 4.505 -5.555 4.505 0 4 C0 2.68 0 1.36 0 0 Z " fill="#1E464C" transform="translate(278,400)"/>
<path d="M0 0 C2 2 2 2 2 6 C1.34 6 0.68 6 0 6 C0 6.99 0 7.98 0 9 C-1.32 8.67 -2.64 8.34 -4 8 C-4 7.34 -4 6.68 -4 6 C-3.34 6 -2.68 6 -2 6 C-1.34 4.02 -0.68 2.04 0 0 Z " fill="#0AAF2D" transform="translate(258,372)"/>
<path d="M0 0 C1 3 1 3 0.22265625 5.04296875 C-0.16019531 5.75066406 -0.54304688 6.45835937 -0.9375 7.1875 C-1.31777344 7.90292969 -1.69804687 8.61835938 -2.08984375 9.35546875 C-2.39019531 9.89816406 -2.69054687 10.44085938 -3 11 C-4.65 11 -6.3 11 -8 11 C-7.236875 10.29875 -6.47375 9.5975 -5.6875 8.875 C-3.03409522 6.03647396 -1.55999257 3.53050949 0 0 Z " fill="#0F442F" transform="translate(273,354)"/>
<path d="M0 0 C0 0.66 0 1.32 0 2 C1.98 2 3.96 2 6 2 C6.33 2.66 6.66 3.32 7 4 C5.37581255 4.08090971 3.75048255 4.13914995 2.125 4.1875 C1.22007812 4.22230469 0.31515625 4.25710938 -0.6171875 4.29296875 C-1.79667969 4.14794922 -1.79667969 4.14794922 -3 4 C-3.66 3.01 -4.32 2.02 -5 1 C-2 0 -2 0 0 0 Z " fill="#81C4EB" transform="translate(255,359)"/>
<path d="M0 0 C1.98 0 3.96 0 6 0 C6 1.32 6 2.64 6 4 C4.02 4 2.04 4 0 4 C0 2.68 0 1.36 0 0 Z " fill="#169DF1" transform="translate(416,842)"/>
<path d="M0 0 C6.4 -0.49230769 6.4 -0.49230769 9.4375 2 C10.2109375 2.99 10.2109375 2.99 11 4 C10.67 4.66 10.34 5.32 10 6 C9.01 6 8.02 6 7 6 C7 5.01 7 4.02 7 3 C4.69 2.34 2.38 1.68 0 1 C0 0.67 0 0.34 0 0 Z " fill="#74C7FB" transform="translate(265,406)"/>
<path d="M0 0 C0.66 0 1.32 0 2 0 C2.33 1.65 2.66 3.3 3 5 C3.99 4.67 4.98 4.34 6 4 C6.33 4.66 6.66 5.32 7 6 C5.824375 5.9690625 5.824375 5.9690625 4.625 5.9375 C2.01885039 5.81315937 2.01885039 5.81315937 0 7 C-0.38133299 5.0085944 -0.71325582 3.00720923 -1 1 C-0.67 0.67 -0.34 0.34 0 0 Z " fill="#14AC37" transform="translate(263,389)"/>
<path d="M0 0 C0.66 0 1.32 0 2 0 C1.98839844 0.90363281 1.97679687 1.80726563 1.96484375 2.73828125 C1.95582031 3.91777344 1.94679687 5.09726562 1.9375 6.3125 C1.92589844 7.48425781 1.91429687 8.65601563 1.90234375 9.86328125 C1.85100102 13.03059195 1.85100102 13.03059195 3 16 C2.01 16 1.02 16 0 16 C0 10.72 0 5.44 0 0 Z " fill="#7EC6E5" transform="translate(236,378)"/>
<path d="M0 0 C0.99 0 1.98 0 3 0 C2.979375 1.0725 2.95875 2.145 2.9375 3.25 C2.9857984 6.14790424 3.13155885 8.28612141 4 11 C3.01 11.495 3.01 11.495 2 12 C0.00214565 7.8794254 -0.17835515 4.54805635 0 0 Z " fill="#0D4E38" transform="translate(243,357)"/>
<path d="M0 0 C0.33 0 0.66 0 1 0 C1.02717692 2.06242617 1.0464758 4.12495703 1.0625 6.1875 C1.07410156 7.33605469 1.08570313 8.48460937 1.09765625 9.66796875 C1.01192832 12.59300586 0.67849023 15.16316291 0 18 C-2.56824006 14.14763991 -1.82735049 11.63558834 -1.125 7.3125 C-1.02058594 6.61060547 -0.91617187 5.90871094 -0.80859375 5.18554688 C-0.54966196 3.45541171 -0.27622343 1.72745882 0 0 Z " fill="#71B1D2" transform="translate(280,362)"/>
<path d="M0 0 C0.33 0 0.66 0 1 0 C2.12029814 5.48946087 1.79217969 8.83430559 0 14 C-1.32 13.67 -2.64 13.34 -4 13 C-3.525625 12.34 -3.05125 11.68 -2.5625 11 C-0.58682146 7.2066972 -0.35972537 4.24475932 0 0 Z " fill="#41C4B6" transform="translate(427,320)"/>
<path d="M0 0 C1.65 0 3.3 0 5 0 C4.67 0.66 4.34 1.32 4 2 C3.34 2 2.68 2 2 2 C2 3.32 2 4.64 2 6 C3.65 6 5.3 6 7 6 C7 6.33 7 6.66 7 7 C4.69 7 2.38 7 0 7 C0 4.69 0 2.38 0 0 Z " fill="#002544" transform="translate(104,183)"/>
<path d="M0 0 C1.32 0 2.64 0 4 0 C4.33 1.32 4.66 2.64 5 4 C2.69 4.33 0.38 4.66 -2 5 C-2 4.34 -2 3.68 -2 3 C-1.34 3 -0.68 3 0 3 C0 2.01 0 1.02 0 0 Z " fill="#11A92B" transform="translate(251,387)"/>
<path d="M0 0 C0.33 0 0.66 0 1 0 C0.38461538 6.52307692 0.38461538 6.52307692 -1.5625 8.9375 C-2.036875 9.288125 -2.51125 9.63875 -3 10 C-4.2077558 6.37673261 -3.54311128 5.35853631 -2 2 C-1.34 2 -0.68 2 0 2 C0 1.34 0 0.68 0 0 Z " fill="#1BF1D6" transform="translate(430,327)"/>
<path d="M0 0 C0 0.99 0 1.98 0 3 C-1.98 3.99 -3.96 4.98 -6 6 C-6 4.68 -6 3.36 -6 2 C-2.25 0 -2.25 0 0 0 Z " fill="#19F0D5" transform="translate(408,305)"/>
<path d="M0 0 C0.99 0.33 1.98 0.66 3 1 C0.03716687 3.38672669 -2.94270509 5.7353371 -6 8 C-6 7.01 -6 6.02 -6 5 C-3.1875 2.25 -3.1875 2.25 0 0 Z " fill="#024054" transform="translate(404,301)"/>
<path d="M0 0 C1.37562854 1.28965176 2.70766393 2.62689293 4 4 C4 4.66 4 5.32 4 6 C1.03 6 -1.94 6 -5 6 C-5 5.34 -5 4.68 -5 4 C-3.35 4 -1.7 4 0 4 C0 2.68 0 1.36 0 0 Z " fill="#2E9849" transform="translate(274,398)"/>
<path d="M0 0 C2.4294516 3.6441774 2.16179575 5.71241272 2 10 C1.01 10 0.02 10 -1 10 C-0.67 6.7 -0.34 3.4 0 0 Z " fill="#1B9BED" transform="translate(384,325)"/>
<path d="M0 0 C0.33 0 0.66 0 1 0 C1.33 3.63 1.66 7.26 2 11 C2.66 11 3.32 11 4 11 C3.67 12.32 3.34 13.64 3 15 C0.57418129 12.57418129 0.03644336 10.92566131 -0.09765625 7.51953125 C-0.08605469 6.62621094 -0.07445312 5.73289062 -0.0625 4.8125 C-0.05347656 3.91144531 -0.04445313 3.01039063 -0.03515625 2.08203125 C-0.02355469 1.39496094 -0.01195312 0.70789063 0 0 Z " fill="#31BCA4" transform="translate(393,318)"/>
<path d="M0 0 C1.65 0 3.3 0 5 0 C5.66 1.32 6.32 2.64 7 4 C5.35 4 3.7 4 2 4 C1.34 2.68 0.68 1.36 0 0 Z " fill="#12A3D2" transform="translate(421,298)"/>
<path d="M0 0 C0.33 0.99 0.66 1.98 1 3 C2.98 2.67 4.96 2.34 7 2 C3.99382731 5.00617269 1.17618402 4.59585316 -3 5 C-3 4.01 -3 3.02 -3 2 C-2.01 2 -1.02 2 0 2 C0 1.34 0 0.68 0 0 Z " fill="#1B9933" transform="translate(248,389)"/>
<path d="M0 0 C6.75 -0.125 6.75 -0.125 9 1 C9 1.66 9 2.32 9 3 C3.46153846 3.36923077 3.46153846 3.36923077 1.125 1.5 C0.75375 1.005 0.3825 0.51 0 0 Z " fill="#2D9047" transform="translate(267,386)"/>
<path d="M0 0 C0.66 0 1.32 0 2 0 C3.35439668 2.70879335 3.06501451 5.00933268 3 8 C2.01 7.67 1.02 7.34 0 7 C0 4.69 0 2.38 0 0 Z " fill="#7E2C20" transform="translate(275,378)"/>
<path d="M0 0 C0.33 0 0.66 0 1 0 C0.64989059 8.35010941 0.64989059 8.35010941 -2.0625 11.0625 C-2.701875 11.371875 -3.34125 11.68125 -4 12 C-3.33989524 9.15449988 -2.48275034 6.47674001 -1.4375 3.75 C-1.16808594 3.04359375 -0.89867187 2.3371875 -0.62109375 1.609375 C-0.41613281 1.07828125 -0.21117187 0.5471875 0 0 Z " fill="#0F302B" transform="translate(426,322)"/>
<path d="M0 0 C0 0.66 0 1.32 0 2 C-6.625 3.25 -6.625 3.25 -10 1 C-8.66666667 0.66666667 -7.33333333 0.33333333 -6 0 C-5.29875 -0.20625 -4.5975 -0.4125 -3.875 -0.625 C-2 -1 -2 -1 0 0 Z " fill="#0595C8" transform="translate(137,178)"/>
<path d="M0 0 C0.66 1.32 1.32 2.64 2 4 C0.1875 5.5625 0.1875 5.5625 -2 7 C-2.99 6.67 -3.98 6.34 -5 6 C-3.35 4.02 -1.7 2.04 0 0 Z " fill="#178FC2" transform="translate(433,335)"/>
<path d="M0 0 C0.66 0.33 1.32 0.66 2 1 C2.59355614 3.64860427 2.74209269 6.29197322 3 9 C0.9375 7.3125 0.9375 7.3125 -1 5 C-0.75 2.25 -0.75 2.25 0 0 Z " fill="#189DEC" transform="translate(387,316)"/>
<path d="M0 0 C2.64 0.33 5.28 0.66 8 1 C7.67 1.66 7.34 2.32 7 3 C4.69 3 2.38 3 0 3 C0 2.01 0 1.02 0 0 Z " fill="#62CEF6" transform="translate(265,407)"/>
<path d="M0 0 C0.99 0 1.98 0 3 0 C3 2.64 3 5.28 3 8 C2.67 6.68 2.34 5.36 2 4 C1.01 4 0.02 4 -1 4 C-0.67 2.68 -0.34 1.36 0 0 Z " fill="#1CF1CC" transform="translate(130,378)"/>
<path d="M0 0 C1.65 0 3.3 0 5 0 C5 1.32 5 2.64 5 4 C4.01 4 3.02 4 2 4 C1.34 2.68 0.68 1.36 0 0 Z " fill="#344B2C" transform="translate(258,369)"/>
<path d="M0 0 C0.33 0 0.66 0 1 0 C1 1.98 1 3.96 1 6 C-0.32 6 -1.64 6 -3 6 C-3.33 6.66 -3.66 7.32 -4 8 C-3.67 6.35 -3.34 4.7 -3 3 C-2.01 3 -1.02 3 0 3 C0 2.01 0 1.02 0 0 Z " fill="#229EDF" transform="translate(438,330)"/>
<path d="M0 0 C0.86625 1.11375 0.86625 1.11375 1.75 2.25 C3.72253526 4.66087643 5.76044282 6.84042701 8 9 C4.68765616 7.83620352 2.1101781 6.88761214 0 4 C0 2.68 0 1.36 0 0 Z " fill="#40CEBF" transform="translate(399,328)"/>
<path d="M0 0 C2.5722047 1.28610235 3.00974907 2.33393981 4 5 C3.625 7.25 3.625 7.25 3 9 C0.90250005 6.64031256 0.03094296 5.45383006 -0.1875 2.25 C-0.125625 1.5075 -0.06375 0.765 0 0 Z " fill="#0EA7DA" transform="translate(388,309)"/>
<path d="M0 0 C1.98 0 3.96 0 6 0 C6 1.32 6 2.64 6 4 C4.68 4 3.36 4 2 4 C2 3.34 2 2.68 2 2 C1.34 2 0.68 2 0 2 C0 1.34 0 0.68 0 0 Z " fill="#19F2CB" transform="translate(413,303)"/>
<path d="M0 0 C0.66 1.32 1.32 2.64 2 4 C2.99 4 3.98 4 5 4 C4.67 5.65 4.34 7.3 4 9 C0.06153846 5.67692308 0.06153846 5.67692308 -0.25 2.25 C-0.1675 1.5075 -0.085 0.765 0 0 Z " fill="#75B1C7" transform="translate(277,394)"/>
<path d="M0 0 C0.66 0 1.32 0 2 0 C2 1.98 2 3.96 2 6 C1.01 6.33 0.02 6.66 -1 7 C-0.67 4.69 -0.34 2.38 0 0 Z " fill="#32863F" transform="translate(258,389)"/>
<path d="M0 0 C0.33 0 0.66 0 1 0 C1.05395478 1.62463842 1.09277195 3.24978541 1.125 4.875 C1.14820313 5.77992188 1.17140625 6.68484375 1.1953125 7.6171875 C1 10 1 10 -1 12 C-1.5625 10.0625 -1.5625 10.0625 -2 8 C-1.67 7.67 -1.34 7.34 -1 7 C-0.63239269 4.67182036 -0.29758419 2.3381615 0 0 Z " fill="#732517" transform="translate(242,380)"/>
<path d="M0 0 C2.1723491 3.25852365 4.07119658 6.59244728 6 10 C3.54896452 9.01958581 2.23241214 8.3486182 0.75 6.125 C0 4 0 4 0 0 Z " fill="#2C94BA" transform="translate(392,331)"/>
<path d="M0 0 C0.99 0 1.98 0 3 0 C3 1.98 3 3.96 3 6 C2.01 6 1.02 6 0 6 C0 4.02 0 2.04 0 0 Z " fill="#20F0CD" transform="translate(396,312)"/>
<path d="M0 0 C0.66 0.33 1.32 0.66 2 1 C1.34 2.32 0.68 3.64 0 5 C-0.66 5 -1.32 5 -2 5 C-2 5.66 -2 6.32 -2 7 C-2.99 7.33 -3.98 7.66 -5 8 C-3.8141763 4.62496331 -2.72426311 2.35277269 0 0 Z " fill="#A4ACAC" transform="translate(406,312)"/>
<path d="M0 0 C1.65 0 3.3 0 5 0 C5.66 1.65 6.32 3.3 7 5 C6.34 5.66 5.68 6.32 5 7 C4.54625 6.21625 4.0925 5.4325 3.625 4.625 C2.11571258 1.96301969 2.11571258 1.96301969 0 0 Z " fill="#37D5C7" transform="translate(421,311)"/>
<path d="M0 0 C0.99 0 1.98 0 3 0 C3 1.98 3 3.96 3 6 C2.01 6 1.02 6 0 6 C0 4.02 0 2.04 0 0 Z " fill="#1BD9B9" transform="translate(130,187)"/>
<path d="M0 0 C1.98 0 3.96 0 6 0 C5.67 0.99 5.34 1.98 5 3 C3.35 3 1.7 3 0 3 C0 2.01 0 1.02 0 0 Z " fill="#27F2C6" transform="translate(420,339)"/>
<path d="M0 0 C1.32 0 2.64 0 4 0 C4 1.65 4 3.3 4 5 C2.68 4.34 1.36 3.68 0 3 C0 2.01 0 1.02 0 0 Z " fill="#1FF1D4" transform="translate(429,318)"/>
</svg>
