<?xml version="1.0" encoding="UTF-8"?>
<svg version="1.1" xmlns="http://www.w3.org/2000/svg" width="235" height="1080">
<path d="M0 0 C77.55 0 155.1 0 235 0 C235 356.4 235 712.8 235 1080 C157.45 1080 79.9 1080 0 1080 C0 723.6 0 367.2 0 0 Z " fill="#4D4D4D" transform="translate(0,0)"/>
<path d="M0 0 C0.66 0 1.32 0 2 0 C2.80115255 79.24264132 3.10260322 158.48199695 3.11352539 237.72851562 C3.11369152 238.86852712 3.11385764 240.00853862 3.1140288 241.18309592 C3.11801446 270.19947462 3.11306272 299.21584991 3.10463549 328.23222737 C3.09904743 347.47294886 3.0958821 366.71366921 3.09487724 385.95439148 C3.0948085 387.24820886 3.09473976 388.54202624 3.09466894 389.87505021 C3.09433042 396.45067405 3.09402911 403.02629789 3.09374207 409.60192174 C3.09314056 422.94295547 3.09221267 436.28398918 3.09113979 449.62502289 C3.09108648 450.29123931 3.09103316 450.95745574 3.09097823 451.64386054 C3.08838326 483.71960545 3.08208718 515.79534947 3.07543945 547.87109375 C3.07314691 558.94295247 3.07087114 570.01481119 3.06866455 581.08666992 C3.0685276 581.7737469 3.06839065 582.46082388 3.06824955 583.16872137 C3.06185524 615.36501597 3.05816388 647.56131072 3.05512976 679.75760579 C3.0549317 681.85872583 3.05473251 683.95984587 3.05453308 686.0609659 C3.05321281 699.99013354 3.05193824 713.91930118 3.05069422 727.84846883 C3.04816154 756.20183569 3.0453395 784.55520252 3.04234314 812.90856934 C3.04220585 814.21105749 3.04206856 815.51354564 3.04192711 816.85550313 C3.03278911 903.23700282 3.01695198 989.61850153 3 1076 C2.01 1076 1.02 1076 0 1076 C0 720.92 0 365.84 0 0 Z " fill="#072030" transform="translate(230,4)"/>
<path d="M0 0 C0.99 0 1.98 0 3 0 C3 355.08 3 710.16 3 1076 C2.34 1076 1.68 1076 1 1076 C0.90421518 988.30285693 0.80862149 900.60571366 0.71398926 812.90856934 C0.71257952 811.60219181 0.71116978 810.29581428 0.70971733 808.94984955 C0.67979874 781.22386304 0.64990958 753.49787649 0.62005559 725.7718899 C0.60504874 711.83476677 0.59003611 697.89764365 0.57501799 683.96052054 C0.57275324 681.85875596 0.57048866 679.75699139 0.56822408 677.65522682 C0.53353957 645.46570763 0.49873446 613.27618858 0.46356201 581.08666992 C0.46281145 580.39976174 0.46206089 579.71285355 0.46128759 579.00512997 C0.44919324 567.93715311 0.43708833 556.86917626 0.42498201 545.80119941 C0.38991586 513.74247415 0.35493369 481.6837488 0.32045746 449.62502289 C0.31974152 448.95932603 0.31902559 448.29362916 0.31828796 447.60775967 C0.30324452 433.61867458 0.28823426 419.62958945 0.2732639 405.64050428 C0.26624134 399.07846668 0.25921334 392.51642908 0.25218201 385.95439148 C0.25079886 384.66339956 0.24941571 383.37240763 0.24799064 382.04229474 C0.22741462 362.84934783 0.20642043 343.65640141 0.18519592 324.4634552 C0.15324674 295.55180953 0.12194439 266.64016323 0.09179688 237.72851562 C0.09061238 236.59382198 0.08942789 235.45912834 0.0882075 234.29005004 C0.00681892 156.1933469 -0.03115364 78.09674229 0 0 Z " fill="#1C89B6" transform="translate(232,4)"/>
<path d="M0 0 C0.99 0 1.98 0 3 0 C3 175.56 3 351.12 3 532 C2.67 532 2.34 532 2 532 C1.74093741 483.86692413 1.485862 435.73382842 1.23563546 387.60070577 C1.20561977 381.82755371 1.17557334 376.0544018 1.14550781 370.28125 C1.13952658 369.13264077 1.13354535 367.98403154 1.12738287 366.80061597 C1.04401078 350.80235117 0.95899847 334.80409586 0.87261605 318.80584705 C0.72341276 291.17266924 0.57755162 263.53947581 0.4375 235.90625 C0.43201676 234.825815 0.42653353 233.74537999 0.42088413 232.63220453 C0.02797288 155.08762613 -0.13828284 77.54547234 0 0 Z " fill="#128BC0" transform="translate(232,4)"/>
<path d="M0 0 C77.55 0 155.1 0 235 0 C235 1.32 235 2.64 235 4 C157.45 4 79.9 4 0 4 C0 2.68 0 1.36 0 0 Z " fill="#7F8080" transform="translate(0,0)"/>
</svg>
