<?xml version="1.0" encoding="UTF-8"?>
<svg version="1.1" xmlns="http://www.w3.org/2000/svg" width="538" height="553">
<path d="M0 0 C1.16273438 0.144375 2.32546875 0.28875 3.5234375 0.4375 C28.01934154 3.57656322 50.64983057 11.66046966 72 24 C72.71414063 24.41008301 73.42828125 24.82016602 74.1640625 25.24267578 C82.94368794 30.3432008 90.83165607 36.00943963 98.42578125 42.75 C100.97833421 45.07938847 100.97833421 45.07938847 104 47 C104 47.66 104 48.32 104 49 C105.32 49.66 106.64 50.32 108 51 C108 51.66 108 52.32 108 53 C108.88558594 53.38285156 108.88558594 53.38285156 109.7890625 53.7734375 C116.0040193 57.22131106 121.20511918 65.07831783 125 71 C125 71.66 125 72.32 125 73 C125.66 73 126.32 73 127 73 C128.40457069 74.9506304 129.72519709 76.9621935 131 79 C131.64839844 80.01578125 132.29679687 81.0315625 132.96484375 82.078125 C144 99.82178218 144 99.82178218 144 105 C144.66 105 145.32 105 146 105 C146.26554687 105.80824219 146.53109375 106.61648437 146.8046875 107.44921875 C147.33449219 109.05216797 147.33449219 109.05216797 147.875 110.6875 C148.22304688 111.74324219 148.57109375 112.79898438 148.9296875 113.88671875 C149.55828406 115.71515473 150.2257379 117.53241767 150.98046875 119.3125 C153.44425039 125.80706617 154.80292661 132.72489141 156.39941406 139.47412109 C156.76471868 141.01047945 157.13716363 142.54519339 157.52246094 144.07666016 C162.18451859 162.73942939 160.96329752 183.11969041 158 202 C157.89284668 202.68739258 157.78569336 203.37478516 157.67529297 204.08300781 C155.05371037 220.34674146 150.65006569 236.42762961 142.98046875 251.078125 C141.16110592 254.64436609 139.5970827 258.33010784 138 262 C137.34 262 136.68 262 136 262 C135.896875 262.56589844 135.79375 263.13179688 135.6875 263.71484375 C134.87528398 266.41453905 133.62018491 268.26074692 132 270.5625 C130.19972845 273.12875248 128.99823137 275.00530589 128 278 C127.34 278 126.68 278 126 278 C125.71125 278.763125 125.4225 279.52625 125.125 280.3125 C124 283 124 283 122 286 C121.34 286 120.68 286 120 286 C119.34 287.32 118.68 288.64 118 290 C117.34 290 116.68 290 116 290 C115.95875 290.556875 115.9175 291.11375 115.875 291.6875 C114.78722451 294.56233523 113.04313755 295.74595362 110.66015625 297.59375 C108.94691374 299.04496719 107.64840957 300.55950794 106.25 302.3125 C101.91288683 307.53309918 95.93860039 313.88087091 89 315 C89 315.66 89 316.32 89 317 C86.91015625 318.515625 86.91015625 318.515625 84.0625 320.25 C80.49912273 322.44529493 76.99629122 324.67020796 73.5625 327.0625 C69.12197423 330.05764668 64.42355987 332.38557588 59.6015625 334.703125 C56.86530671 335.9993536 56.86530671 335.9993536 54 338 C52.61896144 338.52027291 51.22079966 338.99631586 49.8125 339.4375 C44.64589567 341.10089457 39.54027079 342.89270248 34.5625 345.0625 C30.79357111 346.44137642 26.92053954 347.19117809 23 348 C21.99710938 348.226875 20.99421875 348.45375 19.9609375 348.6875 C-19.03210771 357.13746014 -19.03210771 357.13746014 -32.84765625 353.515625 C-36.91252772 352.54182639 -41.16605845 352.59361314 -45.33203125 352.39453125 C-50.7968103 352.10159485 -50.7968103 352.10159485 -53 351 C-54.72490129 350.70321119 -56.4552189 350.43764046 -58.1875 350.1875 C-73.74893008 347.66201731 -89.79899906 342.90452062 -104 336 C-104.99 335.525625 -105.98 335.05125 -107 334.5625 C-110.19978818 332.89594365 -113.35082682 331.1575093 -116.49609375 329.390625 C-118.27070164 328.40503934 -120.05572645 327.43810444 -121.84765625 326.484375 C-126.5854182 323.95926904 -130.92306055 321.52600169 -135 318 C-137.13466925 316.44531636 -139.27606321 314.90099742 -141.42578125 313.3671875 C-141.94527344 312.91601562 -142.46476562 312.46484375 -143 312 C-143 311.34 -143 310.68 -143 310 C-143.99 310 -144.98 310 -146 310 C-148.33984375 307.84765625 -148.33984375 307.84765625 -151 305 C-151.90878906 304.09121094 -152.81757813 303.18242187 -153.75390625 302.24609375 C-157.87695312 298.12304688 -157.87695312 298.12304688 -162 294 C-162.75152344 293.28972656 -163.50304687 292.57945312 -164.27734375 291.84765625 C-166 290 -166 290 -167 287 C-167.721875 286.278125 -168.44375 285.55625 -169.1875 284.8125 C-177.07624744 276.92375256 -183.13198258 266.98007793 -188 257 C-188.7425 255.53240234 -188.7425 255.53240234 -189.5 254.03515625 C-189.995 253.05417969 -190.49 252.07320312 -191 251.0625 C-191.495 250.08410156 -191.99 249.10570312 -192.5 248.09765625 C-195.3263317 242.26098688 -197.63415113 236.41464311 -199.4375 230.1875 C-199.64922852 229.45829346 -199.86095703 228.72908691 -200.07910156 227.9777832 C-205.1306043 210.21610883 -207.34317734 193.49141736 -207 175 C-206.98743164 174.06397949 -206.97486328 173.12795898 -206.96191406 172.16357422 C-206.46102845 140.31644892 -199.77740715 106.27335869 -179 81 C-177.98957175 79.33963482 -176.98974709 77.67277568 -176 76 C-174.68588891 74.13216065 -173.35177297 72.27826659 -172 70.4375 C-171.319375 69.50808594 -170.63875 68.57867187 -169.9375 67.62109375 C-169.298125 66.75613281 -168.65875 65.89117187 -168 65 C-167.46375 64.22785156 -166.9275 63.45570313 -166.375 62.66015625 C-165.92125 62.11230469 -165.4675 61.56445312 -165 61 C-164.34 61 -163.68 61 -163 61 C-162.90203125 60.40058594 -162.8040625 59.80117187 -162.703125 59.18359375 C-161.85747621 56.55738445 -160.89989182 55.74969771 -158.75 54.0625 C-156.41225995 52.17506234 -154.3642998 50.34985207 -152.25 48.1875 C-150 46 -150 46 -147 45 C-146.74347656 44.41992188 -146.48695313 43.83984375 -146.22265625 43.2421875 C-144.41235659 39.92234084 -141.49340464 38.20837148 -138.4375 36.125 C-137.80416748 35.68446289 -137.17083496 35.24392578 -136.51831055 34.79003906 C-134.6844265 33.51839663 -132.84270131 32.25881299 -131 31 C-130.16210938 30.41476563 -129.32421875 29.82953125 -128.4609375 29.2265625 C-122.86956452 25.38376434 -117.00164332 22.15401676 -111 19 C-110.36835938 18.65195313 -109.73671875 18.30390625 -109.0859375 17.9453125 C-103.26755356 14.84388318 -97.05064739 12.7027033 -90.87109375 10.4453125 C-87.92109209 9.36192669 -85.05775122 8.15627207 -82.1875 6.875 C-57.0737319 -3.11248863 -26.34987264 -3.80198563 0 0 Z " fill="#2CFE36" transform="translate(290,107)"/>
<path d="M0 0 C3.68527289 2.8257504 6.67184211 5.73434211 10 9.0625 C10.33 4.1125 10.66 -0.8375 11 -5.9375 C17.93 -5.9375 24.86 -5.9375 32 -5.9375 C32.029729 -1.23536255 32.029729 -1.23536255 32.06005859 3.56176758 C32.12687904 13.90352229 32.20451963 24.24517519 32.28752708 34.58681202 C32.33753453 40.85871468 32.38386419 47.13060014 32.421875 53.40258789 C32.45867156 59.45212641 32.50501616 65.50152247 32.55806351 71.55093956 C32.57663742 73.86224564 32.59173421 76.1735823 32.60334396 78.48493385 C32.62015507 81.71512152 32.64917782 84.94498074 32.68115234 88.17504883 C32.68331253 89.13673981 32.68547272 90.09843079 32.68769836 91.08926392 C32.69886185 91.96845993 32.71002533 92.84765594 32.7215271 93.75349426 C32.72705786 94.51766065 32.73258862 95.28182703 32.73828697 96.06914997 C32.89235914 98.37951164 32.89235914 98.37951164 35 101.0625 C37.43693311 101.42666047 37.43693311 101.42666047 40.125 101.25 C41.03507812 101.22292969 41.94515625 101.19585937 42.8828125 101.16796875 C43.58148438 101.13316406 44.28015625 101.09835937 45 101.0625 C45.02683987 104.04172593 45.04676037 107.02071295 45.0625 110 C45.07087891 110.85013672 45.07925781 111.70027344 45.08789062 112.57617188 C45.09111328 113.38505859 45.09433594 114.19394531 45.09765625 115.02734375 C45.10289307 115.7762085 45.10812988 116.52507324 45.11352539 117.29663086 C45 119.0625 45 119.0625 44 120.0625 C41.45021883 120.35670552 38.93346528 120.57897959 36.375 120.75 C35.67503906 120.80994141 34.97507812 120.86988281 34.25390625 120.93164062 C28.5967533 121.31473169 23.4179511 121.05763998 18.85546875 117.29296875 C14.53021762 111.99529583 11.59449712 108.15880033 12 101.0625 C10.92492187 102.14144531 10.92492187 102.14144531 9.828125 103.2421875 C-4.44368335 117.47457096 -4.44368335 117.47457096 -13 119.0625 C-13.87527344 119.24296875 -14.75054687 119.4234375 -15.65234375 119.609375 C-33.24931631 121.99122893 -48.53777854 120.33614526 -63 109.57421875 C-69.15297543 104.06217826 -73.04660278 96.21655013 -77 89.0625 C-77.82177734 87.58330078 -77.82177734 87.58330078 -78.66015625 86.07421875 C-80.21077826 82.58870981 -81.04355757 79.17413029 -81.6875 75.4375 C-81.81415039 74.71111328 -81.94080078 73.98472656 -82.07128906 73.23632812 C-85.56547729 50.99031038 -81.57589089 33.13995123 -72 13.0625 C-71.34 13.0625 -70.68 13.0625 -70 13.0625 C-69.91363281 12.49273437 -69.82726562 11.92296875 -69.73828125 11.3359375 C-67.52137325 4.50926841 -60.05733425 -0.21836102 -54 -3.375 C-37.45231219 -11.44199781 -15.04072544 -10.56645918 0 0 Z " fill="#020902" transform="translate(288,223.9375)"/>
<path d="M0 0 C4.74315502 4.01742638 8.41129186 7.87278466 10.33203125 13.87890625 C10.58339844 14.64332031 10.83476562 15.40773437 11.09375 16.1953125 C11.64453125 18.31640625 11.64453125 18.31640625 11.64453125 21.31640625 C12.30453125 21.31640625 12.96453125 21.31640625 13.64453125 21.31640625 C15.41257399 28.15003175 15.9523515 34.3969728 15.89453125 41.44140625 C15.90613281 42.86646484 15.90613281 42.86646484 15.91796875 44.3203125 C15.88335023 56.80028772 11.37716493 70.15009775 2.64453125 79.31640625 C-5.91030659 87.21438268 -13.82728428 89.01878849 -25.40234375 88.6875 C-32.95388014 87.97861071 -38.03336028 85.05209906 -43.16796875 79.56640625 C-54.77415904 64.90882321 -56.83766135 48.4943674 -55.35546875 30.31640625 C-54.48383129 23.56660819 -52.59912781 17.84504086 -49.48046875 11.81640625 C-49.14144531 11.11515625 -48.80242187 10.41390625 -48.453125 9.69140625 C-46.98039609 6.7795468 -45.86960728 4.65086315 -43.09765625 2.84765625 C-42.52273437 2.67234375 -41.9478125 2.49703125 -41.35546875 2.31640625 C-41.35546875 1.65640625 -41.35546875 0.99640625 -41.35546875 0.31640625 C-39.7969512 -0.50370687 -38.23345159 -1.31435588 -36.66796875 -2.12109375 C-35.79785156 -2.57355469 -34.92773438 -3.02601563 -34.03125 -3.4921875 C-23.31576431 -8.26331617 -9.48597012 -6.7801876 0 0 Z " fill="#2CFC36" transform="translate(282.35546875,238.68359375)"/>
<path d="M0 0 C1.16273438 0.144375 2.32546875 0.28875 3.5234375 0.4375 C28.01934154 3.57656322 50.64983057 11.66046966 72 24 C72.71414063 24.41008301 73.42828125 24.82016602 74.1640625 25.24267578 C82.94368794 30.3432008 90.83165607 36.00943963 98.42578125 42.75 C100.97833421 45.07938847 100.97833421 45.07938847 104 47 C104 47.66 104 48.32 104 49 C105.32 49.66 106.64 50.32 108 51 C108 51.66 108 52.32 108 53 C108.88558594 53.38285156 108.88558594 53.38285156 109.7890625 53.7734375 C116.0040193 57.22131106 121.20511918 65.07831783 125 71 C125 71.66 125 72.32 125 73 C125.66 73 126.32 73 127 73 C128.40457069 74.9506304 129.72519709 76.9621935 131 79 C131.64839844 80.01578125 132.29679687 81.0315625 132.96484375 82.078125 C144 99.82178218 144 99.82178218 144 105 C144.66 105 145.32 105 146 105 C146.26554687 105.80824219 146.53109375 106.61648437 146.8046875 107.44921875 C147.33449219 109.05216797 147.33449219 109.05216797 147.875 110.6875 C148.22304688 111.74324219 148.57109375 112.79898438 148.9296875 113.88671875 C149.55828406 115.71515473 150.2257379 117.53241767 150.98046875 119.3125 C153.44425039 125.80706617 154.80292661 132.72489141 156.39941406 139.47412109 C156.76471868 141.01047945 157.13716363 142.54519339 157.52246094 144.07666016 C162.18451859 162.73942939 160.96329752 183.11969041 158 202 C157.89284668 202.68739258 157.78569336 203.37478516 157.67529297 204.08300781 C155.05371037 220.34674146 150.65006569 236.42762961 142.98046875 251.078125 C141.16110592 254.64436609 139.5970827 258.33010784 138 262 C137.34 262 136.68 262 136 262 C135.896875 262.56589844 135.79375 263.13179688 135.6875 263.71484375 C134.87528398 266.41453905 133.62018491 268.26074692 132 270.5625 C130.19972845 273.12875248 128.99823137 275.00530589 128 278 C127.34 278 126.68 278 126 278 C125.71125 278.763125 125.4225 279.52625 125.125 280.3125 C124 283 124 283 122 286 C121.34 286 120.68 286 120 286 C119.34 287.32 118.68 288.64 118 290 C117.34 290 116.68 290 116 290 C115.95875 290.556875 115.9175 291.11375 115.875 291.6875 C114.78722451 294.56233523 113.04313755 295.74595362 110.66015625 297.59375 C108.94691374 299.04496719 107.64840957 300.55950794 106.25 302.3125 C101.91288683 307.53309918 95.93860039 313.88087091 89 315 C89 315.66 89 316.32 89 317 C86.91015625 318.515625 86.91015625 318.515625 84.0625 320.25 C80.49912273 322.44529493 76.99629122 324.67020796 73.5625 327.0625 C69.12197423 330.05764668 64.42355987 332.38557588 59.6015625 334.703125 C56.86530671 335.9993536 56.86530671 335.9993536 54 338 C52.61896144 338.52027291 51.22079966 338.99631586 49.8125 339.4375 C44.64589567 341.10089457 39.54027079 342.89270248 34.5625 345.0625 C30.79357111 346.44137642 26.92053954 347.19117809 23 348 C21.99710938 348.226875 20.99421875 348.45375 19.9609375 348.6875 C-19.03210771 357.13746014 -19.03210771 357.13746014 -32.84765625 353.515625 C-36.91252772 352.54182639 -41.16605845 352.59361314 -45.33203125 352.39453125 C-50.7968103 352.10159485 -50.7968103 352.10159485 -53 351 C-54.72490129 350.70321119 -56.4552189 350.43764046 -58.1875 350.1875 C-73.74893008 347.66201731 -89.79899906 342.90452062 -104 336 C-104.99 335.525625 -105.98 335.05125 -107 334.5625 C-110.19978818 332.89594365 -113.35082682 331.1575093 -116.49609375 329.390625 C-118.27070164 328.40503934 -120.05572645 327.43810444 -121.84765625 326.484375 C-126.5854182 323.95926904 -130.92306055 321.52600169 -135 318 C-137.13466925 316.44531636 -139.27606321 314.90099742 -141.42578125 313.3671875 C-141.94527344 312.91601562 -142.46476562 312.46484375 -143 312 C-143 311.34 -143 310.68 -143 310 C-143.99 310 -144.98 310 -146 310 C-148.33984375 307.84765625 -148.33984375 307.84765625 -151 305 C-151.90878906 304.09121094 -152.81757813 303.18242187 -153.75390625 302.24609375 C-157.87695312 298.12304688 -157.87695312 298.12304688 -162 294 C-162.75152344 293.28972656 -163.50304687 292.57945312 -164.27734375 291.84765625 C-166 290 -166 290 -167 287 C-167.721875 286.278125 -168.44375 285.55625 -169.1875 284.8125 C-177.07624744 276.92375256 -183.13198258 266.98007793 -188 257 C-188.7425 255.53240234 -188.7425 255.53240234 -189.5 254.03515625 C-189.995 253.05417969 -190.49 252.07320312 -191 251.0625 C-191.495 250.08410156 -191.99 249.10570312 -192.5 248.09765625 C-195.3263317 242.26098688 -197.63415113 236.41464311 -199.4375 230.1875 C-199.64922852 229.45829346 -199.86095703 228.72908691 -200.07910156 227.9777832 C-205.1306043 210.21610883 -207.34317734 193.49141736 -207 175 C-206.98743164 174.06397949 -206.97486328 173.12795898 -206.96191406 172.16357422 C-206.46102845 140.31644892 -199.77740715 106.27335869 -179 81 C-177.98957175 79.33963482 -176.98974709 77.67277568 -176 76 C-174.68588891 74.13216065 -173.35177297 72.27826659 -172 70.4375 C-171.319375 69.50808594 -170.63875 68.57867187 -169.9375 67.62109375 C-169.298125 66.75613281 -168.65875 65.89117187 -168 65 C-167.46375 64.22785156 -166.9275 63.45570313 -166.375 62.66015625 C-165.92125 62.11230469 -165.4675 61.56445312 -165 61 C-164.34 61 -163.68 61 -163 61 C-162.90203125 60.40058594 -162.8040625 59.80117187 -162.703125 59.18359375 C-161.85747621 56.55738445 -160.89989182 55.74969771 -158.75 54.0625 C-156.41225995 52.17506234 -154.3642998 50.34985207 -152.25 48.1875 C-150 46 -150 46 -147 45 C-146.74347656 44.41992188 -146.48695313 43.83984375 -146.22265625 43.2421875 C-144.41235659 39.92234084 -141.49340464 38.20837148 -138.4375 36.125 C-137.80416748 35.68446289 -137.17083496 35.24392578 -136.51831055 34.79003906 C-134.6844265 33.51839663 -132.84270131 32.25881299 -131 31 C-130.16210938 30.41476563 -129.32421875 29.82953125 -128.4609375 29.2265625 C-122.86956452 25.38376434 -117.00164332 22.15401676 -111 19 C-110.36835938 18.65195313 -109.73671875 18.30390625 -109.0859375 17.9453125 C-103.26755356 14.84388318 -97.05064739 12.7027033 -90.87109375 10.4453125 C-87.92109209 9.36192669 -85.05775122 8.15627207 -82.1875 6.875 C-57.0737319 -3.11248863 -26.34987264 -3.80198563 0 0 Z M-161.87255859 62.06958008 C-168.29024402 69.20587953 -173.73221185 76.99339029 -179 85 C-179.59296875 85.89074219 -180.1859375 86.78148437 -180.796875 87.69921875 C-203.12422842 123.05086166 -210.94392207 167.96070794 -202.33569336 208.7746582 C-198.31905932 226.01265605 -192.64496711 242.53672201 -184 258 C-183.48695313 258.92683594 -182.97390625 259.85367187 -182.4453125 260.80859375 C-158.1383999 302.91867747 -118.06165585 331.78959298 -71.64599609 344.65234375 C-56.51087522 348.65610168 -41.61862478 350.38818028 -26 350.3125 C-25.23608948 350.31100952 -24.47217896 350.30951904 -23.68511963 350.3079834 C-10.93388426 350.26343237 1.46282468 349.47138318 14 347 C14.77456543 346.85014648 15.54913086 346.70029297 16.34716797 346.54589844 C25.94975842 344.62985518 34.94885314 341.76008401 44 338 C44.77730469 337.71769531 45.55460938 337.43539063 46.35546875 337.14453125 C69.7359407 328.57303293 90.62927235 313.6196065 108 296 C108.53560547 295.46552246 109.07121094 294.93104492 109.62304688 294.38037109 C117.93595113 286.0289336 124.62211986 276.88640001 131 267 C131.57363281 266.12859375 132.14726562 265.2571875 132.73828125 264.359375 C143.1775199 247.81416658 149.92529682 229.05209004 154 210 C154.25442871 208.85660156 154.50885742 207.71320313 154.77099609 206.53515625 C156.89255206 196.54355091 157.48523194 186.94526732 157.375 176.75 C157.37067963 175.98786194 157.36635925 175.22572388 157.36190796 174.44049072 C157.24101093 156.199108 154.95416937 139.28899614 149 122 C148.75266113 121.27603027 148.50532227 120.55206055 148.25048828 119.80615234 C142.16544971 102.34556773 133.2771034 86.62242165 122 72 C121.57734863 71.45102051 121.15469727 70.90204102 120.71923828 70.33642578 C117.01001035 65.54010211 117.01001035 65.54010211 113 61 C112.34 61 111.68 61 111 61 C110.75121094 60.42636719 110.50242187 59.85273438 110.24609375 59.26171875 C95.95424745 33.32134569 54.05845244 16.07483995 27 8 C10.32391416 3.43190724 -6.379361 1.60223164 -23.625 1.6875 C-24.41336243 1.68965515 -25.20172485 1.6918103 -26.01397705 1.69403076 C-78.29002528 1.92266826 -126.28681792 23.74456264 -161.87255859 62.06958008 Z " fill="#0F2B10" transform="translate(290,107)"/>
<path d="M0 0 C0.66 0 1.32 0 2 0 C1.36081863 3.51954301 -0.07296886 5.862193 -2.0625 8.8125 C-12.77510019 25.34239332 -20.10758521 42.95028785 -25 62 C-25.19899902 62.74330566 -25.39799805 63.48661133 -25.60302734 64.25244141 C-34.44348218 98.33272063 -30.0937963 140.24515471 -13.75390625 171.4296875 C-12 175 -12 175 -12 179 C-15 178 -15 178 -16.0625 176.3984375 C-16.371875 175.73070312 -16.68125 175.06296875 -17 174.375 C-17.309375 173.72273437 -17.61875 173.07046875 -17.9375 172.3984375 C-18.288125 171.60695313 -18.63875 170.81546875 -19 170 C-19.72896484 168.37384766 -19.72896484 168.37384766 -20.47265625 166.71484375 C-22.07268987 162.95632158 -23.30204865 159.10832652 -24.4375 155.1875 C-24.64922852 154.45829346 -24.86095703 153.72908691 -25.07910156 152.9777832 C-30.1306043 135.21610883 -32.34317734 118.49141736 -32 100 C-31.98743164 99.06397949 -31.97486328 98.12795898 -31.96191406 97.16357422 C-31.46440295 65.53100516 -24.92730719 30.97478638 -4 6 C-2.98343919 4.34338239 -1.97934924 2.67888441 -1 1 C-0.67 0.67 -0.34 0.34 0 0 Z " fill="#041E05" transform="translate(115,182)"/>
<path d="M0 0 C2.79817769 2.48726905 4.38105791 5.23896439 6.1875 8.5 C17.69658969 28.56837067 33.23728926 45.70727135 51.5625 59.6875 C52.27857422 60.24244141 52.99464844 60.79738281 53.73242188 61.36914062 C57.99663997 64.63229569 62.27466799 67.44794815 67 70 C66.01 70.495 66.01 70.495 65 71 C64.67 71.66 64.34 72.32 64 73 C58.90992301 69.68202389 53.89224025 66.26709541 48.9375 62.75 C47.99777344 62.08484375 47.05804688 61.4196875 46.08984375 60.734375 C45.40019531 60.16203125 44.71054688 59.5896875 44 59 C44 58.34 44 57.68 44 57 C43.01 57 42.02 57 41 57 C38.66015625 54.84765625 38.66015625 54.84765625 36 52 C35.09121094 51.09121094 34.18242187 50.18242187 33.24609375 49.24609375 C30.49739583 46.49739583 27.74869792 43.74869792 25 41 C24.24847656 40.28972656 23.49695313 39.57945312 22.72265625 38.84765625 C21 37 21 37 20 34 C19.278125 33.278125 18.55625 32.55625 17.8125 31.8125 C9.4955376 23.4955376 1.72320064 12.16960191 -2 1 C-1.34 0.67 -0.68 0.34 0 0 Z " fill="#1C2819" transform="translate(103,360)"/>
<path d="M0 0 C0.78453552 0.00182281 1.56907104 0.00364563 2.37738037 0.00552368 C25.4462896 0.09545124 46.79324314 3.82803529 68.3125 12.3125 C68.3125 12.6425 68.3125 12.9725 68.3125 13.3125 C64.02934741 12.74141299 59.76203358 12.08720824 55.5 11.375 C54.56542969 11.22160156 53.63085938 11.06820312 52.66796875 10.91015625 C50.3125 10.3125 50.3125 10.3125 48.3125 8.3125 C22.4339157 -1.02437558 -13.91634727 -1.09927674 -40.14453125 6.7265625 C-43.05469064 7.39710614 -45.71102711 7.40809475 -48.6875 7.3125 C-48.6875 7.9725 -48.6875 8.6325 -48.6875 9.3125 C-50.41033203 9.74949219 -50.41033203 9.74949219 -52.16796875 10.1953125 C-60.99183744 12.50129114 -69.10512435 15.07739503 -77.28125 19.17578125 C-79.6875 20.3125 -79.6875 20.3125 -81.6875 20.3125 C-82.0175 21.3025 -82.3475 22.2925 -82.6875 23.3125 C-84.6675 23.3125 -86.6475 23.3125 -88.6875 23.3125 C-88.6875 23.9725 -88.6875 24.6325 -88.6875 25.3125 C-91.78110212 26.85930106 -94.87159346 28.39933654 -98 29.875 C-100.78895241 31.03393576 -100.78895241 31.03393576 -101.6875 33.3125 C-103.0075 32.9825 -104.3275 32.6525 -105.6875 32.3125 C-86.65779205 20.24644572 -67.39862801 10.52240445 -45.4375 4.9375 C-44.50494385 4.6988623 -43.5723877 4.46022461 -42.61157227 4.21435547 C-28.48555187 0.82528682 -14.45987881 -0.07020106 0 0 Z " fill="#41D84A" transform="translate(265.6875,108.6875)"/>
<path d="M0 0 C1.32 0.33 2.64 0.66 4 1 C3.34 1.99 2.68 2.98 2 4 C1.34 4 0.68 4 0 4 C-0.66 5.32 -1.32 6.64 -2 8 C-2.66 8 -3.32 8 -4 8 C-4.04125 8.556875 -4.0825 9.11375 -4.125 9.6875 C-5.21277549 12.56233523 -6.95686245 13.74595362 -9.33984375 15.59375 C-11.05308626 17.04496719 -12.35159043 18.55950794 -13.75 20.3125 C-18.08711317 25.53309918 -24.06139961 31.88087091 -31 33 C-31 33.66 -31 34.32 -31 35 C-33.08984375 36.515625 -33.08984375 36.515625 -35.9375 38.25 C-39.50087727 40.44529493 -43.00370878 42.67020796 -46.4375 45.0625 C-50.87802577 48.05764668 -55.57644013 50.38557588 -60.3984375 52.703125 C-63.13469329 53.9993536 -63.13469329 53.9993536 -66 56 C-67.9896995 56.39013716 -69.99019869 56.73202649 -72 57 C-72 56.34 -72 55.68 -72 55 C-72.66 54.67 -73.32 54.34 -74 54 C-73.30777344 53.731875 -72.61554688 53.46375 -71.90234375 53.1875 C-43.11046473 41.65557481 -20.467469 22.94490938 0 0 Z " fill="#0A270B" transform="translate(410,389)"/>
<path d="M0 0 C3.93888499 0.25261473 7.87561834 0.53050114 11.8125 0.8125 C13.46282227 0.91788086 13.46282227 0.91788086 15.14648438 1.02539062 C21.49528096 1.49359096 27.29293004 2.43005074 33.39111328 4.25463867 C35.93132773 4.98038027 38.43687328 5.4984369 41.03515625 5.96875 C46.35835825 6.99288664 51.3523812 8.64057806 56.4375 10.5 C57.37964355 10.84240723 58.32178711 11.18481445 59.29248047 11.53759766 C68.32250832 14.9308549 76.75539478 19.25481376 85.15087891 23.98193359 C87.07606788 25.04188052 89.0285364 26.0292738 91 27 C90.505 28.485 90.505 28.485 90 30 C86.07700636 28.36938996 82.23431452 26.64892215 78.42578125 24.765625 C52.82517698 12.12465231 28.27173901 6.12450592 0 3 C0 2.01 0 1.02 0 0 Z " fill="#0D2E0E" transform="translate(275,106)"/>
<path d="M0 0 C7.26 0 14.52 0 22 0 C22.66730068 6.67300677 23.14224111 13.0138159 23.11352539 19.67236328 C23.11367142 20.58090561 23.11381744 21.48944794 23.1139679 22.42552185 C23.11327832 25.39047745 23.10553126 28.35536805 23.09765625 31.3203125 C23.09578867 33.39110276 23.09436637 35.46189346 23.09336853 37.53268433 C23.08957014 42.95443973 23.079763 48.37616788 23.06866455 53.7979126 C23.05839257 59.34183382 23.05385856 64.88575949 23.04882812 70.4296875 C23.03813809 81.28647023 23.0210942 92.14323284 23 103 C23.66 103 24.32 103 25 103 C25.33 103.99 25.66 104.98 26 106 C27.98 106.33 29.96 106.66 32 107 C32 107.66 32 108.32 32 109 C26.04296875 109.390625 26.04296875 109.390625 24 109 C21.42735308 106.1990443 20.62554656 104.34915 20.63923645 100.57073975 C20.63511246 99.69016907 20.63098846 98.80959839 20.6267395 97.90234375 C20.63752533 96.94424805 20.64831116 95.98615234 20.65942383 94.99902344 C20.65876671 93.47659027 20.65876671 93.47659027 20.65809631 91.92340088 C20.66018638 88.56852993 20.68352824 85.21415866 20.70703125 81.859375 C20.71262641 79.53338901 20.71689689 77.20739948 20.71989441 74.88140869 C20.73134937 68.75913738 20.76082241 62.63707954 20.79400635 56.51489258 C20.82469304 50.26777026 20.83839677 44.02061346 20.85351562 37.7734375 C20.88569131 25.51551611 20.93846481 13.2578092 21 1 C14.07 1 7.14 1 0 1 C0 0.67 0 0.34 0 0 Z " fill="#36D440" transform="translate(299,217)"/>
<path d="M0 0 C0.33 0 0.66 0 1 0 C1.28571429 8.57142857 1.28571429 8.57142857 -1 12 C-1.66 12 -2.32 12 -3 12 C-2.938125 13.010625 -2.87625 14.02125 -2.8125 15.0625 C-2.79243661 19.08477325 -3.56456379 22.63232908 -4.4921875 26.5390625 C-6.3685096 35.23269052 -6.42113023 43.81024979 -6.33618164 52.67211914 C-6.31237318 55.32663966 -6.31567489 57.98016361 -6.32226562 60.63476562 C-6.32746693 71.98666526 -6.32746693 71.98666526 -4.4387207 83.15063477 C-3.81540965 85.7781146 -3.85877499 88.31672475 -4 91 C-3.34 91 -2.68 91 -2 91 C-1.84144531 91.77601563 -1.68289062 92.55203125 -1.51953125 93.3515625 C0.54035991 102.88851715 3.03126152 112.54156948 7.71875 121.16015625 C9.12470692 124.27640832 8.98458935 124.90658272 8 128 C-10.5960284 93.64389722 -15.07200025 48.47290061 -4 11 C-2.74244297 7.30289771 -1.40561656 3.64322761 0 0 Z " fill="#3AC03F" transform="translate(94,229)"/>
<path d="M0 0 C-0.58007812 0.25394531 -1.16015625 0.50789063 -1.7578125 0.76953125 C-2.53898437 1.11371094 -3.32015625 1.45789063 -4.125 1.8125 C-5.27355469 2.31716797 -5.27355469 2.31716797 -6.4453125 2.83203125 C-8.30160664 3.68070395 -10.13381756 4.5826771 -11.94921875 5.515625 C-19.91067294 9.3893159 -28.69731753 11.26579115 -37.3125 13.125 C-38.03332764 13.28347412 -38.75415527 13.44194824 -39.49682617 13.60522461 C-53.03486942 16.41428379 -66.45695484 17.37649694 -80.25 17.3125 C-81.38622803 17.31126129 -81.38622803 17.31126129 -82.54541016 17.30999756 C-113.14984281 17.23343812 -113.14984281 17.23343812 -121 12 C-115.05141625 11.84381572 -109.60441427 12.45080097 -103.75 13.4375 C-90.5716305 15.51358592 -77.31699687 15.73694462 -64 16 C-64 15.34 -64 14.68 -64 14 C-62.89140625 13.95101563 -61.7828125 13.90203125 -60.640625 13.8515625 C-59.17705935 13.77650785 -57.71351888 13.70096119 -56.25 13.625 C-55.52039063 13.5940625 -54.79078125 13.563125 -54.0390625 13.53125 C-50.11393795 13.3171523 -47.45778324 12.73304561 -44 11 C-41.86523438 10.56103516 -41.86523438 10.56103516 -39.59375 10.2890625 C-38.76746094 10.17820312 -37.94117188 10.06734375 -37.08984375 9.953125 C-35.3642383 9.73449626 -33.63764251 9.52354618 -31.91015625 9.3203125 C-26.8515034 8.62583286 -24.44411981 7.98453205 -21 4 C-18.95703125 3.53125 -18.95703125 3.53125 -16.8125 3.5 C-12.26693067 3.21449317 -8.96063832 1.82900558 -4.9453125 -0.2578125 C-3 -1 -3 -1 0 0 Z " fill="#45DC4E" transform="translate(345,440)"/>
<path d="M0 0 C4.26587492 0.4627675 7.31722736 2.16201524 10.97509766 4.23779297 C27.76099381 13.75108653 46.18176706 19.11362581 65 23 C65 23.66 65 24.32 65 25 C60.19568489 26.53814041 56.28541217 25.27356953 51.625 23.875 C50.83424072 23.64562744 50.04348145 23.41625488 49.22875977 23.17993164 C38.60314261 20.06051372 27.98207437 16.85328032 18 12 C17.01 11.525625 16.02 11.05125 15 10.5625 C9.88424083 7.8980421 4.80157588 5.20105059 0 2 C0 1.34 0 0.68 0 0 Z " fill="#061F06" transform="translate(168,431)"/>
<path d="M0 0 C2.21019109 3.31528664 2.71514773 5.67662815 3.5 9.5625 C3.7371875 10.71878906 3.974375 11.87507812 4.21875 13.06640625 C4.34024414 13.69111816 4.46173828 14.31583008 4.58691406 14.95947266 C4.87780871 16.39640972 5.19472321 17.82820122 5.53027344 19.25537109 C7.06185104 26.04372707 7.30879123 32.55593046 7.25 39.5 C7.24468262 40.63187744 7.23936523 41.76375488 7.23388672 42.92993164 C7.15704774 49.80021212 6.86349898 56.60567161 6.125 63.4375 C6.04668945 64.1696875 5.96837891 64.901875 5.88769531 65.65625 C5.45065649 69.13246685 4.98054965 71.02917552 3 74 C3.01571045 72.71125977 3.0314209 71.42251953 3.04760742 70.09472656 C3.1028189 65.21165476 3.13667397 60.32860907 3.16479492 55.4453125 C3.17967754 53.35086393 3.19999013 51.25644534 3.22631836 49.16210938 C3.37983419 36.61595311 2.86497689 24.6665463 0.6496582 12.30371094 C-0.06438468 8.15262901 -0.11380547 4.2069193 0 0 Z " fill="#092708" transform="translate(443,238)"/>
<path d="M0 0 C8.48941616 3.95017732 15.10745323 9.21731659 22.03125 15.390625 C24.90324408 18.03131069 24.90324408 18.03131069 28 20 C28 20.66 28 21.32 28 22 C29.32 22.66 30.64 23.32 32 24 C32 24.66 32 25.32 32 26 C32.61875 26.185625 33.2375 26.37125 33.875 26.5625 C37.05602866 28.71437233 37.19451947 31.37533763 38 35 C34.70166953 33.90055651 34.16260652 33.24345342 32.0625 30.625 C23.61621673 20.72673512 13.82757445 13.10120143 3 6 C1.87175709 5.24965746 0.74413412 4.49838179 -0.3828125 3.74609375 C-1.24648438 3.16988281 -2.11015625 2.59367188 -3 2 C-2.01 1.34 -1.02 0.68 0 0 Z " fill="#123416" transform="translate(366,134)"/>
<path d="M0 0 C0 0.99 0 1.98 0 3 C-3.33333333 6 -3.33333333 6 -6 6 C-6 6.66 -6 7.32 -6 8 C-6.66 8 -7.32 8 -8 8 C-8.0721875 8.73863281 -8.144375 9.47726563 -8.21875 10.23828125 C-9.21822696 13.7714323 -10.68286327 14.87031809 -13.5 17.1875 C-21.64282188 24.20195942 -28.3611535 31.84516686 -34 41 C-34.66 39.68 -35.32 38.36 -36 37 C-34.54927753 34.99406276 -33.09008971 32.99539826 -31.625 31 C-31.2125 30.42765625 -30.8 29.8553125 -30.375 29.265625 C-29.29828281 27.80684688 -28.15333422 26.39899024 -27 25 C-26.34 25 -25.68 25 -25 25 C-24.90203125 24.40058594 -24.8040625 23.80117187 -24.703125 23.18359375 C-23.85747621 20.55738445 -22.89989182 19.74969771 -20.75 18.0625 C-18.41225995 16.17506234 -16.3642998 14.34985207 -14.25 12.1875 C-12 10 -12 10 -9 9 C-8.7525 8.4225 -8.505 7.845 -8.25 7.25 C-6.34399739 3.81919529 -3.23766852 2.11227572 0 0 Z " fill="#122612" transform="translate(152,143)"/>
<path d="M0 0 C15.01393618 14.54146965 24.46304308 33.35047033 31.6875 52.6875 C32.13440186 53.88197754 32.13440186 53.88197754 32.59033203 55.10058594 C35.40570511 62.79924683 37.29461956 69.75065231 37 78 C34.76796751 74.23405972 34.07772132 70.16489091 33.1875 65.9375 C31.80158495 59.68154084 30.02864885 54.0572977 27.1484375 48.296875 C25.38595718 44.77191436 24 41.97890951 24 38 C23.34 38 22.68 38 22 38 C21.80664062 37.43410156 21.61328125 36.86820313 21.4140625 36.28515625 C21.02347656 35.18494141 21.02347656 35.18494141 20.625 34.0625 C20.24214844 32.96615234 20.24214844 32.96615234 19.8515625 31.84765625 C19.14728587 29.81317884 19.14728587 29.81317884 17 29 C15.9598658 27.02057563 14.96661224 25.01634838 14 23 C12.87314471 20.96852306 11.7270608 18.94759938 10.5625 16.9375 C9.98628906 15.93589844 9.41007812 14.93429688 8.81640625 13.90234375 C7.04664103 10.94443741 7.04664103 10.94443741 4.77734375 8.25390625 C3 6 3 6 3 4 C2.34 4 1.68 4 1 4 C0.67 2.68 0.34 1.36 0 0 Z " fill="#42D24A" transform="translate(406,173)"/>
<path d="M0 0 C1.32 0.33 2.64 0.66 4 1 C3.01 2.485 3.01 2.485 2 4 C1.34 4 0.68 4 0 4 C-0.66 5.32 -1.32 6.64 -2 8 C-2.66 8 -3.32 8 -4 8 C-4.04125 8.556875 -4.0825 9.11375 -4.125 9.6875 C-5.21277549 12.56233523 -6.95686245 13.74595362 -9.33984375 15.59375 C-11.05308626 17.04496719 -12.35159043 18.55950794 -13.75 20.3125 C-17.54911487 24.92425976 -22.26639079 28.39834082 -27 32 C-27.33 30.68 -27.66 29.36 -28 28 C-27.5781543 27.61368408 -27.15630859 27.22736816 -26.72167969 26.8293457 C-17.37953678 18.24628359 -8.4374221 9.4761199 0 0 Z " fill="#1F331E" transform="translate(410,389)"/>
<path d="M0 0 C0 3.57191704 -0.58809508 3.97922672 -2.9375 6.5 C-5.07472325 8.80395698 -5.98252115 9.94756345 -7 13 C-7.9075 13.70125 -8.815 14.4025 -9.75 15.125 C-13.22024003 17.85636117 -14.84805924 21.05578103 -16.84765625 24.93359375 C-18.22182215 27.397776 -19.98060811 29.04574978 -22 31 C-25.01624809 35.71288764 -27.05042222 40.51013756 -29.06640625 45.71875 C-30.13618116 48.33276065 -31.49308738 50.61405502 -33 53 C-35.24182779 57.23940975 -37.31454893 61.5054638 -39 66 C-40.39126828 61.82619517 -38.76747106 59.17372514 -37.125 55.3125 C-36.80547363 54.55573975 -36.48594727 53.79897949 -36.15673828 53.01928711 C-27.56076402 33.16097559 -15.11136367 15.44447991 0 0 Z " fill="#41CF49" transform="translate(135,162)"/>
<path d="M0 0 C4.11508896 0.10449552 8.16489761 0.58082187 12.2421875 1.12109375 C24.23383032 2.59694821 36.30013282 2.83866051 48.3671875 3.18359375 C48.3671875 3.51359375 48.3671875 3.84359375 48.3671875 4.18359375 C39.56211898 5.98976165 29.3258643 7.9374066 20.4453125 5.69921875 C17.21638181 4.8980555 13.92763513 4.89562991 10.6171875 4.74609375 C4.97593553 4.45089713 -0.22928628 3.87219569 -5.6328125 2.18359375 C-3.6328125 0.18359375 -3.6328125 0.18359375 0 0 Z " fill="#142415" transform="translate(236.6328125,454.81640625)"/>
<path d="M0 0 C2.79817769 2.48726905 4.38105791 5.23896439 6.1875 8.5 C9.21343618 13.79538832 12.55713389 18.68746023 16.19921875 23.57421875 C18.23930908 26.32236646 20.13803395 29.12946901 22 32 C20.02 32.495 20.02 32.495 18 33 C1.536 11.608 1.536 11.608 -2 1 C-1.34 0.67 -0.68 0.34 0 0 Z " fill="#1D311D" transform="translate(103,360)"/>
<path d="M0 0 C0.66 0 1.32 0 2 0 C2.14695312 0.64066406 2.29390625 1.28132813 2.4453125 1.94140625 C3.99377324 7.91276923 5.84732041 13.25259666 11 17 C16.38812956 19.05451435 20.82912724 19.13682184 26.4375 18.625 C30.1809375 18.315625 30.1809375 18.315625 34 18 C34.33 12.06 34.66 6.12 35 0 C35.33 0 35.66 0 36 0 C36.02888146 3.31248187 36.04675799 6.62493167 36.0625 9.9375 C36.07087891 10.88302734 36.07925781 11.82855469 36.08789062 12.80273438 C36.09111328 13.70185547 36.09433594 14.60097656 36.09765625 15.52734375 C36.10289307 16.35999756 36.10812988 17.19265137 36.11352539 18.05053711 C36 20 36 20 35 21 C32.1136866 21.12794998 29.26186556 21.18522688 26.375 21.1875 C25.57964844 21.19974609 24.78429687 21.21199219 23.96484375 21.22460938 C18.90379401 21.23707501 14.79866707 20.60770629 10 19 C8.66869885 18.65864073 7.33641852 18.32074044 6 18 C6 16.68 6 15.36 6 14 C4.68 13.67 3.36 13.34 2 13 C2 11.35 2 9.7 2 8 C1.34 8 0.68 8 0 8 C0 7.34 0 6.68 0 6 C-0.66 6 -1.32 6 -2 6 C-1.125 1.125 -1.125 1.125 0 0 Z " fill="#39D340" transform="translate(298,325)"/>
<path d="M0 0 C1.64987591 1.39528584 3.21675609 2.88780734 4.76171875 4.3984375 C1.16124074 4.3984375 0.34532757 3.56632867 -2.48828125 1.4609375 C-6.52011655 -1.29393389 -9.26611869 -2.43010862 -14.23828125 -2.6015625 C-15.08390625 -2.65054688 -15.92953125 -2.69953125 -16.80078125 -2.75 C-25.43191558 -3.06167985 -32.80096101 -1.06395464 -40.23828125 3.3984375 C-40.56828125 4.3884375 -40.89828125 5.3784375 -41.23828125 6.3984375 C-44.30078125 8.0859375 -44.30078125 8.0859375 -47.23828125 9.3984375 C-45.76135817 4.72151442 -45.76135817 4.72151442 -43.11328125 3.0859375 C-42.49453125 2.8590625 -41.87578125 2.6321875 -41.23828125 2.3984375 C-41.23828125 1.7384375 -41.23828125 1.0784375 -41.23828125 0.3984375 C-39.6797637 -0.42167562 -38.11626409 -1.23232463 -36.55078125 -2.0390625 C-35.68066406 -2.49152344 -34.81054688 -2.94398438 -33.9140625 -3.41015625 C-23.29733614 -8.13731178 -9.42087676 -6.74094149 0 0 Z " fill="#3AD543" transform="translate(282.23828125,238.6015625)"/>
<path d="M0 0 C0.66 0 1.32 0 2 0 C1.36081863 3.51954301 -0.07296886 5.862193 -2.0625 8.8125 C-5.01970557 13.35501165 -7.70397667 17.97018465 -10.25 22.75 C-10.5787915 23.36335205 -10.90758301 23.9767041 -11.24633789 24.60864258 C-13.3839779 28.6597404 -15.24288281 32.76990306 -17 37 C-17.66 37 -18.32 37 -19 37 C-19.88167086 30.62887843 -16.80873646 26.25721087 -13.75 20.9375 C-13.25886719 20.05255859 -12.76773438 19.16761719 -12.26171875 18.25585938 C-9.79296707 13.86806473 -7.27459341 9.84599897 -4 6 C-2.98343919 4.34338239 -1.97934924 2.67888441 -1 1 C-0.67 0.67 -0.34 0.34 0 0 Z " fill="#0E240E" transform="translate(115,182)"/>
<path d="M0 0 C0.33 0 0.66 0 1 0 C1 30.69 1 61.38 1 93 C1.66 93 2.32 93 3 93 C3.33 93.99 3.66 94.98 4 96 C5.98 96.33 7.96 96.66 10 97 C10 97.66 10 98.32 10 99 C7.36 99 4.72 99 2 99 C-0.41528843 94.2831106 -0.2701969 89.96976187 -0.22705078 84.8034668 C-0.22734283 83.88590103 -0.22763489 82.96833527 -0.22793579 82.02296448 C-0.22654547 78.99828547 -0.21099816 75.97385458 -0.1953125 72.94921875 C-0.19158132 70.84886306 -0.18873484 68.74850563 -0.18673706 66.64814758 C-0.17910892 61.1259987 -0.15946739 55.60395538 -0.1373291 50.08184814 C-0.11685307 44.44455391 -0.10773158 38.80724259 -0.09765625 33.16992188 C-0.07622079 22.11323492 -0.04209466 11.05662625 0 0 Z " fill="#38F046" transform="translate(321,227)"/>
<path d="M0 0 C1 2 1 2 0.25 4.5 C-1.75744749 8.51489498 -5.01250279 9.54377069 -9.09204102 10.9543457 C-20.99727899 14.76463217 -32.60661375 14.50863121 -45 14 C-45 13.34 -45 12.68 -45 12 C-45.66 11.67 -46.32 11.34 -47 11 C-46.00371582 11.02356567 -46.00371582 11.02356567 -44.98730469 11.04760742 C-22.36807424 12.08740178 -22.36807424 12.08740178 -2.6875 2.3125 C-1.800625 1.549375 -0.91375 0.78625 0 0 Z " fill="#33CB3A" transform="translate(292,332)"/>
<path d="M0 0 C1.79234788 2.68852182 2.62887459 4.58116195 3.5859375 7.60546875 C3.87726563 8.50716797 4.16859375 9.40886719 4.46875 10.33789062 C5.06655834 12.21763711 5.66294414 14.09783668 6.2578125 15.97851562 C7.65862604 20.30690658 9.10545437 24.39380699 11.2265625 28.42578125 C13 32 13 32 13 36 C10 35 10 35 8.9375 33.3984375 C8.628125 32.73070312 8.31875 32.06296875 8 31.375 C7.6596875 30.6428125 7.319375 29.910625 6.96875 29.15625 C6.48921875 28.08890625 6.48921875 28.08890625 6 27 C5.505 25.96875 5.01 24.9375 4.5 23.875 C1.34205424 16.27838603 -1.94622538 8.19660303 0 0 Z " fill="#0A270B" transform="translate(90,325)"/>
<path d="M0 0 C6.70909091 2.60909091 6.70909091 2.60909091 9 4 C9.33 4.99 9.66 5.98 10 7 C10.66 7.33 11.32 7.66 12 8 C12 8.66 12 9.32 12 10 C12.53625 10.2475 13.0725 10.495 13.625 10.75 C16.5823982 12.30652537 19.29724051 14.03435673 22 16 C22 16.66 22 17.32 22 18 C22.61875 18.144375 23.2375 18.28875 23.875 18.4375 C26 19 26 19 28 20 C28 20.66 28 21.32 28 22 C28.680625 22.12375 29.36125 22.2475 30.0625 22.375 C33.4277412 23.09100877 36.70013425 24.02945125 40 25 C40 26.32 40 27.64 40 29 C35.91145277 28.32874598 32.61733971 26.23099211 29.125 24.125 C28.46951172 23.73006348 27.81402344 23.33512695 27.13867188 22.92822266 C17.23860401 16.82254801 7.85590371 9.60408502 0 1 C0 0.67 0 0.34 0 0 Z " fill="#42DC47" transform="translate(139,406)"/>
<path d="M0 0 C3 2 3 2 4 5.0625 C4.33 6.031875 4.66 7.00125 5 8 C5.99 8.33 6.98 8.66 8 9 C8 9.66 8 10.32 8 11 C9.7015625 11.433125 9.7015625 11.433125 11.4375 11.875 C12.613125 12.24625 13.78875 12.6175 15 13 C15.33 13.66 15.66 14.32 16 15 C18.02463255 15.65213292 18.02463255 15.65213292 20 16 C20 16.66 20 17.32 20 18 C20.66 17.67 21.32 17.34 22 17 C24.60490688 16.60391538 27.19774738 16.25182912 29.8125 15.9375 C30.52470703 15.84662109 31.23691406 15.75574219 31.97070312 15.66210938 C35.66768373 15.20725422 39.27472809 14.89021792 43 15 C42 17 42 17 38.92578125 18.09765625 C30.87655206 20.18434146 21.09784251 20.4894505 13.4375 17 C7.59735704 13.55303535 3.71222233 8.56833349 0 3 C0 2.01 0 1.02 0 0 Z " fill="#3BD840" transform="translate(234,308)"/>
<path d="M0 0 C0.33 0 0.66 0 1 0 C1.50734284 2.3736397 2.00602386 4.74857425 2.5 7.125 C2.64308594 7.79015625 2.78617187 8.4553125 2.93359375 9.140625 C3.7612283 13.16056422 4.15330658 16.89904899 4 21 C4.66 21 5.32 21 6 21 C6.15855469 21.77601563 6.31710938 22.55203125 6.48046875 23.3515625 C8.54035991 32.88851715 11.03126152 42.54156948 15.71875 51.16015625 C17.12470692 54.27640832 16.98458935 54.90658272 16 58 C12.02318525 50.69109342 9.25994789 43.33499833 6.875 35.375 C6.52953125 34.23579102 6.1840625 33.09658203 5.828125 31.92285156 C2.73198914 21.49702767 -0.26577812 10.96334733 0 0 Z " fill="#43D44C" transform="translate(86,299)"/>
<path d="M0 0 C1.36338269 4.09014807 -0.17819157 6.4585244 -1.875 10.1875 C-2.18945068 10.89003906 -2.50390137 11.59257812 -2.82788086 12.31640625 C-7.78666242 23.15748668 -13.46461912 33.72568507 -21 43 C-21.495 41.515 -21.495 41.515 -22 40 C-21.01439389 38.65599167 -20.01241685 37.32392972 -19 36 C-18.28566879 33.35065178 -18.28566879 33.35065178 -18 31 C-17.01 30.67 -16.02 30.34 -15 30 C-13.77030122 26.48809191 -13.77030122 26.48809191 -13 23 C-12.01 23.33 -11.02 23.66 -10 24 C-9.9175 23.34 -9.835 22.68 -9.75 22 C-8.94636923 18.78547693 -7.71048347 16.25872195 -6.1875 13.3359375 C-3.96608707 8.96618444 -2.00574974 4.47183548 0 0 Z " fill="#40DC4C" transform="translate(435,341)"/>
<path d="M0 0 C2.64 0 5.28 0 8 0 C8 0.66 8 1.32 8 2 C8.721875 2.103125 9.44375 2.20625 10.1875 2.3125 C13.27793421 3.06793947 15.41743841 4.15531315 18 6 C18 6.66 18 7.32 18 8 C18.639375 8.309375 19.27875 8.61875 19.9375 8.9375 C22 10 22 10 23 11 C23.66 7.7 24.32 4.4 25 1 C25.33 1 25.66 1 26 1 C26 6.61 26 12.22 26 18 C24.35 16.35 22.7 14.7 21 13 C15.71069777 8.4323979 10.35842154 4.87286284 4 2 C2.66433571 1.33801577 1.33038357 0.67253386 0 0 Z " fill="#34CD3D" transform="translate(273,217)"/>
<path d="M0 0 C5.0743986 0.65344368 9.3699813 2.82221873 13.9375 5 C14.77490723 5.39864258 15.61231445 5.79728516 16.47509766 6.20800781 C26.16930625 10.92290995 35.52318874 16.1093431 43 24 C42.01 24 41.02 24 40 24 C40 23.34 40 22.68 40 22 C39.01 22 38.02 22 37 22 C36.505 21.01 36.505 21.01 36 20 C35.01 19.7525 35.01 19.7525 34 19.5 C33.01 19.2525 33.01 19.2525 32 19 C31.67 18.34 31.34 17.68 31 17 C28.06769549 15.01871317 25.48897679 13.64610681 22 13 C22 12.34 22 11.68 22 11 C21.195625 10.773125 20.39125 10.54625 19.5625 10.3125 C16.58321783 9.21486973 14.26732192 8.04001436 11.5625 6.4375 C7.59821363 4.15299599 4.54565427 3.29014814 0 3 C0 2.01 0 1.02 0 0 Z " fill="#43DB4C" transform="translate(334,122)"/>
<path d="M0 0 C0.66 0 1.32 0 2 0 C1.75636719 1.35544922 1.75636719 1.35544922 1.5078125 2.73828125 C0.72976589 8.19972854 0.85506583 13.68234746 0.875 19.1875 C0.87113281 20.26708984 0.86726562 21.34667969 0.86328125 22.45898438 C0.86457031 23.49732422 0.86585938 24.53566406 0.8671875 25.60546875 C0.86831543 26.54543701 0.86944336 27.48540527 0.87060547 28.45385742 C0.98981268 30.79954052 1.4097738 32.74056759 2 35 C2.03888349 37.33300933 2.0448635 39.66709801 2 42 C-2.56031025 37.43968975 -2.25638725 30.06030981 -2.2734375 23.96484375 C-2.26570312 23.02769531 -2.25796875 22.09054687 -2.25 21.125 C-2.25773438 20.19558594 -2.26546875 19.26617187 -2.2734375 18.30859375 C-2.25581416 11.99062796 -1.46593433 6.14256539 0 0 Z " fill="#36D53E" transform="translate(229,259)"/>
<path d="M0 0 C2.91094295 0.64760304 5.47745927 1.5734832 8.1875 2.8125 C8.98414063 3.16957031 9.78078125 3.52664063 10.6015625 3.89453125 C12.08570248 4.57858925 13.56176535 5.28088268 15.0234375 6.01171875 C20.55996307 8.69513057 26.17478721 10.17590197 32.15258789 11.51757812 C36.70859001 12.5645992 40.74730842 14.05038944 45 16 C35.27535362 19.24154879 18.12815073 10.35633656 9.07324219 6.09277344 C5.97433582 4.5198041 2.96175869 2.81698904 0 1 C0 0.67 0 0.34 0 0 Z " fill="#3EC044" transform="translate(179,435)"/>
<path d="M0 0 C0.495 0.99 0.495 0.99 1 2 C-13.76821588 4.30872625 -28.10978399 3.87548795 -43 3 C-43 2.67 -43 2.34 -43 2 C-42.38705078 1.98018066 -41.77410156 1.96036133 -41.14257812 1.93994141 C-29.69566675 1.55252724 -18.41193871 1.03679901 -7.08203125 -0.6953125 C-4.30748916 -0.96960183 -2.55678271 -1.06176657 0 0 Z " fill="#0A3A0C" transform="translate(302,455)"/>
<path d="M0 0 C0.33 0 0.66 0 1 0 C1.17273438 1.258125 1.34546875 2.51625 1.5234375 3.8125 C3.32483289 15.25388605 6.35223399 23.54987109 13.05078125 33.0078125 C13.69402344 33.99523437 14.33726562 34.98265625 15 36 C14.67 36.66 14.34 37.32 14 38 C9.52364281 34.9489889 7.44100275 31.60822268 5.3125 26.75 C5.01794922 26.11964844 4.72339844 25.48929687 4.41992188 24.83984375 C1.50896225 18.41610813 -0.30320862 12.12834497 -0.125 5 C-0.10695312 4.05125 -0.08890625 3.1025 -0.0703125 2.125 C-0.04710937 1.42375 -0.02390625 0.7225 0 0 Z " fill="#37CB3E" transform="translate(205,290)"/>
<path d="M0 0 C0.02683987 2.97922593 0.04676037 5.95821295 0.0625 8.9375 C0.07087891 9.78763672 0.07925781 10.63777344 0.08789062 11.51367188 C0.09272461 12.72700195 0.09272461 12.72700195 0.09765625 13.96484375 C0.10551147 15.08814087 0.10551147 15.08814087 0.11352539 16.23413086 C0 18 0 18 -1 19 C-3.58984986 19.26608047 -6.15321016 19.46955835 -8.75 19.625 C-9.46671875 19.6765625 -10.1834375 19.728125 -10.921875 19.78125 C-14.79736818 20.02346832 -18.23622243 19.99280747 -22 19 C-22 18.67 -22 18.34 -22 18 C-12.1 17.505 -12.1 17.505 -2 17 C-2 12.05 -2 7.1 -2 2 C-4.31 2 -6.62 2 -9 2 C-9 1.67 -9 1.34 -9 1 C-2.25 0 -2.25 0 0 0 Z " fill="#074009" transform="translate(333,325)"/>
<path d="M0 0 C-0.66 0 -1.32 0 -2 0 C-2 0.66 -2 1.32 -2 2 C-13.23046875 6.4921875 -13.23046875 6.4921875 -15.19677734 7.27246094 C-16.72130114 7.88755448 -18.23163867 8.537634 -19.73828125 9.1953125 C-22 10 -22 10 -26 10 C-26 9.01 -26 8.02 -26 7 C-23.45884998 6.04027826 -20.91710543 5.08218506 -18.375 4.125 C-17.66214844 3.85558594 -16.94929687 3.58617188 -16.21484375 3.30859375 C-3.66812094 -1.41081575 -3.66812094 -1.41081575 0 0 Z " fill="#0A1509" transform="translate(213,115)"/>
<path d="M0 0 C4.02176219 0.27965747 8.04214275 0.57587292 12.0625 0.875 C13.19623047 0.95363281 14.32996094 1.03226562 15.49804688 1.11328125 C21.25882038 1.54995796 26.52919109 2.11022856 32 4 C32 4.33 32 4.66 32 5 C28.35394698 4.85936717 24.70821861 4.71153182 21.0625 4.5625 C20.04091797 4.52318359 19.01933594 4.48386719 17.96679688 4.44335938 C11.93409791 4.19279999 5.992295 3.74356945 0 3 C0 2.01 0 1.02 0 0 Z " fill="#071B07" transform="translate(275,106)"/>
<path d="M0 0 C4.21865814 1.58949442 6.73581826 4.76002622 9.625 8.0625 C12.89191126 12.04320254 12.89191126 12.04320254 17 15 C17 15.99 17 16.98 17 18 C13.24016339 17.43770301 11.58316426 15.90688582 9 13.1875 C8.34 12.50042969 7.68 11.81335938 7 11.10546875 C6.34 10.41066406 5.68 9.71585937 5 9 C4.27296875 8.31035156 3.5459375 7.62070312 2.796875 6.91015625 C0.66080578 4.6394218 0.33934811 3.05413303 0 0 Z " fill="#122613" transform="translate(123,392)"/>
<path d="M0 0 C0.88993652 0.3256897 0.88993652 0.3256897 1.79785156 0.65795898 C-2.89997259 6.59205265 -8.1886474 11.08246906 -14.20214844 15.65795898 C-14.53214844 14.33795898 -14.86214844 13.01795898 -15.20214844 11.65795898 C-13.13250667 9.62121615 -11.04855142 7.60432479 -8.95214844 5.59545898 C-8.365625 5.01473633 -7.77910156 4.43401367 -7.17480469 3.83569336 C-6.60117187 3.29106445 -6.02753906 2.74643555 -5.43652344 2.18530273 C-4.9128418 1.67733154 -4.38916016 1.16936035 -3.84960938 0.64599609 C-2.20214844 -0.34204102 -2.20214844 -0.34204102 0 0 Z " fill="#1E341E" transform="translate(397.2021484375,405.342041015625)"/>
<path d="M0 0 C0.66 0.99 1.32 1.98 2 3 C-0.79146856 4.47954075 -3.58320852 5.95856866 -6.375 7.4375 C-7.1690625 7.85837891 -7.963125 8.27925781 -8.78125 8.71289062 C-9.92207031 9.31713867 -9.92207031 9.31713867 -11.0859375 9.93359375 C-11.7876709 10.30540771 -12.4894043 10.67722168 -13.21240234 11.06030273 C-14.46795651 11.72031748 -15.73128862 12.36564431 -17 13 C-17 11.68 -17 10.36 -17 9 C-14.4375 7 -14.4375 7 -11 5 C-10.40058594 4.63519531 -9.80117187 4.27039063 -9.18359375 3.89453125 C-6.19614822 2.10722583 -3.46431441 0.55429031 0 0 Z " fill="#173116" transform="translate(186,123)"/>
<path d="M0 0 C4.95 0 9.9 0 15 0 C15.33 1.32 15.66 2.64 16 4 C10.72 4 5.44 4 0 4 C0 2.68 0 1.36 0 0 Z " fill="#254324" transform="translate(259,105)"/>
<path d="M0 0 C3.56731598 0.25569922 4.7583477 0.73306847 7.203125 3.43359375 C7.87859375 4.42488281 8.5540625 5.41617187 9.25 6.4375 C10.27867188 7.92056641 10.27867188 7.92056641 11.328125 9.43359375 C13 12 13 12 14 14 C12.68 14.33 11.36 14.66 10 15 C8.51586815 13.06613122 7.03762572 11.12821927 5.5625 9.1875 C5.14162109 8.64029297 4.72074219 8.09308594 4.28710938 7.52929688 C2.38855525 5.02320543 1.00193327 3.00579981 0 0 Z " fill="#224223" transform="translate(111,378)"/>
<path d="M0 0 C0.33 0.66 0.66 1.32 1 2 C-1.21137984 7.9499557 -6.88716315 11.6633073 -12.0625 14.9375 C-17.82247052 17.15495344 -24.91404803 16.21148096 -31 16 C-31 15.67 -31 15.34 -31 15 C-30.29875 14.96261719 -29.5975 14.92523438 -28.875 14.88671875 C-18.70347797 14.18189861 -11.70240773 11.81629003 -4 5 C-1.58172545 2.31663436 -1.58172545 2.31663436 0 0 Z " fill="#063D09" transform="translate(289,312)"/>
<path d="M0 0 C0.33 0 0.66 0 1 0 C2.00847986 7.71350815 2.03260841 14.9131912 1.1875 22.625 C1.10516113 23.40665527 1.02282227 24.18831055 0.93798828 24.99365234 C0.49379008 28.66692242 0.08328904 30.87506644 -2 34 C-2.13852709 26.20688938 -1.73633492 18.56889283 -1 10.8125 C-0.90460938 9.76513672 -0.80921875 8.71777344 -0.7109375 7.63867188 C-0.47836539 5.09200731 -0.24133075 2.54584685 0 0 Z " fill="#001201" transform="translate(448,278)"/>
<path d="M0 0 C0.33 0.66 0.66 1.32 1 2 C0.34 2 -0.32 2 -1 2 C-1 2.66 -1 3.32 -1 4 C-2.32 4.33 -3.64 4.66 -5 5 C-5 5.66 -5 6.32 -5 7 C-9.15384615 11.61538462 -9.15384615 11.61538462 -12.0625 12.9375 C-14.34326016 13.98165533 -14.34326016 13.98165533 -15.9375 17.125 C-16.618125 18.07375 -17.29875 19.0225 -18 20 C-20.75 20.375 -20.75 20.375 -23 20 C-20.2309121 16.31866585 -17.34133425 13.44069788 -13.75 10.5625 C-12.78964844 9.79164063 -11.82929688 9.02078125 -10.83984375 8.2265625 C-7.26834969 5.42635395 -3.66441657 2.67743904 0 0 Z " fill="#41D34B" transform="translate(159,142)"/>
<path d="M0 0 C1.61447958 4.03619895 0.19020382 6.9665315 -1 11 C-2.01440093 17.4697128 -2.27009142 24.02884609 -2.5625 30.5625 C-2.60568359 31.47580078 -2.64886719 32.38910156 -2.69335938 33.33007812 C-2.79811757 35.55327991 -2.90029017 37.77656707 -3 40 C-3.33 40 -3.66 40 -4 40 C-4.08800873 35.54179367 -4.14072922 31.08381461 -4.1875 26.625 C-4.21263672 25.37332031 -4.23777344 24.12164062 -4.26367188 22.83203125 C-4.32801236 14.63934313 -3.70393802 7.40787604 0 0 Z " fill="#35D83F" transform="translate(208,250)"/>
<path d="M0 0 C1.77682248 0.90500296 3.54626591 1.8245025 5.3125 2.75 C6.29863281 3.26046875 7.28476562 3.7709375 8.30078125 4.296875 C10.95450276 5.97129263 12.33102197 7.37976145 14 10 C13.67 10.66 13.34 11.32 13 12 C9.33601701 10.31029911 6.09167428 8.12699789 2.75 5.875 C1.67234375 5.15054688 0.5946875 4.42609375 -0.515625 3.6796875 C-1.33546875 3.12539062 -2.1553125 2.57109375 -3 2 C-2.01 1.34 -1.02 0.68 0 0 Z " fill="#153414" transform="translate(366,134)"/>
<path d="M0 0 C2.23396153 0.73760029 4.46136287 1.48942168 6.6875 2.25 C7.92886719 2.66765625 9.17023438 3.0853125 10.44921875 3.515625 C13.88935896 4.95374742 16.23760292 6.52810357 19 9 C11.11334228 8.63487696 4.51642681 6.92254412 -1 1 C-0.67 0.67 -0.34 0.34 0 0 Z " fill="#07270E" transform="translate(329,116)"/>
<path d="M0 0 C6.48122588 -0.18343092 12.59888223 0.5199668 19 1.5 C19.96550781 1.64308594 20.93101562 1.78617187 21.92578125 1.93359375 C24.28467335 2.28392426 26.64264545 2.6394935 29 3 C29 3.66 29 4.32 29 5 C19.17286886 4.45089248 9.6533309 2.81857774 0 1 C0 0.67 0 0.34 0 0 Z " fill="#41CC49" transform="translate(224,452)"/>
<path d="M0 0 C4.42323682 0.58265272 7.5155864 2.26766211 11.3125 4.5625 C12.38113281 5.20316406 13.44976562 5.84382813 14.55078125 6.50390625 C15.35902344 6.99761719 16.16726562 7.49132812 17 8 C15.02 8.99 15.02 8.99 13 10 C12.46375 9.566875 11.9275 9.13375 11.375 8.6875 C8.70680833 6.7916796 5.93680267 5.43715875 3 4 C2.01 3.34 1.02 2.68 0 2 C0 1.34 0 0.68 0 0 Z " fill="#051E05" transform="translate(168,431)"/>
<path d="M0 0 C2.12600304 3.18900456 3.02136239 5.90414569 4.125 9.5625 C4.47820312 10.71878906 4.83140625 11.87507813 5.1953125 13.06640625 C6 16 6 16 6 18 C5.01 18.33 4.02 18.66 3 19 C2.52715056 17.311252 2.05437649 15.62248285 1.58203125 13.93359375 C1.07279597 12.24183896 0.45122415 10.58473596 -0.1875 8.9375 C-1.11827467 5.57239158 -0.80121568 3.36510584 0 0 Z " fill="#0E300F" transform="translate(90,325)"/>
<path d="M0 0 C0.33 0 0.66 0 1 0 C1 6.6 1 13.2 1 20 C0.67 20 0.34 20 0 20 C-0.33 21.98 -0.66 23.96 -1 26 C-1.33 26 -1.66 26 -2 26 C-2.19266055 8.55351682 -2.19266055 8.55351682 -1 1 C-0.67 0.67 -0.34 0.34 0 0 Z " fill="#1C351C" transform="translate(449,265)"/>
<path d="M0 0 C0.59296875 0.21269531 1.1859375 0.42539062 1.796875 0.64453125 C-0.5940925 2.44302001 -2.99047362 4.23337209 -5.390625 6.01953125 C-6.06416016 6.52742188 -6.73769531 7.0353125 -7.43164062 7.55859375 C-10.90430505 10.13344738 -14.03854205 12.30216082 -18.203125 13.64453125 C-18.203125 12.65453125 -18.203125 11.66453125 -18.203125 10.64453125 C-16.883125 10.64453125 -15.563125 10.64453125 -14.203125 10.64453125 C-14.203125 9.65453125 -14.203125 8.66453125 -14.203125 7.64453125 C-12.223125 7.31453125 -10.243125 6.98453125 -8.203125 6.64453125 C-8.203125 5.98453125 -8.203125 5.32453125 -8.203125 4.64453125 C-2.96161877 -0.47784984 -2.96161877 -0.47784984 0 0 Z " fill="#43CF4A" transform="translate(382.203125,415.35546875)"/>
<path d="M0 0 C-8.07744875 6.70387244 -8.07744875 6.70387244 -14 7 C-14 6.34 -14 5.68 -14 5 C-14.66 4.67 -15.32 4.34 -16 4 C-14.08959948 3.1319092 -12.17139263 2.28098217 -10.25 1.4375 C-9.18265625 0.96183594 -8.1153125 0.48617188 -7.015625 -0.00390625 C-4.01630163 -0.9946154 -2.86578759 -1.16161779 0 0 Z " fill="#203A20" transform="translate(352,439)"/>
<path d="M0 0 C1.83330029 5.49990086 -1.56537468 10.98926991 -4 16 C-6.10932415 18.9313082 -8.3888421 21.50924131 -11 24 C-11.66 22.68 -12.32 21.36 -13 20 C-11.68 20 -10.36 20 -9 20 C-8.5978125 18.88625 -8.5978125 18.88625 -8.1875 17.75 C-7 15 -7 15 -5.52734375 13.15234375 C-3.81158581 10.73448537 -3.14204742 8.66574783 -2.375 5.8125 C-1.08853119 1.08853119 -1.08853119 1.08853119 0 0 Z " fill="#3DDB44" transform="translate(294,296)"/>
<path d="M0 0 C-1 3 -1 3 -3.3984375 4.203125 C-4.38070313 4.54859375 -5.36296875 4.8940625 -6.375 5.25 C-7.35210937 5.60578125 -8.32921875 5.9615625 -9.3359375 6.328125 C-12 7 -12 7 -15 6 C-15 5.34 -15 4.68 -15 4 C-13.25307205 3.32532438 -11.50231475 2.66055844 -9.75 2 C-8.77546875 1.62875 -7.8009375 1.2575 -6.796875 0.875 C-4 0 -4 0 0 0 Z " fill="#072308" transform="translate(338,444)"/>
<path d="M0 0 C0.66 0 1.32 0 2 0 C2.9765625 1.79036458 3.953125 3.58072917 4.9296875 5.37109375 C5.91410024 7.16618315 5.91410024 7.16618315 8 8 C8.68025637 9.99541868 9.34490497 11.99617991 10 14 C10.556875 14.9075 11.11375 15.815 11.6875 16.75 C12.120625 17.4925 12.55375 18.235 13 19 C12.67 19.66 12.34 20.32 12 21 C0 3.38297872 0 3.38297872 0 0 Z " fill="#45D74D" transform="translate(103,358)"/>
<path d="M0 0 C0.33 0 0.66 0 1 0 C1.28571429 8.57142857 1.28571429 8.57142857 -1 12 C-1.66 12 -2.32 12 -3 12 C-3 14.64 -3 17.28 -3 20 C-3.66 19.67 -4.32 19.34 -5 19 C-4.48378772 12.16018724 -2.51409031 6.36123316 0 0 Z " fill="#39D943" transform="translate(94,229)"/>
<path d="M0 0 C-1.5692787 3.65880741 -3.8319796 6.25527628 -6.5 9.1875 C-7.2940625 10.06792969 -8.088125 10.94835937 -8.90625 11.85546875 C-11 14 -11 14 -13 15 C-12.3125 12.125 -12.3125 12.125 -11 9 C-8.375 7.625 -8.375 7.625 -6 7 C-6 6.01 -6 5.02 -6 4 C-2.57142857 0 -2.57142857 0 0 0 Z " fill="#3FD54B" transform="translate(408,390)"/>
<path d="M0 0 C0.90596924 0.02094727 1.81193848 0.04189453 2.74536133 0.06347656 C4.21972656 0.0828125 4.21972656 0.0828125 5.72387695 0.10253906 C6.74803711 0.13605469 7.77219727 0.16957031 8.82739258 0.20410156 C10.38103516 0.23117188 10.38103516 0.23117188 11.96606445 0.25878906 C14.52493541 0.30595719 17.081951 0.37176099 19.63989258 0.45410156 C19.96989258 1.11410156 20.29989258 1.77410156 20.63989258 2.45410156 C19.51711914 2.43089844 18.3943457 2.40769531 17.23754883 2.38378906 C9.41002833 2.27197982 2.22462596 2.24763367 -5.36010742 4.45410156 C-3.04824808 0.58650475 -3.04824808 0.58650475 0 0 Z " fill="#064207" transform="translate(252.360107421875,231.5458984375)"/>
<path d="M0 0 C0.33 0.66 0.66 1.32 1 2 C-3.455 2.495 -3.455 2.495 -8 3 C-8 2.34 -8 1.68 -8 1 C-8.99 1.33 -9.98 1.66 -11 2 C-12.56118428 2.06740865 -14.1250252 2.08514456 -15.6875 2.0625 C-16.89986328 2.04896484 -16.89986328 2.04896484 -18.13671875 2.03515625 C-19.05904297 2.01775391 -19.05904297 2.01775391 -20 2 C-20 1.67 -20 1.34 -20 1 C-17.41765641 0.63667026 -14.83460218 0.28405133 -12.25 -0.0625 C-11.52039063 -0.16626953 -10.79078125 -0.27003906 -10.0390625 -0.37695312 C-6.42911365 -0.85281002 -3.45624954 -1.22768284 0 0 Z " fill="#174617" transform="translate(302,455)"/>
<path d="M0 0 C0.66 0.33 1.32 0.66 2 1 C0.61469871 4.42717768 -0.67477227 5.7293493 -4 7.3125 C-4.70125 7.65925781 -5.4025 8.00601562 -6.125 8.36328125 C-7.053125 8.67845703 -7.053125 8.67845703 -8 9 C-8.66 8.67 -9.32 8.34 -10 8 C-8.7820245 4.34607349 -7.85603494 4.04168301 -4.5625 2.25 C-3.75941406 1.80140625 -2.95632813 1.3528125 -2.12890625 0.890625 C-1.07509766 0.44976562 -1.07509766 0.44976562 0 0 Z " fill="#112D13" transform="translate(359,432)"/>
<path d="M0 0 C0.66 0 1.32 0 2 0 C1.38271885 3.38361519 0.13020282 5.52002561 -1.9375 8.25 C-2.46214844 8.95640625 -2.98679687 9.6628125 -3.52734375 10.390625 C-4.01332031 10.92171875 -4.49929687 11.4528125 -5 12 C-5.66 12 -6.32 12 -7 12 C-5.45052978 7.60983438 -3.33033996 3.33033996 0 0 Z " fill="#082409" transform="translate(115,182)"/>
<path d="M0 0 C4.39381209 0.50214995 6.83419795 1.92213689 10 5 C10.8125 7.25 10.8125 7.25 11 9 C6.65843079 8.49904971 4.10153923 5.89476995 1 3 C0.67 2.01 0.34 1.02 0 0 Z " fill="#0F280F" transform="translate(378,144)"/>
<path d="M0 0 C-2.22432218 1.32134971 -4.45383619 2.63211206 -6.6875 3.9375 C-7.31333984 4.31068359 -7.93917969 4.68386719 -8.58398438 5.06835938 C-12.04444449 7.07941211 -14.95510676 8.51275665 -19 9 C-17.6100869 6.22017379 -15.81341647 6.12536659 -13 5 C-12.67 4.34 -12.34 3.68 -12 3 C-10.0390625 1.89453125 -10.0390625 1.89453125 -7.625 0.8125 C-6.83351563 0.44769531 -6.04203125 0.08289063 -5.2265625 -0.29296875 C-3 -1 -3 -1 0 0 Z " fill="#3FD452" transform="translate(364,430)"/>
<path d="M0 0 C0 0.99 0 1.98 0 3 C-6.5 6 -6.5 6 -11 6 C-11 5.01 -11 4.02 -11 3 C-9.73160474 2.49384702 -8.46016898 1.99530901 -7.1875 1.5 C-6.12595703 1.08234375 -6.12595703 1.08234375 -5.04296875 0.65625 C-3 0 -3 0 0 0 Z " fill="#0C2511" transform="translate(198,119)"/>
<path d="M0 0 C6.59904729 1.52785824 12.87389209 3.07617577 19 6 C15.35279446 7.21573518 13.74627037 6.6482856 10.0625 5.6875 C8.50208984 5.29111328 8.50208984 5.29111328 6.91015625 4.88671875 C4.41107343 4.12525325 2.27920977 3.25768443 0 2 C0 1.34 0 0.68 0 0 Z " fill="#44D94A" transform="translate(205,445)"/>
<path d="M0 0 C0 0.99 0 1.98 0 3 C-3.33333333 6 -3.33333333 6 -6 6 C-6 6.66 -6 7.32 -6 8 C-6.66 8 -7.32 8 -8 8 C-8.185625 9.2065625 -8.185625 9.2065625 -8.375 10.4375 C-8.58125 11.283125 -8.7875 12.12875 -9 13 C-9.99 13.495 -9.99 13.495 -11 14 C-11 13.34 -11 12.68 -11 12 C-11.66 11.67 -12.32 11.34 -13 11 C-12.38125 10.7525 -11.7625 10.505 -11.125 10.25 C-8.88273947 9.20710044 -8.88273947 9.20710044 -8.1875 7.1875 C-6.33723555 3.77911812 -3.19699812 2.08574209 0 0 Z " fill="#2B3728" transform="translate(152,143)"/>
<path d="M0 0 C1.32 0 2.64 0 4 0 C4.33 0.66 4.66 1.32 5 2 C6.97888961 2.72693904 8.97954558 3.39816251 11 4 C11 4.66 11 5.32 11 6 C12.98 6.66 14.96 7.32 17 8 C15.38671875 8.70703125 15.38671875 8.70703125 13 9 C10.01953125 7.63671875 10.01953125 7.63671875 6.8125 5.6875 C5.74644531 5.05199219 4.68039063 4.41648437 3.58203125 3.76171875 C1 2 1 2 0 0 Z " fill="#083C0B" transform="translate(226,333)"/>
<path d="M0 0 C2.03833424 1.2739589 4.03852126 2.61061923 6 4 C6 4.66 6 5.32 6 6 C7.32 6.66 8.64 7.32 10 8 C9.67 8.66 9.34 9.32 9 10 C8.34 9.34 7.68 8.68 7 8 C6.01 8 5.02 8 4 8 C1.3125 5.5 1.3125 5.5 -1 3 C-0.67 2.01 -0.34 1.02 0 0 Z " fill="#23331F" transform="translate(388,150)"/>
<path d="M0 0 C0.33 0 0.66 0 1 0 C1 5.61 1 11.22 1 17 C-2 14 -2 14 -2.109375 11.15234375 C-1.99078125 10.09144531 -1.8721875 9.03054687 -1.75 7.9375 C-1.64171875 6.87402344 -1.5334375 5.81054688 -1.421875 4.71484375 C-1 2 -1 2 0 0 Z " fill="#43EB4B" transform="translate(298,218)"/>
<path d="M0 0 C1.98 0.495 1.98 0.495 4 1 C3.67 1.33 3.34 1.66 3 2 C9.27 2.33 15.54 2.66 22 3 C22 3.33 22 3.66 22 4 C14.41 4 6.82 4 -1 4 C-0.67 2.68 -0.34 1.36 0 0 Z " fill="#34EF3F" transform="translate(249,211)"/>
<path d="M0 0 C3.86715038 2.12246797 6.74405677 4.52746145 9.8125 7.6875 C10.60269531 8.49574219 11.39289063 9.30398437 12.20703125 10.13671875 C13.09455078 11.05904297 13.09455078 11.05904297 14 12 C13.67 12.66 13.34 13.32 13 14 C12.4225 13.360625 11.845 12.72125 11.25 12.0625 C9.01937599 10.01776132 7.92563609 9.41794801 5 9 C4.9175 8.401875 4.835 7.80375 4.75 7.1875 C3.79451097 4.400657 2.3549152 3.67123014 0 2 C0 1.34 0 0.68 0 0 Z " fill="#3ED944" transform="translate(387,154)"/>
<path d="M0 0 C0.33 0.66 0.66 1.32 1 2 C-7.03571429 4.27678571 -7.03571429 4.27678571 -11 3 C-11 2.34 -11 1.68 -11 1 C-3.29268293 -1.51969981 -3.29268293 -1.51969981 0 0 Z " fill="#213420" transform="translate(222,112)"/>
<path d="M0 0 C2.97 1.65 5.94 3.3 9 5 C8.01 5.495 8.01 5.495 7 6 C6.67 6.66 6.34 7.32 6 8 C2.535 6.02 2.535 6.02 -1 4 C-0.67 2.68 -0.34 1.36 0 0 Z " fill="#1B361E" transform="translate(161,425)"/>
<path d="M0 0 C4.08378283 0.74250597 8.01939223 1.82923301 12 3 C12 4.32 12 5.64 12 7 C8.80862651 6.36747553 6.48762632 5.24396936 3.75 3.5 C3.04359375 3.0565625 2.3371875 2.613125 1.609375 2.15625 C1.07828125 1.7746875 0.5471875 1.393125 0 1 C0 0.67 0 0.34 0 0 Z " fill="#38E14D" transform="translate(167,428)"/>
<path d="M0 0 C1.1875 1.5625 1.1875 1.5625 2 4 C0.625 7.75 0.625 7.75 -1 11 C-1.66 11 -2.32 11 -3 11 C-3.32613618 6.32538149 -2.70582788 3.83325617 0 0 Z " fill="#172C18" transform="translate(99,208)"/>
<path d="M0 0 C0.66 0 1.32 0 2 0 C3.32421875 1.609375 3.32421875 1.609375 4.6875 3.75 C5.14511719 4.44609375 5.60273437 5.1421875 6.07421875 5.859375 C7.16906025 8.39090725 6.9435441 9.46100862 6 12 C6 11.34 6 10.68 6 10 C5.38125 9.773125 4.7625 9.54625 4.125 9.3125 C1.34340099 7.59445355 0.90440459 6.09004901 0 3 C0 2.01 0 1.02 0 0 Z " fill="#0C290B" transform="translate(107,368)"/>
<path d="M0 0 C-0.33 1.65 -0.66 3.3 -1 5 C-3.375 4.6875 -3.375 4.6875 -6 4 C-6.66 3.01 -7.32 2.02 -8 1 C-5.10765685 0.17361624 -3.11257569 0 0 0 Z " fill="#39E53D" transform="translate(141,400)"/>
<path d="M0 0 C0.66 0 1.32 0 2 0 C0.72792506 3.81622483 -0.68437448 4.76555671 -4 7 C-6.32386524 7.86122542 -8.57867568 8.43027663 -11 9 C-10.67 8.01 -10.34 7.02 -10 6 C-8.35 6 -6.7 6 -5 6 C-5 5.01 -5 4.02 -5 3 C-3.35 2.67 -1.7 2.34 0 2 C0 1.34 0 0.68 0 0 Z " fill="#0C4B0F" transform="translate(288,333)"/>
<path d="M0 0 C0.33 1.32 0.66 2.64 1 4 C-2.51187196 6.40814077 -4.72656908 7.36629408 -9 7 C-6.3765992 4.08511023 -3.28183606 2.11496102 0 0 Z " fill="#0A200F" transform="translate(168,132)"/>
<path d="M0 0 C0.33 0 0.66 0 1 0 C0.48594831 4.96916636 -0.23384882 9.29026351 -2 14 C-2.33 14 -2.66 14 -3 14 C-3.0270043 12.54176788 -3.04639787 11.08339325 -3.0625 9.625 C-3.07410156 8.81289063 -3.08570313 8.00078125 -3.09765625 7.1640625 C-3 5 -3 5 -2 3 C-1.34 3 -0.68 3 0 3 C0 2.01 0 1.02 0 0 Z " fill="#0B1D0C" transform="translate(440,334)"/>
<path d="M0 0 C3.65316671 1.24976756 4.78065836 1.67098753 7 5 C6.67 5.66 6.34 6.32 6 7 C3.11562221 5.70700306 1.12780579 4.34058637 -1 2 C-0.67 1.34 -0.34 0.68 0 0 Z " fill="#254224" transform="translate(373,139)"/>
<path d="M0 0 C0 0.66 0 1.32 0 2 C0.99 2.33 1.98 2.66 3 3 C-1.40914783 4.10228696 -5.48382401 4.07654536 -10 4 C-6.64877401 1.34213111 -4.39380802 0 0 0 Z " fill="#102B0F" transform="translate(229,109)"/>
<path d="M0 0 C3.37503669 1.1858237 5.64722731 2.27573689 8 5 C7.67 5.99 7.34 6.98 7 8 C3.83282717 6.41641358 2.26731682 5.54736301 0.6875 2.3125 C0.460625 1.549375 0.23375 0.78625 0 0 Z " fill="#0C280B" transform="translate(153,420)"/>
<path d="M0 0 C0.66 0 1.32 0 2 0 C5 3.46153846 5 3.46153846 5 6 C5.639375 6.2475 6.27875 6.495 6.9375 6.75 C9 8 9 8 9.62890625 10.078125 C9.81259766 11.02945312 9.81259766 11.02945312 10 12 C2.15820312 5.5546875 2.15820312 5.5546875 0 2 C0 1.34 0 0.68 0 0 Z " fill="#40DB4D" transform="translate(122,387)"/>
<path d="M0 0 C3.01111938 4.51667907 3.10067926 7.6639991 3 13 C2.34 13 1.68 13 1 13 C-0.10228696 8.59085217 -0.07654536 4.51617599 0 0 Z " fill="#021405" transform="translate(443,238)"/>
<path d="M0 0 C-0.83144531 0.81404297 -0.83144531 0.81404297 -1.6796875 1.64453125 C-2.76636719 2.71767578 -2.76636719 2.71767578 -3.875 3.8125 C-4.59429687 4.52019531 -5.31359375 5.22789062 -6.0546875 5.95703125 C-8.15358937 8.04399194 -8.15358937 8.04399194 -10 11 C-9.43453326 7.04173281 -8.36453668 4.240291 -6 1 C-2.57142857 -1.28571429 -2.57142857 -1.28571429 0 0 Z " fill="#3ACF46" transform="translate(227,226)"/>
<path d="M0 0 C2 1.625 2 1.625 4 4 C4.25 7.25 4.25 7.25 4 10 C1 8 1 8 0.48828125 6.0546875 C0.32552083 4.03645833 0.16276042 2.01822917 0 0 Z " fill="#08250B" transform="translate(434,214)"/>
<path d="M0 0 C1.890625 0.24609375 1.890625 0.24609375 4 1 C5.046875 2.84765625 5.046875 2.84765625 5.75 5.0625 C5.99234375 5.79597656 6.2346875 6.52945313 6.484375 7.28515625 C6.65453125 7.85105469 6.8246875 8.41695312 7 9 C3.64564078 7.61198929 1.88709697 6.11371 0 3 C0 2.01 0 1.02 0 0 Z " fill="#072307" transform="translate(413,179)"/>
<path d="M0 0 C0.66 0 1.32 0 2 0 C2.33 1.32 2.66 2.64 3 4 C1.68 4.99 0.36 5.98 -1 7 C-1.66 6.67 -2.32 6.34 -3 6 C-3 6.66 -3 7.32 -3 8 C-3.66 7.67 -4.32 7.34 -5 7 C-4.34 6.01 -3.68 5.02 -3 4 C-2.34 4 -1.68 4 -1 4 C-0.67 2.68 -0.34 1.36 0 0 Z " fill="#1D331A" transform="translate(128,164)"/>
<path d="M0 0 C2.475 0.495 2.475 0.495 5 1 C5 1.66 5 2.32 5 3 C5.928125 3.2165625 5.928125 3.2165625 6.875 3.4375 C9 4 9 4 11 5 C10.67 5.99 10.34 6.98 10 8 C8.33055479 6.85821872 6.6645052 5.71147095 5 4.5625 C4.071875 3.92441406 3.14375 3.28632813 2.1875 2.62890625 C1.465625 2.09136719 0.74375 1.55382812 0 1 C0 0.67 0 0.34 0 0 Z " fill="#3ECC45" transform="translate(156,421)"/>
<path d="M0 0 C0.99 0.33 1.98 0.66 3 1 C0.03 3.64 -2.94 6.28 -6 9 C-6 6 -6 6 -4 3 C-3.01 3 -2.02 3 -1 3 C-0.67 2.01 -0.34 1.02 0 0 Z " fill="#46CC4F" transform="translate(391,406)"/>
<path d="M0 0 C2.32240046 2.85021875 3.93906527 5.46355091 5 9 C4.546875 11.15625 4.546875 11.15625 4 13 C3.13372601 11.40233897 2.28233535 9.79660056 1.4375 8.1875 C0.96183594 7.29417969 0.48617187 6.40085937 -0.00390625 5.48046875 C-1 3 -1 3 0 0 Z " fill="#42D148" transform="translate(98,344)"/>
<path d="M0 0 C-2 2 -2 2 -5.4765625 2.1953125 C-6.85950968 2.18201493 -8.24238654 2.15816232 -9.625 2.125 C-10.33140625 2.11597656 -11.0378125 2.10695313 -11.765625 2.09765625 C-13.51056098 2.07407603 -15.25532295 2.03820461 -17 2 C-17 1.67 -17 1.34 -17 1 C-16.24074219 0.93941406 -15.48148437 0.87882812 -14.69921875 0.81640625 C-13.70535156 0.73261719 -12.71148437 0.64882813 -11.6875 0.5625 C-10.70136719 0.48128906 -9.71523438 0.40007812 -8.69921875 0.31640625 C-1.56102784 -0.52034261 -1.56102784 -0.52034261 0 0 Z " fill="#126717" transform="translate(275,326)"/>
<path d="M0 0 C3.63 2.31 7.26 4.62 11 7 C9.68 7.33 8.36 7.66 7 8 C7 7.34 7 6.68 7 6 C4.03 5.505 4.03 5.505 1 5 C0.67 3.35 0.34 1.7 0 0 Z " fill="#043309" transform="translate(239,318)"/>
<path d="M0 0 C0.66 0.33 1.32 0.66 2 1 C2 4.63 2 8.26 2 12 C1.67 11.01 1.34 10.02 1 9 C0.34 9 -0.32 9 -1 9 C-1.625 6.1875 -1.625 6.1875 -2 3 C-1.34 2.01 -0.68 1.02 0 0 Z " fill="#35EF42" transform="translate(443,254)"/>
<path d="M0 0 C0.99 0 1.98 0 3 0 C3 2 3 2 0.6875 4.375 C-0.199375 5.24125 -1.08625 6.1075 -2 7 C-3.02813611 8.31175986 -4.04084432 9.6369893 -5 11 C-4.67 9.02 -4.34 7.04 -4 5 C-3.34 5 -2.68 5 -2 5 C-1.7834375 4.0409375 -1.7834375 4.0409375 -1.5625 3.0625 C-1 1 -1 1 0 0 Z " fill="#032C04" transform="translate(238,239)"/>
<path d="M0 0 C0 3.62453269 -0.92469613 5.07920195 -3 8 C-3.99 8.33 -4.98 8.66 -6 9 C-5.52797514 4.75177626 -3.03344482 2.80010291 0 0 Z " fill="#073809" transform="translate(224,228)"/>
<path d="M0 0 C3.11547441 0.67883043 5.85137721 1.74106902 8.75 3.0625 C9.54921875 3.42472656 10.3484375 3.78695313 11.171875 4.16015625 C11.77515625 4.43730469 12.3784375 4.71445312 13 5 C10.34501768 6.0169313 9.30844625 6.13022151 6.640625 5.00390625 C5.85171875 4.52824219 5.0628125 4.05257813 4.25 3.5625 C3.45078125 3.08941406 2.6515625 2.61632812 1.828125 2.12890625 C1.22484375 1.75636719 0.6215625 1.38382812 0 1 C0 0.67 0 0.34 0 0 Z " fill="#44CE4D" transform="translate(179,435)"/>
<path d="M0 0 C1 2 1 2 0.44140625 3.9453125 C0.15136719 4.66460937 -0.13867188 5.38390625 -0.4375 6.125 C-0.72496094 6.84945313 -1.01242187 7.57390625 -1.30859375 8.3203125 C-1.53675781 8.87460937 -1.76492188 9.42890625 -2 10 C-2.66 10 -3.32 10 -4 10 C-4.41176754 6.39703406 -4.1535853 5.21597933 -2 2.1875 C-1.34 1.465625 -0.68 0.74375 0 0 Z " fill="#0B2507" transform="translate(428,362)"/>
<path d="M0 0 C0.33 0 0.66 0 1 0 C1.33 2.97 1.66 5.94 2 9 C1.34 9 0.68 9 0 9 C-0.33 10.98 -0.66 12.96 -1 15 C-2.19126781 11.42619658 -1.7349445 9.49116698 -1.0625 5.8125 C-0.86785156 4.72582031 -0.67320312 3.63914062 -0.47265625 2.51953125 C-0.31667969 1.68808594 -0.16070312 0.85664063 0 0 Z " fill="#165919" transform="translate(445,305)"/>
<path d="M0 0 C0.99 0 1.98 0 3 0 C1.7874262 3.72433382 0.49140021 7.37802806 -1 11 C-1.33 11 -1.66 11 -2 11 C-1.125 3.375 -1.125 3.375 0 0 Z " fill="#3CD343" transform="translate(213,237)"/>
<path d="M0 0 C2.62187494 1.04874998 3.79371361 1.64931313 5.25 4.125 C5.4975 4.74375 5.745 5.3625 6 6 C5.01 6.33 4.02 6.66 3 7 C0 3.375 0 3.375 0 0 Z " fill="#183019" transform="translate(409,173)"/>
<path d="M0 0 C5.01113235 1.4317521 6.94469549 3.98445693 10 8 C8.68 7.67 7.36 7.34 6 7 C6 6.34 6 5.68 6 5 C4.68 4.67 3.36 4.34 2 4 C2 3.34 2 2.68 2 2 C1.34 2 0.68 2 0 2 C0 1.34 0 0.68 0 0 Z " fill="#43D748" transform="translate(377,146)"/>
<path d="M0 0 C0.99 0 1.98 0 3 0 C2.34 1.65 1.68 3.3 1 5 C-0.65 5 -2.3 5 -4 5 C-2.1875 2.5 -2.1875 2.5 0 0 Z " fill="#152D16" transform="translate(400,400)"/>
<path d="M0 0 C0.33 0.66 0.66 1.32 1 2 C0.33333333 3.66666667 -0.33333333 5.33333333 -1 7 C-1.3813074 9.32597511 -1.72460254 11.65912158 -2 14 C-2.33 14 -2.66 14 -3 14 C-3.08114106 12.22992286 -3.13925505 10.45877902 -3.1875 8.6875 C-3.22230469 7.70136719 -3.25710937 6.71523438 -3.29296875 5.69921875 C-3 3 -3 3 -1.48828125 1.14453125 C-0.99714844 0.76683594 -0.50601563 0.38914063 0 0 Z " fill="#063B06" transform="translate(230,255)"/>
<path d="M0 0 C1.32 0.33 2.64 0.66 4 1 C2.8125 3 2.8125 3 1 5 C-1.6875 5.25 -1.6875 5.25 -4 5 C-2.68 3.35 -1.36 1.7 0 0 Z " fill="#38DB45" transform="translate(140,157)"/>
<path d="M0 0 C-2 2 -2 2 -3.9453125 2.1953125 C-5.96354167 2.13020833 -7.98177083 2.06510417 -10 2 C-10 1.34 -10 0.68 -10 0 C-6.30581799 -1.231394 -3.7943739 -0.64432764 0 0 Z " fill="#011A04" transform="translate(239,109)"/>
<path d="M0 0 C1.32 0.99 2.64 1.98 4 3 C3.67 4.32 3.34 5.64 3 7 C1.35 5.35 -0.3 3.7 -2 2 C-1.34 2 -0.68 2 0 2 C0 1.34 0 0.68 0 0 Z " fill="#183518" transform="translate(140,408)"/>
<path d="M0 0 C3.16115776 1.36983503 3.9927092 1.9890638 6 5 C5.34 5.66 4.68 6.32 4 7 C1 5 1 5 0.3125 2.375 C0.209375 1.59125 0.10625 0.8075 0 0 Z " fill="#082009" transform="translate(123,392)"/>
<path d="M0 0 C0.33 0 0.66 0 1 0 C1.125 7.625 1.125 7.625 0 11 C-0.66 11 -1.32 11 -2 11 C-1 3.57142857 -1 3.57142857 0 0 Z " fill="#001102" transform="translate(445,314)"/>
<path d="M0 0 C0.33 0 0.66 0 1 0 C0.67 2.97 0.34 5.94 0 9 C-0.99 8.67 -1.98 8.34 -3 8 C-1.125 2.25 -1.125 2.25 0 0 Z " fill="#3BCE46" transform="translate(234,248)"/>
<path d="M0 0 C3.625 0.375 3.625 0.375 7 1 C5.515 2.485 5.515 2.485 4 4 C2.02 3.34 0.04 2.68 -2 2 C-1.34 1.34 -0.68 0.68 0 0 Z " fill="#092A0D" transform="translate(217,451)"/>
<path d="M0 0 C-0.33 0.99 -0.66 1.98 -1 3 C-3.5625 4.1875 -3.5625 4.1875 -6 5 C-6.33 4.34 -6.66 3.68 -7 3 C-4.49955934 -0.00052879 -4.2621484 0 0 0 Z " fill="#0C190C" transform="translate(367,430)"/>
<path d="M0 0 C0.66 0.33 1.32 0.66 2 1 C-0.97 3.475 -0.97 3.475 -4 6 C-4.33 4.68 -4.66 3.36 -5 2 C-2.625 0.9375 -2.625 0.9375 0 0 Z " fill="#3A4237" transform="translate(387,415)"/>
<path d="M0 0 C4.875 2.75 4.875 2.75 6 5 C4.68 5.33 3.36 5.66 2 6 C0 3 0 3 0 0 Z " fill="#162D19" transform="translate(119,387)"/>
<path d="M0 0 C0.66 0 1.32 0 2 0 C2.33 0.99 2.66 1.98 3 3 C4.49985609 4.66710346 4.49985609 4.66710346 6 6 C5.67 6.99 5.34 7.98 5 9 C0.57142857 3.85714286 0.57142857 3.85714286 0 0 Z " fill="#053909" transform="translate(301,331)"/>
<path d="M0 0 C0.66 0.66 1.32 1.32 2 2 C1.625 5.125 1.625 5.125 1 8 C0.01 8 -0.98 8 -2 8 C-1.47731534 5.23723823 -0.89130413 2.6739124 0 0 Z " fill="#0C1C0E" transform="translate(95,217)"/>
<path d="M0 0 C0.7425 0.0825 1.485 0.165 2.25 0.25 C-1.07307692 4.18846154 -1.07307692 4.18846154 -4.5 4.5 C-5.2425 4.4175 -5.985 4.335 -6.75 4.25 C-3.42692308 0.31153846 -3.42692308 0.31153846 0 0 Z " fill="#132D14" transform="translate(160.75,138.75)"/>
<path d="M0 0 C3.96 1.98 3.96 1.98 8 4 C8 4.33 8 4.66 8 5 C5.125 5.125 5.125 5.125 2 5 C1.34 4.34 0.68 3.68 0 3 C0 2.01 0 1.02 0 0 Z " fill="#041503" transform="translate(340,120)"/>
<path d="M0 0 C0.33 0.99 0.66 1.98 1 3 C-2.63 2.34 -6.26 1.68 -10 1 C-10 0.67 -10 0.34 -10 0 C-3.375 -1.125 -3.375 -1.125 0 0 Z " fill="#0C310C" transform="translate(322,114)"/>
<path d="M0 0 C2.625 0.9375 2.625 0.9375 5 2 C4.67 2.99 4.34 3.98 4 5 C-0.875 3.25 -0.875 3.25 -2 1 C-1.34 0.67 -0.68 0.34 0 0 Z " fill="#192E15" transform="translate(185,439)"/>
<path d="M0 0 C0.99 0 1.98 0 3 0 C1.9024777 2.99324263 1.32317108 3.84610901 -1.625 5.25 C-2.40875 5.4975 -3.1925 5.745 -4 6 C-4 5.01 -4 4.02 -4 3 C-2.68 3 -1.36 3 0 3 C0 2.01 0 1.02 0 0 Z " fill="#43DF4C" transform="translate(368,423)"/>
<path d="M0 0 C0.66 0.99 1.32 1.98 2 3 C1.5390625 5.04296875 1.5390625 5.04296875 0.625 7.1875 C0.32851563 7.90292969 0.03203125 8.61835938 -0.2734375 9.35546875 C-0.51320313 9.89816406 -0.75296875 10.44085938 -1 11 C-2.26467795 8.47064411 -1.7249339 7.65809097 -1 5 C-1 4.01 -1 3.02 -1 2 C-0.67 1.34 -0.34 0.68 0 0 Z " fill="#264422" transform="translate(429,358)"/>
<path d="M0 0 C0.66 0.33 1.32 0.66 2 1 C0.29374499 3.78388975 -0.47626739 4.85384206 -3.6875 5.75 C-4.8321875 5.87375 -4.8321875 5.87375 -6 6 C-4 4 -2 2 0 0 Z " fill="#0A3C09" transform="translate(231,222)"/>
<path d="M0 0 C1.65 1.65 3.3 3.3 5 5 C4 7 4 7 2 8 C0.23537317 4.91190305 0 3.76687864 0 0 Z " fill="#1E3720" transform="translate(418,184)"/>
<path d="M0 0 C-5.625 4 -5.625 4 -9 4 C-9 3.34 -9 2.68 -9 2 C-3.375 -1.125 -3.375 -1.125 0 0 Z " fill="#47CF48" transform="translate(364,430)"/>
<path d="M0 0 C3.875 1.75 3.875 1.75 5 4 C4.34 4 3.68 4 3 4 C2.67 4.66 2.34 5.32 2 6 C1.34 5.34 0.68 4.68 0 4 C0 2.68 0 1.36 0 0 Z " fill="#0F3611" transform="translate(128,397)"/>
<path d="M0 0 C0.99 0 1.98 0 3 0 C2.34 2.97 1.68 5.94 1 9 C0.67 9 0.34 9 0 9 C0 6.03 0 3.06 0 0 Z " fill="#083008" transform="translate(92,225)"/>
<path d="M0 0 C-2.35953094 2.35953094 -3.77895617 2.49141413 -7 3 C-7 2.01 -7 1.02 -7 0 C-4.3333581 -1.33332095 -2.83319697 -0.67102033 0 0 Z " fill="#042208" transform="translate(205,118)"/>
</svg>
