<?xml version="1.0" encoding="UTF-8"?>
<svg version="1.1" xmlns="http://www.w3.org/2000/svg" width="557" height="563">
<path d="M0 0 C1.14194824 0.06993164 2.28389648 0.13986328 3.46044922 0.21191406 C9.5841938 0.6607562 15.12065094 1.50267691 20.94116211 3.48754883 C23.22116373 4.21832185 25.45351333 4.66462052 27.8125 5.0625 C37.97552822 6.98610156 47.79339777 10.80146646 57.125 15.1875 C57.80175781 15.46980469 58.47851562 15.75210938 59.17578125 16.04296875 C64.07820412 18.09535419 68.69946509 20.55493985 73.3125 23.1875 C73.89475342 23.51975586 74.47700684 23.85201172 75.0769043 24.19433594 C80.87642282 27.55077944 86.34385906 31.29818711 91.75 35.25 C92.67039062 35.92160156 93.59078125 36.59320313 94.5390625 37.28515625 C95.39242188 37.91292969 96.24578125 38.54070312 97.125 39.1875 C97.89585937 39.72246094 98.66671875 40.25742188 99.4609375 40.80859375 C100.01007813 41.26363281 100.55921875 41.71867187 101.125 42.1875 C101.125 42.8475 101.125 43.5075 101.125 44.1875 C102.02605469 44.33445312 102.02605469 44.33445312 102.9453125 44.484375 C105.56937764 45.33084763 106.33550787 46.27460063 108 48.4375 C110.73577541 51.82104087 113.77210907 54.40531391 117.125 57.1875 C122.125 62.46309055 122.125 62.46309055 122.125 65.1875 C123.115 65.5175 124.105 65.8475 125.125 66.1875 C125.125 67.1775 125.125 68.1675 125.125 69.1875 C125.96417969 69.4659375 125.96417969 69.4659375 126.8203125 69.75 C130.17740059 71.84391257 131.91793546 74.91522784 134 78.1875 C134.44126221 78.8688501 134.88252441 79.5502002 135.3371582 80.25219727 C136.21452386 81.61307172 137.08712354 82.97703237 137.95458984 84.34423828 C138.91132944 85.85099338 139.88492871 87.34703167 140.86328125 88.83984375 C145.52703562 96.19374215 148.80263358 104.1661292 152.125 112.1875 C152.59164063 113.29480469 153.05828125 114.40210938 153.5390625 115.54296875 C164.33942597 142.21257793 165.67046257 170.57675673 162.8125 198.875 C162.69503418 200.05731201 162.57756836 201.23962402 162.45654297 202.45776367 C161.80123007 208.33507508 160.91270551 213.7319091 158.80737305 219.27172852 C158.08031162 221.31296322 157.64707072 223.30941695 157.25 225.4375 C154.0720017 240.37150825 146.23639189 255.36777143 138.125 268.1875 C137.65578125 268.98800781 137.1865625 269.78851563 136.703125 270.61328125 C134.97297199 273.43548629 133.08420514 276.08206724 131.125 278.75 C130.444375 279.67941406 129.76375 280.60882813 129.0625 281.56640625 C128.423125 282.43136719 127.78375 283.29632813 127.125 284.1875 C126.58875 284.95964844 126.0525 285.73179687 125.5 286.52734375 C124.819375 287.34912109 124.819375 287.34912109 124.125 288.1875 C123.465 288.1875 122.805 288.1875 122.125 288.1875 C121.97804688 289.08855469 121.97804688 289.08855469 121.828125 290.0078125 C120.98165237 292.63187764 120.03789937 293.39800787 117.875 295.0625 C115.47068705 297.00838411 113.689352 298.7125117 111.6875 301.125 C106.05807583 307.8528484 98.98353971 312.88952115 91.95703125 318.07421875 C90.14104199 319.42932246 88.35345915 320.82387168 86.60546875 322.265625 C84.04700265 324.24793259 81.48609519 325.74310295 78.625 327.25 C75.88792616 328.69926522 73.18335964 330.15248422 70.52734375 331.74609375 C67.78070138 333.39407917 64.96711046 334.80496726 62.09375 336.21484375 C60.44333972 337.03022502 58.81272892 337.88551653 57.1875 338.75 C49.54955485 342.33515793 41.2055879 344.39569338 33.125 346.75 C31.58199219 347.20536133 31.58199219 347.20536133 30.0078125 347.66992188 C-3.20694979 357.36812537 -40.77354121 357.49267113 -73.875 347.1875 C-74.98875 346.8678125 -76.1025 346.548125 -77.25 346.21875 C-94.76223284 341.09724794 -113.04299849 333.00673398 -127.875 322.1875 C-127.875 321.5275 -127.875 320.8675 -127.875 320.1875 C-128.69677734 320.07341797 -128.69677734 320.07341797 -129.53515625 319.95703125 C-132.74413539 318.90165748 -134.74204799 317.05328873 -137.3125 314.875 C-138.23933594 314.09511719 -139.16617188 313.31523437 -140.12109375 312.51171875 C-141.02988281 311.74472656 -141.93867188 310.97773438 -142.875 310.1875 C-143.81472656 309.47207031 -144.75445312 308.75664062 -145.72265625 308.01953125 C-146.43292969 307.41496094 -147.14320313 306.81039063 -147.875 306.1875 C-147.875 305.5275 -147.875 304.8675 -147.875 304.1875 C-148.431875 303.960625 -148.98875 303.73375 -149.5625 303.5 C-152.5219509 301.82031165 -154.53626784 299.64616715 -156.875 297.1875 C-157.473125 296.630625 -158.07125 296.07375 -158.6875 295.5 C-159.875 294.1875 -159.875 294.1875 -159.875 292.1875 C-160.73544922 291.84525391 -160.73544922 291.84525391 -161.61328125 291.49609375 C-164.47884519 289.83812498 -166.02628793 287.85161429 -168.0625 285.25 C-168.75730469 284.37472656 -169.45210937 283.49945313 -170.16796875 282.59765625 C-171.875 280.1875 -171.875 280.1875 -172.875 277.1875 C-173.86385897 276.17648173 -174.86522076 275.17762417 -175.875 274.1875 C-193.06315683 249.29255899 -204.75067294 216.97791992 -204.86474609 186.74853516 C-204.87574335 184.00183857 -204.93109984 181.2578213 -204.98828125 178.51171875 C-205.14893076 168.51509175 -204.84559849 159.01835091 -202.875 149.1875 C-202.57796004 147.51090491 -202.28395709 145.83377029 -201.9921875 144.15625 C-199.54231406 130.32623973 -196.02496239 117.86162884 -189.875 105.1875 C-189.43365723 104.27411865 -189.43365723 104.27411865 -188.98339844 103.34228516 C-176.75155741 78.12577871 -176.75155741 78.12577871 -172.875 76.1875 C-172.38 74.7025 -172.38 74.7025 -171.875 73.1875 C-171.215 73.1875 -170.555 73.1875 -169.875 73.1875 C-169.66875 72.506875 -169.4625 71.82625 -169.25 71.125 C-167.44604973 67.27110625 -164.9739655 64.10962236 -161.875 61.1875 C-161.215 61.1875 -160.555 61.1875 -159.875 61.1875 C-159.215 59.8675 -158.555 58.5475 -157.875 57.1875 C-157.215 57.1875 -156.555 57.1875 -155.875 57.1875 C-155.215 55.8675 -154.555 54.5475 -153.875 53.1875 C-153.215 53.1875 -152.555 53.1875 -151.875 53.1875 C-151.215 51.8675 -150.555 50.5475 -149.875 49.1875 C-149.215 49.1875 -148.555 49.1875 -147.875 49.1875 C-147.215 47.8675 -146.555 46.5475 -145.875 45.1875 C-145.215 45.1875 -144.555 45.1875 -143.875 45.1875 C-143.545 44.1975 -143.215 43.2075 -142.875 42.1875 C-140.51171875 40.1796875 -140.51171875 40.1796875 -137.5625 38.0625 C-136.59699219 37.35867187 -135.63148438 36.65484375 -134.63671875 35.9296875 C-132.2461241 34.42161789 -130.62705355 33.61893832 -127.875 33.1875 C-127.875 32.5275 -127.875 31.8675 -127.875 31.1875 C-126.42553711 30.10595703 -126.42553711 30.10595703 -124.40234375 28.9453125 C-123.66693359 28.51863281 -122.93152344 28.09195313 -122.17382812 27.65234375 C-121.39458984 27.21019531 -120.61535156 26.76804688 -119.8125 26.3125 C-118.68424805 25.66087891 -118.68424805 25.66087891 -117.53320312 24.99609375 C-116.03519238 24.13230573 -114.53479265 23.27264696 -113.03198242 22.41723633 C-111.64554644 21.62680305 -110.26256916 20.83025494 -108.8840332 20.02612305 C-105.39041627 17.99309334 -101.97453711 16.38355458 -98.16015625 15.03125 C-95.44036779 14.02702041 -92.79068899 12.88995566 -90.125 11.75 C-61.00811568 -0.3911228 -31.17066933 -2.0509773 0 0 Z " fill="#FED023" transform="translate(299.875,118.8125)"/>
<path d="M0 0 C7.7352354 7.14545205 10.96808941 13.49110521 11.49609375 23.9765625 C12.15502177 47.46364126 12.15502177 47.46364126 6.74609375 53.3046875 C6.22402344 53.789375 5.70195312 54.2740625 5.1640625 54.7734375 C4.6896875 55.37800781 4.2153125 55.98257813 3.7265625 56.60546875 C-0.94086867 62.52143776 -6.1733332 65.44213535 -12.8359375 68.7734375 C-13.8259375 69.4334375 -14.8159375 70.0934375 -15.8359375 70.7734375 C-14.5571875 71.0003125 -13.2784375 71.2271875 -11.9609375 71.4609375 C-1.49481132 73.82690637 7.75857543 79.5113361 13.9140625 88.3984375 C20.3527366 99.79161676 22.05099177 112.59105441 19.43359375 125.328125 C18.50086343 128.56412816 17.41874635 131.64910963 16.1640625 134.7734375 C15.8134375 135.65644531 15.4628125 136.53945313 15.1015625 137.44921875 C9.70142945 149.50576581 0.91529886 156.80964422 -11.1484375 161.5234375 C-23.30409444 165.64399917 -40.35960955 166.10953164 -52.296875 161.1796875 C-57.15799277 158.48737612 -61.52268156 155.2622006 -65.8359375 151.7734375 C-68.3109375 149.7934375 -68.3109375 149.7934375 -70.8359375 147.7734375 C-70.8359375 167.9034375 -70.8359375 188.0334375 -70.8359375 208.7734375 C-77.7659375 208.7734375 -84.6959375 208.7734375 -91.8359375 208.7734375 C-91.92873411 185.82421516 -92.00001847 162.87503839 -92.04318619 139.92566586 C-92.06376698 129.26865672 -92.09180144 118.61176666 -92.13769531 107.95483398 C-92.17770079 98.66076544 -92.20340286 89.3667832 -92.21229148 80.07263094 C-92.2174831 75.15639942 -92.22959081 70.24041466 -92.25885773 65.32426262 C-92.28624401 60.6859208 -92.29433617 56.04792466 -92.28836823 51.40950966 C-92.28945818 49.71776824 -92.29727264 48.02601384 -92.3127594 46.33434296 C-92.45999413 29.40423329 -90.06173901 14.0051616 -77.8359375 1.3984375 C-72.99631368 -3.3655672 -68.46211917 -6.20814816 -62.0234375 -8.3515625 C-60.55970703 -8.85042969 -60.55970703 -8.85042969 -59.06640625 -9.359375 C-39.67607214 -14.5645191 -16.05888732 -12.60821732 0 0 Z " fill="#080502" transform="translate(321.8359375,193.2265625)"/>
<path d="M0 0 C4.93504194 4.00390195 8.36450504 8.7746078 10.27734375 14.84765625 C11.06845863 23.92707934 11.6942706 34.06259646 6.27734375 41.84765625 C-0.60710064 49.8330543 -9.60664812 52.49885517 -19.72265625 53.84765625 C-23.79685485 54.10606208 -27.63597081 54.05199052 -31.72265625 53.84765625 C-31.72265625 59.45765625 -31.72265625 65.06765625 -31.72265625 70.84765625 C-30.35753906 70.80125 -28.99242187 70.75484375 -27.5859375 70.70703125 C-11.70509784 70.32373068 1.06470938 71.58748036 13.27734375 82.84765625 C20.29664778 91.20652212 18.84439879 104.09556085 18.02734375 114.34765625 C17.16696042 118.36277844 16.04250247 119.85829547 13.27734375 122.84765625 C12.33631127 124.19937053 11.39909366 125.55374528 10.46484375 126.91015625 C6.22682941 132.57863387 1.03453525 134.90403323 -5.72265625 136.84765625 C-16.59817141 137.8726436 -28.58508529 137.2322316 -37.72265625 130.72265625 C-45.93028406 123.50534551 -49.81072847 112.43018607 -50.94911957 101.71631622 C-51.29471504 96.16184756 -51.23365466 90.60524917 -51.18359375 85.04296875 C-51.18120235 83.26610448 -51.18030547 81.48923764 -51.18081665 79.71237183 C-51.1777128 76.01609113 -51.16132813 72.32020497 -51.13427734 68.62402344 C-51.10015095 63.90344343 -51.09265454 59.18329161 -51.09416771 54.46260262 C-51.09362246 50.80445323 -51.08263281 47.14639604 -51.06816483 43.48827744 C-51.0618372 41.74767629 -51.05786747 40.0070648 -51.05637741 38.26645279 C-51.05200955 35.83386872 -51.03443916 33.40172626 -51.01318359 30.96923828 C-51.01408997 30.2625853 -51.01499634 29.55593231 -51.01593018 28.8278656 C-50.9528694 23.85756705 -50.05814565 19.59797706 -48.72265625 14.84765625 C-48.06265625 14.84765625 -47.40265625 14.84765625 -46.72265625 14.84765625 C-46.59890625 13.94015625 -46.47515625 13.03265625 -46.34765625 12.09765625 C-45.26599994 6.47304345 -43.4912555 4.09436212 -38.72265625 0.84765625 C-26.73204467 -5.31086113 -11.84428427 -7.53403345 0 0 Z " fill="#FCCF24" transform="translate(301.72265625,203.15234375)"/>
<path d="M0 0 C1.14194824 0.06993164 2.28389648 0.13986328 3.46044922 0.21191406 C9.5841938 0.6607562 15.12065094 1.50267691 20.94116211 3.48754883 C23.22116373 4.21832185 25.45351333 4.66462052 27.8125 5.0625 C37.97552822 6.98610156 47.79339777 10.80146646 57.125 15.1875 C57.80175781 15.46980469 58.47851562 15.75210938 59.17578125 16.04296875 C64.07820412 18.09535419 68.69946509 20.55493985 73.3125 23.1875 C73.89475342 23.51975586 74.47700684 23.85201172 75.0769043 24.19433594 C80.87642282 27.55077944 86.34385906 31.29818711 91.75 35.25 C92.67039062 35.92160156 93.59078125 36.59320313 94.5390625 37.28515625 C95.39242188 37.91292969 96.24578125 38.54070312 97.125 39.1875 C97.89585937 39.72246094 98.66671875 40.25742188 99.4609375 40.80859375 C100.01007813 41.26363281 100.55921875 41.71867187 101.125 42.1875 C101.125 42.8475 101.125 43.5075 101.125 44.1875 C102.02605469 44.33445312 102.02605469 44.33445312 102.9453125 44.484375 C105.56937764 45.33084763 106.33550787 46.27460063 108 48.4375 C110.73577541 51.82104087 113.77210907 54.40531391 117.125 57.1875 C122.125 62.46309055 122.125 62.46309055 122.125 65.1875 C123.115 65.5175 124.105 65.8475 125.125 66.1875 C125.125 67.1775 125.125 68.1675 125.125 69.1875 C125.96417969 69.4659375 125.96417969 69.4659375 126.8203125 69.75 C130.17740059 71.84391257 131.91793546 74.91522784 134 78.1875 C134.44126221 78.8688501 134.88252441 79.5502002 135.3371582 80.25219727 C136.21452386 81.61307172 137.08712354 82.97703237 137.95458984 84.34423828 C138.91132944 85.85099338 139.88492871 87.34703167 140.86328125 88.83984375 C145.52703562 96.19374215 148.80263358 104.1661292 152.125 112.1875 C152.59164063 113.29480469 153.05828125 114.40210938 153.5390625 115.54296875 C164.33942597 142.21257793 165.67046257 170.57675673 162.8125 198.875 C162.69503418 200.05731201 162.57756836 201.23962402 162.45654297 202.45776367 C161.80123007 208.33507508 160.91270551 213.7319091 158.80737305 219.27172852 C158.08031162 221.31296322 157.64707072 223.30941695 157.25 225.4375 C154.0720017 240.37150825 146.23639189 255.36777143 138.125 268.1875 C137.65578125 268.98800781 137.1865625 269.78851563 136.703125 270.61328125 C134.97297199 273.43548629 133.08420514 276.08206724 131.125 278.75 C130.444375 279.67941406 129.76375 280.60882813 129.0625 281.56640625 C128.423125 282.43136719 127.78375 283.29632813 127.125 284.1875 C126.58875 284.95964844 126.0525 285.73179687 125.5 286.52734375 C124.819375 287.34912109 124.819375 287.34912109 124.125 288.1875 C123.465 288.1875 122.805 288.1875 122.125 288.1875 C121.97804688 289.08855469 121.97804688 289.08855469 121.828125 290.0078125 C120.98165237 292.63187764 120.03789937 293.39800787 117.875 295.0625 C115.47068705 297.00838411 113.689352 298.7125117 111.6875 301.125 C106.05807583 307.8528484 98.98353971 312.88952115 91.95703125 318.07421875 C90.14104199 319.42932246 88.35345915 320.82387168 86.60546875 322.265625 C84.04700265 324.24793259 81.48609519 325.74310295 78.625 327.25 C75.88792616 328.69926522 73.18335964 330.15248422 70.52734375 331.74609375 C67.78070138 333.39407917 64.96711046 334.80496726 62.09375 336.21484375 C60.44333972 337.03022502 58.81272892 337.88551653 57.1875 338.75 C49.54955485 342.33515793 41.2055879 344.39569338 33.125 346.75 C31.58199219 347.20536133 31.58199219 347.20536133 30.0078125 347.66992188 C-3.20694979 357.36812537 -40.77354121 357.49267113 -73.875 347.1875 C-74.98875 346.8678125 -76.1025 346.548125 -77.25 346.21875 C-94.76223284 341.09724794 -113.04299849 333.00673398 -127.875 322.1875 C-127.875 321.5275 -127.875 320.8675 -127.875 320.1875 C-128.69677734 320.07341797 -128.69677734 320.07341797 -129.53515625 319.95703125 C-132.74413539 318.90165748 -134.74204799 317.05328873 -137.3125 314.875 C-138.23933594 314.09511719 -139.16617188 313.31523437 -140.12109375 312.51171875 C-141.02988281 311.74472656 -141.93867188 310.97773438 -142.875 310.1875 C-143.81472656 309.47207031 -144.75445312 308.75664062 -145.72265625 308.01953125 C-146.43292969 307.41496094 -147.14320313 306.81039063 -147.875 306.1875 C-147.875 305.5275 -147.875 304.8675 -147.875 304.1875 C-148.431875 303.960625 -148.98875 303.73375 -149.5625 303.5 C-152.5219509 301.82031165 -154.53626784 299.64616715 -156.875 297.1875 C-157.473125 296.630625 -158.07125 296.07375 -158.6875 295.5 C-159.875 294.1875 -159.875 294.1875 -159.875 292.1875 C-160.73544922 291.84525391 -160.73544922 291.84525391 -161.61328125 291.49609375 C-164.47884519 289.83812498 -166.02628793 287.85161429 -168.0625 285.25 C-168.75730469 284.37472656 -169.45210937 283.49945313 -170.16796875 282.59765625 C-171.875 280.1875 -171.875 280.1875 -172.875 277.1875 C-173.86385897 276.17648173 -174.86522076 275.17762417 -175.875 274.1875 C-193.06315683 249.29255899 -204.75067294 216.97791992 -204.86474609 186.74853516 C-204.87574335 184.00183857 -204.93109984 181.2578213 -204.98828125 178.51171875 C-205.14893076 168.51509175 -204.84559849 159.01835091 -202.875 149.1875 C-202.57796004 147.51090491 -202.28395709 145.83377029 -201.9921875 144.15625 C-199.54231406 130.32623973 -196.02496239 117.86162884 -189.875 105.1875 C-189.43365723 104.27411865 -189.43365723 104.27411865 -188.98339844 103.34228516 C-176.75155741 78.12577871 -176.75155741 78.12577871 -172.875 76.1875 C-172.38 74.7025 -172.38 74.7025 -171.875 73.1875 C-171.215 73.1875 -170.555 73.1875 -169.875 73.1875 C-169.66875 72.506875 -169.4625 71.82625 -169.25 71.125 C-167.44604973 67.27110625 -164.9739655 64.10962236 -161.875 61.1875 C-161.215 61.1875 -160.555 61.1875 -159.875 61.1875 C-159.215 59.8675 -158.555 58.5475 -157.875 57.1875 C-157.215 57.1875 -156.555 57.1875 -155.875 57.1875 C-155.215 55.8675 -154.555 54.5475 -153.875 53.1875 C-153.215 53.1875 -152.555 53.1875 -151.875 53.1875 C-151.215 51.8675 -150.555 50.5475 -149.875 49.1875 C-149.215 49.1875 -148.555 49.1875 -147.875 49.1875 C-147.215 47.8675 -146.555 46.5475 -145.875 45.1875 C-145.215 45.1875 -144.555 45.1875 -143.875 45.1875 C-143.545 44.1975 -143.215 43.2075 -142.875 42.1875 C-140.51171875 40.1796875 -140.51171875 40.1796875 -137.5625 38.0625 C-136.59699219 37.35867187 -135.63148438 36.65484375 -134.63671875 35.9296875 C-132.2461241 34.42161789 -130.62705355 33.61893832 -127.875 33.1875 C-127.875 32.5275 -127.875 31.8675 -127.875 31.1875 C-126.42553711 30.10595703 -126.42553711 30.10595703 -124.40234375 28.9453125 C-123.66693359 28.51863281 -122.93152344 28.09195313 -122.17382812 27.65234375 C-121.39458984 27.21019531 -120.61535156 26.76804688 -119.8125 26.3125 C-118.68424805 25.66087891 -118.68424805 25.66087891 -117.53320312 24.99609375 C-116.03519238 24.13230573 -114.53479265 23.27264696 -113.03198242 22.41723633 C-111.64554644 21.62680305 -110.26256916 20.83025494 -108.8840332 20.02612305 C-105.39041627 17.99309334 -101.97453711 16.38355458 -98.16015625 15.03125 C-95.44036779 14.02702041 -92.79068899 12.88995566 -90.125 11.75 C-61.00811568 -0.3911228 -31.17066933 -2.0509773 0 0 Z M-33.8046875 2.28125 C-50.18353504 3.06680624 -66.45231306 6.73860006 -81.875 12.1875 C-82.84397217 12.51572754 -82.84397217 12.51572754 -83.83251953 12.85058594 C-99.24487836 18.0778147 -114.6650168 25.60739045 -127.875 35.1875 C-127.875 35.8475 -127.875 36.5075 -127.875 37.1875 C-128.56464844 37.40664062 -129.25429687 37.62578125 -129.96484375 37.8515625 C-133.63425091 39.53604203 -136.43350219 41.92083749 -139.4375 44.5625 C-140.04883789 45.09560791 -140.66017578 45.62871582 -141.29003906 46.17797852 C-151.5788356 55.24528018 -161.17428802 64.77272781 -168.875 76.1875 C-168.875 76.8475 -168.875 77.5075 -168.875 78.1875 C-169.535 78.1875 -170.195 78.1875 -170.875 78.1875 C-184.67834341 95.63774948 -193.33434862 118.48606744 -198.33886719 139.90869141 C-198.81654693 141.93904785 -199.33150165 143.96055242 -199.8515625 145.98046875 C-206.05116668 173.93662777 -202.44301682 205.49155184 -192.875 232.1875 C-192.59269531 233.06148437 -192.31039062 233.93546875 -192.01953125 234.8359375 C-183.79595084 259.32712458 -168.36297354 279.59852666 -150.875 298.1875 C-150.16988281 298.95835937 -149.46476562 299.72921875 -148.73828125 300.5234375 C-141.90679523 307.73228179 -133.94997345 313.46311814 -125.875 319.1875 C-125.29621094 319.60032227 -124.71742188 320.01314453 -124.12109375 320.43847656 C-104.21425645 334.45091346 -80.66545001 343.4024295 -56.875 348.1875 C-56.02019043 348.36482666 -55.16538086 348.54215332 -54.28466797 348.72485352 C-43.46271825 350.68999838 -32.59217504 350.62742468 -21.625 350.625 C-20.60232025 350.6260675 -19.5796405 350.62713501 -18.52597046 350.62823486 C-2.73338515 350.6044236 11.88337766 349.62732268 27.125 345.1875 C27.95805664 344.96288086 28.79111328 344.73826172 29.64941406 344.50683594 C53.42290375 338.08434777 76.148193 326.89244372 95.125 311.1875 C95.69460449 310.72472656 96.26420898 310.26195312 96.85107422 309.78515625 C110.72759623 298.48488233 121.93409661 285.87189656 132.125 271.1875 C132.74890625 270.3109375 133.3728125 269.434375 134.015625 268.53125 C152.37974506 241.41413813 160.34897466 209.09949201 160.375 176.75 C160.37567474 175.99427704 160.37634949 175.23855408 160.37704468 174.45993042 C160.3605162 162.78819968 159.78214128 151.58339567 157.125 140.1875 C156.95339355 139.40955078 156.78178711 138.63160156 156.60498047 137.83007812 C154.02631281 126.31709903 150.23706621 115.80146549 145.125 105.1875 C144.55068226 103.95968171 143.97646207 102.73181779 143.40234375 101.50390625 C128.58175856 70.68114025 104.03793685 45.96679848 75.125 28.1875 C74.01511719 27.45273438 74.01511719 27.45273438 72.8828125 26.703125 C65.26505438 21.80034642 56.90499773 18.53085929 48.52954102 15.16088867 C46.90454423 14.50306938 45.28527907 13.83093823 43.67163086 13.14575195 C37.76987741 10.67814608 31.93500709 8.97604104 25.6875 7.625 C24.73012939 7.41593018 23.77275879 7.20686035 22.78637695 6.99145508 C19.9024077 6.37361508 17.01495832 5.77662636 14.125 5.1875 C13.31321289 5.01798828 12.50142578 4.84847656 11.66503906 4.67382812 C-3.47944642 1.59251027 -18.42047804 1.91423109 -33.8046875 2.28125 Z " fill="#39352A" transform="translate(299.875,118.8125)"/>
<path d="M0 0 C1.14194824 0.06993164 2.28389648 0.13986328 3.46044922 0.21191406 C9.62251059 0.66356464 15.16175505 1.55405165 21.02978516 3.4987793 C23.45270677 4.2952209 25.85997939 4.77688439 28.375 5.1875 C32.37793002 5.9404022 35.5629805 7.15206028 39.125 9.1875 C39.90875 9.579375 40.6925 9.97125 41.5 10.375 C42.304375 10.7771875 42.304375 10.7771875 43.125 11.1875 C43.125 11.8475 43.125 12.5075 43.125 13.1875 C42.26003906 12.95675781 41.39507812 12.72601563 40.50390625 12.48828125 C31.73978821 10.21876041 22.94071198 8.27356425 14.0625 6.5 C12.99265869 6.28577393 11.92281738 6.07154785 10.82055664 5.85083008 C1.44106819 4.00088617 -7.37263898 3.01966267 -16.9375 3.0625 C-18.62129761 3.06975098 -18.62129761 3.06975098 -20.33911133 3.07714844 C-41.52342124 3.23053566 -61.86454059 6.11772082 -81.875 13.1875 C-82.84397217 13.51572754 -82.84397217 13.51572754 -83.83251953 13.85058594 C-98.13779261 18.70233743 -111.34585599 25.53963357 -123.87109375 33.97265625 C-125.875 35.1875 -125.875 35.1875 -127.875 35.1875 C-127.875 35.8475 -127.875 36.5075 -127.875 37.1875 C-129.41203057 38.39473464 -131.00834569 39.52667977 -132.625 40.625 C-139.22562902 45.30328088 -145.02409321 50.61480636 -150.875 56.1875 C-151.52210938 56.78175781 -152.16921875 57.37601563 -152.8359375 57.98828125 C-158.75757468 63.59020562 -165.21725251 70.87200502 -168.875 78.1875 C-169.535 78.1875 -170.195 78.1875 -170.875 78.1875 C-171.101875 78.868125 -171.32875 79.54875 -171.5625 80.25 C-172.875 83.1875 -172.875 83.1875 -175.203125 86.3828125 C-177.8787651 90.07336725 -179.94581647 93.90813078 -181.9375 98 C-182.28329102 98.70213623 -182.62908203 99.40427246 -182.98535156 100.12768555 C-185.54861026 105.38793291 -187.85409752 110.69431963 -189.875 116.1875 C-190.19984375 117.02023438 -190.5246875 117.85296875 -190.859375 118.7109375 C-193.5428994 125.75002842 -195.64985704 132.91477689 -197.40478516 140.23681641 C-197.84739942 142.07299914 -198.31923732 143.902067 -198.79296875 145.73046875 C-204.99269084 173.81841154 -201.49388451 205.34962471 -191.875 232.1875 C-191.59269531 233.06148437 -191.31039062 233.93546875 -191.01953125 234.8359375 C-186.85705168 247.23249238 -180.46554553 258.69776003 -173.34375 269.61328125 C-171.875 272.1875 -171.875 272.1875 -171.875 275.1875 C-173.875 275.1875 -173.875 275.1875 -175.2421875 273.90234375 C-179.52694618 268.8516567 -182.7012285 263.94331134 -185.3125 257.8125 C-186.52466973 255.00026623 -187.79183463 252.51298353 -189.3125 249.875 C-194.54080517 240.5770396 -197.39648392 230.59537133 -200.0625 220.3125 C-200.32921509 219.28638107 -200.32921509 219.28638107 -200.60131836 218.23953247 C-203.30866276 207.68553274 -205.03235051 197.56234104 -204.89697266 186.63574219 C-204.87272897 183.93445663 -204.92338488 181.23981471 -204.98046875 178.5390625 C-205.15241791 168.53229557 -204.84758358 159.02825405 -202.875 149.1875 C-202.57796004 147.51090491 -202.28395709 145.83377029 -201.9921875 144.15625 C-199.54231406 130.32623973 -196.02496239 117.86162884 -189.875 105.1875 C-189.43365723 104.27411865 -189.43365723 104.27411865 -188.98339844 103.34228516 C-176.75155741 78.12577871 -176.75155741 78.12577871 -172.875 76.1875 C-172.38 74.7025 -172.38 74.7025 -171.875 73.1875 C-171.215 73.1875 -170.555 73.1875 -169.875 73.1875 C-169.66875 72.506875 -169.4625 71.82625 -169.25 71.125 C-167.44604973 67.27110625 -164.9739655 64.10962236 -161.875 61.1875 C-161.215 61.1875 -160.555 61.1875 -159.875 61.1875 C-159.215 59.8675 -158.555 58.5475 -157.875 57.1875 C-157.215 57.1875 -156.555 57.1875 -155.875 57.1875 C-155.215 55.8675 -154.555 54.5475 -153.875 53.1875 C-153.215 53.1875 -152.555 53.1875 -151.875 53.1875 C-151.215 51.8675 -150.555 50.5475 -149.875 49.1875 C-149.215 49.1875 -148.555 49.1875 -147.875 49.1875 C-147.215 47.8675 -146.555 46.5475 -145.875 45.1875 C-145.215 45.1875 -144.555 45.1875 -143.875 45.1875 C-143.545 44.1975 -143.215 43.2075 -142.875 42.1875 C-140.51171875 40.1796875 -140.51171875 40.1796875 -137.5625 38.0625 C-136.59699219 37.35867187 -135.63148438 36.65484375 -134.63671875 35.9296875 C-132.2461241 34.42161789 -130.62705355 33.61893832 -127.875 33.1875 C-127.875 32.5275 -127.875 31.8675 -127.875 31.1875 C-126.42553711 30.10595703 -126.42553711 30.10595703 -124.40234375 28.9453125 C-123.66693359 28.51863281 -122.93152344 28.09195313 -122.17382812 27.65234375 C-121.39458984 27.21019531 -120.61535156 26.76804688 -119.8125 26.3125 C-118.68424805 25.66087891 -118.68424805 25.66087891 -117.53320312 24.99609375 C-116.03519238 24.13230573 -114.53479265 23.27264696 -113.03198242 22.41723633 C-111.64554644 21.62680305 -110.26256916 20.83025494 -108.8840332 20.02612305 C-105.39041627 17.99309334 -101.97453711 16.38355458 -98.16015625 15.03125 C-95.44036779 14.02702041 -92.79068899 12.88995566 -90.125 11.75 C-61.00811568 -0.3911228 -31.17066933 -2.0509773 0 0 Z " fill="#372F22" transform="translate(299.875,118.8125)"/>
<path d="M0 0 C1.14068238 3.42204715 0.71397858 4.54176598 0 8 C-0.10012385 10.45147008 -0.14611522 12.90535692 -0.15821838 15.35884094 C-0.16315636 16.08998539 -0.16809434 16.82112983 -0.17318195 17.57443017 C-0.18851216 20.01877479 -0.1969054 22.46309324 -0.20532227 24.9074707 C-0.21490431 26.66188282 -0.22491458 28.41629265 -0.23532104 30.17070007 C-0.26234079 34.93056808 -0.28336623 39.69044598 -0.30332303 44.45034814 C-0.32520065 49.42583531 -0.35258065 54.4012921 -0.37937927 59.37675476 C-0.42928213 68.79721893 -0.4742299 78.21769997 -0.51740164 87.63819712 C-0.56679457 98.36364297 -0.62170508 109.08905834 -0.67708123 119.8144747 C-0.79086433 141.87628824 -0.89751566 163.93813134 -1 186 C5.93 186 12.86 186 20 186 C20 186.33 20 186.66 20 187 C12.41 187 4.82 187 -3 187 C-4.17561017 183.4731695 -4.10928076 180.728438 -4.08901978 177.00469971 C-4.08523443 175.93020541 -4.08523443 175.93020541 -4.08137262 174.83400416 C-4.07163032 172.42737276 -4.05459835 170.0208481 -4.03759766 167.61425781 C-4.02909236 165.89120687 -4.02102076 164.16815374 -4.01335144 162.44509888 C-3.99112828 157.75897086 -3.96245808 153.07290239 -3.93239641 148.38681889 C-3.90175679 143.48403144 -3.87611702 138.58121743 -3.84970093 133.67840576 C-3.8044829 125.4398764 -3.75500873 117.20138052 -3.703125 108.96289062 C-3.64323359 99.44325837 -3.59042504 89.92360652 -3.54135668 80.40391278 C-3.49395766 71.24636724 -3.44114022 62.08886026 -3.38599777 52.93135834 C-3.36265467 49.03521227 -3.34127414 45.13906276 -3.32149124 41.24289703 C-3.29795112 36.64973954 -3.26968164 32.05663463 -3.23780251 27.46352768 C-3.22687778 25.77974049 -3.21757702 24.09594184 -3.21003914 22.41213608 C-3.19945984 20.10911486 -3.18293461 17.80620848 -3.16494751 15.50323486 C-3.15719614 14.21569935 -3.14944477 12.92816383 -3.14145851 11.60161209 C-2.99940979 7.98497304 -2.70564942 4.55131441 -2 1 C-1.34 0.67 -0.68 0.34 0 0 Z " fill="#BC9D30" transform="translate(231,216)"/>
<path d="M0 0 C0.95840511 2.66223643 0.96286316 4.24972443 0.54017639 7.09205627 C-0.0580261 11.41979386 -0.17422077 15.60345198 -0.20532227 19.96459961 C-0.21522186 20.83368958 -0.22512146 21.70277954 -0.23532104 22.59820557 C-0.26672066 25.44955796 -0.29160764 28.30092696 -0.31640625 31.15234375 C-0.33699441 33.13774531 -0.35799136 35.12314266 -0.37937927 37.10853577 C-0.43440768 42.31821274 -0.4839013 47.52792801 -0.53222656 52.7376709 C-0.58258253 58.06017438 -0.63819482 63.38262269 -0.69335938 68.70507812 C-0.80070552 79.13667154 -0.90220219 89.568313 -1 100 C-1.33 100 -1.66 100 -2 100 C-3.55098465 94.50366988 -4.29115956 89.50879508 -4.25878906 83.78320312 C-4.2622937 83.00484604 -4.26579834 82.22648895 -4.26940918 81.42454529 C-4.27814123 78.87668682 -4.27240775 76.32911082 -4.265625 73.78125 C-4.2669741 71.99580838 -4.26891668 70.21036713 -4.27142334 68.42492676 C-4.27436306 64.6929167 -4.27011414 60.96100274 -4.26074219 57.22900391 C-4.24934837 52.46119791 -4.25591402 47.69361714 -4.26788712 42.9258194 C-4.27513689 39.24194665 -4.27280349 35.55812672 -4.26763153 31.87425232 C-4.26630365 30.11689731 -4.26791234 28.3595374 -4.27259064 26.60218811 C-4.27770735 24.14026302 -4.26987403 21.67869554 -4.25878906 19.21679688 C-4.26283752 18.50071762 -4.26688599 17.78463837 -4.27105713 17.04685974 C-4.22961922 12.04326965 -3.34858524 7.77907354 -2 3 C-1.34 3 -0.68 3 0 3 C0 2.01 0 1.02 0 0 Z " fill="#D4B32E" transform="translate(255,215)"/>
<path d="M0 0 C0.66 0.33 1.32 0.66 2 1 C2 1.99 2 2.98 2 4 C-2.22222222 7 -2.22222222 7 -5 7 C-5 7.66 -5 8.32 -5 9 C-6.53703057 10.20723464 -8.13334569 11.33917977 -9.75 12.4375 C-16.35062902 17.11578088 -22.14909321 22.42730636 -28 28 C-28.64710938 28.59425781 -29.29421875 29.18851563 -29.9609375 29.80078125 C-35.88257468 35.40270562 -42.34225251 42.68450502 -46 50 C-46.66 50 -47.32 50 -48 50 C-48.33 50.66 -48.66 51.32 -49 52 C-49 51.34 -49 50.68 -49 50 C-49.66 50 -50.32 50 -51 50 C-51.495 52.475 -51.495 52.475 -52 55 C-52.66 55 -53.32 55 -54 55 C-53.39816251 52.97954558 -52.72693904 50.97888961 -52 49 C-51.01 48.505 -51.01 48.505 -50 48 C-49.67 47.01 -49.34 46.02 -49 45 C-48.34 45 -47.68 45 -47 45 C-46.79375 44.319375 -46.5875 43.63875 -46.375 42.9375 C-44.57104973 39.08360625 -42.0989655 35.92212236 -39 33 C-38.34 33 -37.68 33 -37 33 C-36.34 31.68 -35.68 30.36 -35 29 C-34.34 29 -33.68 29 -33 29 C-32.34 27.68 -31.68 26.36 -31 25 C-30.34 25 -29.68 25 -29 25 C-28.34 23.68 -27.68 22.36 -27 21 C-26.34 21 -25.68 21 -25 21 C-24.34 19.68 -23.68 18.36 -23 17 C-22.34 17 -21.68 17 -21 17 C-20.505 15.515 -20.505 15.515 -20 14 C-17.63671875 11.9921875 -17.63671875 11.9921875 -14.6875 9.875 C-13.72199219 9.17117187 -12.75648438 8.46734375 -11.76171875 7.7421875 C-9.3711241 6.23411789 -7.75205355 5.43143832 -5 5 C-5 4.34 -5 3.68 -5 3 C-2.625 1.3125 -2.625 1.3125 0 0 Z " fill="#473B31" transform="translate(177,147)"/>
<path d="M0 0 C1.32 0.66 2.64 1.32 4 2 C-0.83483874 16.81312296 -6.6513068 30.80522627 -15 44 C-15.46535156 44.79535156 -15.93070312 45.59070313 -16.41015625 46.41015625 C-18.19940481 49.32482897 -20.16234367 52.05695943 -22.1875 54.8125 C-22.90292969 55.78832031 -23.61835938 56.76414062 -24.35546875 57.76953125 C-25.16951172 58.87361328 -25.16951172 58.87361328 -26 60 C-26 55.79486193 -25.95723498 53.52873308 -23.875 49.875 C-23.48054688 49.17117188 -23.08609375 48.46734375 -22.6796875 47.7421875 C-21.2310332 45.37717514 -19.70643169 43.11285389 -18.13671875 40.828125 C-14.93188823 36.04457483 -12.3803328 31.08163234 -9.9375 25.875 C-9.50775879 24.96790283 -9.07801758 24.06080566 -8.63525391 23.1262207 C-5.1306549 15.58475424 -2.32949203 7.98157533 0 0 Z " fill="#393424" transform="translate(453,343)"/>
<path d="M0 0 C9.9955076 -0.27552701 19.90116981 0.13393415 29.875 0.8125 C31.01493408 0.88259277 32.15486816 0.95268555 33.3293457 1.02490234 C39.49381434 1.47500783 45.03466965 2.36586053 50.90478516 4.3112793 C53.32770677 5.1077209 55.73497939 5.58938439 58.25 6 C62.25293002 6.7529022 65.4379805 7.96456028 69 10 C69.78375 10.391875 70.5675 10.78375 71.375 11.1875 C71.91125 11.455625 72.4475 11.72375 73 12 C73 12.66 73 13.32 73 14 C72.13503906 13.76925781 71.27007812 13.53851563 70.37890625 13.30078125 C61.61478821 11.03126041 52.81571198 9.08606425 43.9375 7.3125 C42.33273804 6.99116089 42.33273804 6.99116089 40.69555664 6.66333008 C30.99067215 4.74920735 21.42447768 3.66383223 11.5625 2.9375 C10.35400391 2.84662109 9.14550781 2.75574219 7.90039062 2.66210938 C4.93374347 2.43931769 1.96695275 2.21867788 -1 2 C-0.67 1.34 -0.34 0.68 0 0 Z " fill="#3D3B30" transform="translate(270,118)"/>
<path d="M0 0 C3.96509139 -0.09990539 7.92968163 -0.17194834 11.89575195 -0.21972656 C13.89756051 -0.24940781 15.89901919 -0.30027058 17.90039062 -0.3515625 C25.51647752 -0.42829889 31.39395013 0.02404327 38 4 C34.30550694 5.16085048 31.99853355 4.51891953 28.28369141 3.49804688 C24.11692673 2.58932334 19.93469683 2.70545838 15.6875 2.75 C14.29374146 2.76015137 14.29374146 2.76015137 12.87182617 2.77050781 C-3.35145678 3.0150442 -16.58836736 7.03067325 -28.1640625 18.828125 C-30.83696124 21.99010734 -32.37323119 25.20420612 -34 29 C-34.14953125 28.38253906 -34.2990625 27.76507813 -34.453125 27.12890625 C-34.9658118 24.99001172 -34.9658118 24.99001172 -35.75 22.9375 C-36 21 -36 21 -34.6875 19.25 C-33 18 -33 18 -31 18 C-30.34 17.01 -29.68 16.02 -29 15 C-28.01 15 -27.02 15 -26 15 C-26 13.35 -26 11.7 -26 10 C-22.535 9.505 -22.535 9.505 -19 9 C-19 8.01 -19 7.02 -19 6 C-17.02 6 -15.04 6 -13 6 C-13 5.34 -13 4.68 -13 4 C-11.02 4 -9.04 4 -7 4 C-7 3.34 -7 2.68 -7 2 C-4.69 2 -2.38 2 0 2 C0 1.34 0 0.68 0 0 Z " fill="#E3C336" transform="translate(269,180)"/>
<path d="M0 0 C3.98237048 0.61657831 7.08929149 1.89545106 10.6875 3.6875 C22.76160882 9.37023519 35.48955665 13.07229379 48.44921875 16.140625 C52.00197585 17.0004782 55.49261195 17.9734474 59 19 C59 19.33 59 19.66 59 20 C48.33759982 19.74461317 39.11609722 18.68109694 29 15 C27.43848619 14.49692856 25.87607362 13.99663246 24.3125 13.5 C20.26898608 12.13485035 16.30869465 10.59086949 12.36328125 8.96484375 C10.89333297 8.3647161 9.41263311 7.78951768 7.91796875 7.25390625 C3.69741483 5.68119458 1.88389698 4.10024637 0 0 Z " fill="#29251A" transform="translate(191,449)"/>
<path d="M0 0 C0.66 0 1.32 0 2 0 C2 5.61 2 11.22 2 17 C4.04767578 16.93039062 4.04767578 16.93039062 6.13671875 16.859375 C22.56229743 16.46292658 33.96915398 18.24106501 47 29 C46.67 29.66 46.34 30.32 46 31 C44.02 30.34 42.04 29.68 40 29 C40 27.68 40 26.36 40 25 C38.35 24.67 36.7 24.34 35 24 C35 23.34 35 22.68 35 22 C33.9275 22.020625 32.855 22.04125 31.75 22.0625 C28 22 28 22 26.1875 21.5 C23.18277721 20.81320622 20.32748281 20.90672517 17.25 20.9375 C15.49429687 20.95103516 15.49429687 20.95103516 13.703125 20.96484375 C12.81109375 20.97644531 11.9190625 20.98804688 11 21 C11 20.34 11 19.68 11 19 C9.741875 19.20625 8.48375 19.4125 7.1875 19.625 C3.5985242 20.21335669 3.24926122 20.16617415 0 18 C-0.34057617 16.12060547 -0.34057617 16.12060547 -0.29296875 13.8671875 C-0.28330078 13.06152344 -0.27363281 12.25585938 -0.26367188 11.42578125 C-0.23853516 10.58402344 -0.21339844 9.74226563 -0.1875 8.875 C-0.17396484 8.02550781 -0.16042969 7.17601562 -0.14648438 6.30078125 C-0.11108219 4.20025163 -0.05727401 2.10004707 0 0 Z " fill="#EBC82F" transform="translate(268,257)"/>
<path d="M0 0 C3.51275408 1.75637704 5.99225725 3.47536912 9 5.9375 C11.96044549 8.35188771 14.92663028 10.73054412 18 13 C11.375 12.25 11.375 12.25 8 10 C8.33 9.34 8.66 8.68 9 8 C7.68 8 6.36 8 5 8 C5 7.01 5 6.02 5 5 C4.01 5.495 4.01 5.495 3 6 C2.98969254 6.60055206 2.97938507 7.20110413 2.96876526 7.81985474 C2.86041493 14.08183045 2.74584097 20.34367054 2.62768555 26.60546875 C2.58442801 28.94105181 2.54274658 31.27666462 2.50268555 33.61230469 C2.44476031 36.97339842 2.38113014 40.33434366 2.31640625 43.6953125 C2.29969376 44.73615997 2.28298126 45.77700745 2.26576233 46.84939575 C2.16786507 51.66230274 1.99074079 56.26841942 1 61 C0.67 61 0.34 61 0 61 C0 40.87 0 20.74 0 0 Z " fill="#D9BA3F" transform="translate(251,341)"/>
<path d="M0 0 C0 0.33 0 0.66 0 1 C-1.89105469 1.14695312 -1.89105469 1.14695312 -3.8203125 1.296875 C-14.55878875 2.19399254 -25.05699522 3.55112863 -35.62548828 5.67871094 C-40.51692652 6.64440261 -44.98744899 7.13836402 -50 7 C-52.33824592 7.29692012 -54.67377689 7.62020847 -57 8 C-41.76089638 -2.15940241 -17.45811045 -2.68586315 0 0 Z " fill="#3A352C" transform="translate(277,120)"/>
<path d="M0 0 C0.8125 1.6875 0.8125 1.6875 1 4 C-1.25 6.4375 -1.25 6.4375 -4 9 C-5.05287814 10.63377642 -6.0727001 12.29181597 -7 14 C-6.01 14.33 -5.02 14.66 -4 15 C-4 15.99 -4 16.98 -4 18 C-4.7425 18.04125 -5.485 18.0825 -6.25 18.125 C-10.08746729 19.34601232 -10.91635908 21.66617453 -13 25 C-13.99 25.33 -14.98 25.66 -16 26 C-16.0825 27.11375 -16.165 28.2275 -16.25 29.375 C-16.4975 30.57125 -16.745 31.7675 -17 33 C-17.98226562 33.43699219 -17.98226562 33.43699219 -18.984375 33.8828125 C-19.64953125 34.25148437 -20.3146875 34.62015625 -21 35 C-21.77214207 37.57662412 -21.77214207 37.57662412 -22 40.5 C-22.3125 43.46875 -22.3125 43.46875 -23 46 C-25.0625 47.34375 -25.0625 47.34375 -27 48 C-26.48014036 42.42252283 -24.34571145 38.37279945 -21.6875 33.5625 C-21.29626953 32.83740234 -20.90503906 32.11230469 -20.50195312 31.36523438 C-17.25020313 25.36324807 -13.90569556 19.40523168 -10.375 13.5625 C-9.76785156 12.54349609 -9.76785156 12.54349609 -9.1484375 11.50390625 C-8.76945312 11.00761719 -8.39046875 10.51132813 -8 10 C-7.34 10 -6.68 10 -6 10 C-5.7525 9.278125 -5.505 8.55625 -5.25 7.8125 C-3.89016326 4.75286734 -2.17082246 2.5326262 0 0 Z " fill="#F0CD37" transform="translate(137,187)"/>
<path d="M0 0 C0.33 0 0.66 0 1 0 C1.0272415 1.41655793 1.04650467 2.83327045 1.0625 4.25 C1.07410156 5.03890625 1.08570312 5.8278125 1.09765625 6.640625 C1.00270919 8.93454607 0.55470912 10.78116352 0 13 C-0.2198223 15.24707241 -0.40483987 17.49771238 -0.5625 19.75 C-0.64628906 20.92046875 -0.73007813 22.0909375 -0.81640625 23.296875 C-0.87699219 24.18890625 -0.93757813 25.0809375 -1 26 C-1.33 26 -1.66 26 -2 26 C-3.12014799 34.03507735 -3.11441805 41.95929077 -3.0625 50.0625 C-3.05747314 51.41861813 -3.05291234 52.77473808 -3.04882812 54.13085938 C-3.03712079 57.42061994 -3.02072211 60.71028594 -3 64 C-2.34 64 -1.68 64 -1 64 C0.12862175 69.36095333 0.09688221 74.55306686 0 80 C-0.33 80 -0.66 80 -1 80 C-7.80031122 53.58807697 -6.86924809 26.27122008 0 0 Z " fill="#CEB740" transform="translate(103,253)"/>
<path d="M0 0 C13.63707766 -0.58976051 26.72199906 -0.11478908 40.1875 2.25 C41.35434326 2.45455811 42.52118652 2.65911621 43.72338867 2.86987305 C55.83003719 5.13949423 67.5061029 8.59009662 79 13 C75.11391036 14.27432938 73.03269794 13.36207509 69.27880859 11.83251953 C65.2406147 10.35724193 61.03248719 9.70219567 56.8125 8.9375 C47.63390766 7.25577116 47.63390766 7.25577116 44.30859375 5.9140625 C41.27364104 4.7124061 38.5002628 4.61030809 35.25 4.4375 C29.09964413 4.09964413 29.09964413 4.09964413 28 3 C25.93076634 2.77092174 23.85452523 2.60456448 21.77734375 2.46484375 C20.51728516 2.37783203 19.25722656 2.29082031 17.95898438 2.20117188 C16.61849607 2.11318236 15.27800119 2.02529305 13.9375 1.9375 C12.59307024 1.84612471 11.24866869 1.75433325 9.90429688 1.66210938 C6.60312026 1.43729806 3.30171152 1.2167902 0 1 C0 0.67 0 0.34 0 0 Z " fill="#C3AB3E" transform="translate(270,121)"/>
<path d="M0 0 C0.66 0 1.32 0 2 0 C0.64609481 18.61619631 -5.77662587 36.46960526 -13.625 53.25 C-13.99713623 54.04841309 -14.36927246 54.84682617 -14.75268555 55.66943359 C-16.77699794 59.87636942 -18.88129107 63.47204872 -22 67 C-22.22036864 63.14354879 -21.60355101 60.50776784 -20 57 C-19.34 57 -18.68 57 -18 57 C-18 56.34 -18 55.68 -18 55 C-17.34 55 -16.68 55 -16 55 C-15.896875 54.34 -15.79375 53.68 -15.6875 53 C-14.80786436 49.16158991 -13.43030104 45.66903309 -12 42 C-11.34 42 -10.68 42 -10 42 C-10 40.35 -10 38.7 -10 37 C-9.34 37 -8.68 37 -8 37 C-7.87625 36.195625 -7.7525 35.39125 -7.625 34.5625 C-6.88445837 30.34141271 -5.95598874 26.17664983 -5 22 C-4.34 22 -3.68 22 -3 22 C-2.95101563 20.99839844 -2.90203125 19.99679687 -2.8515625 18.96484375 C-2.77645921 17.62237241 -2.70091474 16.2799257 -2.625 14.9375 C-2.55539062 13.62652344 -2.48578125 12.31554687 -2.4140625 10.96484375 C-2.00194564 7.01863043 -1.20243433 3.75882927 0 0 Z " fill="#E3C53D" transform="translate(457,317)"/>
<path d="M0 0 C0.66 0 1.32 0 2 0 C1.99777939 0.60499329 1.99555878 1.20998657 1.99327087 1.83331299 C1.9711557 8.12731333 1.95606729 14.42130265 1.94506836 20.71533203 C1.94003811 23.06462045 1.9332132 25.41390573 1.92456055 27.76318359 C1.91243782 31.13900526 1.9067586 34.51478555 1.90234375 37.890625 C1.89718246 38.94179504 1.89202118 39.99296509 1.88670349 41.07598877 C1.88659019 42.54706085 1.88659019 42.54706085 1.88647461 44.04785156 C1.884254 44.90944885 1.88203339 45.77104614 1.87974548 46.65875244 C1.99576192 48.91748847 2.43711307 50.8191265 3 53 C3.03888349 55.33300933 3.0448635 57.66709801 3 60 C0.02713343 54.45064907 -0.27235689 49.30874971 -0.5625 43.125 C-0.6042334 42.25311035 -0.6459668 41.3812207 -0.68896484 40.48291016 C-0.98068812 33.78041912 -1.10601678 27.08355476 -1.125 20.375 C-1.12959229 19.48828613 -1.13418457 18.60157227 -1.13891602 17.68798828 C-1.12496226 11.73922439 -0.6946774 5.90713151 0 0 Z " fill="#3A3630" transform="translate(96,271)"/>
<path d="M0 0 C0.33 0 0.66 0 1 0 C1.66 1.98 2.32 3.96 3 6 C3.66 6 4.32 6 5 6 C4.67 15.9 4.34 25.8 4 36 C3.34 36 2.68 36 2 36 C2 38.64 2 41.28 2 44 C1.01 44.495 1.01 44.495 0 45 C-0.2165625 46.423125 -0.2165625 46.423125 -0.4375 47.875 C-1.0542147 51.30119277 -1.41273394 51.87474573 -4 54 C-4.886875 54.886875 -5.77375 55.77375 -6.6875 56.6875 C-7.450625 57.450625 -8.21375 58.21375 -9 59 C-9.66 58.67 -10.32 58.34 -11 58 C-10.55269531 57.42894531 -10.10539062 56.85789062 -9.64453125 56.26953125 C-0.05321032 43.4061179 3.25796579 29.85490218 2 14 C1.3542316 10.67126013 0.55170732 7.49756967 -0.44140625 4.2578125 C-1 2 -1 2 0 0 Z " fill="#D9B938" transform="translate(339,285)"/>
<path d="M0 0 C4.43795812 0.3062044 8.87526265 0.62103542 13.3125 0.9375 C15.20645508 1.06801758 15.20645508 1.06801758 17.13867188 1.20117188 C18.95141602 1.33168945 18.95141602 1.33168945 20.80078125 1.46484375 C21.91622314 1.543396 23.03166504 1.62194824 24.1809082 1.70288086 C27 2 27 2 30 3 C32.78076115 3.09710769 35.53572615 3.13995945 38.31640625 3.1328125 C39.12867172 3.13376923 39.94093719 3.13472595 40.77781677 3.13571167 C42.49339882 3.13639173 44.20898345 3.13454955 45.92456055 3.13037109 C48.5558853 3.12501347 51.18703989 3.13032549 53.81835938 3.13671875 C55.48437538 3.13605807 57.15039127 3.13477713 58.81640625 3.1328125 C59.60600235 3.13483673 60.39559845 3.13686096 61.2091217 3.13894653 C65.23495867 3.21395569 65.23495867 3.21395569 69 2 C70.87379605 1.92966231 72.75001102 1.9156978 74.625 1.9375 C76.12933594 1.95103516 76.12933594 1.95103516 77.6640625 1.96484375 C78.43492187 1.97644531 79.20578125 1.98804688 80 2 C80 2.33 80 2.66 80 3 C69.56448819 5.42980663 59.14191231 5.33880913 48.48510742 5.31567383 C45.468213 5.31253199 42.45231945 5.33597296 39.43554688 5.36132812 C8.19502383 5.46334922 8.19502383 5.46334922 0 0 Z " fill="#E1C545" transform="translate(234,464)"/>
<path d="M0 0 C0.99 0.33 1.98 0.66 3 1 C-6.20483365 10.483768 -15.61628589 17.80594851 -29 20 C-29 19.34 -29 18.68 -29 18 C-28.26849731 17.60844727 -28.26849731 17.60844727 -27.5222168 17.20898438 C-18.59000771 12.40362209 -9.98544934 7.68310862 -2.06640625 1.30078125 C-1.38449219 0.87152344 -0.70257813 0.44226563 0 0 Z " fill="#3A3428" transform="translate(393,431)"/>
<path d="M0 0 C-5.02100099 1.27807298 -10.03144883 2.44516075 -15.1171875 3.4375 C-17.2200957 3.90335878 -17.2200957 3.90335878 -19 6 C-19.28042984 8.17537684 -19.28042984 8.17537684 -19.1875 10.5625 C-19.18105469 11.36816406 -19.17460937 12.17382812 -19.16796875 13.00390625 C-19.21630912 14.99879885 -19.21630912 14.99879885 -18 16 C-16.60932817 16.13220587 -15.21268791 16.20315126 -13.81640625 16.24609375 C-12.97142578 16.27896484 -12.12644531 16.31183594 -11.25585938 16.34570312 C-9.46431719 16.40676366 -7.6726431 16.46407257 -5.88085938 16.51757812 C-5.03458984 16.55173828 -4.18832031 16.58589844 -3.31640625 16.62109375 C-2.53724854 16.6461499 -1.75809082 16.67120605 -0.95532227 16.69702148 C1 17 1 17 3 19 C-5.25 18.67 -13.5 18.34 -22 18 C-22 12.39 -22 6.78 -22 1 C-19.08418447 0.63702296 -16.16774334 0.28431765 -13.25 -0.0625 C-12.0125 -0.2181543 -12.0125 -0.2181543 -10.75 -0.37695312 C-9.95078125 -0.47041016 -9.1515625 -0.56386719 -8.328125 -0.66015625 C-7.5949707 -0.74918213 -6.86181641 -0.83820801 -6.10644531 -0.92993164 C-3.87729995 -1.00408147 -2.12666985 -0.64094299 0 0 Z " fill="#261803" transform="translate(292,256)"/>
<path d="M0 0 C14.47342886 -0.35493422 28.92588778 0.35115609 43 4 C43 4.33 43 4.66 43 5 C41.31259486 5.02746229 39.6250537 5.04660111 37.9375 5.0625 C36.99777344 5.07410156 36.05804688 5.08570312 35.08984375 5.09765625 C32.39557032 5.01250222 29.85185128 4.69934245 27.19311523 4.28735352 C22.0087496 3.60807061 16.77538885 3.32142798 11.5625 2.9375 C10.35400391 2.84662109 9.14550781 2.75574219 7.90039062 2.66210938 C4.93374347 2.43931769 1.96695275 2.21867788 -1 2 C-0.67 1.34 -0.34 0.68 0 0 Z " fill="#262720" transform="translate(270,118)"/>
<path d="M0 0 C0.66 0 1.32 0 2 0 C1.6122487 4.26526431 -0.16008405 6.62713157 -2.64331055 10.01391602 C-4.892978 13.3072478 -6.58341237 16.8513657 -8.3125 20.4375 C-8.67150391 21.16904297 -9.03050781 21.90058594 -9.40039062 22.65429688 C-10.27253044 24.4334621 -11.13707934 26.21634513 -12 28 C-12.99 27.67 -13.98 27.34 -15 27 C-13.60384784 21.0346226 -11.14862516 16.23506352 -8 11 C-7.63390625 10.3709375 -7.2678125 9.741875 -6.890625 9.09375 C-5.875 7.4375 -5.875 7.4375 -4 5 C-3.01 5 -2.02 5 -1 5 C-0.67 3.35 -0.34 1.7 0 0 Z " fill="#3F3A2E" transform="translate(126,197)"/>
<path d="M0 0 C13.2 0 26.4 0 40 0 C40 0.33 40 0.66 40 1 C35.67179527 2.64802525 32.13014416 3.23933471 27.5078125 3.1953125 C25.70957031 3.18564453 25.70957031 3.18564453 23.875 3.17578125 C22.6375 3.15902344 21.4 3.14226562 20.125 3.125 C18.86429687 3.11597656 17.60359375 3.10695313 16.3046875 3.09765625 C13.2029296 3.07415808 10.10156348 3.04130334 7 3 C7 2.34 7 1.68 7 1 C4.69 1 2.38 1 0 1 C0 0.67 0 0.34 0 0 Z " fill="#272922" transform="translate(258,470)"/>
<path d="M0 0 C1.29091553 0.15847412 2.58183105 0.31694824 3.91186523 0.48022461 C8.74840004 1.01604357 13.54759455 1.21565875 18.41015625 1.31640625 C19.68952309 1.3475779 19.68952309 1.3475779 20.99473572 1.37937927 C23.68391911 1.44407199 26.3731889 1.503381 29.0625 1.5625 C30.90039909 1.60576184 32.73828986 1.64937839 34.57617188 1.69335938 C39.05069571 1.79966934 43.52530527 1.90115562 48 2 C48 2.33 48 2.66 48 3 C38.1 3.33 28.2 3.66 18 4 C18 4.33 18 4.66 18 5 C15.02016976 4.88480819 12.04154208 4.75809198 9.0625 4.625 C8.23169922 4.5940625 7.40089844 4.563125 6.54492188 4.53125 C0.81752631 4.26382297 -4.43358471 3.38177413 -10 2 C-10 1.67 -10 1.34 -10 1 C-6.7 1 -3.4 1 0 1 C0 0.67 0 0.34 0 0 Z " fill="#585232" transform="translate(247,467)"/>
<path d="M0 0 C-9.46401696 4.72151622 -18.90479719 9.23369309 -28.9375 12.625 C-29.68757324 12.8842627 -30.43764648 13.14352539 -31.21044922 13.41064453 C-35.13151209 14.68289951 -36.89369262 15.02657684 -41 14 C-38.03 13.34 -35.06 12.68 -32 12 C-32 11.34 -32 10.68 -32 10 C-30.08594633 9.32586789 -28.16863974 8.6609668 -26.25 8 C-25.18265625 7.62875 -24.1153125 7.2575 -23.015625 6.875 C-20 6 -20 6 -16 6 C-16 5.01 -16 4.02 -16 3 C-14.02 2.67 -12.04 2.34 -10 2 C-10 1.34 -10 0.68 -10 0 C-3.375 -1.125 -3.375 -1.125 0 0 Z " fill="#E2C93B" transform="translate(368,448)"/>
<path d="M0 0 C1.32 0 2.64 0 4 0 C2.62740684 3.29142237 1.29739691 4.79419953 -1.75 6.625 C-2.40484375 7.02976562 -3.0596875 7.43453125 -3.734375 7.8515625 C-14.20881725 13.16102116 -25.5069307 11.48929761 -36.55078125 8.8515625 C-39 8 -39 8 -40 6 C-32.125 6.875 -32.125 6.875 -31 8 C-29.6669823 8.09875585 -28.3288568 8.13079205 -26.9921875 8.1328125 C-26.16976563 8.13410156 -25.34734375 8.13539063 -24.5 8.13671875 C-23.200625 8.13091797 -23.200625 8.13091797 -21.875 8.125 C-21.03195312 8.12886719 -20.18890625 8.13273437 -19.3203125 8.13671875 C-14.4403693 8.1291412 -9.81100218 7.82139062 -5 7 C-5 6.01 -5 5.02 -5 4 C-3.68 4 -2.36 4 -1 4 C-0.67 2.68 -0.34 1.36 0 0 Z " fill="#E4C43B" transform="translate(308,329)"/>
<path d="M0 0 C5.54158715 -0.59313624 8.73519274 1.2974147 13.125 4.375 C17.59798749 7.48587163 17.59798749 7.48587163 22.3515625 10.125 C24.84725103 11.44972567 25.18014152 13.40378149 26 16 C20.60643326 14.50273226 16.30771875 11.96374604 11.625 9 C10.52091797 8.32324219 10.52091797 8.32324219 9.39453125 7.6328125 C8.69972656 7.19710938 8.00492188 6.76140625 7.2890625 6.3125 C6.65693848 5.91675781 6.02481445 5.52101563 5.37353516 5.11328125 C4.92026855 4.74589844 4.46700195 4.37851562 4 4 C4 3.34 4 2.68 4 2 C2.68 1.67 1.36 1.34 0 1 C0 0.67 0 0.34 0 0 Z " fill="#383326" transform="translate(168,437)"/>
<path d="M0 0 C-6 3 -6 3 -12 6 C-13.03511719 6.54398437 -14.07023437 7.08796875 -15.13671875 7.6484375 C-18.97368368 9.45961058 -21.76971013 9.79195296 -26 10 C-26.99 9.34 -27.98 8.68 -29 8 C-5.83743101 -1.94581034 -5.83743101 -1.94581034 0 0 Z " fill="#423A2C" transform="translate(372,450)"/>
<path d="M0 0 C0 3.76120097 -1.1245288 5.06182092 -3.25 8.125 C-3.85328125 9.01445312 -4.4565625 9.90390625 -5.078125 10.8203125 C-7.17730787 13.20109307 -8.025791 13.37719555 -11 14 C-11.33 14.99 -11.66 15.98 -12 17 C-14.5625 18.1875 -14.5625 18.1875 -17 19 C-17 19.66 -17 20.32 -17 21 C-18.32 21.33 -19.64 21.66 -21 22 C-17.21890653 16.49040666 -12.9644438 11.77175953 -8.25 7.0625 C-7.67096924 6.48282471 -7.09193848 5.90314941 -6.49536133 5.3059082 C-2.2700086 1.1350043 -2.2700086 1.1350043 0 0 Z " fill="#E9CE2E" transform="translate(159,165)"/>
<path d="M0 0 C2.82089723 0.08296757 4.52092528 0.53409984 6.5625 2.51953125 C7.58488537 3.73361387 8.5885221 4.96379834 9.5703125 6.2109375 C10.96523283 8.03878038 10.96523283 8.03878038 12.6796875 9.6015625 C14 11 14 11 14 13 C14.99 13.33 15.98 13.66 17 14 C18.1875 17.5625 18.1875 17.5625 19 21 C16.01602258 19.68211337 14.17009322 18.35170719 12.08984375 15.84765625 C11.57486328 15.23599609 11.05988281 14.62433594 10.52929688 13.99414062 C10.00400391 13.35669922 9.47871094 12.71925781 8.9375 12.0625 C7.88515982 10.8025117 6.83180729 9.54336808 5.77734375 8.28515625 C5.31577881 7.72707275 4.85421387 7.16898926 4.37866211 6.59399414 C3.00442173 4.95099264 3.00442173 4.95099264 1.32641602 3.41967773 C0 2 0 2 0 0 Z " fill="#2A2019" transform="translate(408,171)"/>
<path d="M0 0 C0.66 0.33 1.32 0.66 2 1 C1.67 1.33 1.34 1.66 1 2 C1.66 2.66 2.32 3.32 3 4 C2.44570312 4.60328125 1.89140625 5.2065625 1.3203125 5.828125 C0.59585938 6.62734375 -0.12859375 7.4265625 -0.875 8.25 C-1.59429687 9.03890625 -2.31359375 9.8278125 -3.0546875 10.640625 C-4.76935483 12.72026168 -5.92980873 14.54419267 -7 17 C-7.66 17 -8.32 17 -9 17 C-9.33 17.66 -9.66 18.32 -10 19 C-10 18.34 -10 17.68 -10 17 C-10.66 17 -11.32 17 -12 17 C-12.33 18.65 -12.66 20.3 -13 22 C-13.66 22 -14.32 22 -15 22 C-14.39816251 19.97954558 -13.72693904 17.97888961 -13 16 C-12.34 15.67 -11.68 15.34 -11 15 C-10.67 14.01 -10.34 13.02 -10 12 C-9.34 12 -8.68 12 -8 12 C-7.79375 11.319375 -7.5875 10.63875 -7.375 9.9375 C-5.54591134 6.02990149 -2.89720966 3.16142061 0 0 Z " fill="#56504A" transform="translate(138,180)"/>
<path d="M0 0 C-0.33 0.99 -0.66 1.98 -1 3 C-3.52009204 4.0650389 -5.89047095 4.91429537 -8.5 5.6875 C-9.22380859 5.90881592 -9.94761719 6.13013184 -10.69335938 6.3581543 C-15.94944837 7.88569046 -20.51168842 8.49002782 -26 8 C-23.80952624 5.51651927 -22.12803564 4.48608047 -18.9453125 3.61328125 C-18.16542969 3.39736328 -17.38554687 3.18144531 -16.58203125 2.95898438 C-15.77121094 2.74564453 -14.96039063 2.53230469 -14.125 2.3125 C-13.32191406 2.08755859 -12.51882813 1.86261719 -11.69140625 1.63085938 C-7.71791157 0.55402268 -4.15612872 -0.31128899 0 0 Z " fill="#342F21" transform="translate(346,459)"/>
<path d="M0 0 C0 3.63563409 -0.82542733 5.12645755 -3 8 C-4.32 8 -5.64 8 -7 8 C-7 8.78375 -7 9.5675 -7 10.375 C-7 11.91666667 -7 13.45833333 -7 15 C-6.01 15.66 -5.02 16.32 -4 17 C-8.68738665 16.09276387 -13.34193744 15.0452733 -18 14 C-18 13.01 -18 12.02 -18 11 C-17.12988281 10.63648438 -17.12988281 10.63648438 -16.2421875 10.265625 C-10.20271458 7.674432 -4.47436053 4.9715117 0 0 Z " fill="#D4B235" transform="translate(324,251)"/>
<path d="M0 0 C9.35310498 1.01114648 18.99030486 5.15462887 27 10 C27.33 10.66 27.66 11.32 28 12 C27.40832031 11.86722656 26.81664062 11.73445312 26.20703125 11.59765625 C25.41683594 11.42105469 24.62664062 11.24445313 23.8125 11.0625 C23.03519531 10.88847656 22.25789063 10.71445313 21.45703125 10.53515625 C19.82173903 10.17897973 18.17920434 9.85454254 16.53125 9.5625 C13.76431718 8.94762604 11.30538232 8.01955803 8.6875 6.9375 C7.36298828 6.39416016 7.36298828 6.39416016 6.01171875 5.83984375 C5.34785156 5.56269531 4.68398438 5.28554687 4 5 C4 4.01 4 3.02 4 2 C2.68 1.67 1.36 1.34 0 1 C0 0.67 0 0.34 0 0 Z " fill="#474337" transform="translate(339,128)"/>
<path d="M0 0 C4.20344998 0.63286143 7.56176712 2.08522892 11.375 3.9375 C15.89367322 6.07630446 20.13621828 7.86888797 25 9 C24.01 9.33 23.02 9.66 22 10 C22 10.66 22 11.32 22 12 C4.66776316 7.22368421 4.66776316 7.22368421 0.9375 2.25 C0.4734375 1.13625 0.4734375 1.13625 0 0 Z " fill="#4B4337" transform="translate(191,449)"/>
<path d="M0 0 C0.33 0 0.66 0 1 0 C1.20657359 5.78406055 0.82483295 11.38291713 0.125 17.125 C0.04652832 17.79337891 -0.03194336 18.46175781 -0.11279297 19.15039062 C-0.68642621 23.62054604 -1.46187635 27.77284898 -3 32 C-4.485 32.495 -4.485 32.495 -6 33 C-5.66453126 26.02225028 -4.26183074 19.51755424 -2.45996094 12.79882812 C-1.32545823 8.52800859 -0.54470127 4.37463204 0 0 Z " fill="#2C2416" transform="translate(460,313)"/>
<path d="M0 0 C-0.50587206 6.37398799 -1.36451981 12.63800324 -2.4375 18.9375 C-2.55971924 19.68314209 -2.68193848 20.42878418 -2.80786133 21.19702148 C-3.42589968 24.72172755 -3.98838207 26.98257311 -6 30 C-6.3429922 22.58120584 -5.97239282 15.53925522 -4.625 8.25 C-4.49891357 7.54681641 -4.37282715 6.84363281 -4.24291992 6.11914062 C-3.90218731 4.3965598 -3.45952516 2.69476253 -3 1 C-1 0 -1 0 0 0 Z " fill="#2B2615" transform="translate(103,251)"/>
<path d="M0 0 C0.99 0.495 0.99 0.495 2 1 C2 1.66 2 2.32 2 3 C2.66 3 3.32 3 4 3 C4.33 2.34 4.66 1.68 5 1 C6.45932573 2.93675945 7.91749264 4.87437288 9.375 6.8125 C9.99375 7.63331055 9.99375 7.63331055 10.625 8.47070312 C12.48407032 10.94446605 14.28289972 13.42434959 16 16 C15.34 16 14.68 16 14 16 C14.66 17.32 15.32 18.64 16 20 C12.19652252 18.48715615 10.31065348 16.25432462 7.8125 13.0625 C7.11769531 12.18722656 6.42289063 11.31195313 5.70703125 10.41015625 C4 8 4 8 3 5 C2.484375 4.484375 1.96875 3.96875 1.4375 3.4375 C0.963125 2.963125 0.48875 2.48875 0 2 C0 1.34 0 0.68 0 0 Z " fill="#5E564D" transform="translate(124,391)"/>
<path d="M0 0 C0.99 0.33 1.98 0.66 3 1 C-2.91148113 7.21637127 -9.26281011 12.69603218 -16 18 C-16.72703125 18.58136719 -17.4540625 19.16273438 -18.203125 19.76171875 C-20 21 -20 21 -22 21 C-21.505 19.515 -21.505 19.515 -21 18 C-20.34 18 -19.68 18 -19 18 C-19 17.34 -19 16.68 -19 16 C-18.01 16 -17.02 16 -16 16 C-16 15.34 -16 14.68 -16 14 C-15.01 14 -14.02 14 -13 14 C-13 12.35 -13 10.7 -13 9 C-11.02 8.67 -9.04 8.34 -7 8 C-6.67 6.68 -6.34 5.36 -6 4 C-5.01 4 -4.02 4 -3 4 C-3 3.34 -3 2.68 -3 2 C-2.01 2 -1.02 2 0 2 C0 1.34 0 0.68 0 0 Z " fill="#DBBD42" transform="translate(410,413)"/>
<path d="M0 0 C1.9385469 2.90782034 2.44091468 4.37674287 3.0703125 7.7109375 C3.24433594 8.62617188 3.41835937 9.54140625 3.59765625 10.484375 C3.77167969 11.43828125 3.94570312 12.3921875 4.125 13.375 C4.30675781 14.32117188 4.48851563 15.26734375 4.67578125 16.2421875 C5.48430684 20.570535 6.101473 24.58346152 6 29 C5.01 29.33 4.02 29.66 3 30 C-0.57446809 9.46808511 -0.57446809 9.46808511 0 0 Z " fill="#3A301D" transform="translate(97,309)"/>
<path d="M0 0 C1.32 0.66 2.64 1.32 4 2 C0.01353399 8.60258432 -4.4100806 14.80417829 -9 21 C-9 12.58046054 -4.71514242 6.81076128 0 0 Z " fill="#4A4739" transform="translate(436,382)"/>
<path d="M0 0 C0.91523438 -0.00386719 1.83046875 -0.00773438 2.7734375 -0.01171875 C7.42105003 -0.00500255 11.80382664 0.16824279 16.375 1.125 C16.375 1.455 16.375 1.785 16.375 2.125 C15.17339233 2.16258423 15.17339233 2.16258423 13.94750977 2.20092773 C10.27737974 2.31779735 6.60744983 2.44010745 2.9375 2.5625 C1.67744141 2.60181641 0.41738281 2.64113281 -0.88085938 2.68164062 C-6.21272416 2.86261776 -11.49044393 3.0465739 -16.78515625 3.72265625 C-20.07973592 4.06786653 -21.60172974 4.0270744 -24.625 3.125 C-16.52680593 0.08817722 -8.53637011 -0.03637658 0 0 Z " fill="#231503" transform="translate(284.625,181.875)"/>
<path d="M0 0 C-1.32120828 2.93230193 -2.74638197 4.98664899 -5.0390625 7.234375 C-5.90917969 8.09482422 -5.90917969 8.09482422 -6.796875 8.97265625 C-7.40015625 9.55917969 -8.0034375 10.14570313 -8.625 10.75 C-9.23601562 11.35199219 -9.84703125 11.95398438 -10.4765625 12.57421875 C-11.97988624 14.05405305 -13.48934856 15.52764676 -15 17 C-15.99 16.67 -16.98 16.34 -18 16 C-16.7260411 13.96166576 -15.38938077 11.96147874 -14 10 C-13.34 10 -12.68 10 -12 10 C-11.34 8.68 -10.68 7.36 -10 6 C-9.34 6 -8.68 6 -8 6 C-7.62875 5.071875 -7.62875 5.071875 -7.25 4.125 C-5.4936973 1.13928541 -3.46854079 0 0 0 Z " fill="#2E261C" transform="translate(156,166)"/>
<path d="M0 0 C0.33 1.32 0.66 2.64 1 4 C0.34 4 -0.32 4 -1 4 C-1.09796875 4.69867188 -1.1959375 5.39734375 -1.296875 6.1171875 C-1.44640625 7.02726563 -1.5959375 7.93734375 -1.75 8.875 C-1.88921875 9.77992188 -2.0284375 10.68484375 -2.171875 11.6171875 C-3 14 -3 14 -5.015625 14.9765625 C-5.67046875 15.31429687 -6.3253125 15.65203125 -7 16 C-7.77214207 18.57662412 -7.77214207 18.57662412 -8 21.5 C-8.3125 24.46875 -8.3125 24.46875 -9 27 C-11.0625 28.34375 -11.0625 28.34375 -13 29 C-12.48529877 23.39153148 -10.30679059 19.3289204 -7.625 14.5 C-6.82496669 13.03155177 -6.02547726 11.56280708 -5.2265625 10.09375 C-4.84661133 9.40023437 -4.46666016 8.70671875 -4.07519531 7.9921875 C-2.65394768 5.35881313 -1.31770808 2.68642421 0 0 Z " fill="#D4BC41" transform="translate(123,206)"/>
<path d="M0 0 C1.45880109 0.14107747 2.91703551 0.28802415 4.375 0.4375 C5.59316406 0.55931641 5.59316406 0.55931641 6.8359375 0.68359375 C9 1 9 1 11 2 C11 2.66 11 3.32 11 4 C11.6290625 4.02578125 12.258125 4.0515625 12.90625 4.078125 C19.23015102 4.49717868 23.50558326 5.8457978 29 9 C29 9.66 29 10.32 29 11 C20.55924463 9.15919697 12.89729881 6.47297756 5 3 C3.33602285 2.32664848 1.67019682 1.65777261 0 1 C0 0.67 0 0.34 0 0 Z " fill="#D7BD3F" transform="translate(200,452)"/>
<path d="M0 0 C0.33 0 0.66 0 1 0 C1.33 6.6 1.66 13.2 2 20 C2.33 20 2.66 20 3 20 C2.03644647 35.74487472 2.03644647 35.74487472 1 43 C0.34 43 -0.32 43 -1 43 C-0.67 39.37 -0.34 35.74 0 32 C-0.33 32 -0.66 32 -1 32 C-0.67 21.44 -0.34 10.88 0 0 Z " fill="#535031" transform="translate(460,288)"/>
<path d="M0 0 C0.66 0 1.32 0 2 0 C2 5.61 2 11.22 2 17 C8.93 17 15.86 17 23 17 C23 17.33 23 17.66 23 18 C18.05 18.33 13.1 18.66 8 19 C8 19.33 8 19.66 8 20 C1.125 19.125 1.125 19.125 0 18 C-0.08631874 16.65732587 -0.10706473 15.31025678 -0.09765625 13.96484375 C-0.09443359 13.15595703 -0.09121094 12.34707031 -0.08789062 11.51367188 C-0.07951172 10.66353516 -0.07113281 9.81339844 -0.0625 8.9375 C-0.05798828 8.08349609 -0.05347656 7.22949219 -0.04882812 6.34960938 C-0.03700373 4.23304337 -0.01906769 2.11651315 0 0 Z " fill="#BEA22A" transform="translate(268,257)"/>
<path d="M0 0 C4.10411153 3.53802718 6.56465856 7.68537063 7.27124023 13.06518555 C7.36533403 15.23882701 7.36083296 17.38751665 7.3125 19.5625 C7.31572266 20.29146484 7.31894531 21.02042969 7.32226562 21.77148438 C7.27826677 26.21536885 6.6589753 29.81620971 5 34 C4.67 34 4.34 34 4 34 C4.02320313 32.82824219 4.04640625 31.65648437 4.0703125 30.44921875 C4.21713487 19.84525517 4.18328141 9.93089915 0 0 Z " fill="#C8AF38" transform="translate(305,207)"/>
<path d="M0 0 C3.15727934 1.34389771 4.72502636 2.59938304 6.578125 5.4765625 C7.01640625 6.146875 7.4546875 6.8171875 7.90625 7.5078125 C8.57140625 8.55582031 8.57140625 8.55582031 9.25 9.625 C9.70890625 10.33140625 10.1678125 11.0378125 10.640625 11.765625 C11.76885159 13.50497433 12.88556445 15.25178241 14 17 C13.67 17.66 13.34 18.32 13 19 C12.34 17.68 11.68 16.36 11 15 C10.01 15.33 9.02 15.66 8 16 C5.36 12.37 2.72 8.74 0 5 C0.66 4.67 1.32 4.34 2 4 C1.34 2.68 0.68 1.36 0 0 Z " fill="#39372C" transform="translate(425,188)"/>
<path d="M0 0 C1.65 0 3.3 0 5 0 C5.66 1.98 6.32 3.96 7 6 C8.65 6.33 10.3 6.66 12 7 C12 7.66 12 8.32 12 9 C14.30935087 11.62788203 15.63983107 12.87994369 19 14 C19.6875 16.0625 19.6875 16.0625 20 18 C11.86770134 14.4585151 5.47747693 6.7747741 0 0 Z " fill="#E2C33A" transform="translate(145,412)"/>
<path d="M0 0 C0.33 0 0.66 0 1 0 C2.14850697 4.73879768 2.32901557 9.46291362 2.5625 14.3125 C2.60568359 15.14845703 2.64886719 15.98441406 2.69335938 16.84570312 C2.79885307 18.89696935 2.89987315 20.9484648 3 23 C1.02 23.99 1.02 23.99 -1 25 C-1 26.65 -1 28.3 -1 30 C-1.66 30 -2.32 30 -3 30 C-2.68289063 28.74316406 -2.36578125 27.48632812 -2.0390625 26.19140625 C-0.83674773 20.7809898 -0.55957725 15.46328128 -0.375 9.9375 C-0.33632813 8.97650391 -0.29765625 8.01550781 -0.2578125 7.02539062 C-0.16461374 4.68377186 -0.07880815 2.34213963 0 0 Z " fill="#BC9B28" transform="translate(333,213)"/>
<path d="M0 0 C3.54971924 3.23382794 4.85769836 6.86918874 6.625 11.25 C6.93695313 11.98863281 7.24890625 12.72726563 7.5703125 13.48828125 C9.42716856 18.02637342 10.52213866 22.11806519 11 27 C9 26 9 26 8.0625 23.375 C7.711875 22.26125 7.36125 21.1475 7 20 C5.28940999 15.76071172 3.43186765 11.86888035 1 8 C-0.35439668 5.29120665 -0.06501451 2.99066732 0 0 Z " fill="#DFC03C" transform="translate(443,223)"/>
<path d="M0 0 C0 0.33 0 0.66 0 1 C-5.99523954 2.03010989 -11.9944499 3.03174613 -18 4 C-18.75651855 4.1222998 -19.51303711 4.24459961 -20.29248047 4.37060547 C-22.35987329 4.69820986 -24.42899542 5.00867383 -26.5 5.3125 C-28.30984375 5.58513672 -28.30984375 5.58513672 -30.15625 5.86328125 C-31.56390625 5.93095703 -31.56390625 5.93095703 -33 6 C-33.66 5.34 -34.32 4.68 -35 4 C-11.41761516 -0.77553612 -11.41761516 -0.77553612 0 0 Z " fill="#D0BB3D" transform="translate(269,122)"/>
<path d="M0 0 C0.66 0 1.32 0 2 0 C2 0.66 2 1.32 2 2 C2.99 2.33 3.98 2.66 5 3 C5 3.99 5 4.98 5 6 C5.66 6 6.32 6 7 6 C7 6.66 7 7.32 7 8 C8.32 8 9.64 8 11 8 C11 9.32 11 10.64 11 12 C11.66 12 12.32 12 13 12 C15.6120831 13.88069983 15.99468505 14.97535795 16.6875 18.1875 C16.790625 19.115625 16.89375 20.04375 17 21 C10.42258377 14.62812803 4.1919266 8.2091896 0 0 Z " fill="#DFC734" transform="translate(128,391)"/>
<path d="M0 0 C0.66 0 1.32 0 2 0 C1.56000509 6.04993006 0.45053415 11.79596749 -0.9375 17.6875 C-1.10733398 18.41187256 -1.27716797 19.13624512 -1.45214844 19.88256836 C-2.44349327 23.99948183 -3.59524737 27.99991963 -5 32 C-5.33 32 -5.66 32 -6 32 C-5.67 28.7 -5.34 25.4 -5 22 C-4.34 22 -3.68 22 -3 22 C-2.95101563 20.99839844 -2.90203125 19.99679687 -2.8515625 18.96484375 C-2.77645921 17.62237241 -2.70091474 16.2799257 -2.625 14.9375 C-2.52058594 12.97103516 -2.52058594 12.97103516 -2.4140625 10.96484375 C-2.00194564 7.01863043 -1.20243433 3.75882927 0 0 Z " fill="#D6C041" transform="translate(457,317)"/>
<path d="M0 0 C-0.99 0 -1.98 0 -3 0 C-3 1.32 -3 2.64 -3 4 C-4.546875 3.9690625 -4.546875 3.9690625 -6.125 3.9375 C-9.55152969 3.99276661 -12.64572414 4.34550715 -16 5 C-16 5.99 -16 6.98 -16 8 C-19.63 8.33 -23.26 8.66 -27 9 C-23.62962775 5.62962775 -19.02513736 4.49335247 -14.625 2.8125 C-13.18640625 2.24112305 -13.18640625 2.24112305 -11.71875 1.65820312 C-10.79320312 1.30306641 -9.86765625 0.94792969 -8.9140625 0.58203125 C-8.0679541 0.25436768 -7.2218457 -0.0732959 -6.35009766 -0.41088867 C-3.79658563 -1.05099095 -2.45277527 -0.86770374 0 0 Z " fill="#D0B93C" transform="translate(227,130)"/>
<path d="M0 0 C0.33 0 0.66 0 1 0 C1 2.31 1 4.62 1 7 C0.01 7.495 0.01 7.495 -1 8 C-1.144375 8.94875 -1.28875 9.8975 -1.4375 10.875 C-2.0542147 14.30119277 -2.41273394 14.87474573 -5 17 C-5.886875 17.886875 -6.77375 18.77375 -7.6875 19.6875 C-8.450625 20.450625 -9.21375 21.21375 -10 22 C-10.66 21.67 -11.32 21.34 -12 21 C-11.55269531 20.40574219 -11.10539062 19.81148438 -10.64453125 19.19921875 C-6.19412521 13.09770258 -2.87788859 6.97589584 0 0 Z " fill="#D0AD37" transform="translate(340,322)"/>
<path d="M0 0 C4.43852357 0.27726842 8.87550967 0.57426317 13.3125 0.875 C14.57513672 0.95363281 15.83777344 1.03226562 17.13867188 1.11328125 C18.34716797 1.19707031 19.55566406 1.28085937 20.80078125 1.3671875 C21.91622314 1.44050293 23.03166504 1.51381836 24.1809082 1.58935547 C27 2 27 2 30 4 C29 5 29 5 26.046875 5.1484375 C21.38562288 5.07939955 16.84489088 4.36359142 12.25 3.625 C11.40050781 3.49867188 10.55101562 3.37234375 9.67578125 3.2421875 C8.85980469 3.11328125 8.04382813 2.984375 7.203125 2.8515625 C6.46739258 2.73635254 5.73166016 2.62114258 4.97363281 2.50244141 C3 2 3 2 0 0 Z " fill="#CDB33F" transform="translate(234,464)"/>
<path d="M0 0 C0.33 0.66 0.66 1.32 1 2 C1.66 2.33 2.32 2.66 3 3 C-1.26587874 7.54109672 -6.03612328 11.24735246 -11 15 C-11 14.01 -11 13.02 -11 12 C-10.01 11.34 -9.02 10.68 -8 10 C-8 9.01 -8 8.02 -8 7 C-6.25 5.17578125 -6.25 5.17578125 -4 3.3125 C-3.2575 2.68988281 -2.515 2.06726563 -1.75 1.42578125 C-1.1725 0.95527344 -0.595 0.48476563 0 0 Z " fill="#3C352C" transform="translate(403,422)"/>
<path d="M0 0 C0.433125 0.66 0.86625 1.32 1.3125 2 C2.1478125 2.99 2.1478125 2.99 3 4 C3.99 4 4.98 4 6 4 C7.60546875 6.08203125 7.60546875 6.08203125 9.1875 8.8125 C9.71730469 9.70582031 10.24710938 10.59914063 10.79296875 11.51953125 C12 14 12 14 12 17 C10 17 10 17 8.6328125 15.71484375 C0 5.5388601 0 5.5388601 0 0 Z " fill="#4B483D" transform="translate(116,377)"/>
<path d="M0 0 C0.66 0 1.32 0 2 0 C3.39879348 3.49698371 4.11194695 6.38877059 4 10.125 C4 13.83709607 4.3477015 14.91570947 6 18 C5.625 20.25 5.625 20.25 5 22 C1.2350063 15.36643967 -2.03281838 7.59559839 0 0 Z " fill="#3D382C" transform="translate(102,338)"/>
<path d="M0 0 C0.69029297 -0.020625 1.38058594 -0.04125 2.09179688 -0.0625 C6.84503665 -0.09854352 9.99200042 0.82935862 14.0625 3.25 C13.0725 3.91 12.0825 4.57 11.0625 5.25 C11.0625 4.59 11.0625 3.93 11.0625 3.25 C2.1525 3.25 -6.7575 3.25 -15.9375 3.25 C-10.93188212 -0.08707859 -5.88328965 0.04370132 0 0 Z " fill="#D4B338" transform="translate(284.9375,198.75)"/>
<path d="M0 0 C3.2712384 0.15031083 5.25533835 0.71452715 8.16796875 2.1484375 C8.94011719 2.5196875 9.71226562 2.8909375 10.5078125 3.2734375 C11.07628906 3.5621875 11.64476562 3.8509375 12.23046875 4.1484375 C8.56076119 5.29572299 6.3690608 4.65371047 2.6875 3.63769531 C-2.39542147 2.62555554 -7.6088921 2.94658949 -12.76953125 3.0234375 C-14.50396484 3.03697266 -14.50396484 3.03697266 -16.2734375 3.05078125 C-19.10568772 3.07418828 -21.93749744 3.10697755 -24.76953125 3.1484375 C-21.81034898 1.17564932 -21.10804099 0.88485399 -17.78515625 0.734375 C-17.01429688 0.69570312 -16.2434375 0.65703125 -15.44921875 0.6171875 C-14.24652344 0.57078125 -14.24652344 0.57078125 -13.01953125 0.5234375 C-12.23320312 0.48476562 -11.446875 0.44609375 -10.63671875 0.40625 C-7.09227719 0.24139225 -3.54554397 0.13961728 0 0 Z " fill="#B4952A" transform="translate(294.76953125,179.8515625)"/>
<path d="M0 0 C2 0 2 0 4.4375 1.9375 C7.53330653 5.63736634 9.16601923 9.24290559 10 14 C9.70107856 15.34146743 9.37197871 16.67692754 9 18 C7.49480613 15.37785672 5.99568681 12.75255792 4.5 10.125 C3.85611328 9.00544922 3.85611328 9.00544922 3.19921875 7.86328125 C2.79316406 7.14785156 2.38710938 6.43242187 1.96875 5.6953125 C1.59169922 5.03547363 1.21464844 4.37563477 0.82617188 3.69580078 C0 2 0 2 0 0 Z " fill="#2E2418" transform="translate(434,203)"/>
<path d="M0 0 C3.64813364 3.5055778 6.76940717 7.1249963 9.8125 11.1875 C10.99779297 12.75564453 10.99779297 12.75564453 12.20703125 14.35546875 C14 17 14 17 14 19 C13.01 19 12.02 19 11 19 C10.8453125 18.0409375 10.8453125 18.0409375 10.6875 17.0625 C10.460625 16.381875 10.23375 15.70125 10 15 C9.01 14.67 8.02 14.34 7 14 C7 13.34 7 12.68 7 12 C6.34 12 5.68 12 5 12 C4.67 10.35 4.34 8.7 4 7 C3.01 6.67 2.02 6.34 1 6 C0.67 4.02 0.34 2.04 0 0 Z " fill="#E1C439" transform="translate(418,184)"/>
<path d="M0 0 C11.54529969 -0.67618892 21.33411467 2.93582319 32 7 C28.12035558 8.27027411 26.04869528 7.36846188 22.30078125 5.84130859 C18.15390545 4.32495312 13.83023426 3.62127195 9.5 2.8125 C8.5821875 2.63525391 7.664375 2.45800781 6.71875 2.27539062 C4.48028125 1.84401904 2.24080567 1.41903066 0 1 C0 0.67 0 0.34 0 0 Z " fill="#D4BE40" transform="translate(317,127)"/>
<path d="M0 0 C1.32 0.66 2.64 1.32 4 2 C2.13236819 7.72210596 0.14710968 13.37661751 -2 19 C-3.1171875 15.28125 -3.1171875 15.28125 -2.0625 12.75 C-1.711875 12.1725 -1.36125 11.595 -1 11 C-1.66 11 -2.32 11 -3 11 C-2.01 7.37 -1.02 3.74 0 0 Z " fill="#453E29" transform="translate(453,343)"/>
<path d="M0 0 C4.84688192 0.78175515 9.3766367 2.39844278 14 4 C14 4.99 14 5.98 14 7 C15.32 7.66 16.64 8.32 18 9 C17.67 9.66 17.34 10.32 17 11 C16.35933594 10.60167969 15.71867187 10.20335937 15.05859375 9.79296875 C10.14423182 6.78283052 5.36809475 4.10055882 0 2 C0 1.34 0 0.68 0 0 Z " fill="#2E281B" transform="translate(358,137)"/>
<path d="M0 0 C8.01701946 -0.41467342 15.21930149 1.14060121 23 3 C23 3.33 23 3.66 23 4 C15.10042938 4.27990605 7.7527507 3.51537186 0 2 C0 1.34 0 0.68 0 0 Z " fill="#1D1910" transform="translate(290,119)"/>
<path d="M0 0 C0.99 0 1.98 0 3 0 C3.16435547 0.93972656 3.16435547 0.93972656 3.33203125 1.8984375 C3.49058594 2.71570313 3.64914062 3.53296875 3.8125 4.375 C3.96332031 5.18710938 4.11414063 5.99921875 4.26953125 6.8359375 C4.87544942 9.35820641 4.87544942 9.35820641 8 11 C8.2487793 12.97119141 8.2487793 12.97119141 8.07421875 15.3515625 C8.01943359 16.20234375 7.96464844 17.053125 7.90820312 17.9296875 C7.83537109 18.81914062 7.76253906 19.70859375 7.6875 20.625 C7.62626953 21.5221875 7.56503906 22.419375 7.50195312 23.34375 C7.34843467 25.56386306 7.18056839 27.78194979 7 30 C6.67 30 6.34 30 6 30 C5.96132813 28.71029297 5.96132813 28.71029297 5.921875 27.39453125 C5.50480207 18.70235232 3.90238965 11.18715747 1 3 C0.67 2.01 0.34 1.02 0 0 Z " fill="#EBC733" transform="translate(329,202)"/>
<path d="M0 0 C7.26 0 14.52 0 22 0 C22 0.66 22 1.32 22 2 C23.65 1.67 25.3 1.34 27 1 C26.67 2.32 26.34 3.64 26 5 C21.25 4.125 21.25 4.125 19 3 C19 2.34 19 1.68 19 1 C12.73 1 6.46 1 0 1 C0 0.67 0 0.34 0 0 Z " fill="#F8CC36" transform="translate(229,403)"/>
<path d="M0 0 C5.65584123 -0.55178939 8.48585827 0.78801454 13 4 C14.4375 6.75 14.4375 6.75 15 9 C9.26800429 7.53025751 4.66416601 4.55513098 0 1 C0 0.67 0 0.34 0 0 Z " fill="#47443F" transform="translate(179,444)"/>
<path d="M0 0 C14.8961039 6.84415584 14.8961039 6.84415584 19 13 C17.68 12.67 16.36 12.34 15 12 C15 11.34 15 10.68 15 10 C11.37 9.01 7.74 8.02 4 7 C4 5.68 4 4.36 4 3 C2.68 2.67 1.36 2.34 0 2 C0 1.34 0 0.68 0 0 Z " fill="#DEC540" transform="translate(369,144)"/>
<path d="M0 0 C0.66 0 1.32 0 2 0 C1.59872233 4.41405442 -0.20339395 6.959012 -2.84375 10.3515625 C-4.196531 12.11311936 -4.196531 12.11311936 -5 15 C-5.99 15 -6.98 15 -8 15 C-7.60404157 13.51515588 -7.18249294 12.0371169 -6.75 10.5625 C-6.40195313 9.32693359 -6.40195313 9.32693359 -6.046875 8.06640625 C-5 6 -5 6 -2.890625 5.21484375 C-1.95476562 5.10849609 -1.95476562 5.10849609 -1 5 C-0.67 3.35 -0.34 1.7 0 0 Z " fill="#2D2214" transform="translate(126,197)"/>
<path d="M0 0 C-2.05962852 0.67548578 -4.12284322 1.34004312 -6.1875 2 C-7.33605469 2.37125 -8.48460937 2.7425 -9.66796875 3.125 C-12.64320812 3.90630553 -14.95283896 4.18363306 -18 4 C-18 3.01 -18 2.02 -18 1 C-15.75411164 0.44153043 -13.50306332 -0.09621983 -11.25 -0.625 C-9.99703125 -0.92664063 -8.7440625 -1.22828125 -7.453125 -1.5390625 C-3.99187436 -2.00108464 -2.79597098 -1.96282811 0 0 Z " fill="#2A2214" transform="translate(231,128)"/>
<path d="M0 0 C8.69613338 0 13.3996092 3.58397839 20 9 C19.67 9.66 19.34 10.32 19 11 C17.02 10.34 15.04 9.68 13 9 C13 7.68 13 6.36 13 5 C11.35 4.67 9.7 4.34 8 4 C8 3.34 8 2.68 8 2 C5.69 2 3.38 2 1 2 C0.67 1.34 0.34 0.68 0 0 Z " fill="#E3C23A" transform="translate(295,277)"/>
<path d="M0 0 C5.54110713 3.40991208 10.20968493 7.61420043 15 12 C13.68 12.33 12.36 12.66 11 13 C9 10 9 10 9 8 C7.35 8 5.7 8 4 8 C3.67 6.35 3.34 4.7 3 3 C2.01 2.67 1.02 2.34 0 2 C0 1.34 0 0.68 0 0 Z " fill="#DAC23E" transform="translate(389,157)"/>
<path d="M0 0 C4.13167661 1.4582388 7.5703189 3.25625512 11 6 C12.7290731 9.68367748 13.29743778 11.10768667 12 15 C11.63648438 14.40832031 11.27296875 13.81664062 10.8984375 13.20703125 C7.71247339 8.19934921 4.71292088 4.59079686 0 1 C0 0.67 0 0.34 0 0 Z " fill="#CDB336" transform="translate(325,271)"/>
<path d="M0 0 C-3.32908167 2.21938778 -6.68145864 3.42348225 -10.4375 4.6875 C-11.10587891 4.92533203 -11.77425781 5.16316406 -12.46289062 5.40820312 C-16.32368881 6.71299221 -17.928735 7.01781625 -22 6 C-19.03 5.34 -16.06 4.68 -13 4 C-13 3.34 -13 2.68 -13 2 C-8.46298506 0.54815522 -4.81938524 -0.23509196 0 0 Z " fill="#D9C245" transform="translate(349,456)"/>
<path d="M0 0 C3.85025879 0.60355408 6.86101159 1.76772603 10.3125 3.5625 C11.19550781 4.01753906 12.07851562 4.47257812 12.98828125 4.94140625 C13.65214844 5.29074219 14.31601563 5.64007813 15 6 C10.64855624 7.34339875 7.14877631 6.83215599 3 5 C1 2.375 1 2.375 0 0 Z " fill="#211D17" transform="translate(191,449)"/>
<path d="M0 0 C-1 3 -1 3 -3 4.0625 C-3.66 4.371875 -4.32 4.68125 -5 5 C-5.33 5.66 -5.66 6.32 -6 7 C-8.06640625 7.6328125 -8.06640625 7.6328125 -10.5625 8.125 C-11.38878906 8.29257812 -12.21507812 8.46015625 -13.06640625 8.6328125 C-13.70449219 8.75398438 -14.34257812 8.87515625 -15 9 C-15 8.34 -15 7.68 -15 7 C-12.87767021 5.82823482 -10.75242209 4.66245215 -8.625 3.5 C-7.72007812 2.99919922 -7.72007812 2.99919922 -6.796875 2.48828125 C-2.2265625 0 -2.2265625 0 0 0 Z " fill="#26200F" transform="translate(379,442)"/>
<path d="M0 0 C4.9335117 2.35406142 9.51978158 4.86384711 14 8 C13.01 8 12.02 8 11 8 C10.34 8.66 9.68 9.32 9 10 C5.34810059 8.07794768 3.63783943 6.77962946 2 3 C1.34 2.67 0.68 2.34 0 2 C0 1.34 0 0.68 0 0 Z " fill="#433F32" transform="translate(372,142)"/>
<path d="M0 0 C2.31 0.66 4.62 1.32 7 2 C7 2.66 7 3.32 7 4 C7.886875 4.226875 8.77375 4.45375 9.6875 4.6875 C13.43380532 6.17188513 15.33729434 8.02403485 18 11 C13.28501126 9.64780353 9.67370412 7.69161848 5.625 4.9375 C4.56539062 4.22464844 3.50578125 3.51179688 2.4140625 2.77734375 C1.61742187 2.19082031 0.82078125 1.60429687 0 1 C0 0.67 0 0.34 0 0 Z " fill="#D4BA40" transform="translate(176,438)"/>
<path d="M0 0 C5.35152885 0.32433508 8.28280043 3.49704824 12 7 C11.34 7.66 10.68 8.32 10 9 C5.21097855 6.56030983 2.37277818 5.02470674 0 0 Z " fill="#29241C" transform="translate(160,429)"/>
<path d="M0 0 C1.12377697 3.30435084 0.89554742 5.0506862 -0.4375 8.25 C-0.72496094 8.95640625 -1.01242188 9.6628125 -1.30859375 10.390625 C-1.53675781 10.92171875 -1.76492187 11.4528125 -2 12 C-2.99 12 -3.98 12 -5 12 C-4.10164835 4.21428571 -4.10164835 4.21428571 -2 1 C-1.34 0.67 -0.68 0.34 0 0 Z " fill="#332B22" transform="translate(112,223)"/>
<path d="M0 0 C0 0.66 0 1.32 0 2 C-0.99 2.33 -1.98 2.66 -3 3 C-3.268125 3.66 -3.53625 4.32 -3.8125 5 C-4.204375 5.66 -4.59625 6.32 -5 7 C-8 7.625 -8 7.625 -11 8 C-11.66 8.66 -12.32 9.32 -13 10 C-15.125 9.625 -15.125 9.625 -17 9 C-14.54481265 7.49462965 -12.0861548 5.99555574 -9.625 4.5 C-8.92632812 4.07074219 -8.22765625 3.64148438 -7.5078125 3.19921875 C-2.2265625 0 -2.2265625 0 0 0 Z " fill="#D5BC42" transform="translate(189,145)"/>
<path d="M0 0 C5.92013241 0.46737887 10.97466002 2.96208261 16 6 C16.33 6.66 16.66 7.32 17 8 C16.40832031 7.86722656 15.81664062 7.73445312 15.20703125 7.59765625 C11.14553475 6.68994822 7.08625829 5.7908887 3 5 C3.33 4.34 3.66 3.68 4 3 C2.68 2.01 1.36 1.02 0 0 Z " fill="#59564F" transform="translate(350,132)"/>
<path d="M0 0 C0.66 0.33 1.32 0.66 2 1 C0.92618483 2.77662117 -0.159458 4.54609689 -1.25 6.3125 C-1.85328125 7.29863281 -2.4565625 8.28476562 -3.078125 9.30078125 C-4.87840898 11.82922888 -6.41840585 13.326533 -9 15 C-9 14.01 -9 13.02 -9 12 C-8.34 12 -7.68 12 -7 12 C-7.33 10.35 -7.66 8.7 -8 7 C-7.34 7.33 -6.68 7.66 -6 8 C-5.67 7.34 -5.34 6.68 -5 6 C-4.34 6 -3.68 6 -3 6 C-3 5.01 -3 4.02 -3 3 C-1.5 1.3125 -1.5 1.3125 0 0 Z " fill="#DFC841" transform="translate(433,384)"/>
<path d="M0 0 C0.66 0.33 1.32 0.66 2 1 C1.01 2.485 1.01 2.485 0 4 C-0.226875 4.680625 -0.45375 5.36125 -0.6875 6.0625 C-2.74759437 9.10359169 -5.54943443 9.23320765 -9 10 C-8.34 8.68 -7.68 7.36 -7 6 C-6.34 6 -5.68 6 -5 6 C-4.67 5.01 -4.34 4.02 -4 3 C-1.9375 1.3125 -1.9375 1.3125 0 0 Z " fill="#56504D" transform="translate(161,158)"/>
<path d="M0 0 C0 0.66 0 1.32 0 2 C0.66 2.33 1.32 2.66 2 3 C-1.63 4.32 -5.26 5.64 -9 7 C-8.67 5.35 -8.34 3.7 -8 2 C-2.25 0 -2.25 0 0 0 Z " fill="#383225" transform="translate(213,130)"/>
<path d="M0 0 C5.4389165 -0.21755666 9.87080814 -0.10428384 15 2 C15 2.66 15 3.32 15 4 C11.04 4 7.08 4 3 4 C3.66 3.34 4.32 2.68 5 2 C3.35 1.67 1.7 1.34 0 1 C0 0.67 0 0.34 0 0 Z " fill="#433E32" transform="translate(304,120)"/>
<path d="M0 0 C0.99 0.33 1.98 0.66 3 1 C1.61198929 4.35435922 0.11371 6.11290303 -3 8 C-3.99 8 -4.98 8 -6 8 C-4.55746343 4.63408134 -2.66735273 2.48952921 0 0 Z " fill="#3D3630" transform="translate(410,416)"/>
<path d="M0 0 C0.66 0 1.32 0 2 0 C2.8394882 2.10171867 3.67139656 4.20646625 4.5 6.3125 C5.19609375 8.07013672 5.19609375 8.07013672 5.90625 9.86328125 C7 13 7 13 7 16 C6.34 16 5.68 16 5 16 C4.1605118 13.89828133 3.32860344 11.79353375 2.5 9.6875 C2.0359375 8.51574219 1.571875 7.34398437 1.09375 6.13671875 C0 3 0 3 0 0 Z " fill="#22170A" transform="translate(105,349)"/>
<path d="M0 0 C1.32 0 2.64 0 4 0 C6.29612756 9.41002278 6.29612756 9.41002278 6 14 C3.52813545 11.03653214 2.33751639 8.45958311 1.3125 4.75 C1.06113281 3.85796875 0.80976562 2.9659375 0.55078125 2.046875 C0.36902344 1.37140625 0.18726562 0.6959375 0 0 Z " fill="#D5BB37" transform="translate(108,352)"/>
<path d="M0 0 C3.83508741 5.75263111 3.11884965 12.31800851 3 19 C0.47553588 14.28766698 -0.12607737 10.590499 -0.0625 5.25 C-0.05347656 4.26515625 -0.04445313 3.2803125 -0.03515625 2.265625 C-0.02355469 1.51796875 -0.01195313 0.7703125 0 0 Z " fill="#201208" transform="translate(97,309)"/>
<path d="M0 0 C0.66 0 1.32 0 2 0 C2.25287193 6.06892629 1.69832609 11.16200408 0 17 C-0.33 17 -0.66 17 -1 17 C-1.02709444 14.91673869 -1.04643873 12.83337559 -1.0625 10.75 C-1.07410156 9.58984375 -1.08570312 8.4296875 -1.09765625 7.234375 C-1.01782092 4.59022872 -0.78643778 2.50173909 0 0 Z " fill="#131006" transform="translate(98,264)"/>
<path d="M0 0 C-1.93108963 1.03290841 -3.870118 2.05098672 -5.8125 3.0625 C-6.89144531 3.63097656 -7.97039062 4.19945312 -9.08203125 4.78515625 C-12 6 -12 6 -15 5 C-13.68 4.34 -12.36 3.68 -11 3 C-11.33 2.34 -11.66 1.68 -12 1 C-10.56496445 0.63597631 -9.12683494 0.28413409 -7.6875 -0.0625 C-6.88699219 -0.25972656 -6.08648437 -0.45695312 -5.26171875 -0.66015625 C-3 -1 -3 -1 0 0 Z " fill="#67645B" transform="translate(372,450)"/>
<path d="M0 0 C3 0 3 0 4.7890625 1.6796875 C5.39492187 2.40414063 6.00078125 3.12859375 6.625 3.875 C7.54152344 4.95394531 7.54152344 4.95394531 8.4765625 6.0546875 C10 8 10 8 11 10 C10.01 10.33 9.02 10.66 8 11 C6.66072279 9.54712339 5.32873153 8.08752741 4 6.625 C3.2575 5.81289063 2.515 5.00078125 1.75 4.1640625 C0 2 0 2 0 0 Z " fill="#251E09" transform="translate(138,407)"/>
<path d="M0 0 C1.32 0.33 2.64 0.66 4 1 C-0.84060277 4.06242216 -4.29290936 5.53411505 -10 6 C-10 5.01 -10 4.02 -10 3 C-6.7 2.67 -3.4 2.34 0 2 C0 1.34 0 0.68 0 0 Z " fill="#DBBC3E" transform="translate(298,249)"/>
<path d="M0 0 C1.30211046 3.90633137 0.47812346 6.19538173 -0.4375 10.1875 C-0.72496094 11.45980469 -1.01242188 12.73210937 -1.30859375 14.04296875 C-1.53675781 15.01878906 -1.76492187 15.99460938 -2 17 C-2.33 17 -2.66 17 -3 17 C-3.11083416 11.56912592 -3.11115605 6.33354906 -2 1 C-1.34 0.67 -0.68 0.34 0 0 Z " fill="#DFBB39" transform="translate(231,216)"/>
<path d="M0 0 C0.99 0.33 1.98 0.66 3 1 C1.14285714 8.57142857 1.14285714 8.57142857 -2 11 C-2 2 -2 2 0 0 Z " fill="#E5C22E" transform="translate(236,198)"/>
<path d="M0 0 C0 0.99 0 1.98 0 3 C-5.41538462 6.07692308 -5.41538462 6.07692308 -8.375 5.6875 C-8.91125 5.460625 -9.4475 5.23375 -10 5 C-7.31084421 0.96626631 -4.80874906 0 0 0 Z " fill="#29261B" transform="translate(204,134)"/>
<path d="M0 0 C6.7685324 -0.10152799 13.30324864 -0.03026944 20 1 C20 1.33 20 1.66 20 2 C16.09975303 2.66387182 12.26910923 3.11898645 8.3125 3.25 C7.22388672 3.28867188 7.22388672 3.28867188 6.11328125 3.328125 C3.4238108 2.91053624 2.03965501 1.74959121 0 0 Z " fill="#3E3D25" transform="translate(257,119)"/>
<path d="M0 0 C5.61 0 11.22 0 17 0 C16.67 0.99 16.34 1.98 16 3 C13.89521396 2.88590318 11.79115423 2.75834639 9.6875 2.625 C8.51574219 2.55539062 7.34398437 2.48578125 6.13671875 2.4140625 C3 2 3 2 0 0 Z " fill="#F2CE32" transform="translate(229,462)"/>
<path d="M0 0 C0 0.33 0 0.66 0 1 C-1.91731918 0.88544319 -3.8338675 0.75793742 -5.75 0.625 C-6.81734375 0.55539063 -7.8846875 0.48578125 -8.984375 0.4140625 C-11.80206432 0.0271777 -13.5830366 -0.55686166 -16 -2 C-10.12752736 -3.55447805 -5.47340424 -2.41473716 0 0 Z " fill="#312411" transform="translate(330,126)"/>
<path d="M0 0 C0.66 0 1.32 0 2 0 C2.71484375 1.734375 2.71484375 1.734375 3 4 C1.56640625 6.140625 1.56640625 6.140625 -0.4375 8.25 C-1.09621094 8.95640625 -1.75492187 9.6628125 -2.43359375 10.390625 C-2.95050781 10.92171875 -3.46742188 11.4528125 -4 12 C-4.33 10.68 -4.66 9.36 -5 8 C-4.34 8 -3.68 8 -3 8 C-3 7.01 -3 6.02 -3 5 C-2.01 5 -1.02 5 0 5 C0 3.35 0 1.7 0 0 Z " fill="#E0C338" transform="translate(418,401)"/>
<path d="M0 0 C1.32 0.66 2.64 1.32 4 2 C3.21448343 3.31618998 2.4213763 4.62785228 1.625 5.9375 C1.18414062 6.66839844 0.74328125 7.39929688 0.2890625 8.15234375 C-1 10 -1 10 -3 11 C-3 7 -3 7 -1 5 C-1 4.01 -1 3.02 -1 2 C-0.67 1.34 -0.34 0.68 0 0 Z " fill="#545447" transform="translate(436,382)"/>
<path d="M0 0 C6.625 0.75 6.625 0.75 10 3 C9 4 9 4 5.5625 4.125 C2 4 2 4 0 3 C0 2.01 0 1.02 0 0 Z " fill="#312C21" transform="translate(213,459)"/>
<path d="M0 0 C2.97 0.495 2.97 0.495 6 1 C6.33 2.32 6.66 3.64 7 5 C8.32 5 9.64 5 11 5 C11 5.99 11 6.98 11 8 C6.40378078 6.5129879 3.53027653 4.20187872 0 1 C0 0.67 0 0.34 0 0 Z " fill="#D4B943" transform="translate(165,430)"/>
<path d="M0 0 C4.875 1.75 4.875 1.75 6 4 C6.99 4.33 7.98 4.66 9 5 C9.6875 7.0625 9.6875 7.0625 10 9 C6.04322598 7.32598022 3.15535787 4.86850715 0 2 C0 1.34 0 0.68 0 0 Z " fill="#D3BD41" transform="translate(155,421)"/>
<path d="M0 0 C0 3.80303354 -0.53793105 5.09028215 -3 8 C-5.95242463 9.02601991 -8.9096335 9.56592336 -12 10 C-9.28159688 7.15214911 -6.2750467 5.18336447 -3 3 C-1.20605554 1.37648891 -1.20605554 1.37648891 0 0 Z " fill="#C2A032" transform="translate(324,251)"/>
<path d="M0 0 C4.37837838 5.83783784 4.37837838 5.83783784 6 9 C5.67 9.99 5.34 10.98 5 12 C4.67 11.34 4.34 10.68 4 10 C3.01 10 2.02 10 1 10 C0.67 6.7 0.34 3.4 0 0 Z " fill="#D6BC3E" transform="translate(437,210)"/>
<path d="M0 0 C2.52588702 2.36292656 3.88820837 3.66462511 5 7 C4 8 4 8 1.4375 8.0625 C0.633125 8.041875 -0.17125 8.02125 -1 8 C-0.67 5.36 -0.34 2.72 0 0 Z " fill="#E2C937" transform="translate(432,203)"/>
<path d="M0 0 C4.875 4.625 4.875 4.625 6 8 C2.66666667 6.66666667 -0.66666667 5.33333333 -4 4 C-2.68 3.34 -1.36 2.68 0 2 C0 1.34 0 0.68 0 0 Z " fill="#D7B72B" transform="translate(311,182)"/>
<path d="M0 0 C-3.63 0.66 -7.26 1.32 -11 2 C-11 0.68 -11 -0.64 -11 -2 C-6.3657546 -3.48957888 -4.01235915 -2.6749061 0 0 Z " fill="#574E3A" transform="translate(325,468)"/>
<path d="M0 0 C1.32 0.33 2.64 0.66 4 1 C4 2.65 4 4.3 4 6 C4.66 6 5.32 6 6 6 C6 6.99 6 7.98 6 9 C6.66 9 7.32 9 8 9 C7.67 10.32 7.34 11.64 7 13 C5.82786955 11.21190303 4.66244474 9.41940875 3.5 7.625 C2.8503125 6.62726563 2.200625 5.62953125 1.53125 4.6015625 C0 2 0 2 0 0 Z " fill="#D3BB45" transform="translate(120,378)"/>
<path d="M0 0 C1 4 1 4 -0.6875 7.1875 C-3 10 -3 10 -7 11 C-4.69 7.37 -2.38 3.74 0 0 Z " fill="#BEA330" transform="translate(335,333)"/>
<path d="M0 0 C2.6015625 -0.29296875 2.6015625 -0.29296875 5.625 -0.1875 C7.12933594 -0.14689453 7.12933594 -0.14689453 8.6640625 -0.10546875 C9.43492187 -0.07066406 10.20578125 -0.03585937 11 0 C10 2 10 2 8.4375 2.625 C4.93601819 3.16368951 1.54193167 3.05903219 -2 3 C-1.34 2.01 -0.68 1.02 0 0 Z " fill="#2E2C1F" transform="translate(295,469)"/>
<path d="M0 0 C0.66 0 1.32 0 2 0 C1.74337755 1.44010481 1.46909179 2.8770687 1.1875 4.3125 C1.03667969 5.11300781 0.88585937 5.91351563 0.73046875 6.73828125 C-0.07572236 9.23445587 -1.02052002 10.32422106 -3 12 C-3.34833144 7.12335991 -2.41685712 4.22949995 0 0 Z " fill="#241F0F" transform="translate(450,354)"/>
<path d="M0 0 C-1.50223584 4.20626034 -4.28550034 5.73900021 -8 8 C-8.66 7.67 -9.32 7.34 -10 7 C-8.71372289 5.82739389 -7.42080217 4.6620717 -6.125 3.5 C-5.04605469 2.52546875 -5.04605469 2.52546875 -3.9453125 1.53125 C-2 0 -2 0 0 0 Z " fill="#302205" transform="translate(253,189)"/>
<path d="M0 0 C1.32 0.33 2.64 0.66 4 1 C2.71283353 2.00578589 1.42011342 3.00446798 0.125 4 C-0.95394531 4.8353125 -0.95394531 4.8353125 -2.0546875 5.6875 C-4 7 -4 7 -6 7 C-5.34 5.35 -4.68 3.7 -4 2 C-2.68 2.33 -1.36 2.66 0 3 C0 2.01 0 1.02 0 0 Z " fill="#D9BD42" transform="translate(384,434)"/>
<path d="M0 0 C0.33 0.66 0.66 1.32 1 2 C2.65 1.34 4.3 0.68 6 0 C2.56638098 3.63559661 -0.7973607 6.36113346 -5 9 C-4 6 -4 6 -1 4 C-1 3.01 -1 2.02 -1 1 C-0.67 0.67 -0.34 0.34 0 0 Z " fill="#56514B" transform="translate(396,428)"/>
<path d="M0 0 C3.3 1.98 6.6 3.96 10 6 C5.59232396 7.10191901 4.1077065 6.58706842 0 5 C0 3.35 0 1.7 0 0 Z " fill="#E6BF31" transform="translate(259,347)"/>
<path d="M0 0 C0.8125 1.6875 0.8125 1.6875 1 4 C-1.3125 6.5625 -1.3125 6.5625 -4 9 C-4.99 10.485 -4.99 10.485 -6 12 C-6.66 12 -7.32 12 -8 12 C-8 11.34 -8 10.68 -8 10 C-7.34 10 -6.68 10 -6 10 C-5.7525 9.278125 -5.505 8.55625 -5.25 7.8125 C-3.89016326 4.75286734 -2.17082246 2.5326262 0 0 Z " fill="#D4BA3C" transform="translate(137,187)"/>
<path d="M0 0 C0.33 0.99 0.66 1.98 1 3 C-0.21484375 5.04296875 -0.21484375 5.04296875 -1.9375 7.1875 C-2.50339844 7.90292969 -3.06929687 8.61835938 -3.65234375 9.35546875 C-4.09707031 9.89816406 -4.54179687 10.44085938 -5 11 C-5.66 10.01 -6.32 9.02 -7 8 C-4.69 5.36 -2.38 2.72 0 0 Z " fill="#281A0B" transform="translate(137,184)"/>
<path d="M0 0 C2.64 0 5.28 0 8 0 C4.99049877 1.61725534 2.02896392 2.67582623 -1.25 3.625 C-2.58804687 4.01558594 -2.58804687 4.01558594 -3.953125 4.4140625 C-4.62859375 4.60742188 -5.3040625 4.80078125 -6 5 C-6 4.01 -6 3.02 -6 2 C-4.02 2 -2.04 2 0 2 C0 1.34 0 0.68 0 0 Z " fill="#C9B333" transform="translate(262,182)"/>
<path d="M0 0 C0.66 0.33 1.32 0.66 2 1 C-1.08632611 4.2626876 -3.93483504 7.02235218 -8 9 C-8.66 8.67 -9.32 8.34 -10 8 C-6.7 5.36 -3.4 2.72 0 0 Z " fill="#D7BC39" transform="translate(170,156)"/>
<path d="M0 0 C1.98 0.99 1.98 0.99 4 2 C4 2.66 4 3.32 4 4 C4.804375 4.28875 5.60875 4.5775 6.4375 4.875 C9 6 9 6 10 8 C5.61999924 7.49942848 3.15830185 6.06806466 0 3 C0 2.01 0 1.02 0 0 Z " fill="#221B0C" transform="translate(382,149)"/>
<path d="M0 0 C0.66 0 1.32 0 2 0 C2 2.97 2 5.94 2 9 C1.01 9.33 0.02 9.66 -1 10 C-0.67 6.7 -0.34 3.4 0 0 Z " fill="#2D2516" transform="translate(455,336)"/>
<path d="M0 0 C0.99 0.33 1.98 0.66 3 1 C3.66 4.3 4.32 7.6 5 11 C4.01 11.495 4.01 11.495 3 12 C2.49166409 10.75336669 1.99368855 9.50250613 1.5 8.25 C1.2215625 7.55390625 0.943125 6.8578125 0.65625 6.140625 C0 4 0 4 0 0 Z " fill="#1B110B" transform="translate(450,234)"/>
<path d="M0 0 C1.37432457 3.81756824 0.67975039 7.07255329 0 11 C-0.66 11 -1.32 11 -2 11 C-2.33 11.66 -2.66 12.32 -3 13 C-2.67 9.7 -2.34 6.4 -2 3 C-1.34 3 -0.68 3 0 3 C0 2.01 0 1.02 0 0 Z " fill="#D2B536" transform="translate(255,215)"/>
<path d="M0 0 C3.08089673 2.77280706 4.68775452 5.06326356 6 9 C5.01 8.34 4.02 7.68 3 7 C3 6.34 3 5.68 3 5 C2.01 5.33 1.02 5.66 0 6 C-0.66 4.68 -1.32 3.36 -2 2 C-1.34 2 -0.68 2 0 2 C0 1.34 0 0.68 0 0 Z " fill="#4F483F" transform="translate(433,198)"/>
<path d="M0 0 C1.32 0 2.64 0 4 0 C5.04625409 1.29735507 6.04701223 2.63266972 7 4 C7.99 4.33 8.98 4.66 10 5 C10.33 6.65 10.66 8.3 11 10 C7.19364503 6.79239749 3.45436433 3.59253891 0 0 Z " fill="#C9AE32" transform="translate(317,190)"/>
<path d="M0 0 C1.98 0 3.96 0 6 0 C2.80331012 2.6486859 -0.39486597 4.93992341 -4 7 C-4 5.68 -4 4.36 -4 3 C-2.68 3 -1.36 3 0 3 C0 2.01 0 1.02 0 0 Z " fill="#E6C23E" transform="translate(250,186)"/>
<path d="M0 0 C0.66 0 1.32 0 2 0 C2 0.66 2 1.32 2 2 C2.61875 2.226875 3.2375 2.45375 3.875 2.6875 C6.61410209 4.37929835 7.05024472 5.99244161 8 9 C4.20620942 7.50958227 2.31656242 5.30937488 0 2 C0 1.34 0 0.68 0 0 Z " fill="#21160A" transform="translate(419,183)"/>
<path d="M0 0 C1.9375 0.75 1.9375 0.75 4 2 C4.36162029 3.32594105 4.69728039 4.65938457 5 6 C5.99 6.33 6.98 6.66 8 7 C7.67 7.66 7.34 8.32 7 9 C6.01 8.34 5.02 7.68 4 7 C4 6.34 4 5.68 4 5 C3.01 5.33 2.02 5.66 1 6 C0.34 5.01 -0.32 4.02 -1 3 C-0.67 2.01 -0.34 1.02 0 0 Z " fill="#4E4642" transform="translate(417,178)"/>
<path d="M0 0 C3.1875 -0.3125 3.1875 -0.3125 6 0 C3.16569547 3.2542015 1.31392226 4.5206753 -3 5 C-1.875 2.5 -1.875 2.5 0 0 Z " fill="#2A2619" transform="translate(180,145)"/>
<path d="M0 0 C1.45880109 0.14107747 2.91703551 0.28802415 4.375 0.4375 C5.59316406 0.55931641 5.59316406 0.55931641 6.8359375 0.68359375 C9 1 9 1 11 2 C11 2.99 11 3.98 11 5 C9.53932801 4.54917531 8.08151968 4.08906463 6.625 3.625 C5.81289062 3.36976563 5.00078125 3.11453125 4.1640625 2.8515625 C2 2 2 2 0 0 Z " fill="#C8B33C" transform="translate(200,452)"/>
<path d="M0 0 C0.99 0.33 1.98 0.66 3 1 C1.35 4.3 -0.3 7.6 -2 11 C-3.28485596 5.86057616 -2.22194431 4.62164416 0 0 Z " fill="#1E0D01" transform="translate(335,327)"/>
<path d="M0 0 C0.33 0.99 0.66 1.98 1 3 C0.01 4.485 0.01 4.485 -1 6 C-1.66 6 -2.32 6 -3 6 C-3 6.66 -3 7.32 -3 8 C-4.32 8.33 -5.64 8.66 -7 9 C-6.02180976 7.68677212 -5.0424189 6.37443848 -4.0625 5.0625 C-3.51722656 4.33160156 -2.97195312 3.60070312 -2.41015625 2.84765625 C-1 1 -1 1 0 0 Z " fill="#DFC245" transform="translate(145,178)"/>
<path d="M0 0 C0.99 0 1.98 0 3 0 C2.4409112 3.24271506 1.5867822 4.93057424 -1 7 C-1.66 7 -2.32 7 -3 7 C-2.67 5.68 -2.34 4.36 -2 3 C-1.34 3 -0.68 3 0 3 C0 2.01 0 1.02 0 0 Z " fill="#FBCF30" transform="translate(418,396)"/>
<path d="M0 0 C2.57075841 3.01447835 3.52207066 5.35979771 4.1875 9.25 C4.34605469 10.14203125 4.50460937 11.0340625 4.66796875 11.953125 C4.83232422 12.96632812 4.83232422 12.96632812 5 14 C3 13 3 13 1.9375 10.375 C0.97754472 6.91916098 0.42694859 3.55790488 0 0 Z " fill="#C2AD43" transform="translate(449,236)"/>
<path d="M0 0 C0 3.51716303 -0.82445585 4.37121748 -3 7 C-4.32 6.67 -5.64 6.34 -7 6 C-4.69 4.02 -2.38 2.04 0 0 Z " fill="#DBC045" transform="translate(159,165)"/>
<path d="M0 0 C0.99 0.99 1.98 1.98 3 3 C2.34 3.66 1.68 4.32 1 5 C-1.625 4.625 -1.625 4.625 -4 4 C-4 3.34 -4 2.68 -4 2 C-2.68 1.34 -1.36 0.68 0 0 Z " fill="#FACD32" transform="translate(149,408)"/>
<path d="M0 0 C0.99 0 1.98 0 3 0 C3.33 0.66 3.66 1.32 4 2 C3.06553465 4.03144641 2.06775224 6.03533587 1 8 C0.01 7.01 -0.98 6.02 -2 5 C-1.34 3.35 -0.68 1.7 0 0 Z " fill="#514C40" transform="translate(442,371)"/>
<path d="M0 0 C0.33 0.66 0.66 1.32 1 2 C-0.32 2.33 -1.64 2.66 -3 3 C-3 3.66 -3 4.32 -3 5 C-5.64 5 -8.28 5 -11 5 C-7.41247258 3.13448574 -3.72187807 1.57464072 0 0 Z " fill="#B79B30" transform="translate(318,351)"/>
<path d="M0 0 C3.7910119 1.44950455 7.3874638 3.15172566 11 5 C7.71023192 6.09658936 6.28696233 5.79953138 3 5 C3 4.01 3 3.02 3 2 C2.01 2 1.02 2 0 2 C0 1.34 0 0.68 0 0 Z " fill="#2B1E04" transform="translate(308,186)"/>
<path d="M0 0 C0.66 0.33 1.32 0.66 2 1 C-3.29230769 5.92307692 -3.29230769 5.92307692 -6.875 6.3125 C-7.926875 6.1578125 -7.926875 6.1578125 -9 6 C-3.30379747 1.25316456 -3.30379747 1.25316456 0 0 Z " fill="#D0B846" transform="translate(198,139)"/>
<path d="M0 0 C0 0.99 0 1.98 0 3 C-0.66 3 -1.32 3 -2 3 C-2 4.98 -2 6.96 -2 9 C-2.99 9.495 -2.99 9.495 -4 10 C-4.6875 8.3125 -4.6875 8.3125 -5 6 C-2.73846154 1.36923077 -2.73846154 1.36923077 0 0 Z " fill="#332B1B" transform="translate(435,386)"/>
<path d="M0 0 C1.32 0 2.64 0 4 0 C2.25 7.75 2.25 7.75 0 10 C0.875 4.25 0.875 4.25 2 2 C1.34 2 0.68 2 0 2 C0 1.34 0 0.68 0 0 Z " fill="#51494B" transform="translate(450,352)"/>
<path d="M0 0 C2.64752004 2.57784846 4.94432065 4.91648098 7 8 C6.01 8.495 6.01 8.495 5 9 C4.67 8.34 4.34 7.68 4 7 C3.01 6.67 2.02 6.34 1 6 C0.67 4.02 0.34 2.04 0 0 Z " fill="#D1BA40" transform="translate(418,184)"/>
<path d="M0 0 C0.99 0.33 1.98 0.66 3 1 C1.93106782 2.03590338 0.84421512 3.05333942 -0.25 4.0625 C-1.15492188 4.91521484 -1.15492188 4.91521484 -2.078125 5.78515625 C-4 7 -4 7 -6.234375 6.68359375 C-6.81703125 6.45800781 -7.3996875 6.23242188 -8 6 C-6.7391988 4.96680187 -5.46596742 3.94875621 -4.1875 2.9375 C-3.47980469 2.36902344 -2.77210938 1.80054688 -2.04296875 1.21484375 C-1.36878906 0.81394531 -0.69460937 0.41304687 0 0 Z " fill="#F6D12F" transform="translate(200,139)"/>
<path d="M0 0 C1.27875 0.103125 2.5575 0.20625 3.875 0.3125 C4.95394531 0.39951172 4.95394531 0.39951172 6.0546875 0.48828125 C8 1 8 1 10 4 C8.51882199 3.71872579 7.04006751 3.42466268 5.5625 3.125 C4.73878906 2.96257812 3.91507812 2.80015625 3.06640625 2.6328125 C2.38449219 2.42398437 1.70257813 2.21515625 1 2 C0.67 1.34 0.34 0.68 0 0 Z " fill="#C5A837" transform="translate(268,335)"/>
<path d="M0 0 C0.33 0 0.66 0 1 0 C1.08131463 1.43655854 1.13933559 2.8744483 1.1875 4.3125 C1.23970703 5.51326172 1.23970703 5.51326172 1.29296875 6.73828125 C0.93801608 9.47851584 0.10633718 10.29171079 -2 12 C-1 3.42857143 -1 3.42857143 0 0 Z " fill="#CCB03B" transform="translate(103,253)"/>
<path d="M0 0 C0.33 0.66 0.66 1.32 1 2 C0 5 0 5 -2.0625 6.1875 C-2.701875 6.455625 -3.34125 6.72375 -4 7 C-3.67 5.02 -3.34 3.04 -3 1 C-2.01 0.67 -1.02 0.34 0 0 Z " fill="#D8C036" transform="translate(114,228)"/>
<path d="M0 0 C1.98 1.65 3.96 3.3 6 5 C3 6 3 6 0 5 C0 3.35 0 1.7 0 0 Z " fill="#CFB732" transform="translate(405,170)"/>
<path d="M0 0 C4.13126473 1.92151848 7.53258866 4.04250209 11 7 C8.03 6.505 8.03 6.505 5 6 C4.67 5.01 4.34 4.02 4 3 C1.98491642 2.26676204 1.98491642 2.26676204 0 2 C0 1.34 0 0.68 0 0 Z " fill="#C7B741" transform="translate(369,144)"/>
<path d="M0 0 C3.73487777 0.4979837 5.81237635 0.87491756 9 3 C6.21176345 4.0326802 5.1322726 4.04509293 2.25 3.0625 C1.5075 2.711875 0.765 2.36125 0 2 C0 1.34 0 0.68 0 0 Z " fill="#231C0A" transform="translate(346,132)"/>
<path d="M0 0 C-3.00617269 3.00617269 -5.82381598 2.59585316 -10 3 C-7.29536552 -0.8183075 -4.37912428 -0.24787496 0 0 Z " fill="#1A1608" transform="translate(330,464)"/>
<path d="M0 0 C1.32 0.33 2.64 0.66 4 1 C4.33 2.98 4.66 4.96 5 7 C3.29115995 5.37660195 1.62553283 3.70680947 0 2 C0 1.34 0 0.68 0 0 Z " fill="#E5C640" transform="translate(140,405)"/>
<path d="M0 0 C3.82946843 1.45255699 5.12050295 3.42895561 7 7 C4.20171644 6.61402985 3.1794116 6.19863427 1.25 4.0625 C0 2 0 2 0 0 Z " fill="#251708" transform="translate(131,398)"/>
<path d="M0 0 C0.66 0 1.32 0 2 0 C2 0.66 2 1.32 2 2 C2.99 2.33 3.98 2.66 5 3 C5 3.99 5 4.98 5 6 C5.66 6 6.32 6 7 6 C6.67 6.99 6.34 7.98 6 9 C4.99712471 7.68969568 3.99777175 6.37669473 3 5.0625 C2.443125 4.33160156 1.88625 3.60070312 1.3125 2.84765625 C0 1 0 1 0 0 Z " fill="#CEBB41" transform="translate(128,391)"/>
<path d="M0 0 C1.9375 0.6875 1.9375 0.6875 4 2 C4.75 4.625 4.75 4.625 5 7 C4.34 7 3.68 7 3 7 C0 2.61538462 0 2.61538462 0 0 Z " fill="#1F180D" transform="translate(123,387)"/>
<path d="M0 0 C0.33 1.98 0.66 3.96 1 6 C-3.875 3.25 -3.875 3.25 -5 1 C-2 0 -2 0 0 0 Z " fill="#312107" transform="translate(260,342)"/>
<path d="M0 0 C1.32 0 2.64 0 4 0 C3.1875 1.9375 3.1875 1.9375 2 4 C1.01 4.33 0.02 4.66 -1 5 C-0.67 3.35 -0.34 1.7 0 0 Z " fill="#DDB93A" transform="translate(308,329)"/>
<path d="M0 0 C2 0 2 0 4.625 2.5 C5.40875 3.325 6.1925 4.15 7 5 C6.67 5.99 6.34 6.98 6 8 C5.67 7.34 5.34 6.68 5 6 C4.01 6 3.02 6 2 6 C1.34 4.02 0.68 2.04 0 0 Z " fill="#383127" transform="translate(434,203)"/>
<path d="M0 0 C1.32 0.33 2.64 0.66 4 1 C2.625 2.5 2.625 2.5 1 4 C0.34 4 -0.32 4 -1 4 C-1.66 5.32 -2.32 6.64 -3 8 C-2.67 6.35 -2.34 4.7 -2 3 C-1.34 3 -0.68 3 0 3 C0 2.01 0 1.02 0 0 Z " fill="#2A1902" transform="translate(259,204)"/>
<path d="M0 0 C4.875 3.625 4.875 3.625 6 7 C4.68 7 3.36 7 2 7 C2 5.68 2 4.36 2 3 C1.34 3 0.68 3 0 3 C0 2.01 0 1.02 0 0 Z " fill="#D2B13E" transform="translate(411,176)"/>
<path d="M0 0 C-1.04874998 2.62187494 -1.64931313 3.79371361 -4.125 5.25 C-4.74375 5.4975 -5.3625 5.745 -6 6 C-6 5.01 -6 4.02 -6 3 C-2.66666667 0 -2.66666667 0 0 0 Z " fill="#25190A" transform="translate(167,157)"/>
<path d="M0 0 C3.96 1.98 3.96 1.98 8 4 C7.01 5.485 7.01 5.485 6 7 C5.34 7 4.68 7 4 7 C3.566875 6.0409375 3.566875 6.0409375 3.125 5.0625 C2.17176549 2.84793921 2.17176549 2.84793921 0 2 C0 1.34 0 0.68 0 0 Z " fill="#575553" transform="translate(372,142)"/>
<path d="M0 0 C-2.3125 1.5625 -2.3125 1.5625 -5 3 C-5.99 2.67 -6.98 2.34 -8 2 C-6.14210462 -1.71579076 -3.44525918 -1.06921837 0 0 Z " fill="#281D0B" transform="translate(362,453)"/>
<path d="M0 0 C0.99 0.33 1.98 0.66 3 1 C1.625 3.5 1.625 3.5 0 6 C-0.66 6 -1.32 6 -2 6 C-1.125 1.125 -1.125 1.125 0 0 Z " fill="#2F210C" transform="translate(426,397)"/>
<path d="M0 0 C0.99 0.495 0.99 0.495 2 1 C2 1.66 2 2.32 2 3 C2.66 3 3.32 3 4 3 C4.33 2.34 4.66 1.68 5 1 C5.33 2.98 5.66 4.96 6 7 C1.2 4.53846154 1.2 4.53846154 0.1875 1.8125 C0.125625 1.214375 0.06375 0.61625 0 0 Z " fill="#4C483C" transform="translate(124,391)"/>
<path d="M0 0 C-1.15173355 2.46800047 -2.04783565 4.04783565 -4 6 C-4.99 5.67 -5.98 5.34 -7 5 C-2.25 0 -2.25 0 0 0 Z " fill="#201406" transform="translate(156,166)"/>
<path d="M0 0 C0.5775 0.37125 1.155 0.7425 1.75 1.125 C-1.6519487 3.21850689 -4.30272412 3.30442163 -8.25 3.125 C-3.69 -1.435 -3.69 -1.435 0 0 Z " fill="#403F34" transform="translate(195.25,138.875)"/>
<path d="M0 0 C3.68754757 0.49831724 5.60490662 1.10067643 8 4 C2.25 3.125 2.25 3.125 0 2 C0 1.34 0 0.68 0 0 Z " fill="#241706" transform="translate(358,137)"/>
<path d="M0 0 C3.94727588 -0.17942163 6.5980513 -0.09350689 10 2 C10 2.66 10 3.32 10 4 C6.7 3.01 3.4 2.02 0 1 C0 0.67 0 0.34 0 0 Z " fill="#1D1606" transform="translate(333,128)"/>
</svg>
